<svg id="Layer_1" data-name="Layer 1" xmlns="http://www.w3.org/2000/svg" viewBox="0 0 778.38 181.62"><defs><style>.cls-1{fill:#7ebc6e;}.cls-2{fill:#ee5c6d;}.cls-3{fill:#00859a;}</style></defs><g id="svgg"><path id="path0" class="cls-1" d="M255.85,63.79c4,1.08,7.58,6.42,5.39,8-.75.52-.83.86-.61,2.45s.13,1.91-.55,2.34a1.92,1.92,0,0,0-.8,1.73c0,1.58-.64,2.21-2.26,2.21s-1.83,1.06-1.36,5.39,2.3,5.25,10.17,5.68c3.67.19,5.46.7,5.82,1.65s-.6,1.82-1.94,1.82a3.17,3.17,0,0,0-3,3.74c1,6.18.87,6.08,6.09,4.91,7.44-1.68,7.83-1.49,8.18,4.08.45,7.17-.79,9.48-5.1,9.48-4.07,0-3.11,2,2.65,5.42,11.1,6.68,5.59,24.16-6.39,20.25-9.21-3-12.29-13.36-5.84-19.58,2.53-2.43,2.13-6.09-.66-6.09-2.27,0-7.65,7.81-7.83,11.34-.14,2.86-.17,2.9-1.66,3-1,0-1.11.18-1,1.34.14,1.85-.85,2.27-4.54,1.93-2.83-.27-3-.24-3.45.67-1.91,3.72-6.55,5.88-11.39,5.31-1.77-.21-2-.12-3.53,1.24-3.12,2.82-6.72,1.67-7.17-2.29-.22-1.92.68-3.91,1.77-3.91.88,0,1-.87.58-3.6-.7-4.34.57-8.64,3.23-11,2.3-2,4.44-2.24,13.09-1.5,1.61.14,1.74-.82.6-4.64s-1.28-4.08-2.66-4.37c-8.07-1.73-10.75-9.81-6.37-19.24,1.42-3.07,6.94-9.39,8.22-9.42,3.47-.08,6-6.85,2.78-7.33-1.09-.16-1.75-2.21-1.37-4.24.66-3.52,7.41-7.67,10.92-6.72M253.62,93c-1.16,2.17,3.43,4.36,8.29,4,1.93-.16,2.59-1.92,1-2.75-3.05-1.64-8.69-2.36-9.31-1.21m-.16,5.89c-1.6.61-.29,2.07,3.74,4.19,3.5,1.84,3.86,3.57,1.5,7s-1.62,5,2.33,4.56c2.54-.3,2.68-.53,2.69-4.62a12,12,0,0,0-8.41-11l-1.15-.37a3.33,3.33,0,0,0-.7.22m6.61,1.38c1.82,1.55,4,2,4.73,1,1.06-1.46-.12-2.15-3.7-2.16h-2.43l1.4,1.19M246.94,111.2c-.6,1,.23,3.26,1.14,3.13,1.26-.19,2.25-2.06,1.54-2.92s-2.27-.86-2.68-.21m6.69,9.27c0,1.06.14,1.2,1.19,1.2,1.9,0,2.78-2.17,1.13-2.79a1.57,1.57,0,0,0-2.32,1.59M235,122.07c-3.26,0-6.83,9.72-4.67,12.67,1,1.33,4.74-2.19,4.74-4.43,0-1.2,1.33-2.43,3-2.76s4.51-2.29,4.51-3c0-1.13-4.27-3-6.06-2.6a9.09,9.09,0,0,1-1.48.17m33.39,2.78c-3.88,2.23-2.07,11,2.92,14.21,6.36,4,12.72-2.51,9.63-9.9-1-2.36-3.84-4.66-5.77-4.66-.41,0,.31,3.42,1,4.85.93,1.85.7,3.15-.6,3.48-1.55.39-3-1.13-2.19-2.37s.6-4.65-.21-5.89-2.59-1-4.8.28M242.11,128c-1.45,1-2.22,1.87-2.37,2.61s-.55,1.19-1.82,1.53a6,6,0,0,0-3.25,2.49c-2,2.52-2,2.66-.19,3,5.93,1.11,10.66-2.49,10.66-8.13,0-3.55-.06-3.58-3-1.51"/></g><path id="path0-2" data-name="path0" class="cls-1" d="M80.21,23.91c6.22,1.06,11,5.68,8.49,8.19a1.62,1.62,0,0,0-.59,1.51c1.75,4.57,0,8.91-3.66,9.14l-2,.13,0,2c.11,9.28,3.68,15.24,14.67,24.5,6.32,5.32,7,6.2,5.3,7.28-1.38.91-1.29,1.45.57,3.22,1.67,1.58,2,3.09,2.07,9.66,0,3.92,2.3,3.79,5.33-.3,3.83-5.19,4.56-8.74,2.23-10.93-1.78-1.68-1.78-2.51,0-5.23,3-4.61,7.62-5.59,12-2.53,2.91,2,4.36,6.38,2.22,6.69-1.11.15-1.45,1-.94,2.35.59,1.53.49,4-.2,4.89-1.43,1.88,1.17,5.89,3.82,5.89,2,0,12.69-12.73,12.69-15.06,0-.59.13-.62-3.25.78-3.08,1.27-3.68,1.27-3.68,0,0-2,3-4.11,5.9-4.11,2.49,0,2.63-.56,1-4-1.43-3.11-1.36-3.72.43-3.72,2.16,0,4,2.09,4.31,4.92.28,2.48.48,2.72,1.7,2,1.94-1.1,5.94-2.09,6.28-1.56,1.08,1.7-3.17,5.23-6.31,5.23-1.49,0-2,.58-1.46,1.63,1.79,3.37,2.34,6.12,1.25,6.12s-3.18-1.79-4-3.31-.94-1.56-3.14,1.65c-1.89,2.75-2.42,4.67-1.55,5.56.64.65-.64,1.88-2.72,2.6-2.34.8-3.66,1.52-3.35,1.82.58.58,6.58,1,13.5,1,7.54,0,7.6,0,7.83.93.52,2.1.81,28.42.32,29s-1.61.59-5.27.59c-7.57,0-6.82-.25-7.4,2.35a18.2,18.2,0,0,1-26.72,11.63c-4.45-2.55-7.43-7-8.59-12.78l-.23-1.12H96.48c-11.9,0-11.33-.18-9.51,3.07l1.09,2-1.14,1c-1.75,1.5-6.51.11-7.88-2.31a2,2,0,0,0-2.15-1.24,19.28,19.28,0,0,1-3.81-.62c-2.84-.74-2.9-.71-4.15,2.12-3.36,7.6-14.68,12.87-23.4,10.9C37,135.56,32.63,129,32.64,118c0-13.28,9.28-19.74,23.34-16.29l4.28,1,1-.95c2.33-2.18,3.18-4.34,3.18-8.14V90.1L62.4,87.91c-4.09-4.35-7.53-9.89-7.53-12.13,0-3.22,3.47-11.32,8.29-19.4,4.59-7.68,4.84-8.66,2.68-10.56-1.6-1.4-1.47-2.42.86-6.92,1.79-3.45,1.94-4.24,1-5.43s-.76-2.15.58-4.23C71.21,24.73,75,23,80.21,23.91M77.26,65c-3.94,4.48-3.63,9.19.62,9.54,2.58.21,3.31,1.58,3.31,6.18,0,3.73,0,3.75,1.59,5.78,3.76,4.81,4.6,8.5,2.89,12.65-1.34,3.26-1.31,3.47.51,3.48,1.33,0,9.27-1,11.79-1.47,1.25-.24,1.3-.53,1.62-9.09l.28-7.74L98,83c-2.49-1.75-3-3.09-2.35-5.76A4.09,4.09,0,0,0,95.82,75c-.2-.15-1.45-1.19-2.8-2.29s-3.64-3.22-5.1-4.7a17,17,0,0,0-4.08-3.21c-.79-.29-2-.75-2.64-1-1.62-.68-2.42-.42-3.94,1.32ZM69,89.76c.12,1.67.69,2.12,1.94,1.54,1.83-.83,1-3.08-1-2.85-.86.11-1,.32-.94,1.31m6.79,8.1c-1.38,1.55-2.28,5.61-1.24,5.61.6,0,3.06-2.52,4.11-4.21,1.3-2.1-1.18-3.31-2.87-1.4M67,104.14c-1,.9-1,1,.58,3.74a21.26,21.26,0,0,1,2.93,8.4c.55,3.22,1.33,3.89,2.49,2.12.72-1.11.38-2.69-2.08-9.63-2.06-5.78-2.31-6.09-3.92-4.63m-21.56,2.47c-5.38,2.44-7.55,6.49-7.27,13.52.64,16,21.73,17.69,26.44,2.14,1-3.42.85-3.56-4.74-3.83-4.26-.21-4.67-.16-6.41.76-2.86,1.53-5,1-6.2-1.66-1.66-3.5,1.47-6.67,5.47-5.52,1.55.44,2.44-.26,4.61-3.64,2-3.09,1.64-3.29-5.16-3.09-3.5.1-4.47.29-6.74,1.32m41.62.82c-6.24,2.95-9.2,10.67-4.12,10.75,12.34.18,17.44-.39,17.9-2a42.15,42.15,0,0,0-.12-9.37l-.23-1-5.39.18c-5,.17-5.59.28-8,1.43M59.78,110.3c-2.65,3-3.87,5-3.17,5.19,1.2.4,8.06,1.07,8.45.84,1.31-.82-1.3-8.38-2.9-8.38a14.64,14.64,0,0,0-2.38,2.35m67.33,12.53a3.37,3.37,0,0,0-1.39,1.22c-.77,2-4.27,1.89-6.14-.21-.9-1-1.4-1.21-3.21-1.26-4.23-.13-4.84.19-3.7,2,3.43,5.32,11.27,5.54,17,.47,2.58-2.27.67-3.87-2.6-2.18m8.31.12a12.13,12.13,0,0,0-1.61,2.47c-2.63,4.87-5.64,6.42-12.33,6.34-5.84-.06-5.82-.08-2.25,1.61,7.22,3.4,14,.79,17.82-6.91,1.62-3.23.74-5.12-1.63-3.51"/><path id="path0-3" data-name="path0" class="cls-2" d="M192,72.65c3.75,3.07,6.32,8.23,4.1,8.23-1.55,0-2.1,1.16-1.88,4,.23,3.05-.75,5.35-2.27,5.35-2.74,0-3.25,1.38-2.9,7.71.21,3.8,3,6.91,6.26,6.91,1.5,0,2,.2,2.67,1.05s1.38,1.14,4.58,1.62a13.42,13.42,0,0,1,4.35,1.16c.64.65.72.58-1.38,1.24-1.44.45-1.51,3.65-.2,8.81.63,2.45,1.59,3.44,3.69,3.79,6.87,1.17,12.8,10,10.17,15.14-.2.38-.6,1.21-.89,1.83a13.94,13.94,0,0,1-6,5.43c-7.37,3.26-13.93-1.95-14.15-11.22-.09-3.8-.27-4-2.33-3.06-4,1.9-5,7.76-1.5,8.53,1.48.33,3.26,2,3.26,3,0,.86-2.86,1.22-7.61.94l-2.12-.12-.11-4.51-.12-4.5L185,133.9c-3.24-.1-3.66,0-3.66,1.18,0,3.64-4.58,9-8.76,10.18-7.9,2.29-13-2.32-13-11.77,0-8.16,3.24-12.33,9.29-11.92,3.33.21,3.63.07,3.36-1.58a3.65,3.65,0,0,0-1.17-2.21c-2-1.49-.91-8.73,3-20.44.45-1.35,1-2.81,1.18-3.26s1-2.72,1.82-5.07l1.45-4.25-1.06-2.1a8,8,0,0,1-.67-6.3c1.43-3.67,12-6.27,15.17-3.71m-4.15,36.06c-.34,1.85.18,3.61,2,6.61a38.51,38.51,0,0,1,2.32,4.46c1.06,2.68,3.21,2.58,3.94-.18a3.66,3.66,0,0,1,1.64-2.54c2.77-1.56.78-6.27-2.39-5.68-1.09.2-1.78-.11-1.78-.8,0-1.2-1.31-2.51-2.86-2.88-2.1-.5-2.6-.33-2.85,1m12.23,9.93c-1.45.91-2.19,6.78-1,7.78.85.71,3.25-1.88,3.63-3.92.46-2.45-1.15-4.8-2.64-3.86m-16.8,6.94c-.38,1.45,1.41,3.11,2.71,2.52s1.34-1.17.18-2.41-2.6-1.24-2.89-.11m-18.42,1.85c-5.86,5.85-.63,17.49,6.73,15,3.23-1.1,6-4.33,6.2-7.31l.13-1.62-2.58.07c-1.69.05-2.82.29-3.28.71-1.45,1.31-4.1.41-4.1-1.39,0-.76,1-2,1.6-2,.17,0,.63-.78,1-1.73s.89-2.07,1.11-2.48c.45-.87.43-.92-.88-1.4-1.63-.6-4,.28-5.95,2.19m42.25-1.27c-.49,1.29,1.44,5.79,2.71,6.32a2.1,2.1,0,0,1-.89,4.05c-1.4,0-1.75-.55-1.81-2.84-.05-2-1.46-6.19-2.19-6.43s-2.77,1.88-3.56,3.55c-1.84,3.87.78,9.8,5.13,11.64,6.41,2.71,13.59-7.58,9.14-13.1-2.21-2.75-7.89-4.87-8.53-3.19m-33.4,1.34a9.92,9.92,0,0,0-.65,2l-.29,1.32h2.07c2.45,0,2.73-.77,1-2.82-1.21-1.43-1.61-1.53-2.14-.53"/><polygon class="cls-3" points="302.89 88.83 315.25 88.05 316.71 105.88 329.34 87.08 344.66 85.98 330.15 108.24 349.44 134.21 334.46 135.11 321.44 117.69 317.85 122.49 318.42 136.25 305.97 137.31 302.89 88.83"/><polygon class="cls-3" points="348.41 85.83 360.5 84.94 363.78 132.98 351.39 133.76 348.41 85.83"/><polygon class="cls-3" points="410.34 81.33 422.43 80.43 425.7 128.48 413.31 129.26 410.34 81.33"/><polygon class="cls-3" points="516.17 74.2 528.26 73.3 530.8 110.54 551.59 109.27 552.22 120.26 519.14 122.13 516.17 74.2"/><path class="cls-3" d="M407.64,105.87c-.4-3.72-.5-10.87-6.74-16.25s-11.13-5.87-15.44-6c-4.91-.13-19.59,1.47-19.59,1.47L369.08,133s17.42-.56,23.14-1.56a19.38,19.38,0,0,0,11.53-6.83C408,119.42,408.1,110.21,407.64,105.87Zm-14.46,10.21a6.51,6.51,0,0,1-4.53,3.16,74.22,74.22,0,0,1-8.44.89l-1.36-24.6a53.93,53.93,0,0,1,7.56-.32A8.43,8.43,0,0,1,393,99.38a18.59,18.59,0,0,1,2,7.18A17.58,17.58,0,0,1,393.18,116.08Z"/><path class="cls-3" d="M496,75.62l-13.16.76L470,125.56l12.87-.76,2-7.61,15.46-1,3.12,7.23,13.17-1Zm-8.91,31.24,3.7-14.4,5.48,14Z"/><path class="cls-3" d="M458.3,109.16l13.18-.62C470.2,119,464,127,451.15,127.75c-15.66.91-23-9.51-23.93-23.16s6.64-25.42,20.48-26.27c12.84-.78,20.34,6.31,22.95,16.82l-13.37.68c-1.42-3.94-4.08-6.48-8.75-6.2-6.61.4-8.49,6.65-8,14.13s3.28,13.38,9.86,13C455.25,116.42,457.52,113.42,458.3,109.16Z"/><path class="cls-3" d="M635.91,92,622.72,92l-16.1,48.74H620l2.65-7.89,15.48-.2,2.54,8.4h13.43Zm-10.49,30.74,4.42-14.19,4.77,14.26Z"/><polygon class="cls-3" points="554.68 140.3 554.75 92.08 566.81 92.15 579.43 115.55 592.55 91.87 604.53 91.87 604.74 140.79 592.12 140.65 592.26 116.62 581.7 136.33 577.66 136.33 567.23 117.04 567.3 140.37 554.68 140.3"/><path class="cls-3" d="M682.8,106.26l7.41-8s-5.61-6.4-17.5-6.67-18.22,7.68-18.29,14.82,4.74,14.62,16.89,15.49c3.41.33,6.88.73,7.08,4.4,0,0,.13,4-6.21,3.68A19.58,19.58,0,0,1,660.43,125l-8,8.75s8.14,7.94,19.49,7.68,19.56-6.21,19.43-15.63S686.27,110.6,674,110.2c-2.87-.47-8-.94-7.61-4.47.37-3.26,5.88-3.28,6.88-3.28A18.94,18.94,0,0,1,682.8,106.26Z"/><path class="cls-3" d="M721.5,106.26l7.41-8s-5.61-6.4-17.49-6.67-18.23,7.68-18.29,14.82S697.87,121.08,710,122c3.4.33,6.87.73,7.07,4.4,0,0,.14,4-6.2,3.68A19.58,19.58,0,0,1,699.14,125l-8,8.75s8.14,7.94,19.49,7.68,19.56-6.21,19.43-15.63S725,110.6,712.69,110.2c-2.87-.47-8-.94-7.61-4.47.37-3.26,5.87-3.28,6.87-3.28A18.89,18.89,0,0,1,721.5,106.26Z"/></svg>