<?xml version="1.0" standalone="no"?>
<!DOCTYPE svg PUBLIC "-//W3C//DTD SVG 20010904//EN"
 "http://www.w3.org/TR/2001/REC-SVG-20010904/DTD/svg10.dtd">
<svg version="1.0" xmlns="http://www.w3.org/2000/svg"
 width="512.000000pt" height="512.000000pt" viewBox="0 0 512.000000 512.000000"
 preserveAspectRatio="xMidYMid meet">

<g transform="translate(0.000000,512.000000) scale(0.100000,-0.100000)"
fill="#000000" stroke="none">
<path d="M1456 4891 c-16 -11 -38 -34 -50 -53 -20 -31 -21 -48 -24 -350 l-3
-318 -59 -31 c-79 -42 -163 -131 -203 -216 -27 -58 -32 -82 -35 -163 -3 -78 0
-107 18 -160 67 -199 233 -320 440 -320 132 0 239 48 332 148 133 144 161 332
77 508 -37 78 -126 169 -202 208 l-57 28 0 312 c0 347 -2 359 -69 403 -44 30
-123 31 -165 4z m152 -1020 c43 -22 82 -84 82 -130 0 -46 -23 -93 -59 -124
-27 -22 -42 -27 -89 -27 -99 0 -154 54 -154 152 0 112 118 181 220 129z"/>
<path d="M3502 4890 c-19 -12 -41 -38 -52 -63 -18 -38 -20 -68 -20 -350 0
-284 -1 -308 -17 -314 -35 -13 -121 -72 -157 -108 -178 -178 -171 -477 14
-649 99 -91 186 -126 315 -126 375 0 592 427 369 725 -44 59 -116 119 -178
149 l-36 17 0 307 c0 281 -2 311 -20 349 -25 55 -70 83 -135 83 -33 0 -62 -7
-83 -20z m166 -1027 c92 -69 93 -190 3 -250 -64 -43 -166 -26 -209 35 -57 80
-24 193 68 231 35 15 108 7 138 -16z"/>
<path d="M710 4595 c-166 -34 -315 -146 -390 -294 -64 -129 -60 8 -60 -1889 0
-1905 -4 -1779 63 -1907 42 -79 155 -192 233 -233 139 -72 -16 -67 1999 -67
1492 0 1820 2 1865 14 205 50 372 212 425 411 13 47 15 297 15 1767 0 1204 -3
1728 -11 1765 -21 101 -75 196 -158 278 -142 140 -252 173 -559 168 l-189 -3
-36 -28 c-90 -69 -90 -175 0 -244 l36 -28 211 -5 c239 -6 272 -14 335 -85 68
-77 66 -62 69 -572 l3 -463 -2000 0 -2001 0 0 443 c0 498 2 516 67 588 70 78
91 83 328 89 186 4 214 7 244 25 99 59 107 181 15 251 l-37 29 -201 2 c-135 1
-222 -3 -266 -12z m3848 -2807 l-3 -1083 -23 -47 c-30 -61 -93 -114 -156 -133
-75 -23 -3557 -23 -3632 0 -63 19 -126 72 -156 133 l-23 47 -3 1083 -2 1082
2000 0 2000 0 -2 -1082z"/>
<path d="M1891 4596 c-19 -7 -49 -29 -65 -50 -26 -32 -31 -46 -30 -91 0 -42 6
-60 28 -90 52 -67 28 -65 728 -65 403 0 646 4 670 10 47 13 95 70 103 122 10
59 -27 126 -85 156 l-44 22 -636 -1 c-480 0 -643 -4 -669 -13z"/>
</g>
</svg>
