<svg xmlns="http://www.w3.org/2000/svg" width="682.667" height="682.667" version="1.0"
  viewBox="0 0 512 512" fill='white'>
  <path
    d="M232.3 1C172.5 6.8 117.7 32.6 75.2 75c-39.7 39.7-64 88.2-72.9 146-2.4 16.1-2.4 53.9 0 70 8.9 57.7 33 105.9 72.7 145.8 39.7 39.7 88.2 64 146 72.9 16.1 2.4 53.9 2.4 70 0 57.7-8.9 105.9-33 145.8-72.7 39.7-39.7 64-88.2 72.9-146 2.4-16.1 2.4-53.9 0-70-8.9-57.7-33-105.9-72.7-145.8-39.4-39.5-88.5-64.1-145-72.7C279.5.6 245.2-.2 232.3 1m8.7 81.6v51.7l-10.7-.7c-23.7-1.5-63.3-7.6-63.3-9.8 0-6.2 15.1-53.8 24.4-76.8l3.4-8.5 8.7-2.2c10.5-2.7 25-5 32.3-5.2l5.2-.1zm48.6-50c5.8.9 14.5 2.5 19.1 3.7l8.5 2.2 3.4 8.5c9.3 23 24.4 70.6 24.4 76.8 0 2.2-39.6 8.3-63.2 9.8l-10.8.7V31h4c2.2 0 8.7.7 14.6 1.6M151.4 69.2c-3 9-7.3 23.3-9.6 31.8s-4.2 15.6-4.3 15.7c-.7 1.1-44.5-15.5-44.5-16.8 0-2.2 23.8-22.4 36.5-31 6.2-4.2 26.2-15.9 27.2-15.9.1 0-2.3 7.3-5.3 16.2m230.1-.9c14.5 9.7 38.9 30.6 37.4 32.1-1.6 1.5-43.9 17.1-44.4 16.3-.1-.1-2-7.2-4.3-15.7s-6.6-22.8-9.6-31.8l-5.5-16.3 8.7 4.7c4.8 2.6 12.7 7.4 17.7 10.7m-266 72.9c8.3 2.8 15.1 5.2 15.3 5.3.2.2-.4 4.4-1.3 9.5-2.7 15.8-5.3 37.8-6.5 55.5-.6 9.3-1.4 19.8-1.6 23.2l-.6 6.3H31v-3.6c0-11.2 5.6-38.4 11.5-55.4 4.6-13.4 16.6-38 24-49.1l5.7-8.6 14.1 6c7.8 3.2 21 8.2 29.2 10.9m334.7-.8c10.9 18.5 20.7 42.5 25.3 62.1 2.6 11.1 5.5 29.3 5.5 34.9v3.6h-89.8l-.6-6.3c-.2-3.4-1-13.9-1.6-23.2-1.2-17.7-3.8-39.7-6.5-55.5-.9-5.1-1.5-9.3-1.3-9.5.2-.1 7.3-2.6 15.8-5.4 8.5-2.9 21.6-7.9 29-11l13.5-5.7 3.3 4.6c1.9 2.5 5.2 7.6 7.4 11.4M175 156.9c15.5 3 30.8 4.9 49.4 6.3l16.6 1.2V241h-90.1l.5-6.8c.3-3.7.8-11.4 1.2-17.2.7-13.4 2.8-31.8 5.5-49.2 2-13 2.3-13.8 4.3-13.3 1.1.2 6.8 1.3 12.6 2.4m178.9 10.8c2.7 17.5 4.8 35.9 5.5 49.3.4 5.8.9 13.5 1.2 17.2l.5 6.8H271v-76.6l16.8-1.2c18.1-1.4 38.1-4 53.2-7.1 5.2-1.1 9.8-2 10.1-2 .4-.1 1.6 6.1 2.8 13.6M121.4 277.2c.2 3.5 1 13.9 1.6 23.3 1.2 17.7 3.8 39.7 6.5 55.5.9 5.1 1.5 9.3 1.3 9.5-.2.1-7 2.5-15.3 5.3-8.2 2.7-21.4 7.7-29.2 10.9l-14.1 6-5.7-8.6c-7.4-11.1-19.4-35.7-24-49.1-5.9-17-11.5-44.2-11.5-55.4V271h89.8zM241 309.3v38.3l-16.6 1.2c-22.1 1.6-41.6 4.4-62 8.7-2 .5-2.3-.3-4.3-13.3-2.7-17.4-4.8-35.8-5.5-49.2-.4-5.8-.9-13.5-1.2-17.3l-.5-6.7H241zm119.6-31.6c-.3 3.8-.8 11.5-1.2 17.3-.7 13.4-2.8 31.8-5.5 49.2-2 13-2.3 13.8-4.3 13.3-20.4-4.3-39.9-7.1-62-8.7l-16.6-1.2V271h90.1zm120.4-3.1c0 11.2-5.6 38.4-11.5 55.4-4.6 13.4-16.6 38-24 49.1l-5.7 8.6-14.1-6c-7.8-3.2-20.9-8.2-29.2-10.9-8.2-2.8-15.1-5.2-15.3-5.3-.2-.2.4-4.4 1.3-9.5 2.7-15.8 5.3-37.8 6.5-55.5.6-9.4 1.4-19.8 1.6-23.3l.6-6.2H481zM241 429.5V481h-4c-5.9 0-24.1-2.9-33.7-5.3l-8.5-2.2-3.4-8.5c-9.3-23-24.4-70.6-24.4-76.8 0-2.4 47.3-9.4 68.3-10l5.7-.2zm64-49c16.5 2 40 6.5 40 7.7 0 6.2-15.1 53.8-24.4 76.8l-3.4 8.5-8.5 2.2c-9.6 2.4-27.8 5.3-33.7 5.3h-4V377.7l10.8.7c5.9.4 16.3 1.3 23.2 2.1m-163.6 29.3c2.2 8.1 6.6 22.5 9.7 32l5.8 17.3-8.7-4.7c-12-6.5-24.9-15.2-36.7-25-10.3-8.4-19.2-17-18.4-17.8 1.4-1.3 40.3-16 43.9-16.5.3-.1 2.3 6.5 4.4 14.7m244.8-10.9c14.1 4.7 32.8 12.3 32.8 13.2 0 1-12.4 12.5-21 19.5-9.7 7.8-23.3 16.9-34.2 22.8l-8.7 4.7 5.8-17.3c3.1-9.5 7.5-23.9 9.7-32 2.1-8.2 3.9-14.8 3.9-14.8.1 0 5.3 1.8 11.7 3.9" />
</svg>