<svg version="1.2" xmlns="http://www.w3.org/2000/svg" viewBox="0 0 595 595" width="595" height="595">
	<path fill-rule="evenodd" fill="white" d="m555.7 442.4c0 27.3-11 52-28.9 69.8-17.9 17.9-42.5 29-69.8 29-27.2 0-51.9-11.1-69.8-29-17.9-17.8-28.9-42.5-28.9-69.8 0-27.2 11-51.9 28.9-69.8 5.4-5.4 11.4-10.1 17.9-14.2l-1-7 0.6-5.3 29.1-77.5-30.9-6.5-1.5 1.1-15.7 11.7 18.8 23.7-16.8 13.3-24.8-31.3 0.2-0.1-17.7-1.8-7.1-0.7-2.1-6.7-1.8-6-11 8.6-4 3-4.9-1.1-24.3-5.4-6.1-1.3-1.8-5.9-3.7-11.9-9.9 9.9-4.3 4.4-5.9-1.5-2.8-0.7 29.8 35.5 1.9 2.4 0.5 3 3.6 25.2-21.3 3-3.1-22.1-43.3-51.7-28.1-14-8.6 17.4-19.2-9.6 12-24-2.3-17.6-20.4-8.4 8.2-19.8 22.1 9.1 50.2-19.8 2.2-8.5-78.1-19.7-18.6 9.9-12.7 81.9v0.2c-3.5 19.5 1.2 27.1 1.8 27.9l86.3 120.7-0.7 0.5c12 16.3 19 36.5 19 58.3 0 27.2-11 51.9-28.9 69.8-17.8 17.9-42.5 28.9-69.8 28.9-27.2 0-51.9-11-69.8-28.9-17.8-17.9-28.9-42.6-28.9-69.8 0-27.3 11.1-52 28.9-69.8 17.9-17.9 42.6-28.9 69.8-28.9 9.9 0 19.5 1.4 28.5 4.2l-51.9-72.6v-0.1c0 0-10.6-14.2-5.4-43.7l13.5-87.2 0.8-5.3 4.7-2.5 27-14.4 3.7-2 3.9 1 4.8-35.9 0.5-4.1 3.2-2.7 28.7-24.2 3.2-2.7 4 0.2 28.8 0.9 4.1 0.1 2.9 2.8 8.9 8.3 11.8-8.4 3.6-2.6 4.4 0.8 26 4.5 4 0.7 2.6 3.2 12.2 15.2 15.6-5.2 3.3-1.1 3.2 1 23.4 7.2 2.8 0.9 2 2.2 32.4 35.9 2 2.2 0.5 2.9 1.5 7.1 3.1 1.8 14.4 8.1 3 1.7 1.5 3.2 24.3 53 0.9 3.2 7.2 60.2-0.7 5-30.4 81.2c9.6-3.1 19.7-4.8 30.3-4.8 27.3 0 51.9 11.1 69.8 28.9 17.9 17.9 28.9 42.6 28.9 69.8zm-356.6-232.1l1.6 12.2 10.5 3.7 10.8-9.2 1.4-16.3zm46.6-18.3l-2.5 28.7 7.8 19.4 6.8 1.8 15.3-15.3-0.1-0.1 26-136.3-8.7-10.8-17.8-3.1-11.6 8.2-0.5-0.8-7.2 61.1 2.4 0.6 10.4 2.6-2.7 10.5-6.3 24.2-1.3 5.3-5.1 2zm-13.5-52.5l6.8-57.7-7.5-7.1-20.6-0.6-22.4 19-4.6 34.2zm62 90.2l6.7 21.3 13.3 2.9 15.5-12 4.7-4.4 15-70.4 0.7-3.4 2.6-2.4 27-24.2 2.2-2 0.3-0.1-0.8-3.9-28.4-31.5-17.3-5.3-15.6 5.2-0.7-2zm124.1-30.9l-0.1 1.2 7.2-2.6-18-39.3-8-4.5-7.6 1.4-22.1 20-16.7 78.3 1.6 5 15.7 1.5 15.6-11.6 9.3-27.8 1.7-23.1zm-1.9 24.6l-0.5 2.3-5.4 16.2 23.8 5-3.4-28.7zm12.1 147.3l0.1 0.8 37.7 65.7-18.7 10.6-38-66.3q-3.8 3-7.3 6.4c-13.9 14-22.6 33.3-22.6 54.6 0 21.3 8.7 40.6 22.6 54.6 14 14 33.3 22.6 54.6 22.6 21.4 0 40.7-8.6 54.7-22.6 13.9-14 22.6-33.3 22.6-54.6 0-21.3-8.7-40.6-22.6-54.6-14-14-33.3-22.6-54.7-22.6-10 0-19.6 1.9-28.4 5.4zm-303.2 69.2l40-69c-8.5-3.1-17.6-4.9-27.1-4.9-21.4 0-40.7 8.7-54.7 22.6-13.9 14-22.6 33.3-22.6 54.7 0 21.3 8.7 40.6 22.7 54.6 13.9 13.9 33.2 22.6 54.6 22.6 21.3 0 40.6-8.7 54.6-22.6 13.9-14 22.6-33.3 22.6-54.6 0-21.4-8.7-40.7-22.6-54.7q-4.1-4-8.7-7.4l-40.3 69.4z"/>
</svg>