<?xml version="1.0" standalone="no"?>
<!DOCTYPE svg PUBLIC "-//W3C//DTD SVG 20010904//EN"
 "http://www.w3.org/TR/2001/REC-SVG-20010904/DTD/svg10.dtd">
<svg version="1.0" xmlns="http://www.w3.org/2000/svg"
 width="943.000000pt" height="943.000000pt" viewBox="0 0 943.000000 943.000000"
 preserveAspectRatio="xMidYMid meet">

<g transform="translate(0.000000,943.000000) scale(0.100000,-0.100000)"
fill="#000000" stroke="none">
<path d="M1090 8001 c-5 -11 -10 -57 -10 -104 l0 -84 -42 -34 c-115 -91 -458
-402 -458 -413 0 -16 32 -46 48 -46 9 0 12 -63 12 -240 l0 -240 -58 0 c-62 0
-82 -11 -82 -46 0 -26 16 -41 50 -46 l25 -3 3 -415 c2 -228 0 -429 -3 -447 -5
-27 -10 -32 -38 -35 -29 -3 -32 -6 -32 -38 0 -31 4 -36 35 -46 l35 -12 0
-1251 0 -1251 -45 0 c-25 -1 -108 -1 -185 -1 -152 0 -188 -9 -193 -47 -8 -55
-112 -52 1610 -52 l1590 0 111 -44 c252 -99 283 -99 557 -1 100 36 158 31 305
-27 107 -42 113 -43 220 -43 107 1 114 2 235 49 111 42 134 47 210 48 72 1 95
-3 150 -26 186 -78 282 -98 381 -77 30 6 101 30 159 53 151 59 184 57 400 -21
72 -26 100 -31 178 -31 88 0 100 3 210 47 106 42 125 46 202 47 80 1 91 -2
176 -42 101 -47 196 -65 270 -51 24 5 89 29 144 55 91 41 109 46 173 46 60 -1
90 -8 182 -43 103 -40 117 -43 210 -43 96 -1 104 1 205 44 l105 45 491 3 c474
3 492 3 509 22 15 17 16 25 7 45 l-11 25 -198 2 -198 3 -3 218 c-1 119 1 217
5 217 5 0 64 -21 133 -46 259 -94 277 -99 294 -85 22 18 20 58 -3 71 -17 9
-352 128 -409 145 -22 6 -22 6 -22 240 l0 233 53 12 c230 55 371 271 417 641
19 156 -13 436 -72 629 -45 147 -133 309 -198 364 -18 15 -56 39 -84 54 -46
24 -61 27 -156 27 -94 0 -111 -3 -160 -27 -117 -57 -222 -205 -284 -398 -135
-419 -98 -855 95 -1113 59 -78 141 -138 232 -171 l62 -22 3 -212 c2 -174 0
-212 -11 -212 -8 0 -40 9 -73 21 -105 36 -480 148 -637 189 -472 123 -771 188
-1234 265 l-33 6 0 374 c0 364 1 375 20 385 11 6 20 21 20 35 0 19 -41 55
-227 194 l-227 171 -831 2 c-456 1 -879 3 -940 4 -60 1 -216 2 -346 3 l-237 1
-297 258 c-430 371 -460 395 -490 388 -13 -3 -129 -99 -257 -212 -128 -114
-286 -253 -350 -310 l-118 -104 -345 0 -345 0 0 145 0 145 28 0 c16 0 36 8 45
18 34 37 14 72 -40 72 l-33 0 2 448 3 447 34 5 c27 4 37 11 44 33 14 44 -4 57
-79 57 l-64 0 0 240 c0 201 2 240 14 240 19 0 46 27 46 46 0 18 7 11 -268 248
l-231 199 1 94 c2 103 -3 113 -54 113 -17 0 -31 -7 -38 -19z m158 -372 c153
-131 233 -207 223 -214 -5 -3 -160 -4 -345 -3 -271 1 -336 4 -336 15 0 7 3 13
8 13 4 0 77 63 162 139 85 77 161 140 168 140 7 1 61 -40 120 -90z m282 -549
l0 -240 -115 0 -115 0 0 135 c0 150 -7 174 -60 219 -60 50 -142 55 -207 13
-59 -39 -68 -67 -71 -224 l-4 -143 -114 0 -114 0 0 240 0 240 400 0 400 0 0
-240z m-344 39 c16 -18 20 -42 24 -150 l5 -129 -82 0 -83 0 0 130 c0 117 2
132 20 150 28 28 90 27 116 -1z m47 -378 l347 -1 0 -445 0 -445 -455 0 -455 0
0 449 0 449 108 -3 c59 -2 263 -3 455 -4z m1979 -833 c52 -46 157 -137 234
-203 76 -66 167 -146 201 -177 l62 -58 -592 0 -592 1 75 71 c121 114 501 448
509 448 5 0 51 -37 103 -82z m5594 -66 c88 -45 168 -170 230 -359 169 -517 35
-1084 -273 -1154 l-33 -7 0 127 1 126 55 75 c119 163 146 207 142 236 -2 23
-9 30 -30 32 -22 3 -34 -6 -68 -49 -22 -28 -52 -71 -66 -95 -14 -24 -29 -44
-32 -44 -4 0 -6 116 -4 259 3 279 -1 311 -42 311 -56 0 -56 -3 -56 -507 0
-410 -2 -463 -15 -463 -33 0 -103 46 -162 106 -143 146 -220 420 -193 692 21
213 57 356 125 494 61 123 134 203 212 233 53 20 157 14 209 -13z m-7226
-1343 l0 -1261 -428 2 c-235 1 -440 4 -457 7 l-30 4 3 1255 2 1254 455 0 455
0 0 -1261z m880 486 l0 -395 -236 0 c-273 0 -234 12 -422 -128 -63 -46 -115
-82 -117 -80 -6 5 -7 112 -6 566 l1 432 390 0 390 0 0 -395z m1324 379 c7 -18
6 -345 -1 -357 -3 -5 -12 -2 -21 6 -10 7 -79 53 -155 100 -140 88 -174 100
-218 76 -16 -8 -38 2 -133 60 -157 99 -165 99 -336 -13 -91 -60 -134 -94 -146
-118 -15 -28 -18 -69 -22 -280 l-4 -248 -99 0 -99 0 0 395 0 395 614 0 c547 0
615 -2 620 -16z m2526 -95 c63 -47 130 -95 148 -108 17 -12 32 -27 32 -32 0
-9 -2217 -11 -2487 -2 l-133 5 0 115 0 115 1163 -4 1162 -3 115 -86z m-3115
-80 c47 -28 85 -54 85 -58 0 -3 -50 -38 -111 -76 -61 -39 -118 -79 -125 -90
-11 -15 -14 -62 -14 -197 l0 -178 -95 0 c-69 0 -95 3 -96 13 0 6 -1 113 -1
236 0 202 2 226 19 249 20 26 218 152 241 152 7 0 51 -23 97 -51z m435 -193
l145 -94 6 -64 c3 -35 4 -105 1 -155 l-5 -93 -333 0 -334 0 0 163 0 162 121
80 c67 44 140 90 163 101 49 26 30 34 236 -100z m2930 -329 c3 -203 4 -370 2
-371 -1 -2 -24 1 -50 6 -95 17 -524 68 -757 89 -347 31 -544 38 -955 33 -329
-3 -478 -9 -737 -30 l-83 -6 0 90 c0 102 -6 112 -74 112 l-36 0 0 225 0 225
1343 -2 1342 -3 5 -368z m-2660 -225 l0 -58 -282 -28 c-156 -15 -323 -34 -373
-42 -49 -7 -182 -28 -295 -45 -245 -37 -600 -105 -800 -153 -80 -19 -163 -38
-185 -42 -22 -3 -89 -19 -150 -35 -60 -16 -116 -29 -123 -29 -10 0 -12 30 -10
132 l3 132 159 113 160 113 948 0 948 0 0 -58z m1525 -113 c685 -49 1342 -142
1935 -275 387 -87 1073 -275 1253 -343 l27 -11 0 -235 0 -236 -151 3 -152 3
-16 60 c-42 153 -165 303 -302 368 -100 48 -145 57 -274 53 -91 -2 -121 -7
-172 -28 -168 -70 -278 -193 -342 -383 -29 -87 -31 -90 -61 -89 -16 0 -74 1
-129 2 l-98 2 -12 63 c-45 234 -158 425 -330 558 -85 65 -247 145 -336 165
-228 50 -482 14 -664 -95 -127 -75 -270 -230 -339 -366 -33 -66 -71 -199 -77
-272 -9 -96 -8 -95 -47 -75 -22 11 -67 18 -130 20 l-97 4 -11 57 c-33 172
-119 336 -247 471 -140 147 -297 239 -470 275 -96 20 -311 20 -403 1 -270 -57
-498 -233 -620 -476 -43 -86 -77 -186 -85 -254 l-7 -56 -149 0 c-111 0 -150 3
-153 13 -2 6 -8 35 -15 62 -44 193 -225 375 -409 414 -76 16 -200 14 -263 -5
-152 -45 -280 -155 -354 -307 -25 -50 -45 -85 -46 -77 -4 66 4 566 9 571 13
12 441 116 652 158 30 6 66 14 80 16 541 108 988 169 1615 220 110 9 384 26
455 29 177 6 825 3 935 -5z m-1334 -379 c272 -39 513 -217 642 -475 35 -71 69
-169 81 -237 l7 -38 -57 -25 c-157 -70 -249 -70 -424 -4 -104 39 -123 44 -200
43 -52 0 -101 -7 -125 -16 -160 -63 -191 -71 -270 -72 -74 -1 -89 3 -215 53
-130 52 -139 54 -252 59 -83 3 -118 8 -118 17 0 31 42 169 69 230 39 86 123
198 196 261 179 156 441 237 666 204z m2089 -24 c172 -32 310 -106 440 -236
66 -66 96 -105 132 -175 49 -95 98 -244 98 -301 0 -32 -2 -34 -21 -23 -36 19
-139 28 -213 19 -41 -5 -115 -26 -176 -51 -93 -37 -114 -41 -185 -40 -69 0
-95 6 -190 43 -104 39 -116 42 -215 42 -102 1 -108 0 -210 -43 -95 -40 -113
-44 -190 -45 -60 -1 -99 4 -132 17 l-48 19 0 57 c0 131 71 312 172 436 183
229 456 332 738 281z m-3849 -290 c151 -46 273 -163 322 -310 32 -95 78 -86
-439 -86 l-456 0 7 33 c13 57 71 173 110 215 54 61 128 112 199 138 72 27 186
31 257 10z m5516 -10 c167 -23 353 -197 387 -362 l7 -31 -72 -12 c-39 -6 -110
-28 -158 -47 -145 -60 -241 -58 -401 8 -84 35 -186 46 -260 29 -24 -5 -47 -8
-49 -5 -8 8 30 117 61 176 65 123 214 231 341 247 34 4 71 7 82 5 11 -1 39 -5
62 -8z m-732 -502 c-23 -18 -139 -14 -158 5 -8 8 14 11 84 11 87 -1 93 -2 74
-16z"/>
<path d="M1065 6641 c-93 -24 -182 -98 -225 -186 -33 -69 -34 -198 -3 -267 30
-65 104 -142 161 -166 134 -58 292 -23 381 84 57 70 75 120 75 214 1 75 -2 92
-28 143 -35 69 -89 120 -161 153 -56 26 -152 38 -200 25z m160 -110 c47 -22
109 -84 124 -124 6 -16 11 -54 11 -87 0 -79 -38 -151 -104 -197 -43 -30 -55
-33 -117 -33 -106 0 -161 35 -209 129 -26 53 -29 145 -5 195 54 112 193 167
300 117z"/>
<path d="M1095 6450 c-16 -18 -17 -27 -7 -85 18 -108 76 -180 127 -157 34 16
33 58 -1 93 -19 20 -28 42 -33 86 -4 32 -10 64 -14 71 -12 19 -52 14 -72 -8z"/>
<path d="M1072 5532 c-28 -28 -34 -70 -30 -200 4 -136 14 -152 94 -152 42 0
59 5 81 24 l28 24 0 136 c0 162 -6 173 -97 183 -47 5 -58 3 -76 -15z"/>
<path d="M1995 5126 c-17 -13 -20 -28 -23 -124 -3 -101 -2 -112 17 -131 32
-32 93 -29 120 5 18 23 21 41 21 118 0 118 -11 140 -70 144 -28 2 -53 -3 -65
-12z"/>
<path d="M3395 4935 c-23 -22 -25 -31 -25 -128 0 -119 10 -137 73 -137 59 0
67 17 67 136 0 98 -2 107 -25 129 -31 32 -59 32 -90 0z"/>
<path d="M5535 4868 c-32 -18 -35 -28 -35 -129 0 -108 11 -129 66 -129 60 0
69 17 69 130 0 95 -2 103 -24 121 -26 22 -47 23 -76 7z"/>
<path d="M5120 4863 c-32 -11 -40 -37 -40 -126 0 -48 4 -96 10 -106 13 -26 68
-35 97 -16 22 15 23 21 23 120 0 96 -2 105 -22 119 -23 16 -41 19 -68 9z"/>
<path d="M4267 4842 c-13 -14 -17 -39 -17 -110 0 -101 7 -112 68 -112 45 0 54
19 53 117 -1 77 -3 90 -22 106 -27 22 -62 22 -82 -1z"/>
<path d="M4686 4841 c-14 -15 -16 -35 -14 -112 3 -88 4 -94 29 -108 25 -14 59
-11 89 9 12 7 14 29 12 107 -2 54 -8 103 -14 110 -16 20 -82 16 -102 -6z"/>
<path d="M6104 4836 c-17 -13 -19 -27 -19 -119 0 -123 7 -137 70 -137 65 0 75
18 75 131 0 115 -12 139 -69 139 -20 0 -46 -6 -57 -14z"/>
<path d="M4115 2829 c-46 -5 -102 -20 -165 -45 -89 -37 -101 -39 -200 -39 -99
0 -110 2 -200 39 -84 35 -106 40 -198 44 -88 4 -106 2 -122 -13 -22 -20 -24
-33 -10 -55 7 -11 38 -17 122 -21 101 -6 122 -11 203 -45 85 -36 96 -39 195
-39 99 0 113 3 228 43 105 37 134 44 201 44 69 0 92 -6 187 -43 175 -69 286
-67 470 7 50 20 112 37 148 41 57 5 77 1 212 -45 82 -27 169 -53 194 -55 58
-7 181 15 245 43 124 55 244 65 343 29 193 -71 196 -72 277 -72 71 0 95 6 205
47 108 40 136 47 205 48 71 1 92 -4 188 -40 152 -58 207 -67 298 -52 41 7 112
28 159 47 66 27 104 36 170 40 83 5 88 4 210 -42 118 -46 130 -48 220 -48 88
0 104 4 230 49 123 45 135 51 138 75 2 15 -4 34 -13 42 -18 19 -47 12 -180
-44 -68 -28 -92 -33 -160 -34 -70 0 -97 6 -216 48 -188 65 -245 64 -432 -9
-62 -24 -114 -38 -162 -41 -73 -5 -83 -3 -295 73 -60 21 -93 26 -165 27 -84 0
-97 -3 -195 -44 -101 -42 -109 -44 -210 -44 -100 0 -110 2 -200 40 -91 37
-100 39 -205 40 -104 0 -115 -2 -204 -38 -174 -69 -259 -69 -443 4 -89 36
-110 40 -187 40 -65 1 -101 -5 -146 -21 -204 -75 -194 -72 -290 -68 -73 4
-109 12 -187 42 -116 44 -170 54 -263 45z"/>
<path d="M1667 2330 c-196 -49 -329 -246 -314 -465 7 -99 28 -163 79 -236 70
-101 164 -158 294 -180 141 -23 294 32 376 136 l40 49 -29 23 c-15 13 -47 33
-70 45 l-42 23 -38 -37 c-74 -70 -147 -90 -237 -64 -70 21 -118 62 -153 133
-36 76 -39 193 -5 268 44 96 124 154 213 155 58 0 141 -41 171 -83 12 -18 22
-33 24 -35 4 -6 143 82 148 94 9 24 -82 112 -152 146 -60 30 -75 33 -166 35
-56 1 -118 -2 -139 -7z"/>
<path d="M2565 2322 c-108 -37 -208 -120 -254 -210 -53 -104 -65 -244 -31
-354 24 -78 64 -140 130 -202 170 -159 452 -148 620 23 69 70 105 143 121 240
29 176 -53 363 -203 457 -99 63 -274 84 -383 46z m212 -157 c62 -18 123 -73
158 -139 20 -40 25 -63 25 -124 0 -97 -15 -143 -63 -198 -56 -63 -107 -87
-187 -88 -102 -1 -186 52 -228 143 -37 77 -38 204 -3 271 64 125 171 173 298
135z"/>
<path d="M3325 2317 c-3 -6 -4 -201 -3 -432 l3 -420 93 -3 92 -3 0 436 0 435
-90 0 c-63 0 -92 -4 -95 -13z"/>
<path d="M3735 2318 c-3 -7 -4 -202 -3 -433 l3 -420 80 0 80 0 0 288 c0 158 1
287 2 287 2 0 12 -19 24 -42 33 -65 190 -331 207 -350 9 -11 29 -18 48 -18 32
0 36 5 132 168 55 92 110 187 123 212 l24 45 3 -298 2 -298 88 3 87 3 3 330
c2 182 0 376 -3 433 l-7 102 -97 0 -97 0 -24 -42 c-13 -24 -62 -108 -108 -188
-47 -80 -95 -162 -107 -183 l-22 -38 -77 133 c-42 73 -101 174 -129 223 l-53
90 -87 3 c-64 2 -89 -1 -92 -10z"/>
<path d="M4850 1895 l0 -437 228 4 c208 4 232 6 284 27 117 46 174 165 138
290 -12 44 -75 119 -106 127 -25 6 -33 24 -11 24 17 0 70 58 85 93 18 41 14
126 -7 172 -23 50 -53 78 -116 107 -47 21 -65 23 -272 26 l-223 3 0 -436z
m422 246 c25 -28 29 -39 24 -70 -3 -21 -16 -45 -31 -58 -24 -21 -37 -23 -131
-23 l-104 0 0 96 0 96 106 -4 c106 -4 106 -4 136 -37z m-7 -315 c66 -28 84
-125 32 -174 -29 -27 -93 -41 -189 -42 l-78 0 0 115 0 115 100 0 c65 0 113 -5
135 -14z"/>
<path d="M5690 1896 l0 -436 89 0 c63 0 90 4 92 13 2 6 4 74 4 150 l0 138 75
-3 75 -3 83 -147 83 -148 93 0 c51 0 96 3 99 6 7 7 -4 26 -115 214 -37 63 -68
117 -68 121 0 4 13 12 30 19 42 17 107 91 119 136 14 51 14 147 -1 195 -16 56
-70 114 -136 146 -57 28 -58 28 -289 31 l-233 3 0 -435z m421 257 c77 -46 64
-174 -22 -218 -18 -10 -63 -16 -121 -18 l-93 -2 -3 127 -3 127 28 4 c52 9 185
-3 214 -20z"/>
<path d="M6801 2303 c-7 -16 -65 -163 -128 -328 -63 -165 -132 -344 -154 -398
-22 -54 -37 -103 -34 -108 4 -5 46 -9 94 -9 l89 0 33 90 34 90 163 -2 164 -3
31 -85 32 -85 93 -3 c76 -2 92 0 92 12 0 19 -100 287 -280 749 l-41 107 -88 0
c-86 0 -88 -1 -100 -27z m153 -341 c27 -75 51 -143 54 -149 3 -10 -22 -13
-107 -13 -61 0 -111 3 -111 7 0 16 103 293 109 293 3 0 28 -62 55 -138z"/>
</g>
</svg>
