<svg xmlns="http://www.w3.org/2000/svg" version="1.0" viewBox="10 130 920 680">
    <path
        d="M109 142.9c-.5 1.1-1 5.7-1 10.4v8.4l-4.2 3.4C92.3 174.2 58 205.3 58 206.4c0 1.6 3.2 4.6 4.8 4.6.9 0 1.2 6.3 1.2 24v24h-5.8c-6.2 0-8.2 1.1-8.2 4.6 0 2.6 1.6 4.1 5 4.6l2.5.3.3 41.5c.2 22.8 0 42.9-.3 44.7-.5 2.7-1 3.2-3.8 3.5-2.9.3-3.2.6-3.2 3.8 0 3.1.4 3.6 3.5 4.6l3.5 1.2V618H53c-2.5.1-10.8.1-18.5.1-15.2 0-18.8.9-19.3 4.7-.8 5.5-11.2 5.2 161 5.2h159l11.1 4.4c25.2 9.9 28.3 9.9 55.7.1 10-3.6 15.8-3.1 30.5 2.7 10.7 4.2 11.3 4.3 22 4.3 10.7-.1 11.4-.2 23.5-4.9 11.1-4.2 13.4-4.7 21-4.8 7.2-.1 9.5.3 15 2.6 18.6 7.8 28.2 9.8 38.1 7.7 3-.6 10.1-3 15.9-5.3 15.1-5.9 18.4-5.7 40 2.1 7.2 2.6 10 3.1 17.8 3.1 8.8 0 10-.3 21-4.7 10.6-4.2 12.5-4.6 20.2-4.7 8-.1 9.1.2 17.6 4.2 10.1 4.7 19.6 6.5 27 5.1 2.4-.5 8.9-2.9 14.4-5.5 9.1-4.1 10.9-4.6 17.3-4.6 6 .1 9 .8 18.2 4.3 10.3 4 11.7 4.3 21 4.3 9.6.1 10.4-.1 20.5-4.4l10.5-4.5 49.1-.3c47.4-.3 49.2-.3 50.9-2.2 1.5-1.7 1.6-2.5.7-4.5l-1.1-2.5-19.8-.2-19.8-.3-.3-21.8c-.1-11.9.1-21.7.5-21.7.5 0 6.4 2.1 13.3 4.6 25.9 9.4 27.7 9.9 29.4 8.5 2.2-1.8 2-5.8-.3-7.1-1.7-.9-35.2-12.8-40.9-14.5-2.2-.6-2.2-.6-2.2-24v-23.3l5.3-1.2c23-5.5 37.1-27.1 41.7-64.1 1.9-15.6-1.3-43.6-7.2-62.9-4.5-14.7-13.3-30.9-19.8-36.4-1.8-1.5-5.6-3.9-8.4-5.4-4.6-2.4-6.1-2.7-15.6-2.7-9.4 0-11.1.3-16 2.7-11.7 5.7-22.2 20.5-28.4 39.8-13.5 41.9-9.8 85.5 9.5 111.3 5.9 7.8 14.1 13.8 23.2 17.1l6.2 2.2.3 21.2c.2 17.4 0 21.2-1.1 21.2-.8 0-4-.9-7.3-2.1-10.5-3.6-48-14.8-63.7-18.9-47.2-12.3-77.1-18.8-123.4-26.5l-3.3-.6v-37.4c0-36.4.1-37.5 2-38.5 1.1-.6 2-2.1 2-3.5 0-1.9-4.1-5.5-22.7-19.4L623.6 399l-83.1-.2c-45.6-.1-87.9-.3-94-.4-6-.1-21.6-.2-34.6-.3l-23.7-.1-29.7-25.8c-43-37.1-46-39.5-49-38.8-1.3.3-12.9 9.9-25.7 21.2-12.8 11.4-28.6 25.3-35 31L237 396h-69v-29h2.8c1.6 0 3.6-.8 4.5-1.8 3.4-3.7 1.4-7.2-4-7.2H168l.2-44.8.3-44.7 3.4-.5c2.7-.4 3.7-1.1 4.4-3.3 1.4-4.4-.4-5.7-7.9-5.7H162v-24c0-20.1.2-24 1.4-24 1.9 0 4.6-2.7 4.6-4.6 0-1.8.7-1.1-26.8-24.8l-23.1-19.9.1-9.4c.2-10.3-.3-11.3-5.4-11.3-1.7 0-3.1.7-3.8 1.9m15.8 37.2c15.3 13.1 23.3 20.7 22.3 21.4-.5.3-16 .4-34.5.3-27.1-.1-33.6-.4-33.6-1.5 0-.7.3-1.3.8-1.3.4 0 7.7-6.3 16.2-13.9 8.5-7.7 16.1-14 16.8-14 .7-.1 6.1 4 12 9M153 235v24h-23v-13.5c0-15-.7-17.4-6-21.9-6-5-14.2-5.5-20.7-1.3-5.9 3.9-6.8 6.7-7.1 22.4l-.4 14.3H73v-48h80zm-34.4-3.9c1.6 1.8 2 4.2 2.4 15l.5 12.9H105v-13c0-11.7.2-13.2 2-15 2.8-2.8 9-2.7 11.6.1m4.7 37.8 34.7.1v89H67v-89.8l10.8.3c5.9.2 26.3.3 45.5.4m197.9 83.3c5.2 4.6 15.7 13.7 23.4 20.3 7.6 6.6 16.7 14.6 20.1 17.7l6.2 5.8h-59.2l-59.2-.1 7.5-7.1c12.1-11.4 50.1-44.8 50.9-44.8.5 0 5.1 3.7 10.3 8.2m559.4 6.6c8.8 4.5 16.8 17 23 35.9 16.9 51.7 3.5 108.4-27.3 115.4l-3.3.7v-12.7l.1-12.6 5.5-7.5c11.9-16.3 14.6-20.7 14.2-23.6-.2-2.3-.9-3-3-3.2-2.2-.3-3.4.6-6.8 4.9-2.2 2.8-5.2 7.1-6.6 9.5s-2.9 4.4-3.2 4.4c-.4 0-.6-11.6-.4-25.9.3-27.9-.1-31.1-4.2-31.1-5.6 0-5.6.3-5.6 50.7 0 41-.2 46.3-1.5 46.3-3.3 0-10.3-4.6-16.2-10.6-14.3-14.6-22-42-19.3-69.2 2.1-21.3 5.7-35.6 12.5-49.4 6.1-12.3 13.4-20.3 21.2-23.3 5.3-2 15.7-1.4 20.9 1.3M158 493.1v126.1l-42.8-.2c-23.5-.1-44-.4-45.7-.7l-3-.4.3-125.5L67 367h91zm88-48.6V484h-23.6c-27.3 0-23.4-1.2-42.2 12.8-6.3 4.6-11.5 8.2-11.7 8-.6-.5-.7-11.2-.6-56.6l.1-43.2h78zm132.4-37.9c.7 1.8.6 34.5-.1 35.7-.3.5-1.2.2-2.1-.6-1-.7-7.9-5.3-15.5-10-14-8.8-17.4-10-21.8-7.6-1.6.8-3.8-.2-13.3-6-15.7-9.9-16.5-9.9-33.6 1.3-9.1 6-13.4 9.4-14.6 11.8-1.5 2.8-1.8 6.9-2.2 28l-.4 24.8H255v-79h61.4c54.7 0 61.5.2 62 1.6m252.6 9.5c6.3 4.7 13 9.5 14.8 10.8 1.7 1.2 3.2 2.7 3.2 3.2 0 .9-221.7 1.1-248.7.2l-13.3-.5v-23l116.3.4 116.2.3zm-311.5 8c4.7 2.8 8.5 5.4 8.5 5.8 0 .3-5 3.8-11.1 7.6-6.1 3.9-11.8 7.9-12.5 9-1.1 1.5-1.4 6.2-1.4 19.7V484h-9.5c-6.9 0-9.5-.3-9.6-1.3 0-.6-.1-11.3-.1-23.6 0-20.2.2-22.6 1.9-24.9 2-2.6 21.8-15.2 24.1-15.2.7 0 5.1 2.3 9.7 5.1m43.5 19.3 14.5 9.4.6 6.4c.3 3.5.4 10.5.1 15.5l-.5 9.3H311v-32.5l12.1-8c6.7-4.4 14-9 16.3-10.1 4.9-2.6 3-3.4 23.6 10m293 32.9c.3 20.3.4 37 .2 37.1-.1.2-2.4-.1-5-.6-9.5-1.7-52.4-6.8-75.7-8.9-34.7-3.1-54.4-3.8-95.5-3.3-32.9.3-47.8.9-73.7 3l-8.3.6v-9c0-10.2-.6-11.2-7.4-11.2H387v-45l134.3.2 134.2.3zm-266 22.5v5.8l-28.2 2.8c-15.6 1.5-32.3 3.4-37.3 4.2-4.9.7-18.2 2.8-29.5 4.5-24.5 3.7-60 10.5-80 15.3-8 1.9-16.3 3.8-18.5 4.2-2.2.3-8.9 1.9-15 3.5-6 1.6-11.6 2.9-12.3 2.9-1 0-1.2-3-1-13.2l.3-13.2 15.9-11.3 16-11.3H390zm152.5 11.3C611 515 676.7 524.3 736 537.6c38.7 8.7 107.3 27.5 125.3 34.3l2.7 1.1v47.1l-15.1-.3-15.2-.3-1.6-6c-4.2-15.3-16.5-30.3-30.2-36.8-10-4.8-14.5-5.7-27.4-5.3-9.1.2-12.1.7-17.2 2.8-16.8 7-27.8 19.3-34.2 38.3-2.9 8.7-3.1 9-6.1 8.9-1.6 0-7.4-.1-12.9-.2l-9.8-.2-1.2-6.3c-4.5-23.4-15.8-42.5-33-55.8-8.5-6.5-24.7-14.5-33.6-16.5-22.8-5-48.2-1.4-66.4 9.5-12.7 7.5-27 23-33.9 36.6-3.3 6.6-7.1 19.9-7.7 27.2-.9 9.6-.8 9.5-4.7 7.5-2.2-1.1-6.7-1.8-13-2l-9.7-.4-1.1-5.7c-3.3-17.2-11.9-33.6-24.7-47.1-14-14.7-29.7-23.9-47-27.5-9.6-2-31.1-2-40.3-.1-27 5.7-49.8 23.3-62 47.6-4.3 8.6-7.7 18.6-8.5 25.4l-.7 5.6h-14.9c-11.1 0-15-.3-15.3-1.3-.2-.6-.8-3.5-1.5-6.2-4.4-19.3-22.5-37.5-40.9-41.4-7.6-1.6-20-1.4-26.3.5-15.2 4.5-28 15.5-35.4 30.7-2.5 5-4.5 8.5-4.6 7.7-.4-6.6.4-56.6.9-57.1 1.3-1.2 44.1-11.6 65.2-15.8 3-.6 6.6-1.4 8-1.6 54.1-10.8 98.8-16.9 161.5-22 11-.9 38.4-2.6 45.5-2.9 17.7-.6 82.5-.3 93.5.5M409.1 548c27.2 3.9 51.3 21.7 64.2 47.5 3.5 7.1 6.9 16.9 8.1 23.7l.7 3.8-5.7 2.5c-15.7 7-24.9 7-42.4.4-10.4-3.9-12.3-4.4-20-4.3-5.2 0-10.1.7-12.5 1.6-16 6.3-19.1 7.1-27 7.2-7.4.1-8.9-.3-21.5-5.3-13-5.2-13.9-5.4-25.2-5.9-8.3-.3-11.8-.8-11.8-1.7 0-3.1 4.2-16.9 6.9-23 3.9-8.6 12.3-19.8 19.6-26.1 17.9-15.6 44.1-23.7 66.6-20.4m208.9 2.4c17.2 3.2 31 10.6 44 23.6 6.6 6.6 9.6 10.5 13.2 17.5 4.9 9.5 9.8 24.4 9.8 30.1 0 3.2-.2 3.4-2.1 2.3-3.6-1.9-13.9-2.8-21.3-1.9-4.1.5-11.5 2.6-17.6 5.1-9.3 3.7-11.4 4.1-18.5 4-6.9 0-9.5-.6-19-4.3-10.4-3.9-11.6-4.2-21.5-4.2-10.2-.1-10.8 0-21 4.3-9.5 4-11.3 4.4-19 4.5-6 .1-9.9-.4-13.2-1.7l-4.8-1.9v-5.7c0-13.1 7.1-31.2 17.2-43.6 18.3-22.9 45.6-33.2 73.8-28.1m-384.9 29c15.1 4.6 27.3 16.3 32.2 31 3.2 9.5 7.8 8.6-43.9 8.6h-45.6l.7-3.3c1.3-5.7 7.1-17.3 11-21.5 5.4-6.1 12.8-11.2 19.9-13.8 7.2-2.7 18.6-3.1 25.7-1m551.6 1c16.7 2.3 35.3 19.7 38.7 36.2l.7 3.1-7.2 1.2c-3.9.6-11 2.8-15.8 4.7-14.5 6-24.1 5.8-40.1-.8-8.4-3.5-18.6-4.6-26-2.9-2.4.5-4.7.8-4.9.5-.8-.8 3-11.7 6.1-17.6 6.5-12.3 21.4-23.1 34.1-24.7 3.4-.4 7.1-.7 8.2-.5 1.1.1 3.9.5 6.2.8m-73.2 50.2c-2.3 1.8-13.9 1.4-15.8-.5-.8-.8 1.4-1.1 8.4-1.1 8.7.1 9.3.2 7.4 1.6" />
    <path
        d="M106.5 278.9c-9.3 2.4-18.2 9.8-22.5 18.6-3.3 6.9-3.4 19.8-.3 26.7 3 6.5 10.4 14.2 16.1 16.6 13.4 5.8 29.2 2.3 38.1-8.4 5.7-7 7.5-12 7.5-21.4.1-7.5-.2-9.2-2.8-14.3-3.5-6.9-8.9-12-16.1-15.3-5.6-2.6-15.2-3.8-20-2.5m16 11c4.7 2.2 10.9 8.4 12.4 12.4.6 1.6 1.1 5.4 1.1 8.7 0 7.9-3.8 15.1-10.4 19.7-4.3 3-5.5 3.3-11.7 3.3-10.6 0-16.1-3.5-20.9-12.9-2.6-5.3-2.9-14.5-.5-19.5 5.4-11.2 19.3-16.7 30-11.7" />
    <path
        d="M109.5 298c-1.6 1.8-1.7 2.7-.7 8.5 1.8 10.8 7.6 18 12.7 15.7 3.4-1.6 3.3-5.8-.1-9.3-1.9-2-2.8-4.2-3.3-8.6-.4-3.2-1-6.4-1.4-7.1-1.2-1.9-5.2-1.4-7.2.8M107.2 389.8c-2.8 2.8-3.4 7-3 20 .4 13.6 1.4 15.2 9.4 15.2 4.2 0 5.9-.5 8.1-2.4l2.8-2.4v-13.6c0-16.2-.6-17.3-9.7-18.3-4.7-.5-5.8-.3-7.6 1.5M199.5 430.4c-1.7 1.3-2 2.8-2.3 12.4-.3 10.1-.2 11.2 1.7 13.1 3.2 3.2 9.3 2.9 12-.5 1.8-2.3 2.1-4.1 2.1-11.8 0-11.8-1.1-14-7-14.4-2.8-.2-5.3.3-6.5 1.2M339.5 449.5c-2.3 2.2-2.5 3.1-2.5 12.8 0 11.9 1 13.7 7.3 13.7 5.9 0 6.7-1.7 6.7-13.6 0-9.8-.2-10.7-2.5-12.9-3.1-3.2-5.9-3.2-9 0M553.5 456.2c-3.2 1.8-3.5 2.8-3.5 12.9 0 10.8 1.1 12.9 6.6 12.9 6 0 6.9-1.7 6.9-13 0-9.5-.2-10.3-2.4-12.1-2.6-2.2-4.7-2.3-7.6-.7M512 456.7c-3.2 1.1-4 3.7-4 12.6 0 4.8.4 9.6 1 10.6 1.3 2.6 6.8 3.5 9.7 1.6 2.2-1.5 2.3-2.1 2.3-12 0-9.6-.2-10.5-2.2-11.9-2.3-1.6-4.1-1.9-6.8-.9M426.7 458.8c-1.3 1.4-1.7 3.9-1.7 11 0 10.1.7 11.2 6.8 11.2 4.5 0 5.4-1.9 5.3-11.7-.1-7.7-.3-9-2.2-10.6-2.7-2.2-6.2-2.2-8.2.1M468.6 458.9c-1.4 1.5-1.6 3.5-1.4 11.2.3 8.8.4 9.4 2.9 10.8s5.9 1.1 8.9-.9c1.2-.7 1.4-2.9 1.2-10.7-.2-5.4-.8-10.3-1.4-11-1.6-2-8.2-1.6-10.2.6M610.4 459.4c-1.7 1.3-1.9 2.7-1.9 11.9 0 12.3.7 13.7 7 13.7 6.5 0 7.5-1.8 7.5-13.1 0-11.5-1.2-13.9-6.9-13.9-2 0-4.6.6-5.7 1.4M411.5 660.1c-4.6.5-10.2 2-16.5 4.5-8.9 3.7-10.1 3.9-20 3.9s-11-.2-20-3.9c-8.4-3.5-10.6-4-19.8-4.4-8.8-.4-10.6-.2-12.2 1.3-2.2 2-2.4 3.3-1 5.5.7 1.1 3.8 1.7 12.2 2.1 10.1.6 12.2 1.1 20.3 4.5 8.5 3.6 9.6 3.9 19.5 3.9s11.3-.3 22.8-4.3c10.5-3.7 13.4-4.4 20.1-4.4 6.9 0 9.2.6 18.7 4.3 17.5 6.9 28.6 6.7 47-.7 5-2 11.2-3.7 14.8-4.1 5.7-.5 7.7-.1 21.2 4.5 8.2 2.7 16.9 5.3 19.4 5.5 5.8.7 18.1-1.5 24.5-4.3 12.4-5.5 24.4-6.5 34.3-2.9 19.3 7.1 19.6 7.2 27.7 7.2 7.1 0 9.5-.6 20.5-4.7 10.8-4 13.6-4.7 20.5-4.8 7.1-.1 9.2.4 18.8 4 15.2 5.8 20.7 6.7 29.8 5.2 4.1-.7 11.2-2.8 15.9-4.7 6.6-2.7 10.4-3.6 17-4 8.3-.5 8.8-.4 21 4.2 11.8 4.6 13 4.8 22 4.8 8.8 0 10.4-.4 23-4.9 12.3-4.5 13.5-5.1 13.8-7.5.2-1.5-.4-3.4-1.3-4.2-1.8-1.9-4.7-1.2-18 4.4-6.8 2.8-9.2 3.3-16 3.4-7 0-9.7-.6-21.6-4.8-18.8-6.5-24.5-6.4-43.2.9-6.2 2.4-11.4 3.8-16.2 4.1-7.3.5-8.3.3-29.5-7.3-6-2.1-9.3-2.6-16.5-2.7-8.4 0-9.7.3-19.5 4.4-10.1 4.2-10.9 4.4-21 4.4-10 0-11-.2-20-4-9.1-3.7-10-3.9-20.5-4-10.4 0-11.5.2-20.4 3.8-17.4 6.9-25.9 6.9-44.3-.4-8.9-3.6-11-4-18.7-4-6.5-.1-10.1.5-14.6 2.1-20.4 7.5-19.4 7.2-29 6.8-7.3-.4-10.9-1.2-18.7-4.2-11.6-4.4-17-5.4-26.3-4.5M166.7 710c-19.6 4.9-32.9 24.6-31.4 46.5.7 9.9 2.8 16.3 7.9 23.6 7 10.1 16.4 15.8 29.4 18 14.1 2.3 29.4-3.2 37.6-13.6l4-4.9-2.9-2.3c-1.5-1.3-4.7-3.3-7-4.5l-4.2-2.3-3.8 3.7c-7.4 7-14.7 9-23.7 6.4-7-2.1-11.8-6.2-15.3-13.3-3.6-7.6-3.9-19.3-.5-26.8 4.4-9.6 12.4-15.4 21.3-15.5 5.8 0 14.1 4.1 17.1 8.3 1.2 1.8 2.2 3.3 2.4 3.5.4.6 14.3-8.2 14.8-9.4.9-2.4-8.2-11.2-15.2-14.6-6-3-7.5-3.3-16.6-3.5-5.6-.1-11.8.2-13.9.7M256.5 710.8c-10.8 3.7-20.8 12-25.4 21-5.3 10.4-6.5 24.4-3.1 35.4 2.4 7.8 6.4 14 13 20.2 17 15.9 45.2 14.8 62-2.3 6.9-7 10.5-14.3 12.1-24 2.9-17.6-5.3-36.3-20.3-45.7-9.9-6.3-27.4-8.4-38.3-4.6m21.2 15.7c6.2 1.8 12.3 7.3 15.8 13.9 2 4 2.5 6.3 2.5 12.4 0 9.7-1.5 14.3-6.3 19.8-5.6 6.3-10.7 8.7-18.7 8.8-10.2.1-18.6-5.2-22.8-14.3-3.7-7.7-3.8-20.4-.3-27.1 6.4-12.5 17.1-17.3 29.8-13.5M332.5 711.3c-.3.6-.4 20.1-.3 43.2l.3 42 9.3.3 9.2.3V710h-9c-6.3 0-9.2.4-9.5 1.3M373.5 711.2c-.3.7-.4 20.2-.3 43.3l.3 42h16v-28.8c0-15.8.1-28.7.2-28.7.2 0 1.2 1.9 2.4 4.2 3.3 6.5 19 33.1 20.7 35 .9 1.1 2.9 1.8 4.8 1.8 3.2 0 3.6-.5 13.2-16.8 5.5-9.2 11-18.7 12.3-21.2l2.4-4.5.3 29.8.2 29.8 8.8-.3 8.7-.3.3-33c.2-18.2 0-37.6-.3-43.3l-.7-10.2h-19.4l-2.4 4.2c-1.3 2.4-6.2 10.8-10.8 18.8-4.7 8-9.5 16.2-10.7 18.3l-2.2 3.8-7.7-13.3c-4.2-7.3-10.1-17.4-12.9-22.3l-5.3-9-8.7-.3c-6.4-.2-8.9.1-9.2 1M485 753.5v43.7l22.8-.4c20.8-.4 23.2-.6 28.4-2.7 11.7-4.6 17.4-16.5 13.8-29-1.2-4.4-7.5-11.9-10.6-12.7-2.5-.6-3.3-2.4-1.1-2.4 1.7 0 7-5.8 8.5-9.3 1.8-4.1 1.4-12.6-.7-17.2-2.3-5-5.3-7.8-11.6-10.7-4.7-2.1-6.5-2.3-27.2-2.6l-22.3-.3zm42.2-24.6c2.5 2.8 2.9 3.9 2.4 7-.3 2.1-1.6 4.5-3.1 5.8-2.4 2.1-3.7 2.3-13.1 2.3H503v-19.2l10.6.4c10.6.4 10.6.4 13.6 3.7m-.7 31.5c6.6 2.8 8.4 12.5 3.2 17.4-2.9 2.7-9.3 4.1-18.9 4.2H503v-23h10c6.5 0 11.3.5 13.5 1.4M569 753.4V797h8.9c6.3 0 9-.4 9.2-1.3.2-.6.4-7.4.4-15v-13.8l7.5.3 7.5.3 8.3 14.7 8.3 14.8h9.3c5.1 0 9.6-.3 9.9-.6.7-.7-.4-2.6-11.5-21.4-3.7-6.3-6.8-11.7-6.8-12.1s1.3-1.2 3-1.9c4.2-1.7 10.7-9.1 11.9-13.6 1.4-5.1 1.4-14.7-.1-19.5-1.6-5.6-7-11.4-13.6-14.6-5.7-2.8-5.8-2.8-28.9-3.1l-23.3-.3zm42.1-25.7c7.7 4.6 6.4 17.4-2.2 21.8-1.8 1-6.3 1.6-12.1 1.8l-9.3.2-.3-12.7-.3-12.7 2.8-.4c5.2-.9 18.5.3 21.4 2M680.1 712.7c-.7 1.6-6.5 16.3-12.8 32.8s-13.2 34.4-15.4 39.8-3.7 10.3-3.4 10.8c.4.5 4.6.9 9.4.9h8.9l3.3-9 3.4-9 16.3.2 16.4.3 3.1 8.5 3.2 8.5 9.3.3c7.6.2 9.2 0 9.2-1.2 0-1.9-10-28.7-28-74.9l-4.1-10.7h-8.8c-8.6 0-8.8.1-10 2.7m15.3 34.1c2.7 7.5 5.1 14.3 5.4 14.9.3 1-2.2 1.3-10.7 1.3-6.1 0-11.1-.3-11.1-.7 0-1.6 10.3-29.3 10.9-29.3.3 0 2.8 6.2 5.5 13.8" />
</svg>