<?xml version="1.0" standalone="no"?>
<!DOCTYPE svg PUBLIC "-//W3C//DTD SVG 20010904//EN"
 "http://www.w3.org/TR/2001/REC-SVG-20010904/DTD/svg10.dtd">
<svg version="1.0" xmlns="http://www.w3.org/2000/svg"
 width="909.000000pt" height="685.000000pt" viewBox="0 0 909.000000 685.000000"
 preserveAspectRatio="xMidYMid meet">

<g transform="translate(0.000000,685.000000) scale(0.100000,-0.100000)"
fill="#000000" stroke="none">
<path d="M6076 6715 c-3 -9 -6 -54 -6 -100 l0 -82 -40 -7 c-31 -5 -41 -11 -46
-30 -8 -34 12 -65 53 -82 34 -15 34 -16 28 -57 -4 -23 -21 -60 -39 -82 -79
-101 -324 -406 -366 -455 -26 -30 -52 -65 -59 -77 -8 -16 -11 -252 -11 -872
l0 -851 -2712 -2 -2713 -3 0 -80 0 -80 2713 -3 2712 -2 0 -70 0 -70 -2712 -2
-2713 -3 -3 -1102 -2 -1103 23 -6 c13 -3 48 2 78 10 431 124 937 161 1605 117
348 -23 735 -27 910 -11 545 53 989 180 1664 478 309 136 448 191 634 251 730
236 1531 315 2221 220 148 -20 154 -21 360 -69 399 -92 755 -233 1142 -452
129 -73 161 -79 184 -36 23 44 5 62 -148 147 -268 149 -579 291 -770 352 l-73
23 0 248 c0 190 3 249 13 252 80 23 118 45 173 100 215 214 247 627 87 1121
-80 247 -203 395 -329 395 -85 0 -180 -83 -253 -223 -70 -133 -140 -401 -162
-617 -38 -378 96 -707 314 -772 l37 -11 0 -229 c0 -125 -3 -228 -7 -228 -5 0
-35 9 -68 19 -238 75 -714 141 -1017 141 l-128 0 0 1508 0 1509 -91 114 c-98
124 -231 289 -321 403 -52 64 -58 76 -58 119 0 26 3 46 8 46 42 -7 72 20 72
65 0 31 -3 34 -40 40 l-40 6 -1 73 c-2 109 -7 121 -56 125 -30 2 -42 -1 -47
-13z m237 -744 l138 -176 -166 -3 c-91 -1 -239 -1 -329 0 l-164 3 166 209 166
208 26 -33 c14 -18 87 -112 163 -208z m227 -731 l0 -430 -415 0 -415 0 0 430
0 430 415 0 415 0 0 -430z m0 -1529 l0 -989 -47 -6 c-27 -3 -91 -8 -143 -11
-131 -9 -393 -42 -512 -65 -55 -11 -108 -20 -119 -20 -19 0 -20 13 -17 938 1
515 4 983 6 1040 l3 102 415 0 414 0 0 -989z m1414 -83 c14 -19 16 -66 16
-310 l0 -288 -39 0 c-26 0 -41 5 -45 16 -3 9 -6 143 -6 298 0 206 3 285 12
294 19 19 45 14 62 -10z m-4859 -173 c271 -41 503 -122 718 -251 211 -127 453
-353 586 -548 81 -120 206 -355 194 -366 -16 -14 -236 -109 -243 -105 -4 2
-15 26 -25 52 -134 358 -445 697 -790 862 -376 180 -737 223 -1113 131 -495
-121 -900 -445 -1117 -895 -80 -167 -130 -336 -151 -517 -4 -32 -10 -59 -13
-59 -12 -3 -53 -6 -148 -13 l-96 -7 7 98 c21 287 113 554 275 794 320 476 837
787 1396 839 124 12 399 4 520 -15z m-2 -355 c497 -96 899 -428 1091 -899 14
-36 26 -68 26 -72 0 -19 -420 -177 -636 -239 -569 -164 -959 -198 -1724 -150
-173 11 -371 20 -438 20 l-124 0 7 52 c96 695 648 1236 1335 1308 125 13 340
4 463 -20z"/>
<path d="M6035 5496 c-44 -20 -83 -60 -105 -108 -17 -37 -20 -67 -20 -208 0
-227 -17 -210 215 -210 232 0 215 -16 215 206 0 218 -20 271 -115 315 -47 22
-146 24 -190 5z m160 -141 c14 -13 25 -34 26 -47 1 -49 1 -125 0 -175 l-1 -53
-95 0 -95 0 0 125 c0 120 1 127 25 150 18 19 35 25 70 25 35 0 52 -6 70 -25z"/>
<path d="M6066 4334 c-13 -13 -16 -44 -16 -183 0 -116 4 -171 12 -179 7 -7 36
-12 64 -12 82 0 84 4 84 188 0 190 -5 202 -80 202 -31 0 -54 -6 -64 -16z"/>
<path d="M886 980 c-66 -17 -155 -71 -201 -122 -100 -111 -136 -263 -100 -417
21 -87 59 -154 120 -209 214 -196 552 -147 672 96 25 51 28 67 28 162 l0 105
-195 0 -195 0 -3 -82 -3 -83 106 0 105 0 -19 -37 c-35 -69 -95 -103 -181 -103
-65 0 -108 18 -165 71 -56 52 -79 119 -73 218 7 128 84 220 196 236 76 10 129
-9 183 -65 l45 -48 85 35 c46 19 85 36 87 38 2 2 -4 17 -13 35 -27 52 -93 110
-162 142 -56 27 -77 31 -171 34 -59 2 -124 -1 -146 -6z"/>
<path d="M1847 979 c-100 -24 -212 -109 -261 -200 -77 -141 -75 -332 5 -465
97 -161 302 -237 508 -189 131 31 234 117 294 242 30 65 32 74 32 188 0 114
-2 123 -31 185 -56 118 -157 204 -276 236 -58 15 -211 17 -271 3z m214 -171
c175 -52 222 -332 78 -463 -54 -48 -134 -71 -205 -57 -138 28 -214 140 -202
295 14 172 164 275 329 225z"/>
<path d="M4740 975 c-314 -88 -416 -516 -177 -743 64 -59 115 -87 199 -107
281 -66 530 91 568 357 31 217 -72 406 -263 481 -70 27 -248 34 -327 12z m231
-170 c52 -19 102 -64 132 -120 32 -60 31 -202 -2 -265 -30 -59 -57 -88 -103
-111 -117 -60 -271 -11 -329 104 -45 86 -42 210 7 294 55 96 182 138 295 98z"/>
<path d="M2585 967 c-3 -6 -4 -199 -3 -427 l3 -415 90 0 90 0 0 278 c0 152 2
277 5 277 3 -1 43 -57 90 -127 47 -69 133 -194 191 -277 l106 -151 92 -3 91
-3 0 431 0 430 -95 0 -95 0 -2 -262 -3 -262 -130 190 c-72 104 -153 222 -179
262 l-50 72 -98 0 c-70 0 -100 -4 -103 -13z"/>
<path d="M3535 967 c-3 -6 -4 -199 -3 -427 l3 -415 187 -3 c280 -4 372 21 484
133 75 74 105 143 112 260 13 235 -106 406 -315 450 -90 19 -461 21 -468 2z
m445 -181 c79 -41 120 -105 128 -202 9 -120 -34 -211 -121 -256 -33 -17 -66
-22 -149 -26 l-108 -5 0 258 0 258 108 -5 c76 -3 117 -10 142 -22z"/>
<path d="M5490 550 l0 -431 92 3 91 3 -1 263 c0 144 1 262 3 262 2 0 29 -48
59 -107 30 -60 79 -153 108 -208 l53 -100 39 0 39 0 108 205 109 205 0 -262 0
-263 90 0 90 0 0 430 0 431 -97 -3 -97 -3 -116 -217 c-63 -119 -117 -219 -120
-222 -3 -3 -60 95 -126 217 l-120 222 -102 3 -102 3 0 -431z"/>
<path d="M6793 848 c-231 -601 -273 -713 -273 -720 0 -14 186 -10 199 5 6 8
22 45 37 83 14 38 29 71 34 74 4 3 81 3 171 0 l163 -5 29 -82 30 -83 98 0 c80
0 99 3 99 14 0 12 -128 348 -312 819 l-10 27 -107 0 -107 0 -51 -132z m192
-185 c15 -43 38 -106 51 -140 l23 -63 -106 0 c-96 0 -105 2 -100 18 22 72 93
262 98 262 4 0 19 -35 34 -77z"/>
<path d="M7495 968 c-3 -7 -4 -200 -3 -428 l3 -415 95 0 95 0 3 148 3 148 66
-3 66 -3 84 -147 85 -148 104 0 c63 0 104 4 104 10 0 6 -41 81 -92 167 -58
100 -87 158 -79 161 37 12 99 74 124 124 24 45 29 68 29 125 0 86 -17 129 -74
186 -73 72 -107 80 -376 85 -187 3 -233 1 -237 -10z m420 -173 c52 -21 72 -89
46 -154 -19 -46 -63 -61 -175 -61 l-96 0 0 115 0 115 95 0 c61 0 108 -5 130
-15z"/>
</g>
</svg>
