<svg version="1.0" xmlns="http://www.w3.org/2000/svg" width="1212" height="913.333" viewBox="0 0 909 685"><path d="M607.6 13.5c-.3.9-.6 5.4-.6 10v8.2l-4 .7c-3.1.5-4.1 1.1-4.6 3-.8 3.4 1.2 6.5 5.3 8.2 3.4 1.5 3.4 1.6 2.8 5.7-.4 2.3-2.1 6-3.9 8.2-7.9 10.1-32.4 40.6-36.6 45.5-2.6 3-5.2 6.5-5.9 7.7-.8 1.6-1.1 25.2-1.1 87.2V283l-271.2.2-271.3.3v16l271.3.3 271.2.2v14l-271.2.2-271.3.3-.3 110.2L16 535l2.3.6c1.3.3 4.8-.2 7.8-1 43.1-12.4 93.7-16.1 160.5-11.7 34.8 2.3 73.5 2.7 91 1.1 54.5-5.3 98.9-18 166.4-47.8 30.9-13.6 44.8-19.1 63.4-25.1 73-23.6 153.1-31.5 222.1-22 14.8 2 15.4 2.1 36 6.9 39.9 9.2 75.5 23.3 114.2 45.2 12.9 7.3 16.1 7.9 18.4 3.6 2.3-4.4.5-6.2-14.8-14.7-26.8-14.9-57.9-29.1-77-35.2l-7.3-2.3v-24.8c0-19 .3-24.9 1.3-25.2 8-2.3 11.8-4.5 17.3-10 21.5-21.4 24.7-62.7 8.7-112.1-8-24.7-20.3-39.5-32.9-39.5-8.5 0-18 8.3-25.3 22.3-7 13.3-14 40.1-16.2 61.7-3.8 37.8 9.6 70.7 31.4 77.2l3.7 1.1v22.9c0 12.5-.3 22.8-.7 22.8-.5 0-3.5-.9-6.8-1.9-23.8-7.5-71.4-14.1-101.7-14.1H665V111.3l-9.1-11.4c-9.8-12.4-23.1-28.9-32.1-40.3-5.2-6.4-5.8-7.6-5.8-11.9 0-2.6.3-4.6.8-4.6 4.2.7 7.2-2 7.2-6.5 0-3.1-.3-3.4-4-4l-4-.6-.1-7.3c-.2-10.9-.7-12.1-5.6-12.5-3-.2-4.2.1-4.7 1.3zm23.7 74.4 13.8 17.6-16.6.3c-9.1.1-23.9.1-32.9 0l-16.4-.3 16.6-20.9 16.6-20.8 2.6 3.3c1.4 1.8 8.7 11.2 16.3 20.8zM654 161v43h-83v-86h83v43zm0 152.9v98.9l-4.7.6c-2.7.3-9.1.8-14.3 1.1-13.1.9-39.3 4.2-51.2 6.5-5.5 1.1-10.8 2-11.9 2-1.9 0-2-1.3-1.7-93.8.1-51.5.4-98.3.6-104l.3-10.2H654v98.9zm141.4 8.3c1.4 1.9 1.6 6.6 1.6 31V382h-3.9c-2.6 0-4.1-.5-4.5-1.6-.3-.9-.6-14.3-.6-29.8 0-20.6.3-28.5 1.2-29.4 1.9-1.9 4.5-1.4 6.2 1zm-485.9 17.3c27.1 4.1 50.3 12.2 71.8 25.1 21.1 12.7 45.3 35.3 58.6 54.8 8.1 12 20.6 35.5 19.4 36.6-1.6 1.4-23.6 10.9-24.3 10.5-.4-.2-1.5-2.6-2.5-5.2-13.4-35.8-44.5-69.7-79-86.2-37.6-18-73.7-22.3-111.3-13.1-49.5 12.1-90 44.5-111.7 89.5-8 16.7-13 33.6-15.1 51.7-.4 3.2-1 5.9-1.3 5.9-1.2.3-5.3.6-14.8 1.3l-9.6.7.7-9.8c2.1-28.7 11.3-55.4 27.5-79.4 32-47.6 83.7-78.7 139.6-83.9 12.4-1.2 39.9-.4 52 1.5zm-.2 35.5c49.7 9.6 89.9 42.8 109.1 89.9 1.4 3.6 2.6 6.8 2.6 7.2 0 1.9-42 17.7-63.6 23.9-56.9 16.4-95.9 19.8-172.4 15-17.3-1.1-37.1-2-43.8-2h-12.4l.7-5.2c9.6-69.5 64.8-123.6 133.5-130.8 12.5-1.3 34-.4 46.3 2z"/><path d="M603.5 135.4c-4.4 2-8.3 6-10.5 10.8-1.7 3.7-2 6.7-2 20.8 0 22.7-1.7 21 21.5 21s21.5 1.6 21.5-20.6c0-21.8-2-27.1-11.5-31.5-4.7-2.2-14.6-2.4-19-.5zm16 14.1c1.4 1.3 2.5 3.4 2.6 4.7.1 4.9.1 12.5 0 17.5l-.1 5.3h-19v-12.5c0-12 .1-12.7 2.5-15 1.8-1.9 3.5-2.5 7-2.5s5.2.6 7 2.5zM606.6 251.6c-1.3 1.3-1.6 4.4-1.6 18.3 0 11.6.4 17.1 1.2 17.9.7.7 3.6 1.2 6.4 1.2 8.2 0 8.4-.4 8.4-18.8 0-19-.5-20.2-8-20.2-3.1 0-5.4.6-6.4 1.6zM88.6 587c-6.6 1.7-15.5 7.1-20.1 12.2-10 11.1-13.6 26.3-10 41.7 2.1 8.7 5.9 15.4 12 20.9 21.4 19.6 55.2 14.7 67.2-9.6 2.5-5.1 2.8-6.7 2.8-16.2v-10.5h-39l-.3 8.2-.3 8.3H122l-1.9 3.7c-3.5 6.9-9.5 10.3-18.1 10.3-6.5 0-10.8-1.8-16.5-7.1-5.6-5.2-7.9-11.9-7.3-21.8.7-12.8 8.4-22 19.6-23.6 7.6-1 12.9.9 18.3 6.5l4.5 4.8 8.5-3.5c4.6-1.9 8.5-3.6 8.7-3.8.2-.2-.4-1.7-1.3-3.5-2.7-5.2-9.3-11-16.2-14.2-5.6-2.7-7.7-3.1-17.1-3.4-5.9-.2-12.4.1-14.6.6zM184.7 587.1c-10 2.4-21.2 10.9-26.1 20-7.7 14.1-7.5 33.2.5 46.5 9.7 16.1 30.2 23.7 50.8 18.9 13.1-3.1 23.4-11.7 29.4-24.2 3-6.5 3.2-7.4 3.2-18.8s-.2-12.3-3.1-18.5c-5.6-11.8-15.7-20.4-27.6-23.6-5.8-1.5-21.1-1.7-27.1-.3zm21.4 17.1c17.5 5.2 22.2 33.2 7.8 46.3-5.4 4.8-13.4 7.1-20.5 5.7-13.8-2.8-21.4-14-20.2-29.5 1.4-17.2 16.4-27.5 32.9-22.5zM474 587.5c-31.4 8.8-41.6 51.6-17.7 74.3 6.4 5.9 11.5 8.7 19.9 10.7 28.1 6.6 53-9.1 56.8-35.7 3.1-21.7-7.2-40.6-26.3-48.1-7-2.7-24.8-3.4-32.7-1.2zm23.1 17c5.2 1.9 10.2 6.4 13.2 12 3.2 6 3.1 20.2-.2 26.5-3 5.9-5.7 8.8-10.3 11.1-11.7 6-27.1 1.1-32.9-10.4-4.5-8.6-4.2-21 .7-29.4 5.5-9.6 18.2-13.8 29.5-9.8zM258.5 588.3c-.3.6-.4 19.9-.3 42.7l.3 41.5h18v-27.8c0-15.2.2-27.7.5-27.7.3.1 4.3 5.7 9 12.7 4.7 6.9 13.3 19.4 19.1 27.7l10.6 15.1 9.2.3 9.1.3V587h-19l-.2 26.2-.3 26.2-13-19c-7.2-10.4-15.3-22.2-17.9-26.2l-5-7.2h-9.8c-7 0-10 .4-10.3 1.3zM353.5 588.3c-.3.6-.4 19.9-.3 42.7l.3 41.5 18.7.3c28 .4 37.2-2.1 48.4-13.3 7.5-7.4 10.5-14.3 11.2-26 1.3-23.5-10.6-40.6-31.5-45-9-1.9-46.1-2.1-46.8-.2zm44.5 18.1c7.9 4.1 12 10.5 12.8 20.2.9 12-3.4 21.1-12.1 25.6-3.3 1.7-6.6 2.2-14.9 2.6l-10.8.5v-51.6l10.8.5c7.6.3 11.7 1 14.2 2.2zM549 630v43.1l9.2-.3 9.1-.3-.1-26.3c0-14.4.1-26.2.3-26.2.2 0 2.9 4.8 5.9 10.7 3 6 7.9 15.3 10.8 20.8l5.3 10h7.8l10.8-20.5 10.9-20.5V673h18v-86.1l-9.7.3-9.7.3-11.6 21.7c-6.3 11.9-11.7 21.9-12 22.2-.3.3-6-9.5-12.6-21.7l-12-22.2-10.2-.3-10.2-.3V630zM679.3 600.2c-23.1 60.1-27.3 71.3-27.3 72 0 1.4 18.6 1 19.9-.5.6-.8 2.2-4.5 3.7-8.3 1.4-3.8 2.9-7.1 3.4-7.4.4-.3 8.1-.3 17.1 0l16.3.5 2.9 8.2 3 8.3h9.8c8 0 9.9-.3 9.9-1.4 0-1.2-12.8-34.8-31.2-81.9l-1-2.7h-21.4l-5.1 13.2zm19.2 18.5c1.5 4.3 3.8 10.6 5.1 14l2.3 6.3h-10.6c-9.6 0-10.5-.2-10-1.8 2.2-7.2 9.3-26.2 9.8-26.2.4 0 1.9 3.5 3.4 7.7zM749.5 588.2c-.3.7-.4 20-.3 42.8l.3 41.5h19l.3-14.8.3-14.8 6.6.3 6.6.3 8.4 14.7 8.5 14.8h10.4c6.3 0 10.4-.4 10.4-1s-4.1-8.1-9.2-16.7c-5.8-10-8.7-15.8-7.9-16.1 3.7-1.2 9.9-7.4 12.4-12.4 2.4-4.5 2.9-6.8 2.9-12.5 0-8.6-1.7-12.9-7.4-18.6-7.3-7.2-10.7-8-37.6-8.5-18.7-.3-23.3-.1-23.7 1zm42 17.3c5.2 2.1 7.2 8.9 4.6 15.4-1.9 4.6-6.3 6.1-17.5 6.1H769v-23h9.5c6.1 0 10.8.5 13 1.5z"/></svg>