<svg xmlns="http://www.w3.org/2000/svg" version="1.0" viewBox="0 0 512 512"><path d="m135.3 25.7-7.8 11.8-.5 16.4-.5 16.3 5.9 8.6 5.8 8.6-.1 19.5c-.1 10.7-.3 19.6-.5 19.8-.1.1-1.3.4-2.7.5-2.3.3-2.4.1-2.7-7.5l-.3-7.8-9.2.3-9.2.3-.5 17.5c-.3 10.8-.1 18.3.5 19.7.5 1.2 3.8 5.9 7.3 10.3l6.2 8.2v36.3l-9 9-9 9v37.8l5.4 6.6c3 3.6 7.1 8.2 9 10l3.6 3.5v98.2l-4.7 5.3c-2.7 3-7.1 7.8-9.9 10.7-5.1 5.4-5.1 5.4-11.1 5.4-5.4 0-6.7-.4-10.9-3.5-7.4-5.4-11.2-6.8-19-7.3-6.4-.4-7.4-.2-9.4 1.8-3.4 3.4-1.3 4.7 8.3 5.2 8 .3 8.4.5 14.5 5 11.3 8.4 17.8 8.8 36.7 2.3 11.1-3.8 14.2-4.5 20.9-4.5 7.1 0 8.7.4 17 4.2s9.9 4.2 19.2 4.6c9.9.4 10.1.4 21-3.9 9.7-3.9 11.8-4.4 18.9-4.4 7.2 0 8.8.4 15.9 3.8 15.3 7.3 28.9 7.3 44.7.1 7.4-3.4 9.3-3.8 16.4-3.8 7-.1 8.9.3 14.7 3.1 14.5 6.8 26.5 7.1 41.8.8 8-3.3 10.9-4 18.2-4.3 8.4-.4 9-.3 17.5 3.6 4.8 2.3 11 4.6 13.6 5.3 5.4 1.3 17.3.7 22.5-1.1 2.8-1 3.3-1.7 3-3.9-.2-2.1-.9-2.7-3.8-3.1l-3.5-.5-.3-48.3-.2-48.2h-9.5c-9.3 0-9.6.1-10.5 2.6-.6 1.4-1 5-1 8 0 5.3 0 5.4-3 5.4h-3v-16h-13v-33.7l4.9-.7c12.2-1.6 27-13.3 33.1-26 5.5-11.6 7.3-21.2 6.8-35.6-.4-10-1-13.8-3-19.1-5.5-14.9-13.7-24.4-26.1-30.3-14.5-7-29.9-5.9-43.4 3.1-15 9.9-22.6 26.7-22.7 50.3 0 13.5 1.8 21.9 7.1 32.4 5.6 11 16.3 20.4 26.2 23.2 3.1.8 6.6 1.9 7.9 2.5l2.3.9-.3 24.3-.3 24.2-2.7.3c-2.8.3-2.8.3-2.8-5.5 0-10.5.2-10.3-11-10.3-11.3 0-11-.2-11 9.6 0 6.2-.1 6.4-2.5 6.4s-2.5-.2-2.5-6.8c0-4-.5-7.3-1.2-8-.8-.8-4.6-1.2-10.5-1.2-10.6 0-10.1-.5-10.5 10.5-.3 6-.3 6-3.5 6.3l-3.3.3v-47.4l-5.4-7.1c-3-3.9-7.3-8.9-9.5-11.1l-4.1-3.9V210c0-22.3.4-42 .9-43.7.5-1.8 3.7-6.5 7-10.4l6.1-7.3v-16.4c0-9.3-.4-17.2-1-18.3-.9-1.6-2.2-1.9-9.3-1.9-5.1 0-8.8.5-9.5 1.2s-1.2 4-1.2 8v6.8h-5.7l-.6-10.7c-.4-5.8-.7-15.5-.7-21.5v-11l5.4-6.1c6.6-7.4 6.9-8.6 6.2-27.3l-.6-14.2-6.2-10.3c-7.5-12.4-8.5-13.6-10.5-12.3-.8.5-4.6 5.6-8.4 11.4l-6.8 10.5-.3 14.3c-.3 15.8-1.8 19.7-1.8 4.6v-9.5l-3.2.3-3.3.3-.3 9.8-.3 9.8-5-.3-5.1-.3-.1-9.5-.2-9.5h-7l-.3 9.8-.3 9.8-6.2-.3c-4.7-.2-6.2-.7-6.3-1.8-.1-.8-.2-5.2-.2-9.8L216 46h-6.9l-.3 9.7-.3 9.8-5.2.3-5.2.3-.3-9.8c-.3-9.5-.4-9.8-2.7-10.1-3.9-.6-5.1 2.1-5.1 11.5V66h-11V45.9l-3.7.3-3.8.3-.1 9.5-.2 9.5h-10.6v-14l-.1-14-7.1-11.5c-3.9-6.3-7.8-11.6-8.7-11.8-1.1-.2-4 3.2-9.4 11.5m15.4 9.9c-.3.3-3.4.4-7 .2l-6.6-.3 3.5-4.7 3.6-4.8 3.4 4.6c2 2.5 3.3 4.8 3.1 5m125.1-4.1L279 36h-15.1l3.8-4.5c2-2.5 4-4.5 4.3-4.5s2 2 3.8 4.5M153 54v12h-19V42h19zm128 .5V66h-6.9c-10.5 0-10.1.4-10.1-11.6V44.1l5.8-.4c3.1-.2 6.9-.4 8.5-.5l2.7-.2zM152 73.7c0 1.2-6.3 7.3-7.5 7.3-1 0-3.7-3.1-5.9-6.8-.5-.9 1-1.2 6.3-1.2 3.9 0 7.1.3 7.1.7m105.7 1.6c.6 1.2 3.4 5.2 6.2 8.7s5.4 7.3 5.7 8.5c.3 1.1.4 5.8.2 10.5l-.3 8.5-5.5.3c-3 .2-5.8.9-6.2 1.5-.4.7-.8 4.3-.8 8v6.8l-3.2-.3c-3.3-.3-3.3-.3-3.8-6.8-.3-3.6-.9-7.1-1.3-7.8-.5-.8-3.6-1.2-9.1-1.2-10 0-10.9.7-11.6 9.4-.5 5.7-.7 6.1-3.1 6.4-2.5.3-2.6.1-3.3-5.9-.3-3.4-.6-8.4-.6-11.2 0-6.6-2.8-11-8.2-13.2-5.5-2.2-9.8-1.3-14.3 2.9-3.8 3.6-3.5 1.9-3.9 21.5l-.1 5.4-3.5.1h-3.5l-.5-7.5-.5-7.4-9.1-.3c-10.9-.3-11.6.2-12.2 8.9-.4 5.2-.7 6-2.8 6.5-3.6.9-4.4-.3-4.4-6.6 0-8.6-.3-9-6.7-9h-5.5l.4-10.9.3-10.9 5.1-5.4c2.8-3 5.9-6.9 6.8-8.6l1.7-3.2h96.6zm19.4-.6c-.6 1-2 2.8-3 4.1-2.2 2.5-2.1 2.6-7.5-3.6l-1.9-2.2h6.7c6.1 0 6.6.2 5.7 1.7m-65.4 31.5c2.3 2.1 3 5.2 1.5 6.2-.4.2-3 .6-5.7.7-4.6.3-5 .1-5.3-1.9-.5-3.1 2.4-7.2 5-7.2 1.2 0 3.2 1 4.5 2.2M125 124.6c0 8.7.7 9.4 9.9 9.4 9.3 0 10-.6 10.8-8.4.5-5.1.8-5.6 2.9-5.6 2.2 0 2.4.4 2.4 4.4 0 2.5.4 5.6 1 7 .9 2.5 1.2 2.6 9.9 2.6 6 0 9.2-.4 9.9-1.3.6-.7 1.2-4 1.4-7.2.3-5.9.3-6 3.3-6 2.9 0 3 .1 3.3 5.5.5 8 1.8 9 11.7 9 5 0 8.6-.5 9.3-1.2s1.2-3.4 1.2-6V122h12v4.1c0 7.3.8 7.9 11.1 7.9 8.7 0 9-.1 9.9-2.6.6-1.4 1-4.5 1-6.8 0-3.9.3-4.4 2.6-4.9 3-.5 3.1-.2 3.8 7.8.3 3.3.5 6.1.6 6.2 0 .2 4.5.3 10 .3 11.3 0 10.7.5 11.2-9.5.3-4.8.4-5 3.3-5s3 .1 3.5 6c.3 3.3.9 6.6 1.3 7.2 1.1 1.7 16.8 1.8 18.5.1.7-.7 1.2-3.9 1.2-7.5 0-6 .1-6.3 2.4-6.3 1.3 0 2.7.7 3 1.6 1.1 2.8-.6 25.3-1.9 26.4-.8.7-31.1.9-88.1.8l-86.9-.3-.3-14.3-.3-14.2h2.6c2.4 0 2.5.3 2.5 5.6m162.1 33.9-3.1 3.6v44.2l-.1 44.2-7.4 10-7.5 10v28.7c0 21 .3 28.9 1.2 29.4.8.5.7.9-.5 1.3-.9.3-31.8.5-68.7.3l-67-.2v-36.4c0-40 .2-38.9-6.2-38.6-1.8.1-5.2.2-7.5.1l-4.3-.1v-25h6.8c7.4 0 10.6-1.5 10-4.6-.2-1.5-1.3-2-5.6-2.2-6.6-.4-6.7-1.8-.6-6.9 7.3-6.1 7.4-6.4 7.4-30.3 0-19.7-.5-24-2.9-26-.3-.3-1.5-1.5-2.5-2.8l-1.9-2.2h163.5zm98.3 4c7 1.8 12.8 5.7 19.1 12.7 5.8 6.5 8.1 10.9 10.6 20.5 6.7 26.6-6.6 57.5-27.9 64.5-8.1 2.7-8.2 2.6-8.2-4v-5.7l10.5-10.5c8.5-8.5 10.5-11 10.3-13-.2-1.8-1-2.6-2.6-2.8-1.9-.3-4.1 1.4-10.3 7.9l-7.9 8.3v-16.5c0-9-.3-17.4-.6-18.6-.8-2.8-3.4-3.8-5.2-1.9-1.2 1.2-1.5 6.5-1.7 29.3-.3 23.2-.6 27.8-1.8 28.1-.7.2-4-.7-7.3-1.9-7.4-2.8-16.9-11.9-20.6-19.9-7.7-16.3-7.8-40.2-.3-55.1 3.1-6 12.5-16.3 17-18.7 8.3-4.3 17.2-5.2 26.9-2.7m-91.5 102.2 5.2 6.3h-21.3l2.2-2.8c1.1-1.5 3.3-4.4 4.7-6.5s2.9-3.6 3.3-3.5c.4.2 3 3.1 5.9 6.5m-166.9 2v3.7l-3-2.9c-1.6-1.6-3-3.2-3-3.7 0-.4 1.4-.8 3-.8 2.8 0 3 .3 3 3.7m175.8 32.5.2 20.7-13.1.3c-7.2.2-13.3.1-13.5-.1s-.4-9.8-.4-21.3v-20.9l13.3.3 13.2.3zm28.2 17.2c0 8.5 1.1 9.6 9.8 9.6 3.7 0 7.3-.4 8-.9 1.5-.9 3.1-7 3.2-11.9 0-2.9.3-3.2 3-3.2s3 .3 3 3.2c.1 4.9 1.7 11 3.2 11.9 2 1.3 15.2 1.1 16.6-.3.7-.7 1.2-4 1.2-8V310h2.9c2.8 0 2.8.1 3.3 6.9.3 3.7.8 7.3 1.2 8 .4.6 3.7 1.1 8.1 1.1 9 0 10.5-1.1 10.5-8 0-6.6.7-8 4.1-8h2.9v70H291.9l.5-11.8c.3-6.4.5-13.8.5-16.3.1-3.7.7-5.2 3.6-8.5 1.9-2.1 5.4-6.7 7.8-10.1l4.2-6.3h5.9c8.3 0 9.6-1.4 9.6-10.2V310h7zm-33.2 12.5c-.7.9-3.1 3.8-5.3 6.5l-4 4.8-5.2-5.8c-2.9-3.3-5.3-6.2-5.3-6.5 0-.4 4.7-.7 10.5-.7 9.6 0 10.4.2 9.3 1.7m-17.4 14.3c5 6.7 5.6 9 5.6 24V380H134v-42l71.3.1h71.2zM412 394v7h-5.1c-3.2 0-7.6-1-12.2-2.9-14.6-5.8-15.9-6.2-24.1-6.2-6.5-.1-9.5.5-15.1 2.6-13.8 5.3-17.9 6.5-21.9 6.5-6-.1-15.2-2.4-22.1-5.5-4.2-1.9-8.3-2.9-13.6-3.2-8.2-.6-10.9 0-22.3 4.9-8.8 3.8-18.3 5.2-25.3 3.8-3-.7-10.2-3-16.1-5.2-9.8-3.7-11.3-4-18.2-3.6-5.6.4-9.9 1.5-17 4.3-7.2 2.9-11.4 3.9-17.2 4.3-8.2.5-9.1.3-20.8-5.2-5.5-2.5-8-3-16.5-3.3-8.2-.4-11-.1-15.5 1.6-7.7 2.7-8-.5-.5-5.1 2.9-1.7 9-1.8 143.3-1.8H412z"/><path d="M197.8 169.1c-1.5.8-1.8 2.5-1.8 9.8 0 9.6.9 11.5 5.2 10.9 2.2-.3 2.3-.7 2.6-9.7.3-11.3-1.1-13.9-6-11m16.8.5c-1.2 1.1-1.6 3.5-1.6 8.7 0 10.1 2.7 14.8 6.4 11.2 2-2 2.3-18.4.4-20.3-1.6-1.6-3.3-1.5-5.2.4m-16 39.5c-4.2 3.3-8.1 7.1-8.6 8.3-.7 1.9-1.4 29.9-1.1 44.8.2 7.5 7.1 8.7 7.1 1.3V260h25v2.9c0 2.7 2.1 6.1 3.9 6.1 2.7 0 3.1-3.1 3.1-27.1v-24.6l-4.4-3.9c-8.7-7.7-12.5-10.4-14.9-10.4-1.5 0-5.5 2.4-10.1 6.1m15 5.5c7.2 4.2 7.4 4.8 7.4 22.6V253h-25l.2-16.7.3-16.7 5.4-3.8c3-2.1 5.8-3.8 6.3-3.8s2.9 1.2 5.4 2.6"/><path d="M204.5 225.4c-1.4 1-2 3-2.3 8-.2 3.6-.1 7.7.2 9.1.6 2.5 1 2.6 6.4 2.3l5.7-.3-.2-9c-.2-7.2-.6-9.2-2-10.2-2.2-1.7-5.5-1.6-7.8.1m1.4 50.3c-1 1.1-1.4 4.4-1.4 10.4 0 7.1.3 9.2 1.8 10.6 1.3 1.4 2.1 1.5 3.5.7 2.6-1.7 3.1-20.3.5-22.1-2.2-1.7-2.8-1.6-4.4.4m76.8 11.9c-.4.4-.7 3.6-.7 7 0 8.8 2.1 10.5 10.9 8.8l3.2-.7-.3-7.6-.3-7.6-6-.3c-3.4-.2-6.4 0-6.8.4m-82.8 157.3c-7.5 2.4-10.9 7.2-10.9 15.2 0 7.3 3.7 10.8 15.2 14.3 8.9 2.7 11.8 4.8 11.8 8.4 0 2.8-4.6 6.2-8.3 6.2-1.7 0-5.5-1.4-8.4-3l-5.4-3.1-2.9 2.1c-4 2.8-3.8 5.2.8 8.8 8.3 6.6 23.3 6.9 30.4.5 3.7-3.2 6.1-10 5.3-14.9-1-6.9-5.2-10.5-16-13.9-4.9-1.5-9.6-3.2-10.2-3.8-3.4-2.6.5-7.7 6-7.7 1.5 0 5.1 1.2 7.9 2.6l5.2 2.6 2.8-3.3c1.5-1.9 2.6-3.9 2.4-4.4-.1-.6-2.4-2.3-5.1-4-3.8-2.4-6-3-11.4-3.2-3.6-.1-7.8.1-9.2.6m100.5 1.6c-5.4 2.7-10.6 8.3-13 14-1.7 4-1.8 12.9-.3 18.8 5 19.9 32 25.7 46 9.9 9.4-10.7 9-29.1-.8-38.4-7.6-7.2-22.2-9.1-31.9-4.3m21 9.4c1.6.9 4 3.6 5.4 6.1 4.8 9.1.8 21.1-8.5 25.1-6.1 2.6-10.7 1.7-15.5-3-7.8-7.8-7.1-21 1.4-27.5 5.2-3.9 11.2-4.2 17.2-.7m40.1-10.7c-.3.7-2.3 6.2-4.6 12.3-2.2 6-5.1 13.9-6.4 17.5s-3.7 10.2-5.4 14.7l-3 8.3h11.8l1.9-5.3 2-5.2h20.6l1.7 5 1.7 5 6.2.3c5.7.3 6.2.1 5.6-1.5-3.1-8-12.4-31.8-15.9-40.8l-4.3-11-5.7-.3c-4-.2-5.9.1-6.2 1m10.2 22.8 3.2 9h-7.1c-5.2 0-6.9-.3-6.6-1.3 4.7-12.9 6.2-16.7 6.7-16.7.3 0 2 4.1 3.8 9M122 471.5V498h36v-10h-25v-43h-11zm45 0V498h11v-53h-11zm71 .1v26.5l14.3-.3c12.1-.3 14.8-.6 18.2-2.4 8.6-4.5 10.8-16.2 4.3-22.7l-2.9-3 2.3-2.4c1.9-2.1 2.3-3.6 2.3-9 0-5.8-.3-6.7-2.8-8.8-4-3.6-8.8-4.5-22.9-4.5H238zm26-15.6c2.3 2.3 2.5 4.9.6 7.5-1.1 1.5-3 2-8.5 2.3l-7.1.4V454h6.5c5.2 0 6.9.4 8.5 2m0 20c4.4 2.4 3.4 10.2-1.6 12-1.4.6-5 1-8 1H249v-6.8c0-3.8.3-7.2.8-7.6.9-1 11.7.1 14.2 1.4"/></svg>