<?xml version="1.0" standalone="no"?>
<!DOCTYPE svg PUBLIC "-//W3C//DTD SVG 20010904//EN"
 "http://www.w3.org/TR/2001/REC-SVG-20010904/DTD/svg10.dtd">
<svg version="1.0" xmlns="http://www.w3.org/2000/svg"
 width="512.000000pt" height="512.000000pt" viewBox="0 0 512.000000 512.000000"
 preserveAspectRatio="xMidYMid meet">

<g transform="translate(0.000000,512.000000) scale(0.100000,-0.100000)"
fill="black" stroke="none">
<path d="M1353 4863 l-78 -118 -5 -164 -5 -163 59 -86 58 -86 -1 -195 c-1
-107 -3 -196 -5 -198 -1 -1 -13 -4 -27 -5 -23 -3 -24 -1 -27 75 l-3 78 -92 -3
-92 -3 -5 -175 c-3 -108 -1 -183 5 -197 5 -12 38 -59 73 -103 l62 -82 0 -182
0 -181 -90 -90 -90 -90 0 -189 0 -189 54 -66 c30 -36 71 -82 90 -100 l36 -35
0 -491 0 -491 -47 -53 c-27 -30 -71 -78 -99 -107 -51 -54 -51 -54 -111 -54
-54 0 -67 4 -109 35 -74 54 -112 68 -190 73 -64 4 -74 2 -94 -18 -34 -34 -13
-47 83 -52 80 -3 84 -5 145 -50 113 -84 178 -88 367 -23 111 38 142 45 209 45
71 0 87 -4 170 -42 83 -38 99 -42 192 -46 99 -4 101 -4 210 39 97 39 118 44
189 44 72 0 88 -4 159 -38 153 -73 289 -73 447 -1 74 34 93 38 164 38 70 1 89
-3 147 -31 145 -68 265 -71 418 -8 80 33 109 40 182 43 84 4 90 3 175 -36 48
-23 110 -46 136 -53 54 -13 173 -7 225 11 28 10 33 17 30 39 -2 21 -9 27 -38
31 l-35 5 -3 483 -2 482 -95 0 c-93 0 -96 -1 -105 -26 -6 -14 -10 -50 -10 -80
0 -53 0 -54 -30 -54 l-30 0 0 80 0 80 -65 0 -65 0 0 169 0 168 49 7 c122 16
270 133 331 260 55 116 73 212 68 356 -4 100 -10 138 -30 191 -55 149 -137
244 -261 303 -145 70 -299 59 -434 -31 -150 -99 -226 -267 -227 -503 0 -135
18 -219 71 -324 56 -110 163 -204 262 -232 31 -8 66 -19 79 -25 l23 -9 -3
-243 -3 -242 -27 -3 c-28 -3 -28 -3 -28 55 0 105 2 103 -110 103 -113 0 -110
2 -110 -96 0 -62 -1 -64 -25 -64 -24 0 -25 2 -25 68 0 40 -5 73 -12 80 -8 8
-46 12 -105 12 -106 0 -101 5 -105 -105 -3 -60 -3 -60 -35 -63 l-33 -3 0 237
0 237 -54 71 c-30 39 -73 89 -95 111 l-41 39 0 406 c0 223 4 420 9 437 5 18
37 65 70 104 l61 73 0 164 c0 93 -4 172 -10 183 -9 16 -22 19 -93 19 -51 0
-88 -5 -95 -12 -7 -7 -12 -40 -12 -80 l0 -68 -28 0 -29 0 -6 107 c-4 58 -7
155 -7 215 l0 110 54 61 c66 74 69 86 62 273 l-6 142 -62 103 c-75 124 -85
136 -105 123 -8 -5 -46 -56 -84 -114 l-68 -105 -3 -143 c-3 -158 -18 -197 -18
-46 l0 95 -32 -3 -33 -3 -3 -98 -3 -98 -50 3 -51 3 -1 95 -2 95 -35 0 -35 0
-3 -98 -3 -98 -62 3 c-47 2 -62 7 -63 18 -1 8 -2 52 -2 98 l-2 82 -35 0 -34 0
-3 -97 -3 -98 -52 -3 -52 -3 -3 98 c-3 95 -4 98 -27 101 -39 6 -51 -21 -51
-115 l0 -83 -55 0 -55 0 0 101 0 100 -37 -3 -38 -3 -1 -95 -2 -95 -53 0 -53 0
0 140 -1 140 -71 115 c-39 63 -78 116 -87 118 -11 2 -40 -32 -94 -115z m154
-99 c-3 -3 -34 -4 -70 -2 l-66 3 35 47 36 48 34 -46 c20 -25 33 -48 31 -50z
m1251 41 l32 -45 -76 0 -75 0 38 45 c20 25 40 45 43 45 3 0 20 -20 38 -45z
m-1228 -225 l0 -120 -95 0 -95 0 0 120 0 120 95 0 95 0 0 -120z m1280 -5 l0
-115 -69 0 c-105 0 -101 -4 -101 116 l0 103 58 4 c31 2 69 4 85 5 l27 2 0
-115z m-1290 -192 c0 -12 -63 -73 -75 -73 -10 0 -37 31 -59 68 -5 9 10 12 63
12 39 0 71 -3 71 -7z m1057 -16 c6 -12 34 -52 62 -87 28 -35 54 -73 57 -85 3
-11 4 -58 2 -105 l-3 -85 -55 -3 c-30 -2 -58 -9 -62 -15 -4 -7 -8 -43 -8 -80
l0 -68 -32 3 c-33 3 -33 3 -38 68 -3 36 -9 71 -13 78 -5 8 -36 12 -91 12 -100
0 -109 -7 -116 -94 -5 -57 -7 -61 -31 -64 -25 -3 -26 -1 -33 59 -3 34 -6 84
-6 112 0 66 -28 110 -82 132 -55 22 -98 13 -143 -29 -38 -36 -35 -19 -39 -215
l-1 -54 -35 -1 -35 0 -5 75 -5 74 -91 3 c-109 3 -116 -2 -122 -89 -4 -52 -7
-60 -28 -65 -36 -9 -44 3 -44 66 0 86 -3 90 -67 90 l-55 0 4 109 3 109 51 54
c28 30 59 69 68 86 l17 32 483 0 483 0 10 -23z m194 6 c-6 -10 -20 -28 -30
-41 -22 -25 -21 -26 -75 36 l-19 22 67 0 c61 0 66 -2 57 -17z m-654 -315 c23
-21 30 -52 15 -62 -4 -2 -30 -6 -57 -7 -46 -3 -50 -1 -53 19 -5 31 24 72 50
72 12 0 32 -10 45 -22z m-867 -184 c0 -87 7 -94 99 -94 93 0 100 6 108 84 5
51 8 56 29 56 22 0 24 -4 24 -44 0 -25 4 -56 10 -70 9 -25 12 -26 99 -26 60 0
92 4 99 13 6 7 12 40 14 72 3 59 3 60 33 60 29 0 30 -1 33 -55 5 -80 18 -90
117 -90 50 0 86 5 93 12 7 7 12 34 12 60 l0 48 60 0 60 0 0 -41 c0 -73 8 -79
111 -79 87 0 90 1 99 26 6 14 10 45 10 68 0 39 3 44 26 49 30 5 31 2 38 -78 3
-33 5 -61 6 -62 0 -2 45 -3 100 -3 113 0 107 -5 112 95 3 48 4 50 33 50 29 0
30 -1 35 -60 3 -33 9 -66 13 -72 11 -17 168 -18 185 -1 7 7 12 39 12 75 0 60
1 63 24 63 13 0 27 -7 30 -16 11 -28 -6 -253 -19 -264 -8 -7 -311 -9 -881 -8
l-869 3 -3 143 -3 142 26 0 c24 0 25 -3 25 -56z m1621 -339 l-31 -36 0 -442
-1 -442 -74 -100 -75 -100 0 -287 c0 -210 3 -289 12 -294 8 -5 7 -9 -5 -13 -9
-3 -318 -5 -687 -3 l-670 2 0 364 c0 400 2 389 -62 386 -18 -1 -52 -2 -75 -1
l-43 1 0 125 0 125 68 0 c74 0 106 15 100 46 -2 15 -13 20 -56 22 -66 4 -67
18 -6 69 73 61 74 64 74 303 0 197 -5 240 -29 260 -3 3 -15 15 -25 28 l-19 22
817 0 818 0 -31 -35z m983 -40 c70 -18 128 -57 191 -127 58 -65 81 -109 106
-205 67 -266 -66 -575 -279 -645 -81 -27 -82 -26 -82 40 l0 57 105 105 c85 85
105 110 103 130 -2 18 -10 26 -26 28 -19 3 -41 -14 -103 -79 l-79 -83 0 165
c0 90 -3 174 -6 186 -8 28 -34 38 -52 19 -12 -12 -15 -65 -17 -293 -3 -232 -6
-278 -18 -281 -7 -2 -40 7 -73 19 -74 28 -169 119 -206 199 -77 163 -78 402
-3 551 31 60 125 163 170 187 83 43 172 52 269 27z m-915 -1022 l52 -63 -106
0 -107 0 22 28 c11 15 33 44 47 65 14 21 29 36 33 35 4 -2 30 -31 59 -65z
m-1669 -20 l0 -37 -30 29 c-16 16 -30 32 -30 37 0 4 14 8 30 8 28 0 30 -3 30
-37z m1758 -325 l2 -207 -131 -3 c-72 -2 -133 -1 -135 1 -2 2 -4 98 -4 213 l0
209 133 -3 132 -3 3 -207z m282 -172 c0 -85 11 -96 98 -96 37 0 73 4 80 9 15
9 31 70 32 119 0 29 3 32 30 32 27 0 30 -3 30 -32 1 -49 17 -110 32 -119 20
-13 152 -11 166 3 7 7 12 40 12 80 l0 68 29 0 c28 0 28 -1 33 -69 3 -37 8 -73
12 -80 4 -6 37 -11 81 -11 90 0 105 11 105 80 0 66 7 80 41 80 l29 0 0 -350 0
-350 -600 0 -601 0 5 118 c3 64 5 138 5 163 1 37 7 52 36 85 19 21 54 67 78
101 l42 63 59 0 c83 0 96 14 96 102 l0 68 35 0 35 0 0 -64z m-332 -125 c-7 -9
-31 -38 -53 -65 l-40 -48 -52 58 c-29 33 -53 62 -53 65 0 4 47 7 105 7 96 0
104 -2 93 -17z m-174 -143 c50 -67 56 -90 56 -240 l0 -128 -760 0 -760 0 0
210 0 210 713 -1 712 0 39 -51z m1316 -508 l0 -70 -51 0 c-32 0 -76 10 -122
29 -146 58 -159 62 -241 62 -65 1 -95 -5 -151 -26 -138 -53 -179 -65 -219 -65
-60 1 -152 24 -221 55 -42 19 -83 29 -136 32 -82 6 -109 0 -223 -49 -88 -38
-183 -52 -253 -38 -30 7 -102 30 -161 52 -98 37 -113 40 -182 36 -56 -4 -99
-15 -170 -43 -72 -29 -114 -39 -172 -43 -82 -5 -91 -3 -208 52 -55 25 -80 30
-165 33 -82 4 -110 1 -155 -16 -77 -27 -80 5 -5 51 29 17 90 18 1433 18 l1402
0 0 -70z"/>
<path d="M1978 3429 c-15 -8 -18 -25 -18 -98 0 -96 9 -115 52 -109 22 3 23 7
26 97 3 113 -11 139 -60 110z"/>
<path d="M2146 3424 c-12 -11 -16 -35 -16 -87 0 -101 27 -148 64 -112 20 20
23 184 4 203 -16 16 -33 15 -52 -4z"/>
<path d="M1986 3029 c-42 -33 -81 -71 -86 -83 -7 -19 -14 -299 -11 -448 2 -75
71 -87 71 -13 l0 35 125 0 125 0 0 -29 c0 -27 21 -61 39 -61 27 0 31 31 31
271 l0 246 -44 39 c-87 77 -125 104 -149 104 -15 0 -55 -24 -101 -61z m150
-55 c72 -42 74 -48 74 -226 l0 -158 -125 0 -125 0 2 167 3 167 54 38 c30 21
58 38 63 38 5 0 29 -12 54 -26z"/>
<path d="M2045 2866 c-14 -10 -20 -30 -23 -80 -2 -36 -1 -77 2 -91 6 -25 10
-26 64 -23 l57 3 -2 90 c-2 72 -6 92 -20 102 -22 17 -55 16 -78 -1z"/>
<path d="M2059 2363 c-10 -11 -14 -44 -14 -104 0 -71 3 -92 18 -106 13 -14 21
-15 35 -7 26 17 31 203 5 221 -22 17 -28 16 -44 -4z"/>
<path d="M2827 2244 c-4 -4 -7 -36 -7 -70 0 -88 21 -105 109 -88 l32 7 -3 76
-3 76 -60 3 c-34 2 -64 0 -68 -4z"/>
<path d="M1999 671 c-75 -24 -109 -72 -109 -152 0 -73 37 -108 152 -143 89
-27 118 -48 118 -84 0 -28 -46 -62 -83 -62 -17 0 -55 14 -84 30 l-54 31 -29
-21 c-40 -28 -38 -52 8 -88 83 -66 233 -69 304 -5 37 32 61 100 53 149 -10 69
-52 105 -160 139 -49 15 -96 32 -102 38 -34 26 5 77 60 77 15 0 51 -12 79 -26
l52 -26 28 33 c15 19 26 39 24 44 -1 6 -24 23 -51 40 -38 24 -60 30 -114 32
-36 1 -78 -1 -92 -6z"/>
<path d="M3004 655 c-54 -27 -106 -83 -130 -140 -17 -40 -18 -129 -3 -188 50
-199 320 -257 460 -99 94 107 90 291 -8 384 -76 72 -222 91 -319 43z m210 -94
c16 -9 40 -36 54 -61 48 -91 8 -211 -85 -251 -61 -26 -107 -17 -155 30 -78 78
-71 210 14 275 52 39 112 42 172 7z"/>
<path d="M3615 668 c-3 -7 -23 -62 -46 -123 -22 -60 -51 -139 -64 -175 -13
-36 -37 -102 -54 -147 l-30 -83 59 0 59 0 19 53 20 52 103 0 103 0 17 -50 17
-50 62 -3 c57 -3 62 -1 56 15 -31 80 -124 318 -159 408 l-43 110 -57 3 c-40 2
-59 -1 -62 -10z m102 -228 l32 -90 -71 0 c-52 0 -69 3 -66 13 47 129 62 167
67 167 3 0 20 -41 38 -90z"/>
<path d="M1220 405 l0 -265 180 0 180 0 0 50 0 50 -125 0 -125 0 0 215 0 215
-55 0 -55 0 0 -265z"/>
<path d="M1670 405 l0 -265 55 0 55 0 0 265 0 265 -55 0 -55 0 0 -265z"/>
<path d="M2380 404 l0 -265 143 3 c121 3 148 6 182 24 86 45 108 162 43 227
l-29 30 23 24 c19 21 23 36 23 90 0 58 -3 67 -28 88 -40 36 -88 45 -229 45
l-128 0 0 -266z m260 156 c23 -23 25 -49 6 -75 -11 -15 -30 -20 -85 -23 l-71
-4 0 61 0 61 65 0 c52 0 69 -4 85 -20z m0 -200 c44 -24 34 -102 -16 -120 -14
-6 -50 -10 -80 -10 l-54 0 0 68 c0 38 3 72 8 76 9 10 117 -1 142 -14z"/>
</g>
</svg>
