<?xml version="1.0" standalone="no"?>
<!DOCTYPE svg PUBLIC "-//W3C//DTD SVG 20010904//EN"
 "http://www.w3.org/TR/2001/REC-SVG-20010904/DTD/svg10.dtd">
<svg version="1.0" xmlns="http://www.w3.org/2000/svg"
 width="600.000000pt" height="1071.000000pt" viewBox="0 0 600.000000 1071.000000"
 preserveAspectRatio="xMidYMid meet">
<g transform="translate(0.000000,1071.000000) scale(0.100000,-0.100000)"
fill="#000000" stroke="none">
<path d="M2545 10046 c-27 -7 -62 -18 -77 -24 -40 -16 -109 -82 -125 -119 -10
-26 -13 -147 -13 -601 l0 -568 29 -46 c19 -30 43 -52 70 -64 32 -15 41 -24 41
-45 0 -21 -27 -48 -147 -150 -81 -68 -154 -132 -163 -141 -14 -16 -24 -15
-145 13 -72 17 -151 33 -176 36 -52 6 -58 1 -201 -136 l-58 -55 0 -237 0 -237
-67 -57 c-139 -118 -205 -207 -231 -310 -7 -27 -12 -808 -14 -2320 l-3 -2280
-430 -5 -429 -5 -15 -27 c-14 -24 -14 -28 3 -47 l19 -21 2378 0 2379 0 16 25
c15 23 15 27 0 50 l-16 25 -243 0 -242 0 3 385 2 384 38 7 c153 28 324 184
407 370 171 386 103 887 -157 1147 -109 109 -259 168 -388 152 -233 -29 -432
-240 -516 -550 -25 -91 -28 -116 -28 -280 -1 -154 3 -193 22 -268 74 -293 256
-515 466 -568 l46 -11 0 -384 0 -384 -370 0 -370 0 0 3068 c0 3286 2 3133 -48
3244 -22 50 -143 202 -167 212 -42 16 -16 34 -421 -300 -87 -73 -172 -143
-187 -158 -15 -14 -29 -26 -30 -26 -1 0 -1 258 1 572 2 543 1 575 -16 608 -25
47 -91 96 -155 116 -71 22 -210 27 -272 10z m132 -13 c-3 -5 11 -8 31 -9 59
-1 102 -8 102 -16 0 -4 7 -5 15 -2 8 4 15 1 15 -6 0 -6 3 -9 8 -7 11 7 68 -36
66 -50 -3 -25 -4 -25 -19 -13 -24 20 -18 5 7 -16 12 -10 18 -14 15 -8 -10 17
19 39 29 23 4 -8 3 -9 -4 -5 -7 4 -12 2 -12 -3 0 -6 8 -11 17 -11 15 0 14 -2
-3 -15 -19 -15 -19 -15 0 -8 15 5 18 3 13 -10 -3 -8 -1 -18 6 -21 9 -3 8 -8
-3 -15 -10 -8 -11 -11 -2 -11 9 0 11 -17 8 -65 -3 -36 -8 -70 -11 -76 -4 -5
-2 -16 5 -24 8 -10 8 -24 2 -49 -6 -19 -7 -38 -4 -41 11 -11 8 -119 -3 -127
-6 -5 -5 -11 4 -17 10 -6 12 -20 7 -47 -4 -22 -6 -46 -6 -54 8 -156 8 -400 0
-405 -6 -3 -10 -11 -10 -16 0 -6 4 -8 9 -5 5 3 9 -10 9 -29 0 -19 -4 -32 -9
-29 -5 3 -6 -2 -3 -10 4 -10 1 -16 -7 -16 -11 0 -11 -2 1 -10 8 -5 16 -23 18
-40 2 -23 0 -30 -9 -24 -8 4 -10 3 -5 -5 4 -6 12 -8 18 -5 6 4 8 1 6 -7 -3 -8
-11 -13 -17 -11 -8 1 -9 -2 -5 -10 5 -7 9 -17 10 -23 1 -5 6 -19 10 -29 6 -15
4 -17 -6 -11 -8 5 -11 4 -7 -2 4 -6 -1 -17 -10 -24 -14 -12 -16 -12 -8 1 5 8
-13 -7 -38 -33 -26 -27 -47 -45 -47 -40 0 4 -4 2 -9 -6 -7 -11 -13 -11 -32 0
-21 11 -22 10 -12 -3 7 -8 10 -18 6 -22 -4 -4 0 -4 9 -1 13 5 15 2 11 -14 -5
-18 -8 -19 -22 -9 -15 12 -15 11 -1 -6 12 -15 15 -53 17 -170 1 -83 3 -153 4
-156 1 -3 1 -7 1 -10 0 -8 73 -8 78 1 10 14 428 44 447 31 7 -4 10 -25 9 -50
-2 -23 1 -42 6 -42 5 0 6 -5 2 -12 -5 -7 -3 -8 6 -3 10 6 12 4 7 -9 -5 -12 -3
-15 6 -9 6 4 45 8 85 9 41 1 79 7 85 13 7 7 11 68 10 181 -2 159 0 171 18 183
12 8 19 22 18 42 l-1 30 -7 -29 c-6 -31 -31 -48 -31 -22 0 9 4 16 9 16 5 0 9
16 8 35 -1 19 -5 35 -8 35 -3 0 -5 121 -4 268 1 210 -2 271 -12 281 -7 6 -13
9 -13 5 0 -3 -7 -1 -15 6 -13 11 -14 10 -8 -6 6 -17 5 -17 -10 -5 -9 7 -14 18
-10 24 3 6 1 7 -6 3 -9 -6 -9 -11 0 -22 7 -8 7 -14 1 -14 -5 0 -14 6 -20 13
-9 10 -1 22 33 51 25 20 45 32 45 26 0 -6 5 -8 10 -5 6 4 8 10 5 15 -7 11 24
22 38 13 7 -4 23 -21 37 -37 14 -16 34 -39 45 -49 11 -11 14 -17 8 -13 -9 5
-11 2 -7 -8 3 -9 10 -14 14 -11 9 6 33 -22 36 -42 2 -8 10 -23 20 -34 9 -10
14 -19 9 -19 -4 0 -2 -7 5 -15 7 -9 13 -33 13 -55 0 -22 3 -37 7 -35 11 7 11
17 16 -548 3 -296 1 -507 -4 -503 -5 3 -5 -21 0 -57 6 -36 7 -1116 4 -2565 -4
-1698 -3 -2509 4 -2522 10 -18 26 -19 371 -20 198 0 363 -1 367 -3 4 -1 16 7
27 18 19 19 20 32 18 390 -2 367 -5 415 -23 415 -5 0 -7 9 -5 20 2 12 0 18 -6
15 -5 -4 -7 -11 -4 -16 9 -13 -9 -11 -24 4 -11 10 -13 10 -7 0 9 -15 -20 -18
-29 -3 -3 6 -14 10 -24 10 -10 0 -30 9 -43 20 -14 10 -29 16 -33 12 -5 -4 -5
1 -2 10 3 10 1 20 -5 24 -7 5 -8 2 -3 -6 5 -8 3 -11 -6 -8 -8 3 -14 16 -13 31
0 14 -4 23 -9 20 -4 -3 -6 -11 -3 -19 9 -24 -9 -16 -40 18 -16 18 -20 26 -10
18 18 -14 19 -14 7 7 -6 13 -15 22 -19 22 -21 -4 -31 4 -46 36 -10 21 -22 33
-28 29 -6 -4 -8 -3 -5 3 4 6 0 17 -9 24 -20 16 -44 75 -44 107 0 14 -3 22 -7
19 -9 -9 -36 31 -29 42 4 5 2 11 -4 13 -6 2 -4 14 4 30 12 23 12 26 0 21 -8
-3 -14 -13 -15 -22 0 -9 -7 4 -15 29 -7 25 -14 88 -15 140 -1 67 -4 83 -8 55
l-7 -40 -6 35 c-3 19 -6 79 -7 133 -2 82 1 98 14 104 13 4 14 8 4 14 -10 6
-11 18 -2 56 7 26 14 65 18 86 3 21 10 35 15 32 4 -3 6 3 3 14 -3 10 0 22 6
25 6 4 11 18 11 31 0 13 4 26 8 29 5 3 6 -8 4 -25 -2 -16 0 -29 5 -29 5 0 9
22 8 49 -3 56 10 90 19 50 3 -13 4 -40 2 -59 -2 -19 -4 -50 -5 -68 -1 -18 -5
-31 -10 -28 -4 3 -6 -6 -3 -19 2 -14 0 -25 -4 -25 -5 0 -9 -12 -10 -27 0 -16
-6 -68 -13 -118 -12 -89 -15 -191 -5 -207 3 -4 0 -8 -5 -8 -16 0 -13 -27 3
-33 16 -6 36 -109 28 -140 -3 -12 -1 -18 5 -14 14 8 34 -62 27 -93 -4 -18 -3
-21 4 -11 8 11 14 5 28 -25 22 -48 86 -145 108 -163 9 -7 13 -18 9 -25 -3 -6
-2 -8 2 -3 10 9 47 -22 39 -34 -3 -5 3 -6 12 -2 12 4 15 3 10 -5 -5 -8 4 -17
23 -25 17 -7 28 -16 24 -20 -3 -4 1 -7 11 -7 9 0 35 -9 58 -20 24 -12 51 -17
64 -14 l24 6 1 387 c1 212 2 391 4 396 1 6 3 16 3 23 3 19 32 14 32 -5 0 -16
2 -16 10 -3 8 11 9 7 4 -14 -5 -19 -2 -31 7 -37 11 -6 11 -9 1 -9 -10 0 -12
-43 -12 -195 1 -107 5 -193 10 -190 5 3 11 1 15 -5 10 -16 20 -12 56 19 18 16
37 27 41 25 5 -3 8 -2 7 3 -4 25 3 35 22 30 15 -4 18 -2 10 7 -8 9 -6 17 7 30
10 9 22 13 25 9 4 -3 7 1 7 11 0 9 5 14 10 11 6 -3 10 -2 10 4 0 5 8 8 18 6
28 -4 16 -46 -27 -89 -28 -27 -41 -35 -46 -26 -6 9 -4 11 5 5 9 -5 11 -4 6 4
-10 16 -26 4 -19 -14 8 -23 -37 -65 -58 -54 -13 6 -17 5 -15 -6 1 -8 6 -18 11
-22 4 -4 5 -2 1 5 -4 6 -2 12 4 12 7 0 10 -6 7 -12 -2 -7 -11 -12 -20 -12 -9
1 -13 -4 -10 -12 3 -8 -1 -14 -10 -14 -9 0 -19 -5 -23 -12 -5 -7 -3 -8 6 -3 8
5 -1 -10 -19 -32 -32 -40 -32 -42 -30 -134 3 -104 6 -122 21 -113 6 4 14 0 19
-7 7 -11 9 -11 9 -1 0 7 -10 17 -22 22 -13 5 -16 9 -8 9 8 0 22 -3 30 -9 8 -5
19 -5 25 -1 23 18 74 30 79 18 2 -7 5 -4 5 5 1 11 6 15 16 12 11 -5 14 -2 9
12 -6 16 -5 17 7 7 7 -7 18 -13 23 -13 6 0 4 4 -4 10 -12 8 -12 10 3 16 9 3
14 10 11 15 -3 5 2 9 10 9 9 0 16 5 16 11 0 5 5 7 10 4 6 -3 10 1 10 10 0 9 5
13 10 10 6 -4 9 -1 8 7 -2 7 3 12 9 11 7 -2 12 0 11 5 -3 10 35 72 44 72 4 0
8 7 8 16 0 10 6 14 14 11 10 -4 12 0 9 13 -3 11 5 35 17 55 12 19 18 35 15 35
-4 0 -2 7 5 15 7 8 15 13 19 11 3 -2 6 9 7 24 1 15 4 36 9 46 4 11 9 30 10 44
2 14 9 57 16 95 18 105 17 174 -6 383 -3 29 -15 70 -25 90 -24 45 -27 77 -5
48 8 -11 15 -15 15 -9 0 14 -25 34 -33 26 -4 -3 -8 -1 -8 5 -2 21 -4 26 -22
60 -10 18 -16 43 -13 55 3 12 3 16 0 10 -8 -19 -27 -16 -20 3 4 10 2 13 -6 8
-8 -5 -9 -2 -5 9 3 10 2 17 -4 17 -6 0 -7 4 -4 10 4 6 -1 7 -11 3 -14 -5 -16
-3 -10 12 4 11 4 16 0 13 -10 -10 -47 29 -39 41 3 6 0 11 -7 11 -19 0 -88 49
-88 62 0 6 8 4 19 -6 18 -16 18 -15 14 20 -4 34 -3 36 14 23 10 -8 24 -20 31
-26 7 -7 18 -13 23 -13 5 0 9 -5 9 -11 0 -5 -4 -7 -10 -4 -5 3 -10 1 -10 -4 0
-6 8 -11 18 -11 20 -1 54 -24 46 -33 -7 -7 18 -47 30 -47 5 0 1 10 -10 23
l-19 22 23 -19 c15 -13 19 -23 12 -30 -5 -5 -10 -15 -10 -21 0 -5 5 -3 10 5
17 25 52 -27 45 -66 -3 -17 -1 -42 5 -55 9 -20 10 -18 5 14 -7 43 11 52 21 10
4 -16 12 -35 20 -43 15 -18 32 -87 37 -148 2 -24 8 -47 14 -50 17 -11 24 -75
24 -221 1 -155 -8 -231 -25 -231 -7 0 -6 -3 2 -9 11 -7 11 -11 -2 -24 -9 -8
-16 -25 -16 -37 0 -31 -21 -109 -31 -116 -5 -3 -6 2 -3 10 4 9 1 16 -6 16 -8
0 -11 -10 -7 -27 6 -33 -11 -85 -26 -76 -6 3 -7 1 -3 -5 9 -14 -43 -94 -56
-86 -5 3 -8 -1 -6 -9 2 -8 -12 -33 -31 -56 -28 -33 -37 -38 -49 -29 -11 10
-13 8 -10 -6 2 -11 -10 -28 -31 -44 -19 -15 -32 -21 -27 -15 5 9 2 11 -8 7 -9
-3 -13 -10 -10 -15 3 -5 -15 -14 -40 -21 -25 -6 -43 -15 -40 -20 3 -4 -8 -10
-23 -14 -15 -3 -41 -10 -57 -15 -15 -5 -32 -6 -37 -4 -13 9 -11 -787 2 -805 9
-12 10 -11 5 4 -6 19 -6 19 11 3 16 -14 46 -16 238 -14 194 2 222 0 237 -15
19 -19 12 -33 -9 -16 -10 8 -12 8 -8 -3 4 -12 -28 -14 -199 -12 -113 1 -226 2
-253 2 -26 1 -235 -1 -464 -2 -375 -3 -416 -2 -411 12 5 13 2 12 -12 -2 -11
-11 -25 -15 -35 -11 -9 3 -20 6 -26 5 -21 -3 -153 -3 -232 0 -44 2 -80 2 -78
-1 2 -3 -181 -5 -405 -5 -224 0 -406 3 -404 7 2 3 -12 4 -32 3 -39 -4 -238 -6
-264 -3 -9 1 -28 -2 -44 -6 -21 -5 -26 -4 -20 6 6 10 5 11 -7 1 -9 -7 -26 -10
-40 -7 -22 4 -189 5 -264 0 -16 -1 -35 2 -42 7 -6 4 -14 4 -17 -1 -6 -10 -310
-7 -326 3 -5 3 -11 1 -15 -5 -3 -5 -11 -10 -16 -10 -6 0 -8 3 -6 8 3 4 -33 5
-80 2 -47 -3 -87 -2 -89 2 -3 4 -18 2 -34 -3 -19 -7 -35 -7 -48 0 -11 6 -21 8
-23 6 -6 -5 -58 -6 -269 -6 -96 0 -248 -1 -336 -1 -89 0 -168 3 -174 7 -8 5
-11 4 -7 -2 4 -7 -3 -10 -17 -9 -13 0 -22 4 -20 8 2 3 0 8 -6 10 -5 1 -6 9 -2
15 6 10 109 13 436 13 236 1 426 4 422 7 -3 3 -1 11 4 18 6 7 10 820 11 2213
1 1260 5 2202 10 2202 5 0 9 8 9 18 0 15 -2 15 -10 2 -8 -11 -9 -7 -4 15 4 16
7 34 6 40 -3 19 -4 60 -3 78 1 12 5 16 14 11 9 -6 9 -4 -1 8 -11 14 -10 23 4
55 9 21 18 40 18 43 1 3 7 14 13 25 13 20 18 11 14 -25 -2 -12 0 -13 7 -1 5 7
8 21 5 31 -2 9 5 32 16 51 12 19 21 30 21 25 0 -5 14 10 30 32 17 23 34 42 40
42 5 0 21 11 35 26 14 14 30 22 35 19 6 -3 7 1 4 9 -9 23 -1 20 27 -11 15 -17
18 -24 8 -21 -12 5 -15 0 -14 -21 1 -15 -2 -36 -6 -47 -7 -17 -8 -17 -8 5 -1
23 -2 23 -27 6 l-25 -16 16 28 17 28 -22 -28 c-12 -15 -27 -24 -32 -21 -6 4
-8 2 -5 -3 4 -6 0 -16 -7 -22 -10 -8 -16 -9 -21 -1 -3 5 -11 10 -17 10 -6 0
-3 -9 6 -19 21 -23 3 -39 -21 -19 -15 11 -15 11 -6 -6 8 -15 6 -26 -11 -51
-35 -54 -47 -71 -40 -56 5 10 3 12 -5 7 -7 -5 -10 -14 -7 -22 3 -8 2 -14 -2
-14 -10 0 -8 -211 2 -233 8 -16 10 -17 35 -2 l26 16 -23 -20 c-12 -11 -27 -21
-32 -23 -6 -2 -12 -14 -15 -28 -3 -14 -10 -27 -16 -29 -8 -2 -8 -6 1 -11 8 -5
12 -40 11 -111 -1 -159 3 -169 59 -140 l25 12 -25 -20 c-14 -11 -28 -21 -31
-21 -29 -1 -42 -256 -16 -319 7 -17 15 -30 18 -29 2 2 -4 -5 -14 -15 -15 -16
-17 -38 -16 -173 0 -139 2 -157 19 -174 17 -17 18 -20 3 -28 -13 -8 -16 -46
-20 -290 -3 -247 -2 -282 12 -296 15 -15 15 -17 1 -32 -22 -21 -24 -310 -2
-339 11 -16 11 -21 0 -33 -14 -13 -17 -50 -16 -207 1 -113 0 -112 17 -129 17
-17 20 -30 5 -21 -5 3 -10 -1 -10 -9 0 -9 -3 -16 -7 -16 -12 0 -3 -293 9 -307
6 -7 15 -10 22 -7 6 3 1 -3 -11 -14 -22 -19 -23 -27 -23 -180 0 -128 3 -164
15 -175 13 -13 13 -16 0 -27 -23 -19 -22 -326 1 -352 16 -16 15 -18 0 -24 -16
-6 -17 -25 -16 -188 1 -99 1 -280 0 -401 0 -121 1 -227 5 -235 4 -12 26 -15
110 -14 58 1 109 5 113 9 4 5 1 5 -5 1 -9 -5 -11 -2 -7 9 6 14 8 14 24 0 21
-19 259 -22 278 -3 8 8 15 8 24 0 15 -12 288 -22 288 -10 0 4 6 5 13 2 8 -3
19 2 26 10 10 12 16 13 26 3 7 -7 10 -16 7 -22 -9 -14 -12 -38 -4 -30 4 4 7
12 7 18 0 7 9 13 20 16 16 3 17 1 7 -12 -9 -11 -10 -17 -2 -22 6 -4 14 -4 17
-1 4 3 1 6 -7 6 -9 0 -10 3 -1 14 10 12 153 20 293 18 10 -1 20 3 23 9 8 12
45 11 45 -2 0 -5 4 -7 10 -4 5 3 10 2 10 -4 0 -7 8 -7 25 -1 14 5 25 6 25 2 0
-4 60 -7 133 -7 72 0 141 -4 152 -8 17 -7 18 -7 3 3 -9 6 -15 17 -12 25 5 11
10 12 24 3 10 -7 17 -14 15 -18 -2 -3 61 -4 140 -2 138 3 144 4 151 25 9 26 6
556 -3 571 -4 5 0 7 10 3 20 -7 15 24 -8 60 -12 18 -13 28 -6 37 7 8 12 83 13
196 2 169 0 183 -16 186 -27 4 -30 11 -7 19 12 3 21 14 22 23 0 9 0 73 -1 140
-1 88 3 128 12 140 8 10 9 13 1 9 -8 -5 -12 2 -12 20 -2 55 -4 61 -20 56 -9
-2 -4 6 12 19 15 13 27 28 27 33 0 6 -5 3 -10 -5 -9 -13 -13 152 -10 380 2
172 0 333 -4 338 -3 3 0 12 7 21 11 14 10 14 -6 2 -9 -8 -20 -11 -23 -8 -3 3
2 11 13 17 16 11 18 25 16 158 -2 81 -4 155 -7 165 -2 9 1 17 7 17 8 0 7 4 -2
9 -9 6 -10 11 -2 15 8 5 7 12 -4 22 -17 18 -20 34 -5 34 6 0 10 9 10 21 0 13
4 18 13 13 9 -6 9 -4 -1 8 -8 11 -12 45 -11 104 1 125 1 188 -1 352 -1 79 1
146 4 149 3 4 -3 13 -15 21 -18 13 -19 16 -5 31 8 9 13 25 12 36 -2 11 -2 23
1 27 2 4 5 84 6 178 2 130 -1 170 -10 170 -7 0 -13 8 -13 18 0 15 2 15 11 2 9
-13 10 -13 6 2 -3 9 -3 19 0 22 3 3 6 27 5 53 0 27 -1 110 -2 185 -1 95 -5
136 -13 131 -7 -4 -8 0 -3 13 17 42 26 79 19 82 -9 3 -8 221 1 258 5 19 4 24
-5 18 -9 -5 -10 -2 -6 9 3 9 -1 23 -9 32 -13 13 -14 16 -1 21 11 4 15 26 16
92 1 48 3 107 4 132 1 25 0 62 -4 82 -3 21 -2 35 2 32 5 -3 9 0 9 5 0 6 -5 11
-11 11 -5 0 -8 4 -4 10 3 5 -3 18 -15 30 -14 14 -16 20 -6 20 16 0 29 27 19
43 -4 7 0 8 11 4 11 -5 15 -3 10 5 -4 6 -8 68 -9 138 -2 70 -6 136 -9 148 -5
14 -3 22 5 22 8 0 7 6 -4 18 -13 14 -30 17 -94 15 -43 -2 -103 -3 -133 -4 -38
-1 -49 -4 -35 -10 18 -7 17 -8 -6 -8 -15 -1 -32 -8 -39 -16 -10 -12 -14 -12
-26 -1 -10 10 -24 12 -51 6 -21 -5 -67 -11 -103 -14 -36 -3 -85 -12 -109 -21
-24 -8 -52 -15 -62 -15 -10 0 -27 -10 -39 -22 -11 -12 -20 -17 -20 -11 0 7
-21 11 -52 11 -35 0 -46 -3 -33 -8 16 -6 11 -9 -25 -16 -25 -5 -54 -7 -65 -6
-11 1 -25 -5 -32 -14 -8 -10 -27 -18 -47 -18 -19 -1 -32 -4 -29 -8 2 -5 2 -8
-1 -8 -2 0 -12 -3 -22 -7 -13 -5 -15 -3 -9 7 5 8 -8 1 -28 -14 -20 -16 -34
-32 -31 -37 3 -5 1 -9 -5 -9 -5 0 -13 5 -16 10 -4 6 -11 7 -17 4 -6 -4 -14 0
-19 7 -7 11 -9 10 -9 -4 0 -10 -4 -15 -10 -12 -5 3 -10 1 -10 -5 0 -7 -6 -10
-14 -7 -8 3 -24 -3 -37 -14 -12 -10 -29 -19 -38 -19 -9 0 -26 -7 -38 -15 -12
-8 -28 -12 -37 -9 -11 4 -16 0 -16 -12 0 -9 -3 -14 -7 -11 -3 4 -12 -1 -19
-11 -8 -10 -13 -12 -14 -4 0 6 -5 12 -12 12 -6 0 -8 -3 -5 -7 10 -10 -13 -32
-27 -27 -9 4 -12 -3 -11 -20 2 -15 -1 -24 -6 -20 -5 3 -7 10 -4 15 8 12 -28
-2 -37 -15 -5 -7 -8 -3 -8 8 0 20 0 20 -14 1 -8 -11 -12 -24 -8 -30 3 -5 -2
-4 -11 4 -10 8 -20 11 -24 7 -3 -3 0 -6 7 -6 9 0 8 -6 -5 -20 -10 -11 -22 -20
-27 -20 -5 0 -17 -7 -26 -16 -14 -15 -17 -15 -30 2 -13 17 -14 17 -9 1 8 -21
-28 -61 -49 -53 -8 3 -14 0 -14 -6 0 -7 -5 -6 -15 2 -17 14 -10 34 8 23 8 -5
8 -2 -1 9 -10 12 -10 17 1 27 8 6 17 9 21 6 3 -3 2 1 -4 7 -6 7 -10 99 -10
232 0 202 1 218 16 200 15 -18 15 -18 10 0 -4 11 1 28 11 40 l18 21 -22 -19
c-13 -11 -23 -15 -23 -10 0 11 41 39 53 36 4 -1 6 1 5 5 -2 5 15 26 36 48 22
22 33 31 25 21 -13 -18 -13 -19 9 -7 13 7 21 15 18 18 -8 9 49 52 66 49 9 -1
24 -8 34 -16 17 -14 18 -14 5 3 -16 21 1 23 19 2 8 -9 21 -13 36 -9 14 4 24 2
24 -5 0 -6 12 -8 32 -4 22 4 29 3 24 -5 -5 -8 -2 -10 8 -6 9 3 16 1 16 -5 0
-6 5 -11 11 -11 5 0 8 4 5 9 -7 11 29 2 61 -14 13 -7 19 -16 15 -20 -20 -22
60 35 104 74 29 26 67 59 85 74 19 16 47 41 63 55 16 15 26 22 23 16 -7 -12
29 -12 40 1 5 4 3 5 -4 1 -15 -8 -27 10 -12 20 6 3 21 -3 32 -15 14 -14 17
-21 8 -21 -8 0 -25 -12 -38 -26 -14 -16 -30 -24 -39 -20 -11 4 -15 2 -11 -8 6
-15 -35 -60 -45 -50 -4 3 -14 -6 -24 -21 -9 -14 -23 -24 -30 -21 -8 3 -11 0
-8 -8 3 -7 -2 -16 -12 -20 -14 -5 -16 -2 -10 26 4 26 3 29 -5 15 -6 -9 -9 -27
-7 -40 2 -16 -5 -26 -29 -38 -18 -9 -29 -19 -26 -23 4 -3 -4 -4 -18 -2 -13 2
-45 8 -72 12 -26 3 -50 11 -53 15 -3 5 -22 9 -42 10 -34 1 -35 2 -12 10 19 7
16 7 -13 3 -25 -3 -37 -2 -33 5 4 5 1 13 -5 17 -8 5 -9 3 -4 -6 6 -10 0 -12
-30 -7 -20 3 -35 3 -31 0 3 -4 -3 -17 -15 -29 -13 -14 -18 -27 -13 -36 14 -22
15 -50 2 -42 -8 5 -8 3 -2 -7 5 -8 10 -77 12 -154 1 -77 3 -145 4 -151 2 -14
53 -11 72 5 8 7 21 9 27 5 8 -4 9 -3 5 4 -4 7 -3 12 3 12 5 0 13 -4 16 -10 3
-5 12 -10 18 -10 8 0 8 3 -1 9 -11 7 -10 11 3 24 8 9 22 14 30 11 8 -4 15 -1
15 6 0 7 7 10 16 6 8 -3 12 -2 9 4 -6 9 10 14 42 13 7 -1 10 3 7 8 -3 5 4 9
15 9 10 0 21 4 23 8 6 15 148 62 148 49 0 -6 5 -4 11 6 5 9 14 17 19 17 5 0
11 -8 13 -17 4 -14 5 -13 6 4 1 17 9 24 39 29 20 4 42 11 49 16 7 5 17 7 22 4
6 -4 19 1 31 11 19 16 20 29 20 189 l0 172 -35 26 c-19 15 -35 32 -35 38 0 6
6 6 16 -2 12 -11 15 -11 12 1 -2 8 2 13 8 12 7 -1 10 6 7 17 -5 18 4 25 28 22
6 -1 -6 67 -13 72 -1 1 -24 15 -50 30 -27 15 -48 29 -48 32 0 3 6 2 13 -2 6
-4 0 4 -15 19 l-28 26 1 553 c1 367 5 557 11 566 8 9 6 11 -8 6 -16 -6 -17 -5
-6 7 14 16 16 33 2 24 -6 -3 -7 1 -4 9 7 19 20 21 27 4 4 -10 6 -10 6 -1 1 6
-4 15 -10 19 -13 7 38 64 58 64 7 0 13 4 13 9 0 15 60 34 106 34 25 0 41 4 37
10 -3 6 7 8 26 5 18 -3 34 -1 37 4 3 4 10 8 15 8 6 0 8 -3 6 -7z m811 -946
c10 -8 9 -14 -4 -28 -9 -10 -21 -16 -27 -12 -6 4 -7 1 -2 -8 7 -12 6 -12 -7
-1 -13 10 -18 10 -24 1 -5 -8 -3 -9 7 -4 12 7 12 6 1 -7 -7 -9 -24 -19 -37
-22 -14 -4 -25 -11 -25 -17 0 -8 5 -7 15 1 9 7 17 11 19 9 3 -2 -13 -17 -35
-32 -31 -23 -38 -25 -33 -10 3 10 -4 3 -16 -16 -24 -39 -50 -66 -50 -54 0 4
-7 -3 -16 -15 -9 -13 -22 -21 -29 -18 -8 3 -19 -3 -27 -12 -12 -16 -11 -16 7
-2 19 14 19 14 6 -3 -8 -10 -20 -16 -27 -13 -7 3 -18 -2 -24 -10 -7 -8 -9 -14
-4 -14 4 0 -3 -11 -16 -25 -13 -14 -30 -23 -38 -20 -7 2 -11 1 -8 -4 3 -5 -11
-23 -31 -40 -28 -24 -44 -31 -63 -26 -14 3 -20 2 -15 -2 6 -4 11 -15 13 -23 2
-11 -1 -10 -12 3 -17 22 -9 60 10 53 8 -3 24 8 36 25 36 49 176 161 184 147 5
-7 3 -8 -6 -3 -8 5 -11 4 -6 -3 4 -6 14 -8 23 -5 12 5 14 3 8 -7 -6 -9 -4 -11
5 -5 10 6 9 11 -5 22 -16 11 -17 15 -5 26 10 10 11 9 5 -3 -8 -13 -6 -13 8 -2
9 8 15 17 14 20 -1 4 1 8 5 10 4 1 21 16 37 32 29 29 59 41 45 18 -4 -7 -3 -8
5 -4 6 4 9 12 6 17 -4 5 7 22 23 39 21 21 36 27 53 24 19 -5 21 -4 9 5 -14 10
-7 16 14 12 5 -1 6 5 2 14 -6 16 4 14 32 -8z m64 -670 l3 -327 -82 0 -83 0 0
48 c0 77 -10 81 -165 71 -124 -7 -272 -23 -342 -35 l-33 -6 0 169 0 169 348
290 347 289 2 -170 c2 -93 4 -317 5 -498z m-522 329 c0 -2 -8 -10 -17 -17 -16
-13 -17 -12 -4 4 13 16 21 21 21 13z m-555 -486 l0 -170 -70 -20 c-157 -46
-395 -143 -535 -217 -3 -2 -5 85 -5 192 0 107 1 195 2 195 1 0 60 -13 131 -30
72 -16 140 -30 152 -30 23 0 90 51 235 179 44 39 82 70 85 71 3 0 5 -76 5
-170z m821 -310 c-1 -113 -5 -180 -11 -180 -16 0 -187 -19 -225 -25 l-35 -6 0
179 0 180 130 14 c72 8 133 16 136 16 3 1 5 -79 5 -178z m-316 -39 l0 -178
-57 -7 c-56 -6 -229 -40 -265 -52 -17 -5 -18 8 -18 178 l0 184 73 13 c115 22
220 39 245 40 l22 1 0 -179z m-390 -71 l0 -179 -42 -11 c-35 -9 -232 -68 -288
-86 -13 -4 -15 19 -12 175 l3 181 112 34 c140 44 210 64 220 65 4 1 7 -80 7
-179z m-390 -118 l0 -177 -142 -58 c-79 -32 -149 -60 -155 -63 -10 -5 -13 31
-13 163 l0 170 148 71 c81 39 150 71 155 71 4 1 7 -79 7 -177z m1117 116 c-3
-7 -5 -2 -5 12 0 14 2 19 5 13 2 -7 2 -19 0 -25z m-700 -30 c-3 -8 -6 -5 -6 6
-1 11 2 17 5 13 3 -3 4 -12 1 -19z m-390 -40 c-2 -13 -4 -5 -4 17 -1 22 1 32
4 23 2 -10 2 -28 0 -40z m785 -69 c-13 -15 -17 -16 -30 -3 -13 13 -12 17 4 28
25 19 46 -1 26 -25z m-1168 -134 l0 -165 -125 -73 -124 -72 2 155 2 155 118
82 c65 45 120 82 123 82 3 1 5 -73 4 -164z m1449 -33 c1 -131 -1 -182 -9 -182
-24 0 -220 -20 -241 -25 -21 -5 -21 -5 -20 180 l2 185 33 6 c46 9 182 22 210
20 l23 -1 2 -183z m-446 152 c-3 -3 -12 -4 -19 -1 -8 3 -5 6 6 6 11 1 17 -2
13 -5z m128 -185 c0 -172 -1 -180 -20 -184 -11 -3 -70 -12 -132 -20 -61 -9
-126 -20 -145 -25 -18 -6 -34 -10 -35 -10 -2 0 -3 81 -3 179 0 163 2 180 18
185 9 3 67 14 127 26 61 12 126 25 145 29 19 4 37 6 40 4 2 -2 5 -85 5 -184z
m-346 130 c-25 -25 -43 -16 -27 14 7 12 11 26 9 32 -1 5 6 1 17 -9 20 -17 20
-18 1 -37z m-402 4 c-3 -10 -5 -4 -5 12 0 17 2 24 5 18 2 -7 2 -21 0 -30z
m363 -201 l0 -179 -97 -22 c-54 -12 -131 -33 -170 -46 l-73 -23 0 174 0 173
83 25 c45 13 118 36 162 49 44 14 83 26 88 26 4 1 7 -79 7 -177z m27 96 c-2
-13 -4 -3 -4 22 0 25 2 35 4 23 2 -13 2 -33 0 -45z m-381 -3 c-6 -5 -10 -23
-8 -40 l3 -30 -18 34 c-13 25 -14 36 -5 39 7 2 12 16 12 30 l0 27 14 -25 c9
-18 10 -28 2 -35z m-687 -152 l1 -138 -87 -65 c-49 -36 -90 -66 -93 -68 -3 -1
-2 42 1 96 4 74 11 111 29 146 22 46 124 166 140 166 5 0 9 -62 9 -137z m651
-58 c0 -151 -2 -175 -15 -175 -21 0 -257 -88 -270 -101 -5 -5 -12 -9 -16 -9
-4 0 -8 76 -8 169 -2 153 0 169 16 174 10 3 77 30 148 61 72 30 133 55 138 55
4 1 7 -78 7 -174z m-100 161 c0 -2 -7 -7 -16 -10 -8 -3 -12 -2 -9 4 6 10 25
14 25 6z m-115 -46 c-3 -5 -12 -10 -18 -10 -7 0 -6 4 3 10 19 12 23 12 15 0z
m-85 -33 c10 -3 7 -6 -8 -6 -13 -1 -22 -7 -21 -13 4 -32 -1 -41 -15 -29 -7 6
-22 9 -32 5 -11 -3 -4 3 14 15 17 11 32 29 32 38 0 11 3 14 8 7 4 -6 14 -14
22 -17z m327 -134 c-2 -21 -4 -6 -4 32 0 39 2 55 4 38 2 -18 2 -50 0 -70z
m-427 77 c0 -5 -5 -10 -11 -10 -5 0 -7 5 -4 10 3 6 8 10 11 10 2 0 4 -4 4 -10z
m43 -162 l-3 -163 -122 -62 c-68 -34 -123 -63 -123 -63 0 0 1 68 2 152 2 83 6
155 11 160 4 4 59 37 122 73 63 36 115 65 115 65 0 0 -1 -73 -2 -162z m1169
104 c-13 -13 -18 -14 -20 -5 -2 7 -8 11 -13 8 -17 -11 -9 8 8 21 27 19 47 -2
25 -24z m283 -161 l1 -179 -68 -6 c-37 -3 -98 -9 -135 -12 l-68 -6 2 178 1
179 99 11 c54 6 114 12 133 13 l35 1 0 -179z m-660 133 c9 -15 12 -24 7 -20
-6 3 -13 -3 -17 -14 -3 -11 -11 -20 -17 -20 -5 0 -8 6 -5 14 4 10 -1 12 -16 9
-21 -4 -21 -4 -2 8 25 15 35 30 29 41 -13 21 6 5 21 -18z m342 -163 l-2 -179
-65 -7 c-70 -7 -224 -32 -252 -41 -17 -5 -18 8 -18 170 0 159 2 175 18 180 18
6 286 54 309 55 8 1 11 -48 10 -178z m-1392 129 c-9 -3 -16 -9 -16 -13 3 -26
-2 -32 -29 -32 -16 0 -30 0 -30 1 0 0 10 9 22 20 12 10 18 13 13 5 -5 -9 -3
-12 6 -9 8 3 13 12 11 22 -2 9 2 16 8 16 6 0 8 6 4 13 -5 7 -1 6 10 -3 17 -13
17 -15 1 -20z m882 -26 c-3 -3 -12 -4 -19 -1 -8 3 -5 6 6 6 11 1 17 -2 13 -5z
m123 -167 l0 -173 -112 -24 c-62 -13 -139 -31 -170 -41 l-58 -17 0 173 0 172
33 7 c17 3 88 22 157 40 69 19 131 35 138 35 9 1 12 -40 12 -172z m-1040 -9
l0 -153 -48 -30 c-26 -16 -66 -45 -89 -62 l-43 -33 0 149 0 148 87 67 c48 36
89 66 90 66 2 0 3 -69 3 -152z m686 100 c-21 -34 -40 -11 -22 28 9 19 12 20
22 6 9 -12 9 -21 0 -34z m117 45 c-7 -2 -19 -2 -25 0 -7 3 -2 5 12 5 14 0 19
-2 13 -5z m-178 -53 c-27 -12 -43 -12 -25 0 8 5 22 9 30 9 10 0 8 -3 -5 -9z
m442 -62 c-2 -13 -4 -3 -4 22 0 25 2 35 4 23 2 -13 2 -33 0 -45z m-417 -118
c0 -128 -3 -172 -12 -174 -7 -2 -69 -22 -138 -45 -69 -23 -133 -45 -142 -48
-17 -5 -18 7 -18 155 l0 160 123 48 c67 26 136 53 152 60 17 7 31 13 33 13 1
1 2 -76 2 -169z m-294 90 c15 0 16 -2 5 -9 -20 -13 -38 -4 -45 22 -5 20 -4 21
8 5 7 -10 22 -18 32 -18z m321 -52 c-2 -13 -4 -3 -4 22 0 25 2 35 4 23 2 -13
2 -33 0 -45z m390 10 c-3 -7 -5 -2 -5 12 0 14 2 19 5 13 2 -7 2 -19 0 -25z
m-737 15 c0 -5 -4 -14 -9 -22 -6 -10 -10 -10 -16 -1 -4 6 -14 9 -24 6 -12 -5
-11 -2 3 9 21 16 46 20 46 8z m-31 -194 l-1 -161 -54 -24 c-30 -13 -86 -40
-125 -59 -39 -19 -72 -35 -73 -35 0 0 0 71 1 157 l2 158 118 61 c65 34 121 62
126 63 4 0 7 -71 6 -160z m-134 121 c-3 -5 -12 -10 -18 -10 -7 0 -6 4 3 10 19
12 23 12 15 0z m1292 -14 c-4 -11 -1 -13 11 -9 14 5 14 3 -3 -16 -11 -12 -21
-18 -23 -12 -2 6 -11 11 -19 11 -11 0 -8 6 8 20 29 23 33 24 26 6z m-1414 -52
c-3 -8 -13 -14 -22 -14 -9 0 -23 -6 -31 -12 -8 -7 -6 -3 4 9 10 13 22 20 27
18 4 -3 10 -1 14 5 3 5 1 10 -4 10 -6 0 -11 5 -11 11 0 8 4 8 14 -1 8 -6 12
-18 9 -26z m1700 -146 l-2 -183 -108 -6 c-59 -4 -119 -8 -132 -10 l-24 -4 -1
182 -1 182 75 6 c41 3 84 7 95 9 11 2 38 4 60 5 l40 1 -2 -182z m-661 113
c-14 -15 -20 -16 -31 -5 -20 18 6 46 31 33 17 -9 17 -10 0 -28z m344 -139 l1
-179 -153 -22 c-85 -12 -161 -24 -169 -27 -14 -6 -15 16 -13 177 l3 184 45 7
c25 4 86 13 135 21 50 8 104 15 120 16 l30 1 1 -178z m-1406 132 c0 -8 -5 -12
-10 -9 -6 4 -8 11 -5 16 9 14 15 11 15 -7z m1020 -187 l0 -183 -77 -13 c-68
-12 -193 -40 -246 -57 -16 -5 -17 6 -15 172 l3 178 125 31 c119 29 202 51 208
54 1 0 2 -81 2 -182z m-1040 20 l0 -152 -29 -13 c-16 -7 -57 -31 -90 -52 l-61
-40 0 145 0 144 53 38 c28 21 66 48 82 60 17 12 33 22 38 22 4 1 7 -68 7 -152z
m695 114 c11 -14 15 -21 8 -18 -7 4 -14 -1 -18 -13 -3 -11 -10 -20 -15 -20
-15 0 -23 21 -11 33 6 6 11 20 11 31 0 10 1 17 3 15 1 -2 11 -15 22 -28z m-45
-231 c0 -169 -1 -180 -19 -180 -10 0 -78 -20 -150 -45 -72 -25 -133 -45 -135
-45 -2 0 -3 77 -2 172 l1 171 145 53 c80 28 148 52 153 53 4 0 7 -80 7 -179z
m-150 153 c-8 -3 -24 -10 -35 -15 -20 -9 -20 -9 -1 6 11 9 27 16 35 15 14 0
14 -1 1 -6z m177 -35 c-3 -7 -5 -2 -5 12 0 14 2 19 5 13 2 -7 2 -19 0 -25z
m-267 8 c0 -2 -7 -7 -16 -10 -8 -3 -12 -2 -9 4 6 10 25 14 25 6z m-84 -51 c-6
-13 -14 -19 -17 -13 -4 6 -17 7 -30 4 -23 -6 -22 -6 2 8 15 9 30 23 33 33 6
14 9 15 15 4 5 -7 3 -23 -3 -36z m351 -37 c-2 -13 -4 -3 -4 22 0 25 2 35 4 23
2 -13 2 -33 0 -45z m-382 -158 l0 -169 -45 -17 c-35 -13 -170 -75 -200 -91 -6
-4 -2 328 4 335 6 5 228 111 236 111 3 1 5 -75 5 -169z m382 78 c-2 -13 -4 -5
-4 17 -1 22 1 32 4 23 2 -10 2 -28 0 -40z m799 2 c10 0 9 -5 -6 -20 -21 -21
-35 -27 -25 -10 3 6 -2 10 -12 11 -13 1 -11 3 7 9 14 4 19 8 12 9 -8 1 -10 6
-6 13 6 9 9 9 12 0 2 -7 10 -12 18 -12z m-1428 -2 c-8 -7 -20 -22 -26 -33 -10
-18 -11 -18 -12 -2 0 11 -4 15 -12 11 -7 -5 -8 -3 -4 5 8 12 42 29 60 30 6 1
3 -5 -6 -11z m1697 -203 l0 -195 -40 0 c-22 0 -84 -3 -138 -7 l-97 -6 3 189
c2 180 3 189 22 192 28 3 195 19 225 21 l25 1 0 -195z m-669 127 c-13 -13 -17
-12 -33 3 -17 18 -17 18 3 13 18 -4 21 -2 17 16 -4 21 -4 21 11 1 14 -17 14
-21 2 -33z m349 -149 l0 -188 -125 -11 c-69 -6 -144 -14 -168 -19 l-42 -7 2
184 3 183 140 21 c77 12 151 22 165 23 l25 1 0 -187z m-1425 12 l0 -165 -57
-29 c-32 -17 -71 -39 -88 -50 -16 -12 -32 -21 -35 -21 -3 0 -4 72 -2 160 l3
160 57 37 c31 20 68 44 82 54 14 10 28 18 33 18 4 1 7 -73 7 -164z m677 123
c-3 -8 -6 -5 -6 6 -1 11 2 17 5 13 3 -3 4 -12 1 -19z m361 -363 c-2 -2 -67
-15 -144 -29 -78 -14 -153 -30 -168 -36 l-26 -10 0 179 c0 177 0 179 23 185
27 7 217 51 272 63 l40 9 3 -180 c1 -98 1 -180 0 -181z m-348 305 c-6 -10 -10
-29 -10 -42 0 -22 -1 -21 -15 6 -19 35 -19 40 -1 33 10 -4 12 0 9 14 -4 15 -2
18 11 13 12 -4 13 -10 6 -24z m-70 -20 c-8 -5 -19 -10 -25 -10 -5 0 -3 5 5 10
8 5 20 10 25 10 6 0 3 -5 -5 -10z m30 -188 l0 -179 -57 -13 c-32 -7 -98 -25
-148 -41 -49 -16 -93 -29 -98 -29 -4 0 -6 75 -5 167 l3 167 150 52 c83 28 151
52 153 53 1 0 2 -79 2 -177z m-318 83 c-9 -11 -19 -22 -21 -25 -2 -3 -1 6 2
20 6 24 5 24 -8 6 -8 -11 -15 -16 -15 -12 0 4 8 17 17 30 13 17 20 20 29 12 9
-8 8 -16 -4 -31z m345 -22 c-3 -10 -5 -2 -5 17 0 19 2 27 5 18 2 -10 2 -26 0
-35z m-407 7 c-8 -5 -22 -9 -30 -9 -10 0 -8 3 5 9 27 12 43 12 25 0z m-55 -20
c-3 -5 -12 -10 -18 -10 -7 0 -6 4 3 10 19 12 23 12 15 0z m84 -165 c2 -152 1
-166 -16 -171 -10 -3 -65 -23 -122 -45 -57 -22 -105 -38 -107 -36 -2 1 -4 72
-5 157 l-1 155 28 14 c54 28 199 90 209 90 7 1 12 -57 14 -164z m-265 74 c-9
-11 -14 -26 -10 -36 5 -16 4 -15 -9 1 -17 23 -20 40 -4 31 6 -4 10 -1 8 6 -4
34 0 42 16 29 14 -12 14 -15 -1 -31z m643 19 c-3 -8 -6 -5 -6 6 -1 11 2 17 5
13 3 -3 4 -12 1 -19z m793 -53 c0 -8 -5 -17 -11 -21 -16 -9 -30 18 -17 33 12
15 28 8 28 -12z m-1505 5 c-3 -5 -12 -10 -18 -10 -7 0 -6 4 3 10 19 12 23 12
15 0z m35 -165 c0 -98 -4 -155 -10 -155 -6 0 -29 -9 -53 -19 -23 -11 -59 -26
-79 -35 l-37 -15 -3 141 -3 140 85 48 c47 27 88 49 93 49 4 1 7 -69 7 -154z
m1081 103 c-14 -16 -16 -17 -19 -3 -2 8 -8 12 -13 9 -6 -3 -5 3 2 14 10 16 16
18 29 9 16 -9 16 -12 1 -29z m664 -283 l0 -325 -115 0 c-63 0 -125 -3 -138 -6
l-23 -7 3 326 3 326 40 4 c22 2 83 4 135 5 l95 2 0 -325z m-317 -8 l0 -323
-154 -12 c-84 -7 -160 -15 -169 -18 -13 -5 -15 31 -15 314 l1 321 42 6 c49 7
255 32 279 34 15 1 16 -27 16 -322z m-736 238 c4 -6 0 -19 -8 -30 -13 -17 -16
-18 -24 -5 -12 19 -12 27 0 35 6 3 11 23 11 43 l1 37 7 -35 c4 -20 10 -40 13
-45z m348 -70 l0 -115 -32 0 c-34 0 -259 -43 -290 -55 -17 -7 -18 2 -18 102
l0 110 113 23 c100 20 218 46 225 49 1 1 2 -51 2 -114z m-390 -72 l0 -108
-142 -35 c-78 -19 -147 -36 -155 -38 -10 -3 -13 19 -13 96 l0 100 48 11 c34 9
202 60 260 80 1 1 2 -47 2 -106z m27 -20 c-2 -21 -4 -4 -4 37 0 41 2 58 4 38
2 -21 2 -55 0 -75z m-332 67 c10 0 7 -7 -8 -23 -13 -14 -27 -20 -33 -15 -6 4
-15 4 -19 0 -5 -4 -5 -1 -1 6 5 7 15 11 23 8 8 -3 12 -2 8 3 -3 5 -2 17 2 27
4 11 8 13 11 6 2 -7 10 -12 17 -12z m-46 -147 l1 -98 -112 -41 c-62 -22 -120
-44 -128 -48 -13 -5 -15 9 -12 103 l3 110 46 15 c26 9 58 16 72 17 14 0 46 8
71 19 25 10 48 18 51 19 4 1 7 -43 8 -96z m768 40 c-3 -10 -5 -4 -5 12 0 17 2
24 5 18 2 -7 2 -21 0 -30z m-1037 -12 c-5 -10 -6 -21 -3 -25 3 -3 1 -6 -5 -6
-7 0 -10 10 -8 23 3 12 5 26 5 30 1 5 6 5 11 2 7 -4 7 -12 0 -24z m1010 -186
l0 -194 -32 -5 c-18 -3 -80 -12 -138 -20 -58 -9 -120 -18 -138 -22 l-32 -7 2
183 3 183 130 28 c112 24 194 43 203 48 1 0 2 -87 2 -194z m-1040 51 l0 -103
-42 -19 c-24 -10 -65 -31 -92 -47 -27 -15 -49 -27 -50 -25 0 2 0 60 2 129 l3
126 36 1 c20 1 57 12 82 25 25 12 49 21 54 19 4 -2 7 -49 7 -106z m693 87 c-7
-2 -13 -12 -13 -20 0 -13 -3 -13 -15 -3 -19 16 -10 30 18 29 12 0 16 -3 10 -6z
m-43 -212 c0 -163 -2 -180 -17 -185 -10 -2 -45 -10 -78 -16 -33 -7 -91 -20
-130 -31 -38 -10 -73 -19 -77 -19 -5 0 -8 78 -8 174 l0 174 58 15 c31 9 95 27
142 40 47 14 91 25 98 26 9 1 12 -41 12 -178z m-324 94 c-9 -19 -11 -20 -25
-6 -15 14 -14 18 4 36 16 16 21 17 26 6 3 -8 1 -24 -5 -36z m-28 -188 l3 -173
-53 -13 c-29 -8 -86 -27 -127 -42 -41 -16 -75 -28 -75 -26 -1 1 0 77 2 169 l3
167 102 39 c112 44 130 50 137 51 3 1 6 -77 8 -172z m-153 143 c-3 -5 -12 -10
-18 -10 -7 0 -6 4 3 10 19 12 23 12 15 0z m-105 -31 c0 -5 6 -7 13 -4 6 4 5 1
-4 -7 -8 -7 -21 -22 -28 -33 -12 -19 -12 -19 -8 2 5 20 3 22 -16 11 -20 -10
-20 -9 2 16 26 27 41 33 41 15z m1027 -41 c-3 -8 -6 -5 -6 6 -1 11 2 17 5 13
3 -3 4 -12 1 -19z m-1067 -177 l0 -169 -37 -13 c-21 -6 -59 -22 -85 -35 -27
-14 -50 -24 -53 -24 -4 0 -6 71 -6 157 l0 158 88 47 c48 26 89 48 91 48 1 0 2
-76 2 -169z m1450 94 c-11 -13 -10 -14 6 -9 16 6 17 5 7 -7 -10 -9 -16 -10
-24 -2 -12 12 -4 33 13 33 6 0 6 -6 -2 -15z m-374 -51 c-4 -12 -9 -12 -24 -3
-18 11 -18 13 -3 29 13 13 17 14 24 2 5 -7 6 -20 3 -28z m667 -158 l2 -186
-135 1 -135 1 0 184 0 183 130 3 c71 2 131 2 133 2 1 -1 4 -85 5 -188z m-313
1 l0 -184 -152 -6 c-85 -3 -161 -9 -171 -12 -16 -7 -17 6 -17 173 l0 180 128
11 c167 15 196 17 204 19 4 1 7 -81 8 -181z m-743 102 c-14 -22 -24 -24 -30
-6 -7 20 15 48 30 36 9 -8 9 -15 0 -30z m353 -134 c0 -96 -4 -175 -9 -175 -24
0 -315 -41 -323 -46 -4 -3 -8 73 -8 169 l0 175 63 11 c105 19 231 39 255 40
l22 1 0 -175z m-390 -58 l0 -173 -72 -13 c-40 -7 -107 -22 -148 -32 -41 -10
-79 -19 -83 -19 -4 0 -7 76 -6 168 l1 168 142 37 c77 19 147 36 154 36 9 1 12
-40 12 -172z m-305 133 c10 0 7 -7 -8 -22 -12 -13 -23 -20 -25 -15 -2 4 -10 7
-17 7 -10 0 -7 7 8 23 12 12 24 19 25 15 2 -5 10 -8 17 -8z m722 -72 c-2 -18
-4 -4 -4 32 0 36 2 50 4 33 2 -18 2 -48 0 -65z m-390 25 c-3 -10 -5 -4 -5 12
0 17 2 24 5 18 2 -7 2 -21 0 -30z m-382 -170 c0 -159 -2 -168 -20 -171 -17 -4
-192 -57 -220 -68 -7 -3 -9 53 -7 160 l3 164 72 26 c139 50 152 55 162 55 6 1
10 -61 10 -166z m-254 120 c12 -15 12 -16 -3 -10 -12 4 -15 2 -11 -9 3 -7 0
-14 -7 -14 -6 0 -8 -6 -4 -12 5 -10 4 -10 -5 -2 -9 8 -9 17 0 37 14 32 13 31
30 10z m3172 0 c20 -8 37 -19 37 -25 0 -5 8 -7 19 -3 20 6 35 -8 44 -42 6 -26
-2 -29 -22 -10 -11 10 -13 10 -7 0 9 -17 6 -16 -40 4 -66 28 -132 42 -171 36
-22 -4 -25 -2 -13 6 8 6 10 11 4 11 -6 0 -16 -6 -22 -13 -6 -7 -23 -14 -37
-15 -32 -2 -91 -33 -162 -84 -34 -25 -53 -33 -56 -25 -3 6 -6 -1 -6 -17 -1
-16 -4 -26 -8 -23 -4 4 -18 -13 -33 -38 -15 -25 -29 -42 -33 -38 -4 3 -7 -1
-7 -10 0 -8 -11 -37 -24 -64 -13 -26 -26 -55 -29 -63 -3 -8 -6 4 -6 28 -1 24
-6 53 -13 65 -10 20 -10 21 6 8 14 -12 16 -12 10 4 -6 14 -4 16 7 10 12 -7 12
-6 1 7 -10 13 -11 22 -2 37 6 12 15 21 21 21 6 0 7 -5 3 -12 -4 -7 -3 -8 5 -4
6 4 9 11 6 16 -3 5 3 22 13 39 15 25 21 28 37 18 17 -9 18 -8 8 5 -10 12 -10
18 3 34 8 10 13 14 10 8 -3 -6 1 -11 8 -11 8 0 11 8 8 19 -2 10 0 18 5 18 5 0
24 14 42 30 18 17 46 34 62 37 16 3 29 8 29 12 0 3 24 6 53 6 29 0 66 3 83 6
18 5 6 6 -33 5 -34 0 -59 2 -55 6 22 21 203 22 255 1z m-2536 -55 c-3 -8 -6
-5 -6 6 -1 11 2 17 5 13 3 -3 4 -12 1 -19z m-677 -161 l0 -164 -42 -13 c-24
-6 -65 -23 -92 -36 -27 -13 -50 -24 -50 -24 -2 0 4 323 6 325 13 7 165 74 171
74 4 1 7 -73 7 -162z m3230 116 c32 -15 84 -55 126 -97 84 -84 138 -185 181
-341 25 -91 28 -114 27 -260 -1 -140 -4 -172 -28 -258 -67 -247 -211 -427
-371 -461 l-30 -7 5 101 c5 98 6 101 41 138 211 222 225 243 178 275 -32 23
-53 11 -135 -79 -43 -46 -80 -84 -83 -84 -3 0 -5 97 -3 216 3 183 1 219 -13
240 -17 26 -62 33 -83 12 -9 -9 -12 -115 -12 -416 l0 -403 -22 6 c-118 36
-242 154 -313 299 -73 148 -89 221 -89 421 -1 147 2 181 22 254 70 256 209
427 385 472 56 14 156 2 217 -28z m-1765 -43 c7 -11 -14 -44 -23 -35 -3 2 1
11 8 20 11 13 10 14 -5 9 -13 -5 -16 -4 -11 4 9 15 23 15 31 2z m-375 -25 c0
4 3 5 7 2 3 -4 -2 -13 -12 -21 -14 -10 -24 -11 -36 -3 -15 9 -15 11 0 27 14
15 17 16 29 2 6 -9 12 -12 12 -7z m73 -2 c-7 -2 -21 -2 -30 0 -10 3 -4 5 12 5
17 0 24 -2 18 -5z m267 -158 l0 -155 -87 0 c-49 0 -125 -3 -170 -7 l-83 -6 0
152 0 151 53 1 c56 2 267 14 280 17 4 1 7 -68 7 -153z m313 -9 l2 -158 -44 6
c-24 3 -85 6 -135 6 l-91 0 0 156 0 155 133 -3 133 -3 2 -159z m-1049 126 c2
-4 -1 -18 -8 -30 -11 -21 -14 -22 -25 -8 -11 13 -11 19 -1 31 14 16 26 19 34
7z m346 -140 l0 -148 -147 -18 c-82 -10 -158 -22 -170 -27 l-23 -9 0 149 c0
117 3 150 14 154 19 8 248 42 304 46 22 1 22 0 22 -147z m-390 -57 l0 -155
-25 0 c-27 0 -239 -44 -267 -55 -15 -6 -16 8 -17 143 l-2 149 93 21 c108 25
212 49 216 51 1 1 2 -69 2 -154z m-323 84 c-8 -13 -13 -14 -22 -5 -10 8 -9 16
3 35 15 22 16 22 22 5 4 -11 2 -26 -3 -35z m350 -41 c-2 -13 -4 -5 -4 17 -1
22 1 32 4 23 2 -10 2 -28 0 -40z m-379 -122 l3 -145 -43 -11 c-132 -34 -220
-69 -214 -85 3 -8 -2 -19 -10 -26 -8 -7 -12 -19 -9 -28 4 -11 1 -10 -13 4 -11
11 -17 22 -15 25 4 5 8 6 33 9 7 1 7 8 -1 22 -6 12 -7 19 -1 15 17 -11 22 22
22 159 l0 134 108 35 c59 19 114 35 122 36 13 0 16 -24 18 -144z m-247 102
c10 -7 8 -8 -8 -5 -20 4 -22 1 -19 -24 2 -16 -1 -26 -6 -23 -5 3 -7 13 -4 21
5 11 2 13 -11 9 -16 -6 -16 -6 0 12 9 10 17 25 17 33 0 12 2 12 9 0 5 -7 15
-18 22 -23z m-131 -52 c0 -2 -7 -7 -16 -10 -8 -3 -12 -2 -9 4 6 10 25 14 25 6z
m79 -146 c0 -120 -3 -150 -14 -150 -8 0 -48 -16 -91 -35 -42 -19 -78 -35 -81
-35 -2 0 -3 67 -1 149 l3 149 80 35 c44 19 86 35 93 36 10 1 12 -33 11 -149z
m-139 126 c0 -2 -7 -7 -16 -10 -8 -3 -12 -2 -9 4 6 10 25 14 25 6z m1609 -39
c13 -16 5 -27 -21 -27 -17 0 -18 -12 -18 -190 l0 -190 -87 0 c-49 0 -125 -3
-170 -7 l-83 -6 0 185 0 185 83 6 c45 4 116 7 157 7 41 0 82 5 90 10 8 5 11
10 6 10 -10 0 13 30 24 30 4 0 13 -6 19 -13z m-376 -17 c6 0 2 -8 -9 -19 -13
-12 -23 -15 -31 -9 -16 13 -4 41 14 34 8 -3 20 -6 26 -6z m652 -212 l0 -190
-74 6 c-41 3 -103 6 -138 6 l-63 0 0 183 c0 101 2 186 4 188 2 2 64 3 138 1
l133 -3 0 -191z m-1050 160 c6 -4 2 -8 -7 -8 -10 0 -18 7 -18 17 0 9 3 12 8 7
4 -5 12 -12 17 -16z m345 -167 l0 -188 -113 -7 c-62 -4 -138 -10 -168 -15 -29
-5 -55 -8 -56 -7 -1 1 -3 80 -3 176 l-2 175 39 8 c21 5 97 17 168 27 72 9 131
18 133 19 1 0 2 -84 2 -188z m-361 150 c9 -6 10 -11 2 -15 -13 -8 -31 1 -31
15 0 11 11 11 29 0z m-102 -17 c-3 -3 -12 -4 -19 -1 -8 3 -5 6 6 6 11 1 17 -2
13 -5z m73 -183 l0 -179 -57 -7 c-32 -3 -98 -15 -148 -26 -49 -10 -92 -19 -95
-19 -3 0 -4 78 -4 172 l2 173 33 7 c19 4 84 18 144 32 61 13 113 25 118 25 4
1 7 -79 7 -178z m-328 137 c-8 -8 -9 -15 -1 -25 8 -9 8 -13 0 -13 -18 0 -25
29 -11 45 7 9 15 13 18 10 3 -3 0 -11 -6 -17z m23 -8 c-3 -5 -12 -10 -18 -10
-7 0 -6 4 3 10 19 12 23 12 15 0z m-47 -202 l-3 -171 -105 -28 c-58 -16 -114
-31 -125 -34 -19 -6 -20 -2 -18 162 l2 168 118 37 c65 20 121 37 126 37 4 1 6
-76 5 -171z m-368 72 c-8 -5 -19 -10 -25 -10 -5 0 -3 5 5 10 8 5 20 10 25 10
6 0 3 -5 -5 -10z m70 -157 l0 -168 -83 -30 c-45 -16 -86 -31 -92 -33 -6 -1
-10 56 -10 157 l-1 160 45 18 c24 10 65 28 90 40 25 12 47 22 49 22 1 1 2 -74
2 -166z m1460 22 c0 -9 6 -12 18 -9 9 3 6 -1 -8 -9 -25 -16 -45 -13 -35 4 4 5
0 9 -7 9 -9 0 -9 3 2 10 21 14 30 12 30 -5z m-381 -16 c1 8 4 11 7 8 4 -4 1
-13 -5 -21 -10 -12 -16 -13 -26 -3 -10 9 -10 16 -2 25 9 11 12 11 18 -5 5 -11
8 -13 8 -4z m288 5 c-3 -3 -12 -4 -19 -1 -8 3 -5 6 6 6 11 1 17 -2 13 -5z
m-683 -64 c-11 -12 -16 -12 -26 -1 -10 11 -10 14 0 18 6 3 12 12 12 21 0 13 3
12 14 -4 13 -16 13 -21 0 -34z m743 -135 l0 -175 -86 0 c-47 0 -123 -3 -168
-7 l-83 -6 0 176 0 176 33 3 c17 2 93 5 168 6 l136 3 0 -176z m314 -7 c0 -98
-4 -179 -8 -179 -4 -1 -64 2 -133 6 l-125 7 0 175 0 175 133 -4 133 -3 0 -177z
m-701 -2 l0 -174 -47 -6 c-27 -3 -84 -8 -128 -12 -44 -3 -99 -9 -122 -14 l-43
-7 0 173 c0 172 0 174 23 179 19 4 245 30 300 34 16 1 17 -13 17 -173z m-690
92 c0 -3 -9 -4 -20 -1 -23 6 -22 5 -14 27 6 15 8 15 20 -1 7 -10 14 -21 14
-25z m300 -133 l0 -174 -32 -5 c-76 -11 -235 -37 -253 -42 -19 -5 -20 2 -22
164 l-1 169 146 30 c81 17 150 31 155 32 4 0 7 -78 7 -174z m-325 114 c-3 -4
-12 -6 -20 -3 -8 4 -13 10 -10 15 3 4 12 6 20 3 8 -4 13 -10 10 -15z m-28
-182 l2 -163 -107 -26 c-59 -15 -116 -30 -127 -33 -19 -6 -20 -2 -18 156 1 89
5 164 7 167 8 8 198 61 221 61 19 1 20 -6 22 -162z m-257 132 c0 -5 -5 -7 -11
-4 -6 4 -9 1 -7 -6 3 -14 -3 -19 -24 -19 -6 0 -3 9 7 20 20 22 35 26 35 9z
m-41 -211 l-1 -163 -80 -25 c-44 -14 -82 -28 -85 -32 -17 -29 -23 10 -23 155
l0 162 83 31 c45 18 88 32 95 33 10 1 13 -34 11 -161z m1464 2 c5 -21 -7 -35
-22 -26 -10 7 -3 46 9 46 4 0 10 -9 13 -20z m-383 -27 c-27 -19 -51 -3 -31 21
10 12 18 13 33 5 20 -11 20 -11 -2 -26z m-392 -37 c-11 -11 -16 -11 -26 1 -8
7 -8 13 -2 13 5 0 10 10 10 22 l0 22 16 -22 c13 -19 13 -24 2 -36z m738 -141
l-1 -175 -167 0 -168 0 0 169 0 170 53 4 c28 2 104 4 168 5 l115 2 0 -175z
m215 169 l104 -7 0 -173 0 -174 -31 0 c-17 0 -78 3 -136 6 l-105 7 0 173 1
174 31 0 c18 0 79 -3 136 -6z m-601 -180 c0 -96 -3 -173 -7 -171 -9 6 -277
-10 -310 -18 l-23 -5 0 169 0 169 58 7 c31 4 102 11 157 15 55 4 106 8 113 9
9 1 12 -40 12 -175z m-390 -34 l0 -170 -52 0 c-48 -1 -166 -18 -228 -34 l-25
-7 2 168 3 168 127 22 c196 32 173 52 173 -147z m-310 149 c0 -6 -6 -17 -14
-24 -11 -12 -13 -10 -13 11 0 14 5 24 13 24 8 0 14 -5 14 -11z m-40 -202 l0
-163 -92 -18 c-51 -11 -109 -24 -128 -31 l-35 -12 2 160 c1 88 5 162 8 166 8
7 202 59 228 60 15 1 17 -13 17 -162z m-267 109 c-10 -12 -20 -23 -22 -26 -2
-3 -1 3 3 14 5 14 2 17 -9 12 -13 -5 -12 -1 2 18 13 18 21 21 31 14 10 -9 9
-15 -5 -32z m-33 -183 l0 -158 -95 -30 -95 -30 0 156 0 156 83 31 c45 17 88
31 95 31 9 1 12 -37 12 -156z m1064 -15 c-6 -20 -5 -21 9 -10 23 19 28 0 6
-22 -17 -17 -19 -18 -19 -3 0 9 -5 17 -10 17 -6 0 -5 8 2 20 17 26 21 25 12
-2z m400 3 c4 -5 3 -16 0 -25 -5 -12 -10 -13 -26 -5 -15 8 -17 13 -7 25 13 16
25 18 33 5z m-771 -35 c8 -21 -17 -40 -31 -23 -9 10 -8 17 0 25 16 16 25 15
31 -2z m730 -325 l2 -322 -168 -2 -167 -2 0 322 0 323 163 2 c89 2 163 2 165
1 2 0 4 -146 5 -322z m-383 -3 l0 -323 -170 0 -170 0 0 312 0 311 118 6 c64 4
128 8 142 10 14 2 37 4 53 5 l27 1 0 -322z m631 316 l74 -7 0 -314 0 -314
-135 0 -135 0 0 320 -1 321 62 0 c33 0 94 -3 135 -6z m-1154 -20 c-3 -3 -12
-4 -19 -1 -8 3 -5 6 6 6 11 1 17 -2 13 -5z m-167 -26 c0 -6 -7 -7 -16 -4 -8 3
-13 2 -10 -2 2 -4 1 -14 -5 -22 -6 -10 -9 -11 -9 -2 0 6 -10 12 -22 13 l-23 0
21 9 c12 5 25 13 28 19 8 12 36 3 36 -11z m300 -285 l0 -308 -155 0 -156 0 3
285 3 285 135 21 c74 12 143 22 153 23 16 1 17 -20 17 -306z m-357 -29 l2
-279 -123 2 c-67 1 -122 5 -122 8 0 3 0 115 0 249 l0 244 98 21 c53 12 106 26
117 30 11 5 21 7 23 6 2 -1 4 -128 5 -281z m-261 228 c-13 -20 -17 -21 -24 -8
-12 22 11 58 27 42 10 -8 9 -16 -3 -34z m-34 -263 l-3 -241 -93 -1 -92 -2 0
215 0 216 78 26 c124 42 113 65 110 -213z"/>
<path d="M2715 10010 c-3 -6 1 -7 9 -4 18 7 21 14 7 14 -6 0 -13 -4 -16 -10z"/>
<path d="M2687 9993 c-3 -3 -36 -7 -73 -9 -37 -3 -73 -9 -80 -15 -7 -6 -17 -8
-22 -5 -6 3 -15 -1 -22 -10 -7 -8 -19 -13 -26 -10 -8 3 -13 0 -11 -7 1 -7 -3
-11 -10 -10 -6 2 -15 -6 -18 -17 -4 -11 -11 -17 -17 -14 -7 5 -8 2 -3 -6 4 -7
2 -16 -6 -21 -9 -6 -10 -12 -4 -16 13 -10 13 -86 0 -95 -6 -5 -5 -8 3 -8 9 0
10 -5 3 -17 -5 -9 -5 -26 -1 -38 12 -32 12 -233 0 -240 -5 -3 -10 -14 -9 -23
0 -14 2 -13 9 3 6 14 9 -2 9 -50 1 -49 -2 -65 -9 -55 -7 11 -10 5 -10 -23 0
-21 4 -36 9 -32 9 5 6 -33 -4 -62 -2 -7 0 -15 6 -18 5 -4 7 -17 5 -31 -4 -22
-2 -24 17 -19 12 4 17 3 11 -2 -15 -11 -49 -77 -35 -68 13 7 10 -22 -3 -44 -7
-11 -6 -12 5 -6 12 8 12 6 0 -8 -9 -12 -10 -17 -2 -17 8 0 11 -18 9 -57 l-3
-58 32 1 c22 1 31 -2 27 -10 -3 -6 3 -1 14 12 12 13 26 20 36 16 9 -3 16 -2
16 4 0 6 19 14 43 18 75 14 242 0 230 -18 -3 -6 -1 -8 5 -4 11 7 58 -10 82
-31 17 -13 15 -15 22 47 1 11 5 20 8 20 3 0 4 37 2 82 -3 74 -6 86 -30 112
-19 21 -22 27 -9 23 9 -4 17 -2 17 4 0 6 4 7 10 4 8 -5 16 514 10 689 -1 33
-49 95 -69 88 -8 -3 -11 0 -7 7 5 7 1 9 -10 4 -12 -4 -15 -3 -10 5 5 8 1 10
-10 5 -10 -3 -15 -2 -12 3 3 5 -12 10 -33 11 -22 2 -48 7 -58 12 -10 6 -21 8
-24 4z m105 -50 c26 -9 59 -26 73 -37 l25 -21 2 -353 c2 -193 0 -352 -3 -352
-3 0 -25 10 -50 22 -39 20 -59 23 -169 23 -115 0 -130 -2 -182 -27 l-58 -27 0
357 0 357 35 24 c19 13 51 29 72 37 55 19 198 18 255 -3z m-94 -740 c-10 -2
-28 -2 -40 0 -13 2 -5 4 17 4 22 1 32 -1 23 -4z m112 -18 c31 -18 16 -18 -30
0 -23 9 -28 14 -15 14 11 0 31 -6 45 -14z m-300 -9 c0 -2 -7 -7 -16 -10 -8 -3
-12 -2 -9 4 6 10 25 14 25 6z m320 -33 l62 -28 1 -108 c1 -59 1 -107 -1 -107
-1 0 -14 7 -28 16 -84 55 -290 57 -396 3 -21 -11 -39 -19 -40 -19 -2 0 -2 47
0 105 l3 105 50 25 c71 37 114 45 205 40 62 -3 97 -11 144 -32z m-360 17 c0
-5 -5 -10 -11 -10 -5 0 -7 5 -4 10 3 6 8 10 11 10 2 0 4 -4 4 -10z"/>
<path d="M2389 9923 c-13 -16 -12 -17 4 -4 16 13 21 21 13 21 -2 0 -10 -8 -17
-17z"/>
<path d="M2393 9555 c0 -22 2 -30 4 -17 2 12 2 30 0 40 -3 9 -5 -1 -4 -23z"/>
<path d="M2947 9191 c-4 -17 -3 -21 5 -13 5 5 8 16 6 23 -3 8 -7 3 -11 -10z"/>
<path d="M3643 9104 c7 -11 -16 -38 -24 -30 -2 2 -3 -32 -2 -76 2 -66 -1 -79
-13 -74 -10 4 -14 -1 -13 -17 0 -12 3 -16 6 -9 2 6 9 12 14 12 5 0 9 -1230 9
-3106 0 -2471 3 -3108 13 -3118 6 -6 25 -11 42 -9 16 1 35 -3 42 -9 9 -7 13
-7 13 0 0 6 6 9 14 6 7 -3 16 2 20 11 10 27 7 6123 -3 6185 -5 30 -11 61 -13
69 -1 7 3 16 10 18 8 3 10 -2 6 -14 -5 -14 -4 -15 4 -3 15 20 4 32 -20 24 -18
-5 -20 -3 -15 22 4 16 4 23 1 16 -4 -8 -19 5 -42 35 -20 27 -37 51 -37 55 0 3
-4 10 -9 15 -5 4 -6 3 -3 -3z m62 -131 c14 -28 29 -82 35 -120 6 -43 10 -1163
10 -3110 l0 -3043 -54 0 -55 0 0 3188 c-1 3181 -1 3187 19 3162 11 -14 31 -48
45 -77z"/>
<path d="M3590 9049 c0 -5 5 -7 10 -4 6 3 10 8 10 11 0 2 -4 4 -10 4 -5 0 -10
-5 -10 -11z"/>
<path d="M2620 8919 c0 -5 5 -7 10 -4 6 3 10 8 10 11 0 2 -4 4 -10 4 -5 0 -10
-5 -10 -11z"/>
<path d="M2602 8887 c-15 -4 -38 -5 -50 -2 -15 4 -21 2 -17 -5 6 -9 2 -12 -27
-14 -7 -1 -19 -8 -26 -16 -10 -11 -12 -11 -6 -1 5 9 3 12 -5 7 -6 -4 -8 -12
-5 -18 5 -8 1 -9 -10 -5 -9 4 -15 3 -12 -2 3 -5 -2 -15 -11 -22 -14 -13 -16
-11 -11 13 3 15 2 25 -3 23 -4 -3 -10 1 -13 7 -3 7 -3 0 -1 -16 2 -16 1 -34
-2 -40 -4 -5 -8 -22 -9 -35 -2 -20 -1 -22 6 -11 8 13 10 12 11 -2 1 -10 2 -24
3 -30 0 -7 6 -13 11 -13 6 -1 20 -6 32 -13 20 -11 24 -9 40 20 10 18 18 40 18
48 0 10 8 14 23 12 16 -2 20 1 16 11 -7 19 24 30 99 32 44 2 60 -1 68 -14 9
-14 10 -14 5 2 -3 10 -2 16 2 14 4 -2 24 -12 45 -22 21 -10 42 -27 48 -38 8
-14 8 -18 0 -13 -15 9 -9 -27 7 -47 14 -16 56 -31 47 -16 -3 4 3 14 15 21 11
7 20 19 20 27 0 11 3 11 18 0 14 -11 15 -11 5 1 -7 8 -13 24 -13 37 0 13 -11
33 -25 45 -13 11 -22 26 -18 31 3 6 1 7 -5 3 -7 -4 -12 -3 -12 3 0 6 -7 8 -15
5 -8 -4 -15 -1 -15 5 0 6 -3 10 -7 10 -15 -3 -93 14 -93 20 0 9 -95 8 -128 -2z
m196 -42 c47 -20 102 -63 102 -79 0 -16 -38 -66 -50 -66 -5 0 -7 13 -4 30 5
24 1 34 -27 60 -39 35 -84 50 -154 50 -102 0 -185 -47 -185 -104 0 -14 -3 -26
-7 -26 -14 0 -43 34 -43 50 0 36 85 88 170 104 43 8 160 -4 198 -19z m-378
-55 c0 -5 -5 -10 -11 -10 -5 0 -7 5 -4 10 3 6 8 10 11 10 2 0 4 -4 4 -10z"/>
<path d="M3797 8780 c3 -30 7 -57 9 -59 7 -8 2 64 -6 89 -6 16 -7 6 -3 -30z"/>
<path d="M2760 8780 c-9 -6 -10 -10 -3 -10 6 0 15 5 18 10 8 12 4 12 -15 0z"/>
<path d="M2627 8765 c-84 -21 -80 -4 -80 -350 0 -233 3 -309 12 -315 7 -4 12
-10 11 -14 -1 -4 1 -12 3 -19 3 -9 8 -9 18 2 12 12 12 13 0 6 -9 -5 -12 -3 -9
5 6 20 28 24 28 6 0 -9 4 -16 9 -16 5 0 7 9 4 20 -3 12 0 20 6 20 7 0 9 -5 5
-11 -3 -6 5 -4 18 5 21 14 46 20 106 25 6 0 12 8 12 17 0 10 6 14 14 11 12 -5
12 0 5 26 -5 18 -9 144 -9 281 0 223 -2 252 -17 269 -17 19 -17 20 0 14 18 -7
47 1 47 12 0 4 -7 8 -15 8 -8 0 -12 -4 -9 -9 5 -8 -43 -2 -86 11 -14 5 -46 3
-73 -4z m92 -26 c17 -6 31 -16 31 -22 0 -7 3 -136 6 -288 l6 -275 -73 -13
c-41 -8 -84 -17 -97 -22 l-22 -9 2 307 3 307 25 13 c31 16 77 16 119 2z"/>
<path d="M2529 8733 c-13 -16 -12 -17 4 -4 9 7 17 15 17 17 0 8 -8 3 -21 -13z"/>
<path d="M2892 8624 c4 -4 3 -15 -3 -25 -13 -24 -8 -24 13 0 15 18 15 20 0 26
-9 3 -13 3 -10 -1z"/>
<path d="M3602 8545 c0 -16 2 -22 5 -12 2 9 2 23 0 30 -3 6 -5 -1 -5 -18z"/>
<path d="M3803 8425 c0 -22 2 -30 4 -17 2 12 2 30 0 40 -3 9 -5 -1 -4 -23z"/>
<path d="M2386 8419 c4 -8 -1 -9 -17 -5 -20 6 -21 5 -6 -4 10 -7 23 -8 33 -2
15 8 15 10 0 15 -11 4 -15 3 -10 -4z"/>
<path d="M3603 8380 c0 -30 2 -43 4 -27 2 15 2 39 0 55 -2 15 -4 2 -4 -28z"/>
<path d="M2330 8389 c0 -5 5 -7 10 -4 6 3 10 8 10 11 0 2 -4 4 -10 4 -5 0 -10
-5 -10 -11z"/>
<path d="M2531 8374 c0 -11 3 -14 6 -6 3 7 2 16 -1 19 -3 4 -6 -2 -5 -13z"/>
<path d="M2345 8369 c-4 -6 -13 -8 -21 -5 -8 3 -11 0 -7 -10 5 -13 8 -13 24 2
19 17 23 24 15 24 -3 0 -8 -5 -11 -11z"/>
<path d="M2265 8345 c-19 -15 -19 -16 -1 -33 11 -9 16 -11 12 -4 -4 7 -2 12 6
12 9 0 9 3 -2 10 -14 9 -7 14 13 11 5 -1 6 3 2 9 -8 12 -6 13 -30 -5z"/>
<path d="M2511 8324 c0 -11 3 -14 6 -6 3 7 2 16 -1 19 -3 4 -6 -2 -5 -13z"/>
<path d="M3797 8320 c-3 -11 -1 -23 4 -26 5 -3 9 6 9 20 0 31 -6 34 -13 6z"/>
<path d="M2191 8276 c-14 -16 -7 -36 12 -36 7 0 6 4 -3 10 -13 9 -13 11 0 19
8 6 12 13 9 16 -4 3 -12 -1 -18 -9z"/>
<path d="M3801 8254 c0 -11 3 -14 6 -6 3 7 2 16 -1 19 -3 4 -6 -2 -5 -13z"/>
<path d="M2513 8225 c-3 -9 -3 -18 -1 -21 3 -3 8 4 11 16 6 23 -1 27 -10 5z"/>
<path d="M1712 8220 c6 -17 -18 -70 -31 -70 -16 0 -36 -65 -32 -109 2 -29 -1
-41 -8 -37 -12 8 -26 -36 -18 -56 3 -7 6 -1 6 15 1 15 6 27 11 27 6 0 10 -50
10 -130 0 -119 2 -130 20 -140 15 -8 20 -8 20 1 0 6 7 8 16 5 8 -3 12 -2 9 3
-3 5 3 12 13 16 21 6 83 70 76 78 -3 2 -6 88 -7 191 -2 177 -3 187 -22 192
-11 4 -24 12 -28 18 -5 6 -6 3 -3 -8 7 -20 7 -20 -15 0 -16 13 -20 15 -17 4z
m9 -43 c-10 -9 -11 -8 -5 6 3 10 9 15 12 12 3 -3 0 -11 -7 -18z m51 -184 l-4
-198 -49 -32 -49 -31 0 186 0 186 48 46 c26 26 49 46 52 44 3 -1 3 -91 2 -201z"/>
<path d="M3795 8220 c3 -5 8 -10 11 -10 2 0 4 5 4 10 0 6 -5 10 -11 10 -5 0
-7 -4 -4 -10z"/>
<path d="M3602 8170 c0 -14 2 -19 5 -12 2 6 2 18 0 25 -3 6 -5 1 -5 -13z"/>
<path d="M3801 8174 c0 -11 3 -14 6 -6 3 7 2 16 -1 19 -3 4 -6 -2 -5 -13z"/>
<path d="M3801 8134 c0 -11 3 -14 6 -6 3 7 2 16 -1 19 -3 4 -6 -2 -5 -13z"/>
<path d="M2717 8109 c7 -7 15 -10 18 -7 3 3 -2 9 -12 12 -14 6 -15 5 -6 -5z"/>
<path d="M1610 8055 c0 -19 2 -35 4 -35 2 0 6 16 8 35 2 19 0 35 -4 35 -4 0
-8 -16 -8 -35z"/>
<path d="M2650 8086 c0 -2 7 -6 15 -10 8 -3 15 -1 15 4 0 6 -7 10 -15 10 -8 0
-15 -2 -15 -4z"/>
<path d="M3398 8031 c11 -7 11 -9 -2 -14 -8 -3 -16 -1 -19 6 -2 8 -5 8 -11 -1
-4 -7 -2 -12 4 -12 6 0 9 -4 6 -9 -3 -4 -6 -49 -7 -99 -1 -51 -5 -90 -9 -87
-5 3 -4 -10 1 -28 5 -18 6 -44 3 -57 -3 -14 -5 -29 -4 -35 1 -5 4 -102 7 -214
4 -163 2 -206 -9 -212 -10 -7 -10 -9 0 -9 20 0 12 -268 -8 -274 -12 -3 -11 -4
2 -5 10 -1 16 -9 15 -21 -1 -14 -6 -19 -17 -15 -12 4 -12 3 1 -8 13 -10 17
-32 18 -95 1 -55 -3 -82 -10 -82 -8 0 -8 -4 -1 -12 16 -21 16 -2078 0 -2078
-10 0 -10 -2 -1 -8 17 -10 17 -382 0 -382 -7 0 -6 -4 3 -10 13 -9 13 -11 0
-20 -11 -7 -11 -10 -2 -10 9 0 10 -5 2 -19 -13 -25 -13 -34 0 -26 18 11 11
-27 -7 -41 -17 -13 -17 -14 0 -8 17 6 18 -1 16 -115 -1 -66 -6 -121 -11 -121
-4 0 -8 -7 -8 -15 0 -8 5 -15 10 -15 6 0 10 -14 10 -31 0 -21 -4 -28 -12 -23
-10 6 -10 4 0 -7 15 -16 18 -309 2 -309 -5 0 -10 -9 -10 -21 0 -11 5 -17 10
-14 5 3 10 2 10 -4 0 -5 -5 -13 -10 -16 -6 -4 -7 -11 -4 -17 12 -19 14 -131 3
-145 -8 -9 -8 -13 0 -13 7 0 10 -41 9 -130 -1 -72 -5 -130 -10 -130 -4 0 -8
-5 -8 -11 0 -5 3 -8 8 -5 12 7 12 -177 -1 -192 -8 -10 -8 -15 2 -21 9 -6 9
-15 1 -35 -13 -35 -13 -45 1 -26 9 12 10 11 6 -5 -7 -35 20 -49 86 -47 41 2
63 -2 69 -10 6 -10 8 -10 8 0 0 6 6 12 14 12 7 0 19 6 25 14 8 9 11 438 10
1587 0 866 -1 1583 -1 1594 0 11 0 47 1 80 1 33 1 105 2 160 0 55 0 105 0 110
0 11 -1 451 -2 810 0 121 -1 291 -2 378 -1 88 1 161 6 164 4 2 4 9 1 15 -4 5
-8 101 -10 212 -2 110 -4 206 -5 212 -1 6 -12 9 -23 7 -17 -4 -18 -3 -6 6 11
8 4 10 -28 8 -23 0 -42 -6 -42 -12 0 -6 -3 -7 -8 0 -4 6 -23 11 -42 12 -22 2
-30 -1 -22 -6z m157 -2681 l0 -2650 -85 0 -85 0 3 2650 2 2650 83 0 82 0 0
-2650z"/>
<path d="M3580 8018 c0 -3 7 -19 15 -34 8 -16 15 -22 15 -14 -1 8 -7 24 -15
34 -8 11 -15 17 -15 14z"/>
<path d="M2245 7980 c-3 -6 1 -7 9 -4 18 7 21 14 7 14 -6 0 -13 -4 -16 -10z"/>
<path d="M3803 7930 c0 -30 2 -43 4 -27 2 15 2 39 0 55 -2 15 -4 2 -4 -28z"/>
<path d="M1821 7934 c0 -11 3 -14 6 -6 3 7 2 16 -1 19 -3 4 -6 -2 -5 -13z"/>
<path d="M1620 7925 c-7 -25 -5 -114 3 -100 4 8 6 37 4 63 -2 26 -5 43 -7 37z"/>
<path d="M3591 7895 c1 -19 18 -51 18 -35 0 8 -4 22 -9 30 -5 8 -9 11 -9 5z"/>
<path d="M1916 7833 c-6 -14 -5 -15 5 -6 7 7 10 15 7 18 -3 3 -9 -2 -12 -12z"/>
<path d="M3601 7814 c0 -11 3 -14 6 -6 3 7 2 16 -1 19 -3 4 -6 -2 -5 -13z"/>
<path d="M3596 7753 c-7 -39 0 -192 8 -201 3 -2 5 50 5 117 0 66 -1 121 -4
121 -2 0 -6 -17 -9 -37z"/>
<path d="M1610 7739 c0 -13 5 -31 10 -39 7 -11 8 -5 4 20 -8 43 -14 51 -14 19z"/>
<path d="M3802 7730 c0 -14 2 -19 5 -12 2 6 2 18 0 25 -3 6 -5 1 -5 -13z"/>
<path d="M1707 7699 c7 -7 15 -10 18 -7 3 3 -2 9 -12 12 -14 6 -15 5 -6 -5z"/>
<path d="M3791 7654 c0 -11 3 -14 6 -6 3 7 2 16 -1 19 -3 4 -6 -2 -5 -13z"/>
<path d="M1520 7580 c-9 -6 -10 -10 -3 -10 6 0 15 5 18 10 8 12 4 12 -15 0z"/>
<path d="M1460 7531 c-7 -15 -7 -22 2 -27 7 -4 10 -3 5 1 -4 5 0 17 10 27 9
10 11 18 5 18 -6 0 -16 -9 -22 -19z"/>
<path d="M3597 7516 c-6 -16 0 -147 8 -154 2 -3 4 34 4 82 0 86 -2 98 -12 72z"/>
<path d="M3790 7485 c0 -15 4 -24 10 -20 6 3 10 12 10 20 0 8 -4 17 -10 20 -6
4 -10 -5 -10 -20z"/>
<path d="M1396 7441 c-4 -5 -2 -12 3 -15 5 -4 12 -2 15 3 4 5 2 12 -3 15 -5 4
-12 2 -15 -3z"/>
<path d="M3790 7382 c0 -29 4 -52 9 -52 8 0 3 90 -5 99 -2 2 -4 -19 -4 -47z"/>
<path d="M3340 7340 c-9 -6 -10 -10 -3 -10 6 0 15 5 18 10 8 12 4 12 -15 0z"/>
<path d="M3602 7330 c0 -14 2 -19 5 -12 2 6 2 18 0 25 -3 6 -5 1 -5 -13z"/>
<path d="M1315 7300 c3 -5 8 -10 11 -10 2 0 4 5 4 10 0 6 -5 10 -11 10 -5 0
-7 -4 -4 -10z"/>
<path d="M3790 7295 c0 -8 5 -15 10 -15 6 0 10 7 10 15 0 8 -4 15 -10 15 -5 0
-10 -7 -10 -15z"/>
<path d="M3790 7077 c0 -135 3 -197 11 -197 8 0 9 57 4 193 -4 105 -9 194 -11
196 -2 2 -4 -84 -4 -192z"/>
<path d="M3597 6989 c1 -149 5 -274 8 -277 3 -3 5 119 5 271 0 153 -3 277 -7
277 -5 0 -7 -122 -6 -271z"/>
<path d="M3330 6920 c0 -5 5 -10 11 -10 5 0 7 5 4 10 -3 6 -8 10 -11 10 -2 0
-4 -4 -4 -10z"/>
<path d="M3790 6640 c0 -128 2 -231 5 -228 7 7 8 448 1 456 -3 3 -6 -100 -6
-228z"/>
<path d="M3598 6693 c-2 -5 -1 -33 3 -63 l6 -55 1 63 c2 57 -1 74 -10 55z"/>
<path d="M3601 6484 c0 -11 3 -14 6 -6 3 7 2 16 -1 19 -3 4 -6 -2 -5 -13z"/>
<path d="M3335 6090 c-3 -5 -2 -10 4 -10 5 0 13 5 16 10 3 6 2 10 -4 10 -5 0
-13 -4 -16 -10z"/>
<path d="M3796 6011 c-4 -7 -5 -15 -2 -18 9 -9 19 4 14 18 -4 11 -6 11 -12 0z"/>
<path d="M3602 5935 c0 -16 2 -22 5 -12 2 9 2 23 0 30 -3 6 -5 -1 -5 -18z"/>
<path d="M3790 5728 c0 -19 2 -20 10 -8 13 19 13 30 0 30 -5 0 -10 -10 -10
-22z"/>
<path d="M3794 5555 c0 -66 1 -92 3 -57 2 34 2 88 0 120 -2 31 -3 3 -3 -63z"/>
<path d="M3345 5389 c-4 -6 -5 -12 -2 -15 2 -3 7 2 10 11 7 17 1 20 -8 4z"/>
<path d="M3337 5339 c4 -13 8 -18 11 -10 2 7 -1 18 -6 23 -8 8 -9 4 -5 -13z"/>
<path d="M3601 5224 c0 -11 3 -14 6 -6 3 7 2 16 -1 19 -3 4 -6 -2 -5 -13z"/>
<path d="M3791 5204 c0 -11 3 -14 6 -6 3 7 2 16 -1 19 -3 4 -6 -2 -5 -13z"/>
<path d="M3792 5060 c0 -14 2 -19 5 -12 2 6 2 18 0 25 -3 6 -5 1 -5 -13z"/>
<path d="M3596 5033 c-6 -14 -5 -15 5 -6 7 7 10 15 7 18 -3 3 -9 -2 -12 -12z"/>
<path d="M3793 4950 c0 -25 2 -35 4 -22 2 12 2 32 0 45 -2 12 -4 2 -4 -23z"/>
<path d="M4890 4970 c0 -5 5 -10 10 -10 6 0 10 5 10 10 0 6 -4 10 -10 10 -5 0
-10 -4 -10 -10z"/>
<path d="M3330 4906 c0 -2 7 -7 16 -10 8 -3 12 -2 9 4 -6 10 -25 14 -25 6z"/>
<path d="M3793 4855 c0 -27 2 -38 4 -22 2 15 2 37 0 50 -2 12 -4 0 -4 -28z"/>
<path d="M3590 4834 c0 -14 4 -23 9 -20 5 3 7 15 4 26 -7 28 -13 25 -13 -6z"/>
<path d="M3793 4660 c0 -41 2 -58 4 -37 2 20 2 54 0 75 -2 20 -4 3 -4 -38z"/>
<path d="M5106 4712 c-2 -4 0 -14 6 -22 8 -12 9 -12 5 2 -3 9 -1 19 6 22 9 3
9 5 0 5 -6 1 -14 -3 -17 -7z"/>
<path d="M3793 4510 c0 -25 2 -35 4 -22 2 12 2 32 0 45 -2 12 -4 2 -4 -23z"/>
<path d="M4081 4474 c0 -11 3 -14 6 -6 3 7 2 16 -1 19 -3 4 -6 -2 -5 -13z"/>
<path d="M4080 4405 c0 -5 5 -17 10 -25 5 -8 10 -10 10 -5 0 6 -5 17 -10 25
-5 8 -10 11 -10 5z"/>
<path d="M3791 4354 c0 -11 3 -14 6 -6 3 7 2 16 -1 19 -3 4 -6 -2 -5 -13z"/>
<path d="M4081 4324 c0 -11 3 -14 6 -6 3 7 2 16 -1 19 -3 4 -6 -2 -5 -13z"/>
<path d="M3791 4274 c0 -11 3 -14 6 -6 3 7 2 16 -1 19 -3 4 -6 -2 -5 -13z"/>
<path d="M4081 4254 c0 -11 3 -14 6 -6 3 7 2 16 -1 19 -3 4 -6 -2 -5 -13z"/>
<path d="M1324 4055 c0 -77 2 -107 3 -67 2 40 2 103 0 140 -2 37 -3 4 -3 -73z"/>
<path d="M3791 4124 c0 -11 3 -14 6 -6 3 7 2 16 -1 19 -3 4 -6 -2 -5 -13z"/>
<path d="M4865 4019 c-11 -16 -1 -19 13 -3 7 8 8 14 3 14 -5 0 -13 -5 -16 -11z"/>
<path d="M4833 3985 c0 -8 4 -12 9 -9 4 3 8 9 8 15 0 5 -4 9 -8 9 -5 0 -9 -7
-9 -15z"/>
<path d="M3792 3930 c0 -14 2 -19 5 -12 2 6 2 18 0 25 -3 6 -5 1 -5 -13z"/>
<path d="M3792 3880 c0 -14 2 -19 5 -12 2 6 2 18 0 25 -3 6 -5 1 -5 -13z"/>
<path d="M4191 3864 c0 -11 3 -14 6 -6 3 7 2 16 -1 19 -3 4 -6 -2 -5 -13z"/>
<path d="M1310 3859 c0 -5 5 -7 10 -4 6 3 10 8 10 11 0 2 -4 4 -10 4 -5 0 -10
-5 -10 -11z"/>
<path d="M3792 3810 c0 -19 2 -27 5 -17 2 9 2 25 0 35 -3 9 -5 1 -5 -18z"/>
<path d="M4652 3806 c1 -14 6 -23 9 -20 10 6 7 44 -3 44 -4 0 -7 -11 -6 -24z"/>
<path d="M1322 3800 c0 -14 2 -19 5 -12 2 6 2 18 0 25 -3 6 -5 1 -5 -13z"/>
<path d="M3340 3805 c0 -5 5 -17 10 -25 5 -8 10 -10 10 -5 0 6 -5 17 -10 25
-5 8 -10 11 -10 5z"/>
<path d="M5026 3777 c3 -10 9 -15 12 -12 3 3 0 11 -7 18 -10 9 -11 8 -5 -6z"/>
<path d="M1323 3720 c0 -30 2 -43 4 -27 2 15 2 39 0 55 -2 15 -4 2 -4 -28z"/>
<path d="M5004 3755 c-4 -8 -10 -12 -15 -9 -5 3 -9 0 -9 -5 0 -19 28 -12 33 9
6 23 -1 27 -9 5z"/>
<path d="M3346 3743 c-4 -9 -3 -20 2 -25 6 -6 10 1 10 16 0 30 -3 32 -12 9z"/>
<path d="M4280 3735 c0 -6 6 -17 12 -23 10 -10 10 -15 -2 -22 -13 -8 -12 -10
3 -10 9 0 17 6 17 13 0 16 -29 57 -30 42z"/>
<path d="M4260 3710 c0 -5 5 -10 11 -10 5 0 7 5 4 10 -3 6 -8 10 -11 10 -2 0
-4 -4 -4 -10z"/>
<path d="M1318 3625 c-2 -19 0 -35 4 -35 4 0 8 16 8 35 0 19 -2 35 -4 35 -2 0
-6 -16 -8 -35z"/>
<path d="M4390 3609 c0 -5 5 -7 10 -4 6 3 10 8 10 11 0 2 -4 4 -10 4 -5 0 -10
-5 -10 -11z"/>
<path d="M4473 3566 c0 -8 8 -11 19 -8 10 2 15 8 12 13 -8 14 -31 11 -31 -5z"/>
<path d="M4750 3560 c-8 -5 -10 -10 -5 -10 6 0 17 5 25 10 8 5 11 10 5 10 -5
0 -17 -5 -25 -10z"/>
<path d="M4790 3550 c-9 -6 -10 -10 -3 -10 6 0 15 5 18 10 8 12 4 12 -15 0z"/>
<path d="M3351 3534 c0 -11 3 -14 6 -6 3 7 2 16 -1 19 -3 4 -6 -2 -5 -13z"/>
<path d="M3793 3475 c0 -27 2 -38 4 -22 2 15 2 37 0 50 -2 12 -4 0 -4 -28z"/>
<path d="M4728 3513 c7 -3 16 -2 19 1 4 3 -2 6 -13 5 -11 0 -14 -3 -6 -6z"/>
<path d="M3340 3401 c0 -6 4 -13 10 -16 6 -3 7 1 4 9 -7 18 -14 21 -14 7z"/>
<path d="M3344 3362 c4 -7 2 -21 -5 -30 -12 -15 -11 -15 6 0 16 15 17 20 6 30
-11 11 -13 10 -7 0z"/>
<path d="M1310 3339 c0 -5 5 -7 10 -4 6 3 10 8 10 11 0 2 -4 4 -10 4 -5 0 -10
-5 -10 -11z"/>
<path d="M3792 3290 c0 -14 2 -19 5 -12 2 6 2 18 0 25 -3 6 -5 1 -5 -13z"/>
<path d="M3596 3263 c-4 -9 -3 -20 1 -24 4 -4 9 3 9 17 2 28 -1 31 -10 7z"/>
<path d="M1322 3170 c0 -14 2 -19 5 -12 2 6 2 18 0 25 -3 6 -5 1 -5 -13z"/>
<path d="M3791 3164 c0 -11 3 -14 6 -6 3 7 2 16 -1 19 -3 4 -6 -2 -5 -13z"/>
<path d="M3792 2990 c0 -14 2 -19 5 -12 2 6 2 18 0 25 -3 6 -5 1 -5 -13z"/>
<path d="M1312 2845 c0 -16 2 -22 5 -12 2 9 2 23 0 30 -3 6 -5 -1 -5 -18z"/>
<path d="M3780 2721 c0 -6 4 -13 10 -16 6 -3 7 1 4 9 -7 18 -14 21 -14 7z"/>
<path d="M1856 2647 c3 -10 9 -15 12 -12 3 3 0 11 -7 18 -10 9 -11 8 -5 -6z"/>
<path d="M2580 2649 c0 -5 5 -7 10 -4 6 3 10 8 10 11 0 2 -4 4 -10 4 -5 0 -10
-5 -10 -11z"/>
<path d="M4616 2643 c-6 -14 -5 -15 5 -6 7 7 10 15 7 18 -3 3 -9 -2 -12 -12z"/>
<path d="M3687 2639 c7 -7 15 -10 18 -7 3 3 -2 9 -12 12 -14 6 -15 5 -6 -5z"/>
<path d="M3401 9051 c-15 -10 -7 -31 12 -30 8 0 8 2 -1 6 -10 4 -10 8 -1 19
13 16 10 18 -10 5z"/>
<path d="M3270 8926 c7 -7 13 -7 20 0 6 6 3 10 -10 10 -13 0 -16 -4 -10 -10z"/>
<path d="M3125 8819 c-4 -6 -5 -12 -2 -15 2 -3 7 2 10 11 7 17 1 20 -8 4z"/>
<path d="M3101 8781 c-10 -6 -9 -10 3 -14 8 -3 18 -2 21 3 8 13 -9 20 -24 11z"/>
<path d="M3060 8760 c-8 -5 -12 -12 -9 -15 4 -3 12 1 19 10 14 17 11 19 -10 5z"/>
<path d="M3426 8217 c3 -10 9 -15 12 -12 3 3 0 11 -7 18 -10 9 -11 8 -5 -6z"/>
<path d="M1440 7231 c0 -6 4 -13 10 -16 6 -3 7 1 4 9 -7 18 -14 21 -14 7z"/>
<path d="M2708 5753 c12 -2 32 -2 45 0 12 2 2 4 -23 4 -25 0 -35 -2 -22 -4z"/>
<path d="M4631 5098 c-1 -19 10 -21 49 -7 22 8 22 8 -7 4 -19 -2 -34 1 -37 8
-2 7 -5 4 -5 -5z"/>
<path d="M4450 5030 c0 -5 5 -10 10 -10 6 0 10 5 10 10 0 6 -4 10 -10 10 -5 0
-10 -4 -10 -10z"/>
<path d="M4383 5015 c-3 -9 -3 -18 -1 -21 3 -3 8 4 11 16 6 23 -1 27 -10 5z"/>
<path d="M4225 4799 c-4 -6 -5 -12 -2 -15 2 -3 7 2 10 11 7 17 1 20 -8 4z"/>
<path d="M2219 4873 c-13 -16 -12 -17 4 -4 9 7 17 15 17 17 0 8 -8 3 -21 -13z"/>
<path d="M3656 9262 c-3 -5 1 -9 9 -9 8 0 12 4 9 9 -3 4 -7 8 -9 8 -2 0 -6 -4
-9 -8z"/>
<path d="M3439 9173 c-12 -16 -12 -17 2 -6 9 7 20 9 24 5 5 -4 5 -1 1 6 -9 16
-11 15 -27 -5z"/>
<path d="M3740 9150 c-9 -6 -10 -10 -3 -10 6 0 15 5 18 10 8 12 4 12 -15 0z"/>
<path d="M1810 8386 c0 -2 7 -7 16 -10 8 -3 12 -2 9 4 -6 10 -25 14 -25 6z"/>
<path d="M1443 7615 c0 -8 4 -12 9 -9 5 3 6 10 3 15 -9 13 -12 11 -12 -6z"/>
<path d="M4176 3687 c3 -10 9 -15 12 -12 3 3 0 11 -7 18 -10 9 -11 8 -5 -6z"/>
<path d="M2582 2409 c-24 -4 -80 -25 -125 -45 -211 -94 -196 -89 -292 -88 -87
0 -94 2 -200 51 -239 110 -326 111 -555 2 -159 -74 -207 -89 -301 -89 -85 0
-126 12 -239 69 -119 61 -173 73 -301 69 -102 -3 -112 -5 -130 -27 -23 -28
-23 -32 -5 -56 12 -17 28 -19 147 -19 l134 -1 113 -58 c227 -117 341 -114 612
13 213 100 274 101 469 11 132 -61 168 -71 257 -71 88 0 150 18 289 83 103 49
115 52 201 55 90 4 93 3 217 -47 221 -89 331 -88 532 3 86 39 95 41 185 40 89
0 101 -3 190 -42 107 -47 233 -82 295 -82 74 0 155 21 260 65 186 79 246 83
387 20 202 -90 228 -98 313 -98 119 0 172 33 146 89 -11 25 -12 25 -104 19
-102 -8 -104 -7 -321 85 -166 70 -256 67 -451 -16 -179 -76 -266 -78 -432 -9
-164 69 -198 77 -303 73 -85 -4 -105 -9 -191 -46 -131 -56 -175 -66 -273 -60
-68 5 -101 13 -182 48 -148 63 -241 79 -342 59z m186 -25 c-2 -2 -49 -4 -104
-5 -68 -1 -108 -6 -124 -16 -17 -10 -19 -12 -5 -8 11 4 71 9 134 11 62 1 116
5 118 8 6 5 63 -13 79 -25 6 -5 14 -6 17 -2 4 3 7 1 7 -5 0 -16 -22 -20 -50
-11 -23 8 -23 8 -7 -5 10 -8 14 -17 8 -20 -5 -3 -15 -1 -23 6 -18 18 -38 21
-148 22 -59 0 -103 -4 -117 -12 -15 -8 -23 -9 -23 -2 0 5 -5 10 -11 10 -6 0
-9 -7 -5 -15 3 -8 1 -15 -4 -15 -6 0 -10 7 -10 15 0 8 -5 15 -11 15 -6 0 -9
-6 -7 -12 6 -16 -35 -48 -59 -47 -12 0 -14 2 -4 6 10 4 10 7 1 13 -15 10 17
43 36 36 8 -3 11 0 7 10 -3 9 1 14 11 14 9 0 28 8 43 17 16 11 55 19 102 23
73 5 156 2 149 -6z m-998 -1 c0 -5 -24 -7 -52 -5 -89 5 -97 9 -20 11 39 0 72
-2 72 -6z m1828 0 c-43 -2 -78 -7 -78 -11 0 -8 165 -6 178 2 4 2 35 -7 67 -21
33 -13 92 -36 130 -50 39 -14 72 -28 75 -30 6 -7 -39 2 -64 12 -13 6 -17 5
-12 -3 9 -15 87 -36 95 -25 3 5 43 6 88 3 58 -3 84 -1 87 7 3 6 23 14 45 18
22 4 56 15 77 25 29 15 41 17 58 8 20 -10 20 -10 6 7 -14 17 -14 18 8 6 13 -7
20 -17 16 -24 -5 -9 -3 -8 6 0 12 11 11 15 -5 26 -17 13 -14 15 30 31 51 17
97 22 60 6 -18 -8 -18 -9 -2 -9 10 -1 20 6 23 14 5 11 21 15 68 13 l61 -1 -55
-8 c-52 -7 -50 -7 23 -5 42 1 77 -2 77 -6 0 -4 7 -5 15 -2 8 4 15 1 15 -5 0
-6 7 -11 15 -11 8 0 29 -6 47 -14 18 -8 53 -23 78 -34 25 -11 62 -25 83 -31
20 -7 37 -15 37 -18 0 -3 -8 -2 -17 2 -15 5 -16 4 -5 -6 9 -10 15 -10 23 -2 8
8 20 8 36 2 13 -5 38 -7 56 -4 87 13 112 13 119 2 12 -19 9 -27 -8 -27 -8 0
-12 -4 -9 -10 3 -5 0 -10 -7 -10 -7 -1 -32 -5 -55 -9 -32 -6 -43 -5 -43 4 0 8
11 11 28 9 27 -4 27 -4 2 5 -17 6 -28 4 -36 -5 -6 -8 -26 -14 -45 -14 -22 0
-29 3 -21 9 11 7 11 9 -2 14 -8 3 -16 1 -18 -5 -3 -8 -24 -4 -66 11 -62 23
-98 50 -51 37 20 -6 21 -5 6 4 -9 6 -22 8 -27 5 -11 -7 -120 33 -130 47 -18
24 -221 30 -236 7 -3 -5 -14 -4 -25 1 -11 7 -19 7 -19 1 0 -5 6 -11 13 -14 6
-2 -6 -9 -28 -16 -22 -6 -55 -20 -72 -31 -22 -13 -33 -16 -33 -7 -1 8 -5 6
-13 -4 -7 -9 -48 -23 -95 -32 -67 -14 -96 -15 -150 -7 -89 14 -104 19 -96 33
5 9 4 9 -5 1 -16 -15 -54 -5 -47 12 3 8 0 11 -10 7 -18 -7 -126 36 -118 48 3
5 14 5 25 -1 14 -8 19 -7 19 1 0 6 7 8 18 4 11 -4 13 -3 7 3 -17 16 -65 24
-65 11 0 -8 -17 -9 -57 -4 -106 14 -128 13 -193 -2 -66 -16 -99 -30 -112 -48
-5 -6 -8 -4 -8 4 0 12 -2 12 -12 -1 -20 -25 -146 -58 -223 -58 -81 0 -194 26
-213 49 -8 9 -10 10 -6 2 4 -9 2 -12 -7 -9 -8 3 -13 10 -12 16 1 5 -5 8 -15 6
-9 -2 -24 0 -32 6 -13 9 -13 11 0 20 8 6 23 8 33 6 9 -2 15 0 11 5 -7 12 0 11
30 -3 22 -9 24 -14 13 -26 -10 -13 -9 -14 8 -3 16 10 32 9 80 -3 l60 -15 -49
3 c-30 2 -43 1 -35 -5 8 -5 50 -9 94 -9 44 -1 104 -2 133 -3 34 -1 52 2 52 10
0 8 -18 10 -57 7 l-58 -4 70 21 c39 11 78 21 88 22 9 1 17 4 17 8 0 13 59 31
82 24 17 -5 19 -4 8 4 -12 8 -9 12 13 20 35 14 40 14 32 1 -3 -5 1 -10 10 -10
11 0 15 5 11 15 -4 13 8 15 82 13 l87 -2 -77 -3z m-1863 -16 c76 -3 113 -10
153 -27 28 -12 52 -26 52 -31 0 -5 3 -8 8 -7 14 4 82 -24 82 -34 0 -7 -4 -7
-12 0 -11 8 -58 0 -58 -10 0 -2 33 -4 73 -4 39 0 90 -2 112 -4 51 -5 155 9
155 21 0 5 7 9 15 9 9 0 34 9 55 20 l40 20 -4 -22 c-2 -13 1 -29 7 -36 6 -7 6
-12 1 -10 -5 1 -42 -11 -82 -27 -57 -22 -75 -26 -81 -16 -6 10 -10 9 -14 -3
-8 -21 -105 -22 -175 -1 -29 9 -54 16 -57 15 -3 0 -38 17 -77 38 -125 65 -167
76 -274 69 -52 -3 -94 -2 -94 2 0 5 -11 6 -25 3 -19 -3 -25 0 -25 12 0 10 4
15 9 11 5 -3 13 0 16 5 4 7 19 9 35 5 15 -3 31 -2 34 4 4 6 12 8 19 6 7 -2 57
-6 112 -8z m-1010 -23 c29 -9 33 -13 15 -12 -52 1 -65 -4 -30 -12 19 -5 42 -4
51 1 22 11 125 -40 121 -61 -3 -11 0 -11 12 0 11 8 16 9 16 1 0 -6 8 -11 19
-11 10 0 31 -6 46 -14 48 -25 136 -29 226 -11 45 9 90 21 98 25 102 53 164 80
173 74 7 -4 8 -3 4 4 -4 7 -2 12 4 12 6 0 13 -7 16 -15 4 -8 10 -13 14 -10 5
3 18 1 31 -3 23 -9 23 -9 -5 -16 -15 -4 -32 -4 -38 0 -7 4 -8 3 -4 -4 5 -8 -1
-12 -14 -12 -12 0 -18 -4 -15 -10 8 -13 -1 -13 -27 1 -18 9 -20 9 -15 -4 7
-19 -92 -71 -138 -74 -49 -2 -51 -3 -35 -14 11 -7 3 -9 -30 -5 -34 5 -40 3
-25 -4 14 -7 -15 -9 -97 -7 -74 1 -122 7 -129 14 -9 9 -4 11 22 9 19 -2 42 -6
52 -11 10 -4 21 -5 24 -1 4 3 -2 6 -13 6 -16 0 -17 2 -4 11 13 9 12 10 -2 5
-10 -3 -20 -1 -23 3 -3 5 -21 5 -40 1 -37 -8 -72 -4 -92 13 -7 5 -13 6 -13 2
0 -4 -7 -2 -15 5 -17 14 -21 45 -5 35 6 -3 10 -2 10 2 0 5 -10 14 -22 22 -21
13 -22 13 -10 -1 10 -13 10 -17 -5 -22 -10 -4 -19 -2 -21 3 -2 6 -8 8 -13 5
-6 -3 -8 5 -5 20 3 14 1 28 -4 31 -5 3 -7 -3 -5 -15 2 -11 1 -22 -3 -24 -8 -5
-98 24 -121 38 -10 6 -12 5 -7 -2 5 -8 -5 -10 -31 -8 -21 2 -62 0 -90 -4 -40
-5 -53 -3 -53 6 0 7 -3 19 -6 27 -3 10 2 17 13 20 37 10 200 4 238 -9z m-257
-29 c-3 -3 -9 2 -12 12 -6 14 -5 15 5 6 7 -7 10 -15 7 -18z"/>
<path d="M2443 2305 c0 -8 4 -12 9 -9 5 3 6 10 3 15 -9 13 -12 11 -12 -6z"/>
<path d="M3407 2329 c7 -7 15 -10 18 -7 3 3 -2 9 -12 12 -14 6 -15 5 -6 -5z"/>
<path d="M4727 2329 c7 -7 15 -10 18 -7 3 3 -2 9 -12 12 -14 6 -15 5 -6 -5z"/>
<path d="M4685 2320 c3 -5 10 -10 16 -10 5 0 9 5 9 10 0 6 -7 10 -16 10 -8 0
-12 -4 -9 -10z"/>
<path d="M4319 2283 c-13 -17 -13 -17 6 -3 11 8 22 16 24 17 2 2 0 3 -6 3 -6
0 -17 -8 -24 -17z"/>
<path d="M4245 2280 c-11 -5 -33 -9 -48 -9 -16 -1 -26 -5 -23 -9 7 -12 74 -2
87 14 13 16 12 16 -16 4z"/>
<path d="M2980 2260 c0 -5 5 -10 11 -10 5 0 7 5 4 10 -3 6 -8 10 -11 10 -2 0
-4 -4 -4 -10z"/>
<path d="M4868 2263 c6 -2 18 -2 25 0 6 3 1 5 -13 5 -14 0 -19 -2 -12 -5z"/>
<path d="M4876 2238 c3 -4 11 -5 19 -1 21 7 19 12 -4 10 -11 0 -18 -5 -15 -9z"/>
<path d="M4050 2226 c0 -2 7 -7 16 -10 8 -3 12 -2 9 4 -6 10 -25 14 -25 6z"/>
<path d="M4098 2223 c6 -2 18 -2 25 0 6 3 1 5 -13 5 -14 0 -19 -2 -12 -5z"/>
<path d="M4920 2219 c0 -5 5 -7 10 -4 6 3 10 8 10 11 0 2 -4 4 -10 4 -5 0 -10
-5 -10 -11z"/>
<path d="M1815 2330 c-3 -5 -1 -10 4 -10 6 0 11 5 11 10 0 6 -2 10 -4 10 -3 0
-8 -4 -11 -10z"/>
<path d="M1856 2326 c3 -8 15 -14 25 -13 19 1 19 2 3 14 -23 17 -35 16 -28 -1z"/>
<path d="M2333 2273 c-35 -7 -27 -18 12 -19 28 0 32 2 24 13 -7 7 -12 12 -13
12 0 -1 -11 -4 -23 -6z"/>
<path d="M2258 2228 c5 -5 16 -8 23 -6 8 3 3 7 -10 11 -17 4 -21 3 -13 -5z"/>
<path d="M2108 2203 c7 -3 16 -2 19 1 4 3 -2 6 -13 5 -11 0 -14 -3 -6 -6z"/>
<path d="M496 2321 c-3 -4 8 -8 23 -7 16 1 27 4 24 9 -6 10 -41 9 -47 -2z"/>
<path d="M740 2296 c0 -2 7 -7 16 -10 8 -3 12 -2 9 4 -6 10 -25 14 -25 6z"/>
<path d="M1396 2265 c4 -8 8 -15 10 -15 2 0 4 7 4 15 0 8 -4 15 -10 15 -5 0
-7 -7 -4 -15z"/>
<path d="M1366 2255 c4 -8 8 -15 10 -15 2 0 4 7 4 15 0 8 -4 15 -10 15 -5 0
-7 -7 -4 -15z"/>
<path d="M1334 2242 c3 -5 0 -13 -6 -15 -9 -4 -10 -6 -1 -6 17 -1 25 16 12 25
-7 4 -9 3 -5 -4z"/>
<path d="M958 2213 c7 -3 16 -2 19 1 4 3 -2 6 -13 5 -11 0 -14 -3 -6 -6z"/>
<path d="M1180 2206 c0 -2 7 -7 16 -10 8 -3 12 -2 9 4 -6 10 -25 14 -25 6z"/>
<path d="M4257 2379 c7 -7 15 -10 18 -7 3 3 -2 9 -12 12 -14 6 -15 5 -6 -5z"/>
<path d="M1447 1443 c-10 -197 -20 -382 -22 -410 l-5 -53 95 0 95 0 1 83 c1
45 3 96 4 112 2 17 4 99 5 183 2 84 5 150 8 148 2 -3 42 -72 87 -153 l83 -148
56 -5 57 -5 62 115 c34 63 70 134 81 158 10 23 21 42 25 42 3 0 8 -75 10 -167
2 -91 5 -174 6 -182 2 -9 4 -53 4 -98 l1 -83 96 0 96 0 -7 133 c-3 72 -13 240
-21 372 -8 132 -14 257 -14 277 l0 38 -93 0 -93 0 -64 -117 c-35 -65 -80 -148
-99 -185 -20 -38 -38 -68 -41 -68 -3 1 -52 84 -109 185 l-105 185 -91 0 -91 0
-17 -357z m197 313 c9 -14 13 -33 10 -43 -5 -15 -4 -16 5 -3 10 13 15 8 12
-12 0 -5 4 -8 10 -8 5 0 7 -4 4 -10 -3 -5 -2 -10 2 -10 9 0 43 -52 43 -65 0
-3 -6 -3 -12 1 -7 4 -10 4 -6 0 3 -4 10 -7 13 -6 12 3 65 -84 60 -98 -3 -7 -1
-11 4 -8 5 3 14 -8 20 -24 5 -17 7 -30 3 -30 -4 0 6 -7 21 -15 23 -11 32 -12
48 -2 10 6 20 15 20 19 3 18 5 24 17 46 7 12 17 20 22 17 6 -3 7 1 4 10 -4 8
5 32 18 53 14 20 26 42 27 47 1 6 8 17 15 25 7 8 16 23 19 33 4 10 11 15 17
12 6 -4 7 1 3 11 -5 13 -3 15 7 9 9 -5 11 -4 6 3 -10 16 12 54 27 45 6 -4 39
-6 73 -5 l61 3 7 -38 c3 -21 6 -103 7 -183 0 -90 4 -137 9 -125 8 18 9 17 9
-8 1 -16 -3 -26 -9 -22 -6 3 -10 -4 -10 -17 0 -16 3 -19 9 -10 9 15 18 -89 21
-230 1 -83 0 -87 -22 -90 -48 -7 -98 4 -99 21 0 12 -2 12 -9 -4 -6 -15 -9 -7
-8 30 0 39 2 45 8 25 8 -24 8 -23 9 8 1 20 -3 31 -9 27 -6 -4 -10 6 -9 22 0
23 2 25 8 9 7 -19 8 -19 13 2 4 15 2 22 -8 22 -8 0 -14 6 -15 13 -1 6 -3 30
-4 52 -2 22 -6 86 -8 141 -4 105 -9 124 -31 124 -17 0 -58 -48 -51 -60 3 -5
-2 -13 -11 -18 -9 -5 -15 -12 -14 -16 5 -16 -23 -66 -37 -66 -8 0 -11 -5 -8
-10 4 -6 -1 -24 -9 -40 -9 -17 -23 -43 -32 -60 -17 -32 -30 -41 -20 -13 6 16
6 16 -12 0 -20 -19 -37 -23 -27 -7 3 6 1 10 -4 10 -6 0 -11 -4 -11 -10 0 -5
-6 -10 -13 -10 -17 0 -40 47 -31 62 4 6 3 8 -2 5 -6 -3 -15 3 -22 13 -10 17
-9 18 6 14 10 -4 13 -3 6 3 -19 14 -35 53 -28 66 6 9 3 8 -8 -1 -10 -8 -19 -9
-22 -3 -3 5 0 12 6 14 8 3 6 6 -4 6 -14 1 -18 11 -19 49 -2 43 -2 44 -8 13
l-6 -34 -19 42 c-21 48 -41 61 -62 39 -17 -17 -27 -101 -11 -91 6 3 7 1 3 -6
-4 -7 -10 -87 -12 -179 -3 -92 -7 -182 -10 -199 l-5 -33 -72 2 -72 2 68 3 c80
5 91 21 12 21 -30 -1 -57 1 -60 4 -8 7 15 500 25 538 l9 35 -2 -42 c-1 -24 1
-43 5 -43 5 0 8 39 8 88 0 60 -3 82 -10 72 -6 -9 -10 -10 -10 -3 0 6 5 15 10
18 6 3 10 18 10 31 0 25 1 26 69 22 43 -2 67 1 65 7 -3 6 -32 9 -70 7 -39 -2
-71 1 -77 7 -8 8 10 11 65 11 69 0 77 -2 92 -24z m576 14 c0 -6 -30 -10 -69
-10 -39 0 -73 5 -76 10 -4 6 22 10 69 10 44 0 76 -4 76 -10z m-466 -426 c3 -8
2 -12 -4 -9 -6 3 -10 10 -10 16 0 14 7 11 14 -7z m516 -340 c0 -2 -35 -3 -77
-2 l-78 1 65 6 c61 6 90 4 90 -5z"/>
<path d="M1961 1544 c0 -11 3 -14 6 -6 3 7 2 16 -1 19 -3 4 -6 -2 -5 -13z"/>
<path d="M1489 1483 c-3 -16 -1 -44 2 -63 5 -28 7 -23 8 28 1 65 -4 82 -10 35z"/>
<path d="M1950 1405 c0 -5 5 -17 10 -25 5 -8 10 -10 10 -5 0 6 -5 17 -10 25
-5 8 -10 11 -10 5z"/>
<path d="M2130 1303 c0 -58 2 -104 5 -101 8 8 11 208 3 208 -5 0 -8 -48 -8
-107z"/>
<path d="M1491 1364 c0 -11 3 -14 6 -6 3 7 2 16 -1 19 -3 4 -6 -2 -5 -13z"/>
<path d="M1492 1295 c0 -16 2 -22 5 -12 2 9 2 23 0 30 -3 6 -5 -1 -5 -18z"/>
<path d="M1815 1250 c-3 -5 -1 -10 4 -10 6 0 11 5 11 10 0 6 -2 10 -4 10 -3 0
-8 -4 -11 -10z"/>
<path d="M1480 1200 c0 -5 5 -10 11 -10 5 0 7 5 4 10 -3 6 -8 10 -11 10 -2 0
-4 -4 -4 -10z"/>
<path d="M2232 1180 c0 -14 2 -19 5 -12 2 6 2 18 0 25 -3 6 -5 1 -5 -13z"/>
<path d="M2667 1793 c-5 -9 -74 -187 -162 -418 -31 -82 -78 -205 -104 -273
l-48 -123 100 3 101 3 27 85 c16 47 29 86 29 88 0 1 69 2 153 2 l152 0 30 -87
30 -88 109 -3 c87 -2 107 0 100 10 -10 14 -20 37 -109 268 -31 80 -62 159 -70
175 -7 17 -41 105 -75 198 l-63 167 -98 0 c-54 0 -100 -3 -102 -7z m187 -21
c2 -4 -33 -9 -80 -9 -46 -1 -86 3 -89 8 -4 5 29 9 79 9 47 0 87 -4 90 -8z
m-85 -23 c85 7 104 -1 104 -47 0 -17 4 -29 8 -27 10 7 20 -25 12 -37 -3 -6 -1
-8 4 -5 10 6 26 -42 28 -81 0 -7 7 -17 15 -22 8 -5 11 -10 7 -10 -5 0 -1 -12
7 -27 8 -16 29 -64 46 -108 18 -44 43 -106 55 -137 13 -32 21 -58 18 -58 -3 0
2 -11 11 -25 9 -14 12 -25 6 -25 -5 0 -10 -7 -10 -15 0 -9 6 -12 15 -8 9 3 15
2 13 -3 -1 -5 5 -23 15 -40 9 -17 13 -34 10 -38 -4 -3 -26 -6 -50 -6 -64 0
-52 -18 15 -23 43 -2 37 -4 -28 -4 -69 -1 -80 0 -60 9 l25 11 -25 6 c-19 5
-30 22 -51 75 -14 37 -32 72 -40 77 -7 4 -83 7 -168 7 -141 -2 -154 -3 -159
-20 -2 -11 -10 -17 -17 -15 -6 3 -12 -1 -12 -9 0 -7 4 -11 9 -8 11 7 11 6 -11
-51 -15 -41 -24 -51 -48 -56 -28 -5 -102 -3 -109 4 -2 1 4 21 12 42 8 22 17
48 21 58 4 14 8 15 21 5 13 -11 14 -10 4 8 -11 21 3 83 23 101 4 5 6 3 2 -2
-3 -6 -2 -17 4 -25 6 -11 9 -1 9 31 0 55 18 112 32 102 7 -4 9 3 4 20 -4 19
-3 25 6 22 9 -4 14 7 15 32 1 21 7 39 12 41 6 2 11 16 11 31 0 15 4 31 9 36 5
6 14 28 21 50 7 22 16 45 19 50 4 6 16 36 26 67 12 36 23 54 29 49 6 -4 44 -5
85 -2z m-271 -746 c-21 -2 -55 -2 -75 0 -21 2 -4 4 37 4 41 0 58 -2 38 -4z"/>
<path d="M2680 1691 c0 -6 4 -13 10 -16 6 -3 7 1 4 9 -7 18 -14 21 -14 7z"/>
<path d="M2727 1659 c7 -7 15 -10 18 -7 3 3 -2 9 -12 12 -14 6 -15 5 -6 -5z"/>
<path d="M2732 1610 c2 -18 -1 -24 -12 -22 -12 3 -12 1 -3 -9 9 -9 8 -19 -4
-45 -9 -18 -21 -31 -26 -27 -5 3 -4 -4 2 -16 10 -18 9 -20 -5 -14 -11 4 -15 2
-11 -4 9 -14 -13 -124 -23 -118 -5 3 -6 -5 -2 -17 4 -16 2 -19 -9 -13 -12 8
-12 6 -1 -8 8 -9 12 -20 9 -24 -3 -4 38 -7 91 -6 53 1 105 -3 115 -9 14 -7 17
-7 13 1 -4 6 -2 11 5 11 7 0 10 11 7 29 -2 17 -1 28 4 25 15 -9 8 9 -8 20 -9
7 -18 37 -23 81 -5 39 -9 59 -11 45 -1 -19 -5 -15 -15 20 -7 25 -18 59 -25 75
-7 17 -12 34 -11 38 0 4 -8 3 -20 -4 -17 -9 -23 -8 -30 2 -6 10 -8 6 -7 -11z
m82 -145 c23 -72 45 -136 49 -142 6 -10 -15 -13 -97 -13 -58 0 -106 2 -106 5
0 3 4 13 9 23 16 28 81 227 81 246 0 47 26 -2 64 -119z"/>
<path d="M2530 1330 c0 -5 5 -10 11 -10 5 0 7 5 4 10 -3 6 -8 10 -11 10 -2 0
-4 -4 -4 -10z"/>
<path d="M2435 1111 c-3 -5 -1 -12 5 -16 5 -3 10 1 10 9 0 18 -6 21 -15 7z"/>
<path d="M2431 1064 c0 -11 3 -14 6 -6 3 7 2 16 -1 19 -3 4 -6 -2 -5 -13z"/>
<path d="M3262 1390 l1 -410 94 0 93 0 0 410 0 410 -95 0 -94 0 1 -410z m163
381 c-6 -5 -23 -11 -40 -14 -27 -4 -26 -4 8 -6 l37 -1 0 -360 0 -360 -70 0
-70 0 0 361 c0 285 3 360 13 356 6 -2 21 -1 32 4 16 6 14 8 -12 8 -18 1 -33 6
-33 11 0 6 31 10 72 10 44 0 68 -4 63 -9z m4 -767 c2 -2 -29 -4 -70 -3 -43 0
-66 4 -55 8 18 7 117 3 125 -5z"/>
<path d="M3795 1678 c-26 -68 -58 -152 -70 -188 -34 -99 -174 -463 -185 -482
-5 -10 -10 -20 -10 -23 0 -3 46 -4 102 -3 l102 3 27 85 26 85 152 3 c116 2
152 0 156 -10 2 -7 16 -48 31 -90 l27 -78 103 0 104 0 -16 38 c-20 49 -279
730 -288 760 -7 21 -12 22 -110 22 l-103 0 -48 -122z m246 68 c11 -24 13 -38
6 -45 -6 -6 -7 -14 -3 -18 4 -4 11 -1 15 6 8 13 19 -23 24 -76 1 -12 4 -20 6
-17 2 2 10 -8 17 -22 11 -20 11 -31 2 -47 -10 -19 -9 -20 4 -10 12 11 18 2 37
-55 13 -37 32 -87 43 -112 11 -25 21 -55 22 -67 0 -13 4 -23 8 -23 10 0 28
-61 21 -73 -3 -6 -1 -7 5 -3 7 4 12 0 12 -10 0 -10 9 -36 19 -58 42 -89 43
-87 -46 -84 -61 2 -78 6 -78 18 0 8 -4 18 -10 22 -6 5 -5 8 3 8 6 0 12 5 12
11 0 5 -4 7 -10 4 -5 -3 -10 0 -10 7 0 20 -24 68 -33 68 -5 0 -6 3 -3 8 2 4
-72 8 -165 8 -92 1 -166 -2 -164 -6 3 -4 -2 -13 -10 -20 -8 -7 -15 -23 -15
-37 0 -16 -4 -22 -12 -17 -6 4 -8 3 -5 -3 4 -6 4 -25 1 -42 l-6 -31 -75 0
c-56 0 -74 3 -71 13 48 133 62 166 68 162 4 -3 11 2 14 11 4 10 2 13 -6 8 -8
-5 -9 -2 -4 12 5 10 11 27 14 37 4 15 7 16 14 5 7 -9 8 -6 5 11 -3 12 -1 34 5
47 9 20 14 22 26 11 13 -10 14 -9 3 12 -10 17 -10 29 -2 45 5 11 15 40 21 64
7 27 15 40 22 36 7 -5 9 -2 5 8 -3 9 2 31 12 49 10 19 16 41 13 49 -3 8 -1 12
3 8 9 -9 35 9 35 24 0 6 -7 4 -16 -3 -15 -12 -16 -11 -9 11 4 14 12 27 16 28
5 2 9 12 9 23 0 10 4 19 10 19 5 0 7 6 5 13 -4 9 18 12 90 12 101 0 134 14 38
16 -32 1 -70 2 -85 2 -16 1 -28 5 -28 9 0 4 37 8 83 8 l83 0 15 -34z m-326
-738 c3 -3 -29 -5 -72 -5 l-78 0 60 6 c69 7 82 7 90 -1z m578 -5 c-23 -2 -64
-2 -90 0 -26 2 -7 3 42 3 50 0 71 -1 48 -3z"/>
<path d="M3929 1641 c8 -14 7 -22 -3 -30 -7 -6 -21 -35 -31 -65 -10 -30 -22
-53 -27 -50 -5 3 -6 9 -4 13 3 4 1 13 -3 19 -4 8 -8 -5 -8 -30 0 -49 -7 -90
-24 -149 -11 -37 -11 -42 5 -51 10 -6 57 -10 104 -10 48 0 92 -4 98 -9 7 -5
16 3 27 26 12 25 13 34 4 32 -7 -1 -11 7 -10 21 2 13 -1 21 -5 18 -4 -2 -16
26 -26 62 -11 37 -22 72 -26 77 -14 20 -38 104 -32 111 4 4 1 4 -6 0 -9 -5
-15 -1 -19 13 -3 12 -9 21 -15 21 -5 0 -4 -8 1 -19z m111 -331 c0 -3 -45 -4
-101 -2 -90 3 -100 5 -94 20 4 9 25 71 47 137 21 66 41 127 44 135 4 11 103
-267 104 -290z"/>
<path d="M4164 1355 c1 -8 8 -21 16 -28 12 -10 12 -9 2 4 -6 9 -9 18 -6 21 3
3 1 9 -4 12 -6 3 -9 -1 -8 -9z"/>
<path d="M4250 1121 c0 -6 4 -13 10 -16 6 -3 7 1 4 9 -7 18 -14 21 -14 7z"/>
<path d="M3186 1097 c3 -10 9 -15 12 -12 3 3 0 11 -7 18 -10 9 -11 8 -5 -6z"/>
</g>
</svg>
