<?xml version="1.0" standalone="no"?>
<!DOCTYPE svg PUBLIC "-//W3C//DTD SVG 20010904//EN"
 "http://www.w3.org/TR/2001/REC-SVG-20010904/DTD/svg10.dtd">
<svg version="1.0" xmlns="http://www.w3.org/2000/svg"
 width="1800.000000pt" height="3213.000000pt" viewBox="0 0 1800.000000 3213.000000"
 preserveAspectRatio="xMidYMid meet">
<g transform="translate(0.000000,3213.000000) scale(0.100000,-0.100000)"
fill="#000000" stroke="none">
<path d="M7807 30160 c-306 -38 -494 -119 -655 -280 -89 -89 -136 -161 -151
-228 -8 -38 -11 -529 -11 -1746 0 -1626 1 -1695 19 -1749 33 -100 111 -197
220 -271 39 -27 91 -55 114 -63 23 -8 48 -21 55 -30 13 -18 15 -97 4 -124 -8
-18 -177 -171 -293 -264 -88 -71 -193 -160 -269 -230 -31 -27 -86 -75 -124
-105 -86 -69 -154 -129 -233 -204 l-63 -59 -62 13 c-61 12 -121 26 -238 55
-30 8 -118 28 -195 45 -77 17 -200 45 -274 62 -75 18 -165 32 -202 32 -62 1
-71 -2 -125 -39 -32 -22 -102 -80 -155 -130 -53 -49 -152 -142 -220 -205 -68
-63 -146 -139 -173 -168 l-50 -53 2 -703 2 -703 -23 -24 c-12 -14 -89 -80
-172 -149 -192 -159 -436 -402 -501 -500 -100 -150 -177 -329 -217 -505 -14
-64 -16 -535 -21 -5105 -7 -6296 -15 -8621 -29 -8638 -9 -11 -238 -13 -1262
-11 -997 1 -1256 -1 -1275 -11 -40 -20 -61 -42 -76 -79 -30 -71 -10 -135 56
-176 l40 -25 7106 0 7106 0 39 22 c89 50 98 181 16 242 -25 18 -47 22 -185 27
-86 3 -404 6 -707 7 -302 0 -556 1 -562 1 -10 1 -13 237 -13 1145 0 1027 2
1146 16 1160 8 9 25 16 37 16 12 0 56 7 97 16 287 59 561 233 825 524 80 89
200 252 246 335 132 241 184 362 274 645 42 135 98 443 121 669 28 273 8 751
-40 956 -8 33 -21 92 -29 131 -31 141 -107 393 -141 469 -7 17 -20 46 -29 65
-81 183 -202 397 -276 490 -20 25 -55 70 -78 100 -90 119 -272 287 -422 390
-204 139 -498 230 -747 230 -220 0 -405 -46 -634 -158 -282 -138 -594 -453
-774 -782 -61 -113 -146 -287 -146 -301 0 -6 -7 -23 -15 -37 -22 -41 -82 -219
-105 -312 -4 -19 -21 -89 -38 -155 -17 -66 -35 -151 -41 -190 -6 -38 -18 -117
-27 -175 -24 -151 -24 -626 0 -800 32 -236 74 -426 139 -630 31 -100 145 -377
179 -439 206 -368 385 -589 625 -769 101 -77 107 -81 188 -124 131 -70 253
-117 374 -142 40 -8 77 -18 82 -23 4 -4 9 -523 10 -1152 1 -975 -1 -1145 -13
-1152 -11 -6 -2174 -6 -2185 0 -2 0 -3 4098 -3 9107 0 5008 -2 9137 -5 9177
-13 161 -48 359 -86 482 -59 193 -114 292 -264 480 -222 279 -296 346 -384
348 -46 2 -53 -2 -152 -77 -91 -70 -275 -220 -289 -236 -3 -3 -75 -63 -160
-132 -85 -70 -207 -170 -270 -223 -109 -91 -288 -239 -520 -431 -58 -48 -121
-98 -140 -113 -19 -14 -53 -42 -75 -63 -22 -20 -56 -50 -76 -65 -20 -15 -58
-46 -83 -67 -26 -21 -50 -36 -54 -32 -4 4 -8 771 -10 1704 -3 1858 0 1746 -63
1839 -130 190 -369 319 -674 362 -103 15 -330 21 -408 11z m360 -291 c43 -6
103 -17 132 -26 119 -34 279 -115 342 -173 l29 -28 0 -1050 c0 -736 -3 -1053
-11 -1057 -6 -4 -36 6 -67 23 -93 48 -184 81 -294 104 -149 32 -457 32 -604 0
-127 -27 -234 -63 -325 -108 -46 -23 -75 -32 -81 -26 -6 6 -9 400 -9 1058 l1
1049 32 27 c132 111 314 190 483 211 68 9 299 6 372 -4z m18 -2360 c44 -5 123
-24 175 -41 98 -31 262 -107 292 -135 16 -15 18 -43 18 -315 0 -241 -3 -300
-13 -304 -11 -4 -100 34 -177 75 -9 5 -52 18 -95 29 -367 95 -781 55 -1047
-100 -26 -15 -49 -24 -52 -20 -6 10 -8 91 -7 369 l1 242 75 45 c131 79 268
129 430 155 120 19 251 20 400 0z m2453 -1761 l-3 -1483 -229 -3 c-177 -2
-231 1 -238 10 -4 7 -8 71 -8 141 0 142 -9 166 -76 207 -29 19 -41 19 -225 9
-476 -24 -1010 -76 -1243 -120 -28 -5 -53 -6 -58 -1 -4 4 -9 227 -11 495 -3
430 -2 490 12 510 18 26 72 75 141 127 25 19 65 52 90 74 25 23 104 88 175
146 71 58 165 136 209 173 45 37 108 90 141 118 196 162 233 193 260 218 33
30 269 226 439 366 60 50 130 108 156 130 26 22 125 105 220 185 96 80 181
153 189 163 9 9 26 17 38 17 l23 0 -2 -1482z m377 1322 c117 -174 173 -340
201 -585 14 -126 16 -1051 17 -9265 l2 -9125 -135 -3 c-74 -1 -145 0 -157 3
l-21 5 -1 9526 c-1 5239 1 9530 4 9535 11 17 33 -5 90 -91z m-2859 -495 c162
-22 291 -68 406 -147 110 -76 140 -136 102 -211 -23 -45 -95 -117 -117 -117
-17 0 -18 5 -12 59 5 48 3 68 -14 106 -41 93 -174 188 -317 227 -65 18 -106
21 -229 21 -164 0 -241 -15 -346 -68 -100 -50 -199 -160 -199 -221 0 -52 -11
-92 -28 -99 -10 -4 -33 13 -69 49 -49 51 -53 59 -53 102 0 44 4 50 63 108 105
103 256 164 472 191 138 17 213 17 341 0z m-6 -364 c19 -6 49 -22 65 -35 l30
-24 5 -354 c4 -194 6 -575 5 -846 0 -535 3 -511 -55 -512 -23 0 -211 -39 -394
-81 -55 -13 -92 -17 -98 -11 -5 5 -9 361 -8 898 0 825 2 889 18 907 20 22 63
47 112 64 42 15 268 11 320 -6z m-740 -1333 c0 -211 3 -433 7 -494 7 -132 17
-121 -141 -164 -56 -16 -135 -39 -176 -53 -41 -13 -111 -36 -155 -50 -44 -14
-109 -35 -145 -47 -60 -21 -81 -29 -165 -61 -16 -7 -64 -24 -105 -39 -191 -69
-490 -198 -665 -287 -49 -25 -125 -63 -168 -85 -44 -22 -85 -37 -93 -34 -12 4
-14 77 -16 443 -1 241 -2 493 -3 561 -1 145 2 151 72 129 51 -16 126 -34 263
-62 47 -9 105 -23 130 -30 25 -7 81 -20 125 -30 44 -9 105 -23 136 -31 30 -8
87 -14 125 -14 78 0 81 1 190 94 39 34 120 102 179 151 154 128 483 406 530
448 78 70 75 86 75 -345z m-2110 -900 c0 -321 -4 -588 -8 -594 -4 -5 -51 -37
-106 -69 -54 -32 -111 -69 -126 -82 -28 -23 -50 -30 -50 -15 0 48 0 1061 0
1072 0 18 259 270 278 270 9 0 12 -123 12 -582z m4568 369 c13 -15 5 -1027 -7
-1040 -5 -4 -100 -17 -212 -28 -112 -10 -265 -26 -339 -35 -74 -9 -157 -17
-185 -18 l-50 -1 -3 527 -2 528 22 4 c13 3 57 7 99 10 41 3 107 10 145 15 38
6 157 18 264 26 107 9 204 18 215 19 11 2 25 4 31 5 6 0 16 -5 22 -12z m-960
-99 c18 -18 17 -1017 0 -1041 -9 -11 -41 -20 -102 -27 -49 -6 -92 -13 -96 -15
-3 -2 -67 -13 -141 -25 -73 -12 -192 -34 -264 -50 -71 -15 -168 -36 -215 -45
-47 -10 -99 -21 -116 -25 -66 -16 -63 -44 -63 530 0 579 -5 543 71 555 24 4
99 18 168 32 223 46 326 64 500 88 63 9 138 19 165 24 72 12 80 12 93 -1z
m-1150 -740 l-3 -532 -60 -17 c-33 -10 -89 -25 -125 -35 -147 -38 -569 -164
-742 -222 -43 -14 -80 -23 -83 -21 -8 9 -7 1051 2 1059 9 9 113 46 238 86 44
15 112 36 150 49 39 13 113 35 165 50 52 14 120 33 150 42 193 55 258 71 283
72 l27 1 -2 -532z m2877 472 c10 -17 13 -15843 3 -15862 -8 -16 -29 -18 -233
-18 -137 0 -226 4 -230 10 -3 5 -8 3574 -10 7930 -3 7053 -2 7921 11 7935 13
12 52 15 234 15 139 0 221 -4 225 -10z m-4055 -322 c0 -7 2 -240 4 -518 3
-278 2 -510 -2 -516 -4 -6 -25 -17 -47 -24 -52 -17 -302 -111 -385 -145 -36
-15 -99 -41 -140 -57 -41 -16 -88 -36 -105 -43 -171 -79 -211 -95 -222 -91
-17 7 -19 956 -2 987 18 35 824 417 882 419 9 0 17 -6 17 -12z m-1058 -870 c2
-472 0 -598 -11 -612 -5 -6 -40 -27 -78 -46 -37 -19 -114 -60 -170 -92 -56
-32 -104 -58 -106 -58 -3 0 -85 -47 -183 -106 -106 -63 -181 -101 -186 -96
-10 10 -11 871 -2 896 3 8 27 29 52 45 26 17 76 53 112 81 91 71 374 258 480
318 97 55 90 83 92 -330z m4343 328 c3 -11 4 -257 3 -546 l-3 -524 -165 -17
c-91 -9 -265 -27 -387 -39 -169 -18 -226 -20 -236 -11 -12 9 -13 96 -9 544 3
325 8 534 14 538 6 4 51 12 101 18 51 7 126 17 167 22 105 15 482 46 498 41 7
-2 15 -14 17 -26z m-966 -85 c17 -9 18 -42 16 -540 0 -323 -5 -535 -10 -540
-6 -6 -80 -19 -165 -31 -256 -34 -280 -38 -405 -60 -140 -24 -177 -31 -303
-55 -56 -11 -97 -14 -102 -9 -14 14 -14 1032 -1 1048 12 14 41 21 336 81 44 9
96 20 115 25 19 5 62 14 95 19 33 6 114 20 180 32 66 12 140 25 165 29 25 4
49 8 53 9 5 0 16 -3 26 -8z m-1141 -752 c2 -406 -1 -518 -10 -526 -7 -5 -49
-17 -93 -27 -44 -10 -102 -24 -130 -31 -27 -7 -113 -28 -190 -46 -77 -17 -183
-43 -235 -57 -52 -13 -111 -28 -130 -33 -19 -5 -60 -18 -90 -30 -89 -34 -124
-40 -135 -25 -7 8 -8 187 -5 511 l5 498 50 18 c28 10 97 32 155 49 58 18 125
38 150 46 25 7 92 28 150 45 58 17 125 37 150 45 25 7 88 25 140 40 52 14 109
29 125 34 17 5 44 8 60 7 l30 -2 3 -516z m-3128 -178 l0 -410 -42 -34 c-24
-19 -81 -60 -128 -92 -101 -69 -317 -232 -325 -246 -4 -5 -13 -9 -21 -9 -14 0
-15 29 -11 243 5 260 14 317 72 445 27 60 138 230 180 277 120 134 229 235
256 235 18 0 19 -11 19 -409z m1948 332 c5 -10 10 -234 11 -498 3 -541 8 -504
-74 -524 -55 -13 -312 -104 -410 -145 -44 -19 -102 -42 -130 -51 -101 -35
-211 -79 -230 -92 -11 -7 -29 -13 -41 -13 -20 0 -23 6 -26 58 -8 114 -8 897 0
909 4 7 60 36 123 63 63 28 123 55 134 60 47 21 237 100 325 134 52 21 111 43
130 51 193 76 176 71 188 48z m-1058 -920 c0 -258 -4 -474 -8 -480 -5 -7 -50
-31 -102 -53 -99 -44 -513 -248 -568 -282 -64 -39 -62 -55 -62 431 0 495 -8
447 86 503 31 18 63 38 72 43 181 110 542 305 565 305 16 0 17 -29 17 -467z
m4348 -158 c2 -489 1 -531 -15 -542 -10 -8 -48 -13 -92 -13 -42 0 -123 -4
-181 -10 -378 -35 -480 -42 -494 -37 -14 6 -16 58 -16 526 0 495 1 521 18 530
10 6 61 14 113 20 52 5 137 15 189 21 203 24 367 38 420 36 l55 -1 3 -530z
m-962 424 c3 -6 6 -243 6 -526 0 -563 3 -533 -60 -533 -66 0 -694 -90 -758
-109 -17 -5 -63 -12 -102 -16 -57 -6 -72 -4 -72 6 0 8 0 237 0 509 0 427 2
497 15 506 8 6 43 17 78 24 34 6 77 17 96 22 19 6 59 14 90 19 31 4 146 23
256 42 110 19 245 40 300 47 55 7 102 14 104 16 9 8 40 4 47 -7z m-1148 -703
c1 -281 -1 -513 -5 -517 -5 -4 -55 -17 -113 -29 -58 -11 -163 -35 -235 -51
-71 -17 -168 -40 -215 -50 -136 -32 -200 -48 -275 -70 -106 -31 -138 -39 -157
-39 -17 0 -18 30 -18 500 l0 500 23 9 c55 23 584 171 606 171 9 0 36 6 61 14
25 8 72 21 105 29 33 9 87 22 120 30 111 28 100 86 103 -497z m-3139 380 c8
-10 11 -135 11 -445 l-1 -431 -202 -134 c-111 -74 -228 -152 -259 -175 -42
-30 -59 -38 -65 -29 -4 7 -6 202 -4 433 3 414 3 420 24 441 36 34 466 354 478
354 3 0 12 -6 18 -14z m1966 -689 c0 -563 15 -496 -120 -534 -94 -27 -263 -79
-320 -98 -109 -37 -308 -110 -372 -137 -60 -25 -76 -28 -88 -18 -13 11 -15 73
-15 462 0 279 4 456 10 468 10 19 83 56 180 92 30 11 129 49 220 85 239 94
278 109 350 133 35 12 71 26 80 31 8 5 29 8 45 6 l30 -2 0 -488z m-1070 73 c3
-5 7 -215 8 -466 3 -402 1 -458 -12 -474 -9 -9 -56 -34 -106 -55 -137 -57
-325 -144 -498 -231 -60 -30 -113 -52 -118 -48 -11 7 -12 904 0 922 9 15 20
21 341 182 234 117 361 178 372 179 4 1 9 -3 13 -9z m4349 -196 c3 -9 6 -249
6 -534 0 -438 -2 -521 -14 -533 -11 -11 -55 -16 -168 -21 -145 -7 -225 -13
-486 -36 -63 -6 -118 -8 -123 -5 -5 4 -9 225 -9 540 l0 535 23 4 c37 7 332 35
497 47 85 5 164 12 175 13 58 9 93 5 99 -10z m-954 -86 c-1 -7 1 -246 3 -530
3 -377 2 -520 -7 -526 -9 -8 -159 -30 -306 -46 -25 -3 -106 -15 -180 -26 -74
-11 -164 -25 -200 -29 -36 -5 -114 -17 -174 -26 -60 -9 -112 -13 -117 -8 -6 6
-16 990 -10 1039 2 18 49 33 134 44 43 5 83 12 88 16 9 5 123 25 264 45 39 5
142 20 230 33 188 28 275 32 275 14z m-1152 -696 l2 -522 -25 -10 c-14 -5 -49
-14 -78 -19 -61 -10 -302 -59 -470 -95 -130 -28 -219 -51 -347 -89 -47 -14
-89 -22 -93 -18 -4 5 -8 239 -7 522 0 577 -7 529 79 548 25 6 105 27 176 46
72 19 227 57 345 84 118 27 244 56 280 64 36 8 81 14 100 14 l35 -2 3 -523z
m-3130 71 l-3 -448 -30 -18 c-16 -10 -124 -75 -240 -143 -115 -69 -216 -130
-223 -136 -8 -7 -16 -8 -22 -2 -5 5 -10 186 -10 421 l-2 413 29 25 c86 78 458
334 486 335 16 0 17 -26 15 -447z m1952 155 c-1 -7 1 -239 3 -516 4 -499 4
-503 -17 -518 -11 -7 -30 -14 -42 -14 -12 0 -66 -14 -120 -31 -55 -17 -151
-47 -214 -66 -63 -20 -119 -39 -125 -44 -5 -4 -57 -21 -115 -39 -58 -18 -138
-46 -178 -62 -56 -23 -76 -28 -85 -19 -9 9 -13 144 -16 502 -3 527 -5 510 49
531 39 16 210 78 255 93 22 8 60 21 85 30 138 52 478 165 498 165 12 0 22 -6
22 -12z m-1064 -380 c5 -7 7 -231 4 -503 l-5 -489 -25 -13 c-14 -7 -68 -29
-120 -49 -52 -19 -123 -48 -157 -65 -35 -16 -65 -29 -68 -29 -6 0 -158 -71
-259 -121 -44 -22 -85 -38 -93 -35 -11 4 -13 94 -13 490 l0 485 37 26 c21 14
41 25 45 25 3 0 73 32 155 72 137 66 470 215 484 217 4 1 10 -5 15 -11z m4343
-291 c14 -18 18 -1134 4 -1148 -10 -10 -454 -31 -683 -33 l-115 -1 0 550 c0
489 2 552 16 566 12 12 46 18 130 23 100 6 614 51 630 55 4 0 12 -5 18 -12z
m-953 -85 c17 -10 13 -1085 -4 -1105 -8 -10 -45 -16 -119 -20 -215 -14 -726
-71 -813 -91 -52 -12 -50 -27 -50 539 -1 342 3 532 9 538 6 6 45 16 88 24 179
29 544 84 628 94 50 5 113 13 140 18 66 11 107 12 121 3z m-4278 -512 c1 -256
0 -475 -3 -487 -4 -15 -30 -34 -93 -64 -48 -23 -160 -87 -250 -141 -90 -54
-167 -98 -172 -98 -20 0 -22 65 -14 502 l9 453 55 38 c30 20 65 43 77 50 12 6
97 58 190 114 92 56 175 101 183 100 13 -2 15 -63 18 -467z m3130 -189 c1
-294 -1 -538 -5 -542 -5 -4 -80 -19 -168 -34 -338 -55 -624 -110 -739 -142
-27 -7 -62 -13 -78 -13 l-28 0 0 519 0 519 68 20 c37 11 126 34 197 52 72 17
146 35 165 40 19 5 107 25 195 44 88 19 201 44 250 55 50 11 101 19 115 18
l25 -2 3 -534z m-1174 207 c9 -76 5 -949 -5 -975 -6 -15 -17 -23 -32 -23 -52
0 -602 -153 -764 -212 -69 -25 -85 -28 -98 -18 -14 11 -15 71 -13 492 l3 480
22 18 c12 10 91 41 175 69 84 28 266 89 403 135 138 47 262 85 276 85 25 1 27
-3 33 -51z m-1063 -488 c4 -96 7 -315 8 -486 1 -256 -1 -314 -13 -323 -8 -7
-60 -27 -115 -46 -110 -37 -124 -43 -341 -133 -172 -72 -250 -96 -265 -81 -12
12 -19 918 -8 936 7 10 300 147 433 203 30 12 100 42 155 65 55 24 109 43 120
42 19 -2 20 -12 26 -177z m-891 -663 c0 -410 -1 -445 -17 -459 -10 -8 -58 -32
-107 -52 -48 -21 -107 -48 -131 -61 -56 -32 -256 -98 -266 -88 -6 6 -15 760
-10 810 0 6 38 33 84 59 45 25 102 58 126 72 25 13 67 38 93 53 27 16 50 29
52 29 2 0 35 18 72 40 114 67 104 106 104 -403z m5234 414 c3 -4 6 -442 6
-972 l1 -964 -273 -6 c-150 -4 -329 -8 -396 -9 -98 -3 -126 0 -133 11 -12 18
-2 1900 10 1912 23 23 772 50 785 28z m-949 -53 c2 -13 3 -442 2 -954 -2 -725
-5 -934 -14 -946 -10 -11 -49 -17 -170 -22 -268 -12 -715 -53 -772 -71 -38
-11 -45 9 -43 122 1 59 2 483 2 940 1 776 2 833 18 841 9 5 64 14 122 21 58 7
155 18 215 26 145 19 544 61 607 64 21 1 29 -4 33 -21z m-1157 -442 c1 -188
-2 -324 -7 -329 -5 -5 -72 -13 -148 -17 -83 -5 -201 -21 -298 -40 -88 -17
-182 -35 -210 -39 -43 -7 -175 -39 -298 -72 -20 -5 -42 -7 -47 -4 -6 4 -10
126 -10 320 l0 315 23 5 c75 17 269 58 307 65 25 4 65 12 90 18 25 6 86 18
135 27 101 18 205 38 310 59 39 8 88 14 110 13 l40 -2 3 -319z m-1180 -217 c2
-243 0 -298 -12 -308 -7 -6 -51 -20 -97 -31 -46 -11 -111 -28 -144 -37 -109
-29 -159 -41 -295 -73 -141 -33 -210 -53 -271 -77 -20 -8 -47 -13 -60 -11
l-24 3 -3 287 c-2 266 -1 288 15 297 10 5 77 25 148 46 72 20 141 40 155 44
91 31 271 84 390 116 36 10 83 23 105 31 22 7 51 12 65 11 l25 -2 3 -296z
m-1060 -31 c16 -20 16 -542 0 -555 -7 -6 -65 -27 -128 -47 -63 -20 -142 -47
-175 -60 -33 -14 -98 -39 -145 -56 -47 -18 -122 -47 -167 -66 -98 -41 -111
-42 -119 -7 -4 15 -4 155 -1 312 5 212 10 288 19 297 7 7 36 19 63 28 28 8 82
26 120 40 44 16 91 26 127 26 65 0 178 26 293 69 94 34 99 35 113 19z m2242
-723 c3 -302 3 -560 1 -572 -4 -26 -15 -29 -183 -48 -73 -8 -162 -19 -198 -25
-36 -5 -117 -17 -180 -25 -151 -22 -269 -42 -356 -62 -39 -9 -78 -13 -88 -10
-15 6 -16 53 -16 535 0 439 2 532 14 541 7 6 45 18 82 25 123 25 212 46 236
55 13 4 46 11 73 15 28 4 97 18 155 32 58 13 137 31 175 39 39 8 106 23 150
34 44 11 91 19 105 18 l25 -2 5 -550z m-3140 436 c6 -12 10 -128 10 -305 l0
-286 -37 -23 c-21 -13 -58 -31 -83 -41 -58 -23 -351 -176 -377 -198 -7 -6 -20
-8 -28 -4 -13 5 -15 52 -15 350 0 200 4 355 10 370 9 23 15 26 62 26 92 0 226
34 328 83 52 25 100 46 107 46 7 1 17 -8 23 -18z m1968 -668 c2 -499 1 -533
-15 -542 -15 -7 -135 -34 -278 -61 -96 -19 -516 -123 -560 -140 -15 -6 -36 -8
-46 -5 -18 6 -19 27 -19 509 0 575 -10 520 100 550 96 27 146 42 230 70 41 14
93 29 115 34 22 5 76 20 120 32 44 12 125 33 180 47 55 14 107 29 115 34 8 5
24 8 35 6 20 -2 20 -10 23 -534z m-1068 108 c0 -58 3 -280 7 -494 6 -364 5
-388 -12 -407 -10 -11 -24 -20 -32 -20 -21 0 -321 -93 -468 -145 -71 -26 -150
-54 -174 -62 -36 -13 -45 -13 -53 -2 -8 13 -2 965 7 979 2 3 59 28 127 54 190
75 271 107 293 117 58 26 281 96 292 92 10 -4 13 -33 13 -112z m-892 -715 c1
-334 -1 -483 -9 -492 -6 -7 -32 -20 -57 -30 -111 -39 -203 -79 -348 -152 -55
-28 -97 -43 -107 -39 -16 6 -17 45 -17 462 l0 456 23 22 c21 21 113 72 357
200 58 30 116 54 130 53 l25 -1 3 -479z m5230 212 c9 -9 12 -145 12 -549 0
-467 -2 -538 -15 -549 -11 -10 -46 -11 -138 -6 -67 4 -238 7 -380 7 -228 1
-259 3 -265 18 -4 9 -7 250 -6 535 2 462 4 521 18 531 11 8 105 13 308 14 161
1 295 4 297 7 10 10 158 3 169 -8z m-950 -30 c6 -9 10 -200 11 -534 2 -448 0
-522 -13 -527 -8 -3 -108 -9 -223 -12 -114 -4 -329 -15 -478 -26 -148 -10
-273 -15 -278 -10 -9 9 -11 1031 -1 1040 3 3 42 9 87 12 88 7 247 22 417 41
88 9 194 16 431 26 20 1 41 -4 47 -10z m-1153 -613 l0 -520 -140 -18 c-477
-60 -629 -80 -705 -93 -47 -8 -103 -16 -125 -17 l-40 -2 -3 507 -2 508 22 4
c13 3 55 12 93 20 39 8 115 22 170 31 55 9 136 23 180 30 199 33 487 73 520
71 l30 -1 0 -520z m-1172 313 c9 -41 8 -972 -2 -987 -8 -12 -214 -60 -391 -91
-30 -6 -80 -17 -110 -26 -30 -9 -84 -22 -120 -29 -36 -8 -101 -24 -145 -36
-44 -12 -93 -23 -110 -23 l-30 -1 0 497 c0 273 3 499 7 503 8 8 161 50 328 90
58 14 130 32 160 41 30 8 100 24 155 36 55 11 125 26 155 33 84 19 97 18 103
-7z m-1061 -729 c2 -373 0 -486 -9 -500 -7 -9 -34 -22 -60 -28 -87 -20 -384
-110 -547 -165 -67 -24 -104 -32 -111 -25 -9 9 -10 958 -1 966 2 2 30 13 62
24 32 11 68 24 79 29 26 12 334 117 400 136 28 8 70 21 95 28 25 7 55 14 67
15 l23 1 2 -481z m-894 -288 c2 -403 0 -467 -13 -488 -9 -12 -21 -23 -28 -23
-6 0 -55 -16 -107 -36 -52 -20 -111 -42 -131 -50 -20 -7 -71 -29 -113 -49
-111 -52 -122 -55 -135 -42 -8 8 -11 141 -11 463 0 375 2 455 14 467 12 12
105 59 201 102 153 68 293 124 305 122 13 -2 15 -63 18 -466z m9393 433 c277
-46 473 -156 712 -399 95 -97 182 -213 258 -345 99 -170 189 -399 252 -635 45
-172 45 -172 89 -440 19 -120 17 -565 -4 -735 -15 -126 -66 -386 -88 -455 -6
-16 -24 -73 -41 -125 -54 -169 -129 -343 -214 -495 -194 -352 -534 -646 -825
-714 -79 -19 -86 -19 -97 -4 -17 21 -18 518 -3 559 6 15 70 89 143 163 238
244 474 495 514 546 56 70 63 87 63 142 0 57 -26 105 -69 128 -38 19 -113 19
-150 1 -15 -8 -77 -68 -136 -133 -238 -258 -374 -388 -375 -356 0 5 0 296 0
649 1 680 0 684 -47 725 -87 77 -230 57 -269 -37 -12 -28 -14 -228 -14 -1203
0 -1162 0 -1170 -20 -1176 -28 -9 -117 19 -225 70 -266 126 -582 458 -745 785
-67 133 -162 390 -196 530 -71 293 -83 369 -93 610 -15 348 13 636 91 940 56
217 147 457 225 588 24 41 43 75 43 78 0 11 73 120 136 204 233 308 538 499
869 543 66 9 126 6 216 -9z m-5117 -346 c14 -19 16 -80 16 -444 0 -331 -3
-424 -13 -432 -8 -7 -130 -15 -312 -21 -165 -6 -377 -16 -470 -22 -94 -7 -179
-10 -188 -6 -16 6 -17 39 -17 411 0 222 -2 410 -5 418 -3 7 1 22 8 32 10 14
34 20 103 26 153 15 511 40 684 48 91 5 168 10 172 10 4 1 14 -8 22 -20z m956
2 c6 -9 10 -198 10 -456 0 -378 -2 -443 -15 -454 -11 -9 -47 -10 -162 -1 -82
6 -250 12 -374 12 -125 1 -232 5 -239 9 -10 6 -12 102 -11 451 1 244 5 447 8
452 3 5 163 8 390 5 326 -3 385 -5 393 -18z m-2105 -505 l0 -440 -40 -7 c-22
-4 -103 -14 -180 -23 -77 -8 -189 -22 -250 -30 -60 -9 -162 -22 -225 -31 -63
-8 -146 -22 -185 -30 -38 -8 -84 -14 -101 -14 -29 0 -32 3 -37 38 -6 35 1 823
7 829 17 18 349 76 616 108 74 9 178 23 230 30 52 7 111 12 130 12 l35 -2 0
-440z m-1188 267 c10 -6 13 -110 15 -443 l3 -434 -50 -11 c-27 -6 -90 -19
-140 -28 -49 -9 -148 -28 -220 -42 -71 -14 -150 -30 -175 -35 -25 -4 -102 -23
-172 -42 -83 -22 -132 -31 -142 -25 -14 8 -16 57 -16 426 0 229 4 422 8 429
11 17 48 29 179 58 65 14 138 31 163 39 80 25 255 63 365 81 22 3 67 12 100
20 75 17 68 16 82 7z m-1044 -379 c10 -251 6 -700 -7 -718 -10 -14 -56 -29
-276 -91 -30 -8 -142 -43 -247 -78 -155 -51 -195 -61 -204 -50 -12 15 -11 806
2 840 5 15 27 28 66 42 32 11 74 26 93 33 19 6 51 18 70 25 19 7 80 26 135 43
55 17 143 44 195 60 52 16 111 30 131 30 l36 1 6 -137z m-905 -145 c6 -9 11
-161 11 -428 2 -330 -1 -419 -11 -433 -8 -10 -45 -30 -83 -44 -156 -56 -140
-50 -332 -137 -45 -21 -90 -36 -100 -34 -16 3 -18 19 -20 173 -2 94 0 289 5
435 l7 265 120 51 c66 29 131 56 145 62 14 5 72 30 130 55 122 53 115 51 128
35z m4286 -284 c14 -6 16 -63 16 -544 0 -476 -2 -540 -16 -554 -12 -13 -41
-16 -147 -16 -154 0 -640 -17 -743 -25 -115 -10 -106 -59 -102 549 2 457 4
522 18 536 13 13 74 19 320 33 450 26 626 32 654 21z m730 -3 c167 -7 220 -12
227 -22 5 -8 9 -255 9 -550 0 -428 -3 -539 -13 -553 -13 -17 -24 -18 -178 -7
-90 6 -261 13 -379 17 -178 5 -217 9 -227 22 -10 12 -13 138 -13 553 0 421 3
538 13 542 19 8 321 7 561 -2z m-1876 -604 l2 -537 -22 -9 c-13 -4 -77 -11
-143 -15 -200 -10 -695 -60 -783 -78 -32 -7 -56 -8 -62 -2 -10 10 -16 1041 -6
1051 28 29 788 133 941 130 l70 -2 3 -538z m-1174 367 c3 -9 6 -239 6 -513 0
-389 -3 -501 -13 -515 -9 -12 -36 -20 -87 -27 -41 -5 -97 -13 -125 -18 -27 -5
-95 -17 -150 -26 -155 -25 -263 -48 -442 -92 -34 -9 -69 -13 -77 -10 -14 6
-16 62 -16 506 l0 500 22 15 c12 9 38 19 58 22 19 4 76 17 126 30 103 26 161
39 439 99 229 49 250 51 259 29z m-1066 -236 c9 -9 12 -134 12 -500 l0 -488
-24 -15 c-13 -9 -129 -42 -258 -75 -216 -54 -331 -88 -415 -121 -23 -9 -36
-10 -43 -3 -14 14 -14 958 0 984 10 18 198 83 485 165 88 26 171 50 185 55 36
12 45 11 58 -2z m-890 -764 c2 -386 0 -484 -11 -492 -7 -6 -60 -27 -117 -46
-58 -19 -130 -44 -160 -56 -30 -12 -66 -25 -80 -30 -14 -4 -52 -20 -85 -34
-32 -15 -65 -25 -73 -24 -11 3 -14 84 -16 466 -1 311 2 469 9 478 10 14 98 55
233 110 34 14 106 45 160 69 53 24 106 43 117 42 20 -2 20 -10 23 -483z m4982
-35 c163 -7 247 -15 252 -22 4 -7 8 -242 8 -523 0 -398 -3 -514 -12 -521 -8
-6 -73 -7 -168 -2 -85 4 -258 11 -383 15 -125 4 -230 10 -232 14 -2 4 -5 240
-6 524 -2 362 1 520 8 524 14 9 224 5 533 -9z m-692 -511 c3 -489 2 -517 -15
-526 -10 -5 -153 -10 -318 -11 -165 -1 -375 -6 -467 -11 -92 -5 -174 -7 -183
-4 -16 6 -18 100 -20 789 l0 250 55 7 c111 15 392 25 665 24 l280 -1 3 -517z
m-1163 -38 l0 -515 -25 -7 c-14 -4 -104 -12 -200 -18 -188 -13 -500 -42 -670
-65 -58 -7 -108 -11 -112 -9 -5 3 -8 232 -8 508 0 391 3 506 13 514 14 12 335
54 592 78 99 9 209 20 245 24 36 4 88 7 115 6 l50 -1 0 -515z m-1177 378 c9
-9 12 -136 12 -510 l0 -498 -23 -9 c-13 -5 -82 -16 -153 -25 -71 -9 -156 -20
-189 -26 -142 -22 -265 -43 -330 -55 -175 -34 -205 -38 -210 -33 -3 2 -7 221
-9 486 -4 516 -3 522 46 522 11 0 46 6 77 14 31 7 94 21 141 31 47 9 114 23
150 30 36 8 106 21 155 30 50 9 122 23 160 30 64 13 106 20 146 24 8 0 20 -4
27 -11z m-1053 -682 c5 -413 4 -471 -10 -492 -8 -13 -22 -24 -31 -24 -8 0 -72
-14 -142 -31 -70 -16 -156 -37 -192 -46 -36 -8 -85 -21 -110 -28 -25 -7 -89
-25 -143 -41 -84 -24 -100 -26 -108 -13 -10 17 -12 939 -1 955 10 16 68 35
317 103 111 30 333 87 370 94 46 8 45 16 50 -477z m-910 228 c14 -6 16 -50 14
-475 -1 -329 -5 -473 -13 -483 -6 -8 -33 -21 -61 -29 -27 -8 -102 -34 -165
-57 -63 -23 -136 -48 -161 -55 -26 -7 -60 -20 -77 -29 -17 -9 -40 -16 -52 -16
-20 0 -20 3 -20 463 0 355 3 467 13 480 6 9 42 28 79 42 38 13 76 29 85 34 10
5 79 32 153 61 74 28 144 55 155 60 25 11 30 11 50 4z m4284 -574 c17 -9 18
-37 14 -512 -3 -277 -8 -506 -11 -509 -4 -4 -224 -9 -489 -12 -352 -3 -485 -2
-492 7 -11 14 -5 986 7 998 8 8 346 24 632 31 287 7 322 6 339 -3z m671 -11
c157 -6 288 -13 292 -16 5 -2 8 -235 8 -517 0 -399 -3 -516 -12 -523 -8 -6
-120 -3 -308 8 -162 10 -334 18 -382 18 -48 1 -89 5 -93 10 -3 5 -7 237 -9
516 -2 403 0 507 10 513 14 8 95 7 494 -9z m-1816 -35 c3 -9 6 -235 6 -504 0
-457 -1 -489 -17 -494 -10 -2 -115 -10 -233 -16 -118 -6 -271 -15 -340 -21
-289 -23 -404 -30 -417 -25 -11 5 -13 93 -11 498 l3 492 155 18 c301 35 347
39 530 49 102 5 196 11 210 13 70 9 108 6 114 -10z m-1166 -585 c2 -382 -1
-489 -10 -496 -7 -6 -60 -15 -118 -22 -198 -22 -355 -42 -433 -57 -42 -8 -87
-14 -98 -14 -11 0 -66 -11 -121 -25 -85 -21 -104 -23 -115 -12 -11 11 -14 103
-13 480 0 256 3 473 6 480 3 8 32 20 67 27 34 6 91 18 127 25 36 7 157 27 270
45 113 17 239 37 280 45 41 7 93 13 115 12 l40 -2 3 -486z m-1070 299 c9 -9
12 -129 12 -479 l0 -468 -22 -15 c-12 -9 -33 -16 -46 -16 -13 0 -50 -6 -81
-14 -31 -7 -94 -21 -141 -31 -47 -10 -155 -36 -240 -58 -85 -22 -168 -40 -185
-41 l-30 -1 -3 469 c-1 324 1 473 9 482 6 7 40 20 77 28 37 9 99 25 137 36 39
11 135 35 215 55 80 19 170 41 200 49 72 18 84 18 98 4z m-891 -693 c2 -253
-1 -465 -5 -472 -4 -7 -89 -37 -187 -67 -99 -30 -205 -65 -235 -77 -30 -12
-70 -24 -87 -26 l-33 -5 -2 433 c-2 486 -2 479 10 491 4 4 33 17 63 28 30 10
79 29 109 41 212 82 318 118 340 116 l25 -2 2 -460z m4277 -163 c8 -13 10
-1907 2 -1920 -5 -9 -136 -12 -496 -12 -457 0 -489 1 -493 18 -3 9 -4 442 -3
962 l2 945 54 6 c87 9 928 10 934 1z m-1156 -10 c10 -7 12 -206 10 -963 l-3
-954 -505 0 -505 0 -3 918 -2 917 23 9 c12 5 63 12 112 16 50 3 152 13 227 21
75 8 179 14 230 15 51 0 154 6 228 13 175 17 173 17 188 8z m1925 -13 c177
-12 188 -14 192 -33 9 -42 12 -1841 3 -1858 -8 -17 -37 -18 -397 -18 -327 0
-390 2 -401 14 -9 12 -11 234 -9 948 1 513 4 942 6 952 5 18 15 19 212 13 113
-3 290 -11 394 -18z m-3088 -101 c3 -13 4 -423 3 -913 l-3 -890 -435 -3 c-239
-1 -445 0 -457 3 l-23 5 0 835 0 835 23 14 c12 8 55 19 96 25 41 7 77 13 80
15 9 6 234 42 376 60 66 9 147 20 180 25 33 5 81 9 107 10 42 1 48 -2 53 -21z
m-1070 -978 l0 -825 -365 0 -365 0 -3 733 c-1 422 2 740 7 750 8 14 159 57
291 82 25 5 59 13 75 18 17 6 66 17 110 27 44 9 105 22 135 30 30 7 69 13 85
12 l30 -2 0 -825z m-896 601 c7 -12 10 -265 8 -722 l-2 -704 -275 0 -275 0 -3
617 c-1 357 2 626 7 640 9 25 84 55 276 113 33 10 96 30 140 46 97 33 111 34
124 10z"/>
<path d="M7790 7225 c-168 -26 -321 -81 -550 -195 -256 -129 -402 -183 -571
-214 -95 -18 -240 -20 -309 -5 -25 5 -72 14 -105 19 -33 5 -85 18 -115 30 -30
12 -67 25 -81 30 -14 4 -34 12 -45 18 -128 70 -433 205 -557 246 -204 68 -362
82 -589 50 -235 -32 -324 -64 -683 -244 -234 -118 -388 -177 -620 -236 -101
-26 -379 -26 -490 0 -155 36 -336 113 -577 244 -187 102 -372 155 -588 166
-126 7 -460 -9 -512 -24 -49 -14 -94 -53 -119 -103 -18 -35 -19 -45 -9 -83 14
-49 50 -86 102 -105 30 -10 64 -10 180 -1 422 36 605 4 878 -153 197 -114 412
-208 545 -238 273 -64 582 -45 880 52 120 39 216 81 425 186 374 187 557 245
773 245 201 -1 364 -47 642 -185 105 -52 231 -109 280 -128 235 -90 296 -102
530 -102 143 1 195 4 250 19 117 31 192 54 262 81 136 53 183 74 398 183 248
126 452 167 705 143 108 -10 172 -24 270 -59 53 -19 343 -139 405 -167 116
-55 319 -101 490 -113 142 -10 362 3 445 27 19 5 67 17 105 27 89 21 192 61
365 142 236 110 359 142 546 142 119 0 258 -21 369 -57 87 -28 98 -32 228 -92
49 -23 91 -41 94 -41 3 0 28 -11 55 -25 50 -25 173 -68 278 -97 50 -14 102
-26 260 -58 113 -24 286 -24 419 -1 179 32 341 79 464 136 29 13 90 42 137 64
294 137 448 178 640 167 182 -9 307 -49 605 -191 172 -83 386 -170 480 -196
89 -25 248 -49 322 -49 104 0 263 31 355 68 112 45 138 170 52 253 -34 33 -38
34 -112 33 -43 0 -103 -9 -137 -19 -121 -36 -330 -17 -495 46 -30 11 -68 25
-85 31 -16 6 -127 55 -245 108 -261 118 -413 172 -562 201 -98 19 -134 21
-263 15 -250 -10 -378 -45 -687 -190 -82 -38 -105 -47 -253 -99 -152 -53 -201
-65 -318 -78 -121 -13 -308 0 -407 28 -175 50 -284 90 -445 161 -360 159 -530
199 -799 189 -167 -6 -267 -28 -446 -97 -30 -12 -66 -25 -80 -30 -14 -4 -38
-15 -55 -23 -148 -75 -310 -138 -419 -164 -35 -8 -143 -17 -251 -20 -178 -5
-199 -4 -318 21 -131 26 -241 65 -402 141 -49 23 -110 50 -135 59 -25 10 -58
24 -75 31 -55 24 -223 66 -322 80 -121 18 -290 17 -403 0z"/>
<path d="M4386 5374 c-13 -12 -16 -41 -16 -147 0 -73 -5 -211 -11 -307 -19
-339 -28 -518 -39 -770 -6 -140 -15 -300 -20 -355 -6 -55 -15 -237 -21 -405
-5 -168 -14 -333 -19 -366 -6 -34 -8 -69 -4 -77 5 -14 41 -16 262 -19 142 -2
265 0 274 5 23 10 26 35 34 287 4 118 8 242 10 275 1 33 7 195 13 360 22 605
24 636 50 610 6 -6 38 -60 72 -120 229 -407 347 -618 376 -671 18 -34 40 -67
48 -74 21 -18 293 -27 322 -11 12 6 48 63 81 128 89 175 131 255 141 267 5 6
34 61 66 121 31 61 61 115 65 120 4 6 33 60 64 121 63 125 82 149 90 112 6
-32 24 -371 36 -688 6 -146 15 -339 20 -430 5 -91 10 -214 10 -275 0 -60 4
-116 9 -123 7 -11 62 -13 276 -12 148 0 272 3 277 6 15 9 13 69 -37 974 -8
146 -22 398 -30 560 -9 162 -22 374 -30 470 -8 96 -15 227 -16 290 -1 173 22
160 -278 160 -137 0 -257 -3 -265 -6 -18 -7 -63 -82 -153 -254 -33 -63 -71
-133 -83 -155 -13 -22 -35 -62 -50 -90 -15 -27 -56 -102 -92 -165 -69 -122
-94 -167 -177 -322 -39 -73 -57 -98 -72 -98 -11 0 -22 8 -26 18 -4 9 -18 35
-33 57 -15 22 -30 47 -33 55 -4 8 -15 29 -25 45 -10 17 -38 66 -62 110 -24 44
-54 97 -67 117 -12 21 -23 40 -23 42 0 3 -20 39 -45 79 -25 41 -45 77 -45 80
0 3 -13 26 -30 50 -16 25 -30 47 -30 50 0 3 -20 40 -45 81 -25 42 -45 79 -45
81 0 7 -93 158 -118 193 l-24 32 -258 0 c-222 0 -261 -2 -274 -16z"/>
<path d="M7994 5368 c-11 -13 -37 -68 -58 -123 -21 -55 -48 -127 -61 -160 -13
-33 -37 -98 -55 -145 -18 -47 -41 -107 -51 -135 -10 -27 -33 -86 -50 -130 -17
-44 -45 -116 -60 -160 -16 -44 -33 -89 -38 -100 -5 -11 -26 -65 -46 -120 -20
-55 -42 -113 -49 -130 -8 -16 -22 -52 -31 -80 -9 -27 -27 -75 -40 -105 -21
-51 -78 -201 -144 -380 -24 -64 -79 -209 -138 -365 -9 -22 -19 -49 -24 -60 -5
-11 -20 -51 -34 -90 -14 -38 -30 -80 -36 -91 -6 -12 -9 -30 -7 -40 3 -18 17
-19 288 -19 l285 0 23 65 c37 105 88 260 106 325 10 33 26 79 37 103 l19 42
449 0 c347 0 451 -3 458 -12 5 -7 17 -40 27 -73 10 -33 40 -118 65 -190 26
-71 54 -150 61 -175 8 -25 20 -55 28 -67 l14 -23 294 0 c327 0 324 -1 292 64
-9 17 -35 83 -58 146 -23 63 -50 133 -60 155 -10 22 -40 96 -66 165 -73 194
-142 370 -169 430 -13 30 -45 114 -70 185 -26 72 -55 148 -65 170 -17 39 -99
245 -162 410 -17 44 -49 130 -73 190 -23 61 -57 151 -75 200 -49 136 -55 153
-91 240 -18 44 -39 86 -48 93 -11 9 -85 12 -291 12 -274 0 -277 0 -296 -22z
m321 -645 c9 -32 21 -69 26 -83 6 -14 33 -90 59 -170 121 -365 170 -524 166
-537 -8 -19 -564 -19 -572 0 -4 11 192 616 236 732 5 11 16 41 25 68 22 63 41
60 60 -10z"/>
<path d="M9796 5374 c-14 -14 -16 -133 -16 -1218 0 -1008 2 -1205 14 -1215 9
-8 91 -11 277 -9 l264 3 0 1225 0 1225 -262 3 c-228 2 -263 0 -277 -14z"/>
<path d="M11529 5380 c-8 -5 -23 -26 -32 -47 -30 -69 -227 -583 -227 -592 0
-5 -13 -39 -30 -76 -16 -37 -30 -72 -30 -78 0 -7 -7 -25 -15 -40 -8 -16 -24
-57 -34 -90 -11 -34 -36 -105 -56 -157 -20 -52 -47 -126 -60 -165 -13 -38 -33
-92 -45 -120 -12 -27 -26 -61 -30 -75 -5 -14 -18 -50 -30 -80 -11 -30 -28 -75
-37 -100 -21 -62 -79 -212 -109 -285 -14 -32 -41 -102 -60 -155 -37 -101 -41
-111 -102 -265 -22 -55 -37 -105 -35 -112 4 -10 69 -13 289 -13 283 0 284 0
298 23 16 24 94 254 131 385 13 46 31 94 39 108 l16 24 439 0 c358 0 441 -2
450 -14 6 -7 24 -53 41 -102 66 -200 131 -379 145 -401 l16 -23 292 2 292 3
-2 38 c-2 21 -22 84 -47 140 -45 105 -158 397 -196 507 -5 14 -18 50 -30 80
-11 30 -32 84 -45 120 -13 36 -32 88 -43 115 -11 28 -36 95 -56 150 -20 55
-42 109 -48 119 -6 11 -21 49 -33 85 -13 36 -53 143 -90 236 -36 94 -70 184
-75 200 -5 17 -38 107 -75 200 -36 94 -77 199 -90 235 -65 179 -77 206 -92
218 -20 15 -568 17 -594 2z m305 -602 c11 -41 167 -519 213 -653 30 -88 56
-169 56 -180 2 -20 -5 -20 -285 -23 l-288 -2 0 24 c0 28 37 146 157 501 47
138 89 266 95 285 11 38 25 60 40 60 5 0 10 -6 12 -12z"/>
</g>
</svg>
