<?xml version="1.0" standalone="no"?>
<!DOCTYPE svg PUBLIC "-//W3C//DTD SVG 20010904//EN"
 "http://www.w3.org/TR/2001/REC-SVG-20010904/DTD/svg10.dtd">
<svg version="1.0" xmlns="http://www.w3.org/2000/svg"
 width="512.000000pt" height="512.000000pt" viewBox="0 0 512.000000 512.000000"
 preserveAspectRatio="xMidYMid meet">

<g transform="translate(0.000000,512.000000) scale(0.100000,-0.100000)"
fill="black" stroke="none">
<path d="M240 4476 c-6 -8 -10 -23 -8 -33 3 -17 24 -18 298 -23 l295 -5 3 -49
c2 -32 -1 -52 -10 -58 -7 -5 -138 -7 -290 -6 -300 3 -312 1 -290 -46 6 -13 21
-26 34 -28 13 -2 23 -9 22 -15 -1 -7 -2 -620 -2 -1363 l-2 -1349 -61 -3 c-65
-3 -88 -19 -76 -52 6 -15 186 -16 2305 -16 2469 0 2330 -3 2320 47 -3 15 -15
18 -76 21 l-72 3 0 254 c0 219 2 255 15 255 8 0 44 12 79 26 148 59 249 239
290 516 49 328 -30 703 -189 899 -34 42 -124 108 -163 119 -54 15 -124 12
-167 -6 -56 -23 -136 -111 -181 -198 -21 -42 -41 -76 -45 -76 -3 0 -39 42 -81
93 -195 236 -509 501 -720 608 -32 16 -58 31 -58 34 0 2 226 4 502 5 276 0
506 4 511 9 15 15 3 45 -23 58 -19 10 -153 13 -578 13 l-554 0 -136 39 c-75
22 -159 45 -185 52 -33 8 -44 15 -35 20 7 5 347 9 754 9 797 0 775 -1 759 50
-6 20 -12 20 -350 20 -229 0 -346 4 -350 10 -4 6 -4 33 0 60 l7 50 336 0 c186
0 343 4 350 9 8 4 12 19 10 32 l-3 24 -2086 3 c-1816 2 -2088 0 -2099 -12z
m1290 -110 l0 -55 -52 -5 c-29 -3 -172 -4 -318 -3 l-265 2 -3 58 -3 57 321 0
320 0 0 -54z m695 42 c3 -7 2 -33 -3 -58 l-8 -45 -309 0 -310 0 -3 58 -3 57
316 0 c243 0 317 -3 320 -12z m703 -45 l-3 -58 -310 0 -310 0 -3 58 -3 57 316
0 316 0 -3 -57z m710 0 l-3 -58 -312 -2 -313 -2 0 59 0 60 315 0 316 0 -3 -57z
m-1967 -148 c-3 -5 -28 -16 -55 -23 -28 -7 -100 -28 -160 -47 l-109 -35 -492
0 -492 0 5 53 c3 28 10 55 16 59 17 12 1292 5 1287 -7z m785 -177 l4 -158
-175 0 -175 0 0 160 0 160 171 -2 171 -3 4 -157z m-667 -10 c-91 -90 -177
-180 -193 -200 -50 -67 -56 -56 -56 112 l0 150 26 11 c15 5 72 20 128 33 55
13 128 31 161 39 33 8 69 15 79 16 12 1 -42 -59 -145 -161z m1005 132 c39 -11
98 -27 131 -37 l60 -19 3 -147 c1 -84 -1 -147 -7 -147 -5 0 -34 30 -64 68 -31
37 -108 119 -171 182 -64 63 -116 119 -116 123 0 11 70 1 164 -23z m-771 -291
c-4 -3 -44 -14 -88 -24 -44 -9 -127 -32 -184 -51 -56 -20 -105 -33 -108 -31
-2 3 82 92 189 198 l193 193 3 -139 c1 -76 -1 -142 -5 -146z m682 119 c151
-156 192 -204 184 -212 -2 -3 -58 13 -124 35 -66 21 -146 43 -177 49 l-58 11
0 140 c0 76 4 139 9 139 5 0 80 -73 166 -162z m452 71 c155 -62 318 -150 311
-170 -2 -5 -64 -38 -138 -72 -74 -35 -160 -76 -191 -90 -31 -15 -59 -27 -62
-27 -4 0 -7 88 -7 195 0 107 2 195 4 195 3 0 40 -14 83 -31z m-1697 -174 l0
-175 -180 90 c-99 50 -180 94 -180 100 0 11 20 22 113 62 66 28 239 97 245 98
1 0 2 -79 2 -175z m-290 139 c0 -2 -36 -22 -81 -44 -211 -105 -478 -321 -634
-513 -38 -47 -74 -86 -80 -86 -10 -1 -11 608 -1 635 5 12 67 14 401 13 217 0
395 -3 395 -5z m113 -312 c75 -36 136 -69 135 -73 -2 -3 -38 -35 -82 -70 -43
-35 -105 -85 -136 -111 -32 -26 -75 -67 -96 -92 -21 -25 -41 -43 -46 -40 -9 6
-11 488 -2 497 4 4 25 -5 48 -19 23 -14 103 -56 179 -92z m-310 -187 c-2 -316
0 -297 -49 -364 -2 -2 -58 39 -126 90 -196 148 -202 153 -228 170 -23 15 -24
18 -10 44 17 31 184 182 315 284 50 38 92 70 95 70 3 1 4 -132 3 -294z m2752
196 c121 -95 275 -237 275 -255 -1 -6 -31 -33 -68 -61 -37 -27 -113 -87 -169
-132 -57 -46 -108 -83 -115 -82 -7 0 -24 14 -38 32 l-25 31 -3 270 c-2 148 -1
275 2 283 7 18 8 18 141 -86z m-220 -389 c-3 -3 -38 26 -78 64 -79 78 -182
165 -240 204 -20 14 -37 31 -37 37 0 13 46 36 245 124 l110 49 3 -237 c1 -130
0 -238 -3 -241z m-992 457 c161 -24 348 -81 454 -139 l68 -36 3 -549 c1 -302
-1 -552 -6 -557 -8 -8 -124 96 -290 260 -40 39 -79 72 -87 72 -8 0 -42 -25
-77 -55 l-63 -55 -128 130 -129 130 -211 0 -212 -1 -137 -134 -138 -134 0 -90
c0 -51 -4 -93 -10 -96 -6 -4 -24 8 -40 25 l-30 32 0 493 0 494 47 31 c119 81
349 157 548 183 68 9 371 6 438 -4z m695 -306 c118 -92 319 -288 407 -398 81
-101 205 -274 205 -287 0 -4 -91 -8 -201 -8 l-201 0 -51 -42 c-28 -24 -94 -80
-146 -125 -51 -46 -98 -83 -102 -83 -5 0 -9 227 -9 505 0 278 3 505 6 505 3 0
44 -30 92 -67z m-1798 -428 l0 -465 -174 0 -175 0 -142 -142 -143 -143 -5
-150 -6 -150 -194 -3 c-107 -1 -198 1 -203 6 -11 11 14 66 158 354 226 454
394 705 635 949 97 98 224 208 242 209 4 0 7 -209 7 -465z m3273 412 c58 -37
123 -110 155 -172 33 -65 81 -221 98 -313 18 -104 20 -302 4 -427 -31 -249
-166 -465 -290 -465 -19 0 -20 6 -20 143 l0 143 76 99 c42 55 83 113 91 128
20 39 14 81 -12 84 -15 2 -35 -20 -85 -95 l-65 -97 -3 231 c-2 187 -5 234 -17
244 -24 20 -54 2 -61 -35 -3 -19 -4 -213 -2 -432 3 -448 7 -431 -71 -370 -79
62 -172 220 -212 359 -27 94 -37 311 -20 428 16 110 65 277 107 366 96 202
202 261 327 181z m-4249 -1119 c-31 -70 -60 -126 -63 -124 -5 3 -5 537 -1
1008 0 17 20 50 58 95 l57 69 3 -460 2 -461 -56 -127z m3701 976 c25 -31 58
-77 72 -102 l26 -44 -28 -125 c-34 -155 -44 -340 -25 -476 37 -262 185 -496
353 -557 l27 -10 0 -255 0 -256 -27 3 c-24 3 -29 10 -46 68 -67 237 -195 577
-277 739 -21 42 -61 112 -89 156 l-51 79 0 418 c0 256 4 418 9 418 6 0 31 -25
56 -56z m-144 -631 c-7 -13 -14 -6 -36 38 -30 58 -215 328 -240 349 -32 27
-15 48 125 155 77 59 144 112 148 119 10 16 14 -642 3 -661z m-3296 540 c61
-47 125 -98 143 -113 l33 -27 -71 -99 c-40 -55 -105 -155 -146 -224 -40 -69
-78 -132 -83 -140 -6 -10 -10 111 -10 338 0 271 2 352 12 352 7 0 62 -39 122
-87z m1593 -379 c37 -37 82 -78 101 -92 29 -23 31 -27 15 -33 -28 -11 -712
-11 -718 0 -3 5 38 50 91 100 l97 91 174 0 173 0 67 -66z m509 -249 c35 -33
63 -63 63 -67 0 -5 -111 -8 -247 -8 l-247 0 34 30 c19 17 64 51 100 75 36 24
83 59 105 78 l40 35 45 -41 c25 -23 73 -69 107 -102z m1071 95 c26 -28 122
-191 122 -207 0 -11 -76 -13 -400 -13 -249 0 -400 4 -400 10 0 5 57 59 128
119 l127 110 202 1 c190 0 203 -1 221 -20z m-1498 -59 c0 -5 -33 -39 -72 -76
l-73 -66 -5 -497 -5 -497 -292 -3 -293 -2 0 575 0 575 370 0 c218 0 370 -4
370 -9z m-874 -172 c55 -43 59 -50 62 -93 l3 -46 -323 0 -323 0 97 96 97 96
164 -4 165 -3 58 -46z m1459 -41 c3 -13 4 -225 3 -473 l-3 -450 -327 -3 -328
-2 0 475 0 475 325 0 325 0 5 -22z m1045 -473 l0 -455 -485 0 -485 0 2 448 3
447 475 5 c261 3 478 6 483 8 4 1 7 -203 7 -453z m175 249 c31 -71 63 -142 71
-158 8 -16 14 -31 14 -33 0 -1 -43 -3 -96 -3 l-96 0 5 183 c3 100 5 184 6 186
4 15 49 -66 96 -175z m-2617 -321 l-3 -378 -355 0 -355 0 0 270 c0 149 1 318
4 378 l4 107 354 0 353 0 -2 -377z m-788 -168 l0 -215 -205 0 -205 0 0 208 c0
115 3 212 7 215 3 4 96 7 205 7 l198 0 0 -215z m3542 155 c11 -30 39 -116 62
-190 24 -74 46 -145 50 -158 l7 -22 -178 2 -178 3 -3 213 -2 213 112 -3 111
-3 19 -55z"/>
<path d="M2026 2504 c-12 -11 -16 -36 -16 -90 0 -87 11 -114 45 -114 34 0 45
27 45 109 0 58 -4 75 -20 91 -24 24 -34 25 -54 4z"/>
<path d="M1770 2491 c-5 -11 -10 -50 -10 -86 0 -78 12 -105 45 -105 33 0 45
27 45 105 0 78 -12 105 -45 105 -14 0 -29 -8 -35 -19z"/>
<path d="M2020 2111 c-14 -28 -13 -184 2 -199 18 -18 56 -14 68 7 16 31 13
163 -6 189 -19 27 -50 29 -64 3z"/>
<path d="M1770 2101 c-5 -11 -10 -50 -10 -88 0 -75 17 -113 50 -113 29 0 40
31 40 110 0 83 -11 110 -45 110 -14 0 -29 -8 -35 -19z"/>
<path d="M2470 2325 c-6 -8 -14 -42 -17 -76 -5 -48 -2 -69 12 -95 21 -39 37
-42 65 -14 26 26 29 143 4 178 -17 25 -46 29 -64 7z"/>
<path d="M2710 2320 c-29 -29 -29 -151 0 -180 23 -23 41 -25 58 -8 13 13 17
166 4 184 -15 22 -42 24 -62 4z"/>
<path d="M2469 1984 c-7 -9 -15 -44 -17 -78 -3 -74 12 -111 48 -111 33 0 50
36 50 105 0 83 -44 129 -81 84z"/>
<path d="M2706 1978 c-22 -31 -22 -151 0 -172 20 -21 48 -20 65 0 17 21 16
158 -1 179 -18 22 -47 18 -64 -7z"/>
<path d="M3216 2228 c-11 -15 -16 -45 -16 -88 0 -75 18 -110 55 -110 29 0 35
15 38 112 2 80 -9 108 -44 108 -10 0 -25 -10 -33 -22z"/>
<path d="M3456 2228 c-18 -26 -22 -131 -6 -172 12 -32 54 -36 70 -7 17 32 13
167 -6 185 -21 22 -40 20 -58 -6z"/>
<path d="M3746 2234 c-12 -11 -16 -36 -16 -90 0 -87 11 -114 46 -114 32 0 44
32 44 119 0 53 -4 72 -18 84 -23 21 -36 21 -56 1z"/>
<path d="M3216 1858 c-22 -31 -22 -160 0 -182 20 -21 48 -20 65 0 19 23 19
165 0 187 -19 24 -47 21 -65 -5z"/>
<path d="M3739 1859 c-14 -27 -13 -167 2 -185 20 -24 58 -17 69 12 16 41 12
146 -6 172 -19 28 -50 28 -65 1z"/>
<path d="M3459 1854 c-18 -22 -24 -128 -9 -164 9 -21 19 -30 36 -30 32 0 44
28 44 105 0 36 -5 75 -10 86 -13 23 -43 25 -61 3z"/>
<path d="M1021 2141 c-14 -25 -14 -146 -1 -172 14 -26 56 -25 71 2 18 34 22
130 7 159 -17 33 -62 39 -77 11z"/>
<path d="M1286 2138 c-21 -29 -21 -119 -1 -158 19 -36 48 -39 69 -8 19 27 21
122 3 158 -17 33 -51 37 -71 8z"/>
<path d="M1044 1802 c-23 -15 -34 -52 -34 -112 0 -74 12 -100 46 -100 19 0 28
8 41 37 19 47 12 136 -13 164 -19 21 -24 22 -40 11z"/>
<path d="M1290 1790 c-36 -66 -14 -180 34 -180 37 0 49 31 43 109 -4 46 -10
68 -23 78 -25 18 -42 16 -54 -7z"/>
<path d="M1875 1221 c-27 -11 -90 -36 -138 -56 -131 -54 -177 -53 -340 13
-113 46 -136 52 -201 52 -84 0 -165 -24 -260 -76 -72 -39 -193 -68 -246 -59
-56 10 -110 30 -190 72 -74 37 -77 38 -187 38 -94 0 -115 -3 -130 -18 -14 -13
-15 -21 -7 -35 9 -14 32 -18 130 -22 119 -5 119 -5 212 -54 84 -44 101 -49
177 -54 103 -6 144 4 277 66 57 27 124 55 151 62 67 18 146 7 225 -30 201 -95
278 -94 487 6 73 35 87 39 160 39 71 -1 90 -5 170 -40 87 -39 94 -40 200 -40
107 0 112 1 195 40 70 32 98 40 160 43 68 4 85 0 167 -31 182 -71 278 -73 417
-10 71 32 90 36 156 36 64 -1 89 -7 171 -42 110 -46 200 -63 277 -50 65 10 75
13 184 55 130 50 175 47 327 -22 99 -46 151 -58 222 -51 64 6 89 19 89 48 0
27 -30 39 -75 29 -51 -11 -118 2 -206 41 -173 76 -248 79 -412 17 -101 -39
-120 -43 -197 -42 -86 1 -102 5 -230 60 -98 42 -191 40 -330 -9 -153 -53 -220
-52 -360 3 -103 41 -107 42 -200 37 -80 -4 -109 -11 -185 -43 -66 -27 -109
-38 -160 -42 -64 -4 -80 0 -193 42 -142 53 -219 60 -307 27z"/>
<path d="M1965 880 c-82 -21 -152 -79 -190 -155 -29 -59 -28 -204 2 -260 28
-54 100 -119 149 -136 54 -18 170 -16 216 3 134 59 198 213 152 369 -37 128
-195 214 -329 179z m135 -122 c63 -33 83 -66 88 -143 8 -120 -56 -195 -165
-195 -147 0 -215 192 -110 307 50 54 119 65 187 31z"/>
<path d="M1280 600 l0 -280 55 0 55 0 0 95 0 95 72 0 c135 0 208 64 208 184 0
65 -16 102 -60 139 -44 37 -89 47 -217 47 l-113 0 0 -280z m255 145 c16 -15
25 -36 25 -55 0 -19 -9 -40 -25 -55 -20 -21 -34 -25 -85 -25 l-60 0 0 80 0 80
60 0 c51 0 65 -4 85 -25z"/>
<path d="M2492 873 l-72 -4 2 -272 3 -272 50 0 50 0 3 93 3 92 38 0 c38 0 39
-1 93 -92 l54 -93 59 -3 c32 -2 61 1 66 5 4 4 -17 49 -46 98 -30 50 -54 95
-55 101 0 7 11 19 25 28 53 35 80 135 54 203 -14 39 -67 91 -103 102 -41 12
-134 18 -224 14z m192 -124 c37 -29 37 -89 0 -118 -28 -22 -101 -37 -133 -26
-19 6 -21 14 -21 86 l0 79 64 0 c49 0 69 -5 90 -21z"/>
<path d="M3543 863 c-27 -9 -60 -34 -91 -67 -132 -145 -97 -351 78 -454 39
-24 56 -27 130 -27 73 0 92 4 136 27 156 82 192 329 66 455 -55 55 -126 83
-206 82 -39 0 -90 -7 -113 -16z m174 -98 c120 -48 133 -256 21 -325 -47 -28
-125 -27 -169 3 -70 46 -97 151 -60 232 41 89 122 124 208 90z"/>
<path d="M2900 821 c0 -58 11 -64 102 -54 l58 6 2 -224 3 -224 55 0 55 0 3
217 2 217 53 6 c28 3 63 5 77 3 24 -3 25 0 28 50 l3 52 -220 0 -221 0 0 -49z"/>
</g>
</svg>
