<svg xmlns="http://www.w3.org/2000/svg" width="682.667" height="682.667" version="1.0" viewBox="15 140 490 230"><path d="M24 64.4c-.6.8-1 2.3-.8 3.3.3 1.7 2.4 1.8 29.8 2.3l29.5.5.3 4.9c.2 3.2-.1 5.2-1 5.8-.7.5-13.8.7-29 .6-30-.3-31.2-.1-29 4.6.6 1.3 2.1 2.6 3.4 2.8s2.3.9 2.2 1.5c-.1.7-.2 62-.2 136.3L29 361.9l-6.1.3c-6.5.3-8.8 1.9-7.6 5.2.6 1.5 18.6 1.6 230.5 1.6 246.9 0 233 .3 232-4.7-.3-1.5-1.5-1.8-7.6-2.1l-7.2-.3v-25.4c0-21.9.2-25.5 1.5-25.5.8 0 4.4-1.2 7.9-2.6 14.8-5.9 24.9-23.9 29-51.6 4.9-32.8-3-70.3-18.9-89.9-3.4-4.2-12.4-10.8-16.3-11.9-5.4-1.5-12.4-1.2-16.7.6-5.6 2.3-13.6 11.1-18.1 19.8-2.1 4.2-4.1 7.6-4.5 7.6-.3 0-3.9-4.2-8.1-9.3-19.5-23.6-50.9-50.1-72-60.8-3.2-1.6-5.8-3.1-5.8-3.4 0-.2 22.6-.4 50.2-.5 27.6 0 50.6-.4 51.1-.9 1.5-1.5.3-4.5-2.3-5.8-1.9-1-15.3-1.3-57.8-1.3h-55.4l-13.6-3.9c-7.5-2.2-15.9-4.5-18.5-5.2-3.3-.8-4.4-1.5-3.5-2 .7-.5 34.7-.9 75.4-.9 79.7 0 77.5.1 75.9-5-.6-2-1.2-2-35-2-22.9 0-34.6-.4-35-1s-.4-3.3 0-6l.7-5h33.6c18.6 0 34.3-.4 35-.9.8-.4 1.2-1.9 1-3.2l-.3-2.4-208.6-.3C52.3 63 25.1 63.2 24 64.4m129 11v5.5l-5.2.5c-2.9.3-17.2.4-31.8.3l-26.5-.2-.3-5.8-.3-5.7H153zm69.5-4.2c.3.7.2 3.3-.3 5.8l-.8 4.5h-61.9l-.3-5.8-.3-5.7h31.6c24.3 0 31.7.3 32 1.2m70.3 4.5-.3 5.8h-62l-.3-5.8-.3-5.7h63.2zm71 0-.3 5.8-31.2.2-31.3.2V70h63.1zM167.1 90.5c-.3.5-2.8 1.6-5.5 2.3-2.8.7-10 2.8-16 4.7l-10.9 3.5H36.3l.5-5.3c.3-2.8 1-5.5 1.6-5.9 1.7-1.2 129.2-.5 128.7.7m78.5 17.7.4 15.8h-35V92l17.1.2 17.1.3zm-66.7 1c-9.1 9-17.7 18-19.3 20-5 6.7-5.6 5.6-5.6-11.2v-15l2.6-1.1c1.5-.5 7.2-2 12.8-3.3 5.5-1.3 12.8-3.1 16.1-3.9s6.9-1.5 7.9-1.6c1.2-.1-4.2 5.9-14.5 16.1M279.4 96c3.9 1.1 9.8 2.7 13.1 3.7l6 1.9.3 14.7c.1 8.4-.1 14.7-.7 14.7-.5 0-3.4-3-6.4-6.8-3.1-3.7-10.8-11.9-17.1-18.2-6.4-6.3-11.6-11.9-11.6-12.3 0-1.1 7-.1 16.4 2.3m-77.1 29.1c-.4.3-4.4 1.4-8.8 2.4-4.4.9-12.7 3.2-18.4 5.1-5.6 2-10.5 3.3-10.8 3.1-.2-.3 8.2-9.2 18.9-19.8l19.3-19.3.3 13.9c.1 7.6-.1 14.2-.5 14.6m68.2-11.9c15.1 15.6 19.2 20.4 18.4 21.2-.2.3-5.8-1.3-12.4-3.5-6.6-2.1-14.6-4.3-17.7-4.9l-5.8-1.1v-14c0-7.6.4-13.9.9-13.9s8 7.3 16.6 16.2m45.2-7.1c15.5 6.2 31.8 15 31.1 17-.2.5-6.4 3.8-13.8 7.2-7.4 3.5-16 7.6-19.1 9-3.1 1.5-5.9 2.7-6.2 2.7-.4 0-.7-8.8-.7-19.5s.2-19.5.4-19.5c.3 0 4 1.4 8.3 3.1M146 123.5V141l-18-9c-9.9-5-18-9.4-18-10 0-1.1 2-2.2 11.3-6.2 6.6-2.8 23.9-9.7 24.5-9.8.1 0 .2 7.9.2 17.5m-29-13.9c0 .2-3.6 2.2-8.1 4.4-21.1 10.5-47.8 32.1-63.4 51.3-3.8 4.7-7.4 8.6-8 8.6-1 .1-1.1-60.8-.1-63.5.5-1.2 6.7-1.4 40.1-1.3 21.7 0 39.5.3 39.5.5m11.3 31.2c7.5 3.6 13.6 6.9 13.5 7.3-.2.3-3.8 3.5-8.2 7-4.3 3.5-10.5 8.5-13.6 11.1-3.2 2.6-7.5 6.7-9.6 9.2s-4.1 4.3-4.6 4c-.9-.6-1.1-48.8-.2-49.7.4-.4 2.5.5 4.8 1.9s10.3 5.6 17.9 9.2m-31 18.7c-.2 31.6 0 29.7-4.9 36.4-.2.2-5.8-3.9-12.6-9-19.6-14.8-20.2-15.3-22.8-17-2.3-1.5-2.4-1.8-1-4.4 1.7-3.1 18.4-18.2 31.5-28.4 5-3.8 9.2-7 9.5-7 .3-.1.4 13.2.3 29.4m275.2-19.6c12.1 9.5 27.5 23.7 27.5 25.5-.1.6-3.1 3.3-6.8 6.1-3.7 2.7-11.3 8.7-16.9 13.2-5.7 4.6-10.8 8.3-11.5 8.2-.7 0-2.4-1.4-3.8-3.2l-2.5-3.1-.3-27c-.2-14.8-.1-27.5.2-28.3.7-1.8.8-1.8 14.1 8.6m-22 38.9c-.3.3-3.8-2.6-7.8-6.4-7.9-7.8-18.2-16.5-24-20.4-2-1.4-3.7-3.1-3.7-3.7 0-1.3 4.6-3.6 24.5-12.4l11-4.9.3 23.7c.1 13 0 23.8-.3 24.1m-99.2-45.7c16.1 2.4 34.8 8.1 45.4 13.9l6.8 3.6.3 54.9c.1 30.2-.1 55.2-.6 55.7-.8.8-12.4-9.6-29-26-4-3.9-7.9-7.2-8.7-7.2s-4.2 2.5-7.7 5.5l-6.3 5.5-12.8-13-12.9-13h-21.1l-21.2.1-13.7 13.4-13.8 13.4v9c0 5.1-.4 9.3-1 9.6-.6.4-2.4-.8-4-2.5l-3-3.2v-98.7l4.7-3.1c11.9-8.1 34.9-15.7 54.8-18.3 6.8-.9 37.1-.6 43.8.4m69.5 30.6c11.8 9.2 31.9 28.8 40.7 39.8 8.1 10.1 20.5 27.4 20.5 28.7 0 .4-9.1.8-20.1.8h-20.1l-5.1 4.2c-2.8 2.4-9.4 8-14.6 12.5-5.1 4.6-9.8 8.3-10.2 8.3-.5 0-.9-22.7-.9-50.5s.3-50.5.6-50.5 4.4 3 9.2 6.7M141 206.5V253h-34.9l-14.2 14.2-14.3 14.3-.5 15-.6 15-19.4.3c-10.7.1-19.8-.1-20.3-.6-1.1-1.1 1.4-6.6 15.8-35.4 22.6-45.4 39.4-70.5 63.5-94.9 9.7-9.8 22.4-20.8 24.2-20.9.4 0 .7 20.9.7 46.5m327.3-41.2c5.8 3.7 12.3 11 15.5 17.2 3.3 6.5 8.1 22.1 9.8 31.3 1.8 10.4 2 30.2.4 42.7-3.1 24.9-16.6 46.5-29 46.5-1.9 0-2-.6-2-14.3v-14.3l7.6-9.9c4.2-5.5 8.3-11.3 9.1-12.8 2-3.9 1.4-8.1-1.2-8.4-1.5-.2-3.5 2-8.5 9.5l-6.5 9.7-.3-23.1c-.2-18.7-.5-23.4-1.7-24.4-2.4-2-5.4-.2-6.1 3.5-.3 1.9-.4 21.3-.2 43.2.3 44.8.7 43.1-7.1 37-7.9-6.2-17.2-22-21.2-35.9-2.7-9.4-3.7-31.1-2-42.8 1.6-11 6.5-27.7 10.7-36.6 9.6-20.2 20.2-26.1 32.7-18.1M43.4 277.2c-3.1 7-6 12.6-6.3 12.4-.5-.3-.5-53.7-.1-100.8 0-1.7 2-5 5.8-9.5l5.7-6.9.3 46 .2 46.1zm370.1-97.6c2.5 3.1 5.8 7.7 7.2 10.2l2.6 4.4-2.8 12.5c-3.4 15.5-4.4 34-2.5 47.6 3.7 26.2 18.5 49.6 35.3 55.7l2.7 1v51.1l-2.7-.3c-2.4-.3-2.9-1-4.6-6.8-6.7-23.7-19.5-57.7-27.7-73.9-2.1-4.2-6.1-11.2-8.9-15.6l-5.1-7.9v-41.8c0-25.6.4-41.8.9-41.8.6 0 3.1 2.5 5.6 5.6m-14.4 63.1c-.7 1.3-1.4.6-3.6-3.8-3-5.8-21.5-32.8-24-34.9-3.2-2.7-1.5-4.8 12.5-15.5 7.7-5.9 14.4-11.2 14.8-11.9 1-1.6 1.4 64.2.3 66.1m-329.6-54c6.1 4.7 12.5 9.8 14.3 11.3l3.3 2.7-7.1 9.9c-4 5.5-10.5 15.5-14.6 22.4-4 6.9-7.8 13.2-8.3 14-.6 1-1-11.1-1-33.8 0-27.1.2-35.2 1.2-35.2.7 0 6.2 3.9 12.2 8.7m159.3 37.9c3.7 3.7 8.2 7.8 10.1 9.2 2.9 2.3 3.1 2.7 1.5 3.3-2.8 1.1-71.2 1.1-71.8 0-.3-.5 3.8-5 9.1-10l9.7-9.1h34.7zm50.9 24.9c3.5 3.3 6.3 6.3 6.3 6.7 0 .5-11.1.8-24.7.8h-24.7l3.4-3c1.9-1.7 6.4-5.1 10-7.5s8.3-5.9 10.5-7.8l4-3.5 4.5 4.1c2.5 2.3 7.3 6.9 10.7 10.2m107.1-9.5c2.6 2.8 12.2 19.1 12.2 20.7 0 1.1-7.6 1.3-40 1.3-24.9 0-40-.4-40-1 0-.5 5.7-5.9 12.8-11.9l12.7-11 20.2-.1c19 0 20.3.1 22.1 2M237 247.9c0 .5-3.3 3.9-7.2 7.6l-7.3 6.6-.5 49.7-.5 49.7-29.2.3-29.3.2V247h37c21.8 0 37 .4 37 .9m-87.4 17.2c5.5 4.3 5.9 5 6.2 9.3l.3 4.6H91.5l9.7-9.6 9.7-9.6 16.4.4 16.5.3zm145.9 4.1c.3 1.3.4 22.5.3 47.3l-.3 45-32.7.3-32.8.2v-95h65zM400 316.5V362h-97l.2-44.8.3-44.7 47.5-.5c26.1-.3 47.8-.6 48.3-.8.4-.1.7 20.3.7 45.3m17.5-24.9c3.1 7.1 6.3 14.2 7.1 15.8s1.4 3.1 1.4 3.3c0 .1-4.3.3-9.6.3h-9.6l.5-18.3c.3-10 .5-18.4.6-18.6.4-1.5 4.9 6.6 9.6 17.5m-261.7 32.1-.3 37.8h-71v-27c0-14.9.1-31.8.4-37.8l.4-10.7H156zM77 340.5V362H36v-20.8c0-11.5.3-21.2.7-21.5.3-.4 9.6-.7 20.5-.7H77zM431.2 325c1.1 3 3.9 11.6 6.2 19 2.4 7.4 4.6 14.5 5 15.8l.7 2.2-17.8-.2-17.8-.3-.3-21.3-.2-21.3 11.2.3 11.1.3z"/><path d="M202.6 261.6c-1.2 1.1-1.6 3.6-1.6 9 0 8.7 1.1 11.4 4.5 11.4s4.5-2.7 4.5-10.9c0-5.8-.4-7.5-2-9.1-2.4-2.4-3.4-2.5-5.4-.4m-25.6 1.3c-.5 1.1-1 5-1 8.6 0 7.8 1.2 10.5 4.5 10.5s4.5-2.7 4.5-10.5-1.2-10.5-4.5-10.5c-1.4 0-2.9.8-3.5 1.9m25 38c-1.4 2.8-1.3 18.4.2 19.9 1.8 1.8 5.6 1.4 6.8-.7 1.6-3.1 1.3-16.3-.6-18.9-1.9-2.7-5-2.9-6.4-.3m-25 1c-.5 1.1-1 5-1 8.8 0 7.5 1.7 11.3 5 11.3 2.9 0 4-3.1 4-11 0-8.3-1.1-11-4.5-11-1.4 0-2.9.8-3.5 1.9m70-22.4c-.6.8-1.4 4.2-1.7 7.6-.5 4.8-.2 6.9 1.2 9.5 2.1 3.9 3.7 4.2 6.5 1.4 2.6-2.6 2.9-14.3.4-17.8-1.7-2.5-4.6-2.9-6.4-.7m24 .5c-2.9 2.9-2.9 15.1 0 18 2.3 2.3 4.1 2.5 5.8.8 1.3-1.3 1.7-16.6.4-18.4-1.5-2.2-4.2-2.4-6.2-.4m-24.1 33.6c-.7.9-1.5 4.4-1.7 7.8-.3 7.4 1.2 11.1 4.8 11.1 3.3 0 5-3.6 5-10.5 0-8.3-4.4-12.9-8.1-8.4m23.7.6c-2.2 3.1-2.2 15.1 0 17.2 2 2.1 4.8 2 6.5 0 1.7-2.1 1.6-15.8-.1-17.9-1.8-2.2-4.7-1.8-6.4.7m51-25c-1.1 1.5-1.6 4.5-1.6 8.8 0 7.5 1.8 11 5.5 11 2.9 0 3.5-1.5 3.8-11.2.2-8-.9-10.8-4.4-10.8-1 0-2.5 1-3.3 2.2m24 0c-1.8 2.6-2.2 13.1-.6 17.2 1.2 3.2 5.4 3.6 7 .7 1.7-3.2 1.3-16.7-.6-18.5-2.1-2.2-4-2-5.8.6m29-.6c-1.2 1.1-1.6 3.6-1.6 9 0 8.7 1.1 11.4 4.6 11.4 3.2 0 4.4-3.2 4.4-11.9 0-5.3-.4-7.2-1.8-8.4-2.3-2.1-3.6-2.1-5.6-.1m-53 37.6c-2.2 3.1-2.2 16 0 18.2 2 2.1 4.8 2 6.5 0 1.9-2.3 1.9-16.5 0-18.7-1.9-2.4-4.7-2.1-6.5.5m52.3-.1c-1.4 2.7-1.3 16.7.2 18.5 2 2.4 5.8 1.7 6.9-1.2 1.6-4.1 1.2-14.6-.6-17.2-1.9-2.8-5-2.8-6.5-.1m-28 .5c-1.8 2.2-2.4 12.8-.9 16.4.9 2.1 1.9 3 3.6 3 3.2 0 4.4-2.8 4.4-10.5 0-3.6-.5-7.5-1-8.6-1.3-2.3-4.3-2.5-6.1-.3m-243.8-28.7c-1.4 2.5-1.4 14.6-.1 17.2 1.4 2.6 5.6 2.5 7.1-.2 1.8-3.4 2.2-13 .7-15.9-1.7-3.3-6.2-3.9-7.7-1.1m26.5.3c-2.1 2.9-2.1 11.9-.1 15.8 1.9 3.6 4.8 3.9 6.9.8 1.9-2.7 2.1-12.2.3-15.8-1.7-3.3-5.1-3.7-7.1-.8m-24.2 33.6c-2.3 1.5-3.4 5.2-3.4 11.2 0 7.4 1.2 10 4.6 10 1.9 0 2.8-.8 4.1-3.7 1.9-4.7 1.2-13.6-1.3-16.4-1.9-2.1-2.4-2.2-4-1.1M129 333c-3.6 6.6-1.4 18 3.4 18 3.7 0 4.9-3.1 4.3-10.9-.4-4.6-1-6.8-2.3-7.8-2.5-1.8-4.2-1.6-5.4.7m58.5 56.9c-2.7 1.1-9 3.6-13.8 5.6-13.1 5.4-17.7 5.3-34-1.3-11.3-4.6-13.6-5.2-20.1-5.2-8.4 0-16.5 2.4-26 7.6-7.2 3.9-19.3 6.8-24.6 5.9-5.6-1-11-3-19-7.2-7.4-3.7-7.7-3.8-18.7-3.8-9.4 0-11.5.3-13 1.8-1.4 1.3-1.5 2.1-.7 3.5.9 1.4 3.2 1.8 13 2.2 11.9.5 11.9.5 21.2 5.4 8.4 4.4 10.1 4.9 17.7 5.4 10.3.6 14.4-.4 27.7-6.6 5.7-2.7 12.4-5.5 15.1-6.2 6.7-1.8 14.6-.7 22.5 3 20.1 9.5 27.8 9.4 48.7-.6 7.3-3.5 8.7-3.9 16-3.9 7.1.1 9 .5 17 4 8.7 3.9 9.4 4 20 4 10.7 0 11.2-.1 19.5-4 7-3.2 9.8-4 16-4.3 6.8-.4 8.5 0 16.7 3.1 18.2 7.1 27.8 7.3 41.7 1 7.1-3.2 9-3.6 15.6-3.6 6.4.1 8.9.7 17.1 4.2 11 4.6 20 6.3 27.7 5 6.5-1 7.5-1.3 18.4-5.5 13-5 17.5-4.7 32.7 2.2 9.9 4.6 15.1 5.8 22.2 5.1 6.4-.6 8.9-1.9 8.9-4.8 0-2.7-3-3.9-7.5-2.9-5.1 1.1-11.8-.2-20.6-4.1-17.3-7.6-24.8-7.9-41.2-1.7-10.1 3.9-12 4.3-19.7 4.2-8.6-.1-10.2-.5-23-6-9.8-4.2-19.1-4-33 .9-15.3 5.3-22 5.2-36-.3-10.3-4.1-10.7-4.2-20-3.7-8 .4-10.9 1.1-18.5 4.3-6.6 2.7-10.9 3.8-16 4.2-6.4.4-8 0-19.3-4.2-14.2-5.3-21.9-6-30.7-2.7m9 34.1c-8.2 2.1-15.2 7.9-19 15.5-2.9 5.9-2.8 20.4.2 26 2.8 5.4 10 11.9 14.9 13.6 5.4 1.8 17 1.6 21.6-.3 13.4-5.9 19.8-21.3 15.2-36.9-3.7-12.8-19.5-21.4-32.9-17.9m13.5 12.2c6.3 3.3 8.3 6.6 8.8 14.3.8 12-5.6 19.5-16.5 19.5-14.7 0-21.5-19.2-11-30.7 5-5.4 11.9-6.5 18.7-3.1M128 452v28h11v-19h7.2c13.5 0 20.8-6.4 20.8-18.4 0-6.5-1.6-10.2-6-13.9s-8.9-4.7-21.7-4.7H128zm25.5-14.5c1.6 1.5 2.5 3.6 2.5 5.5s-.9 4-2.5 5.5c-2 2.1-3.4 2.5-8.5 2.5h-6v-16h6c5.1 0 6.5.4 8.5 2.5m95.7-12.8-7.2.4.2 27.2.3 27.2h10l.3-9.3.3-9.2h3.8c3.8 0 3.9.1 9.3 9.2l5.4 9.3 5.9.3c3.2.2 6.1-.1 6.6-.5.4-.4-1.7-4.9-4.6-9.8-3-5-5.4-9.5-5.5-10.1 0-.7 1.1-1.9 2.5-2.8 5.3-3.5 8-13.5 5.4-20.3-1.4-3.9-6.7-9.1-10.3-10.2-4.1-1.2-13.4-1.8-22.4-1.4m19.2 12.4c3.7 2.9 3.7 8.9 0 11.8-2.8 2.2-10.1 3.7-13.3 2.6-1.9-.6-2.1-1.4-2.1-8.6V435h6.4c4.9 0 6.9.5 9 2.1m85.9-11.4c-2.7.9-6 3.4-9.1 6.7-13.2 14.5-9.7 35.1 7.8 45.4 3.9 2.4 5.6 2.7 13 2.7 7.3 0 9.2-.4 13.6-2.7 15.6-8.2 19.2-32.9 6.6-45.5-5.5-5.5-12.6-8.3-20.6-8.2-3.9 0-9 .7-11.3 1.6m17.4 9.8c12 4.8 13.3 25.6 2.1 32.5-4.7 2.8-12.5 2.7-16.9-.3-7-4.6-9.7-15.1-6-23.2 4.1-8.9 12.2-12.4 20.8-9m-81.7-5.6c0 5.8 1.1 6.4 10.2 5.4l5.8-.6.2 22.4.3 22.4h11l.3-21.7.2-21.7 5.3-.6c2.8-.3 6.3-.5 7.7-.3 2.4.3 2.5 0 2.8-5l.3-5.2H290z"/></svg>