<svg version="1.0" xmlns="http://www.w3.org/2000/svg" width="628" height="602.667" viewBox="0 0 771 452"><path d="M232.5 12.6c-.9.9-1.5 2.6-1.4 3.8.3 4.8-.1 5.6-2.9 5.6-1.6 0-3.6.6-4.6 1.3-1.5 1.1-1.7 1.7-.7 3.5.9 1.7 2.1 2.2 5.1 2.2 3.7 0 4 .2 4 2.9 0 1.5-.3 4.8-.6 7.3-.6 4-1 4.6-4.1 5.7-5 1.8-10.9 7.9-12.2 12.6-.6 2.2-1.1 6.8-1.1 10.2 0 4.9-.3 6.3-1.5 6.3s-1.5-1.9-1.5-10.9c0-8.8-.3-11-1.5-11.5-3.9-1.4-4.5.2-4.5 11.4v10.9l-4.2.3c-3.8.3-4.3.6-4.3 2.8 0 1.7.7 2.6 2.5 3l2.5.6.3 59.7.2 59.7-11.9 5.9c-6.5 3.3-12.1 6.7-12.4 7.5-.7 1.8 2 4.9 3.7 4.3 4.9-2.1 4.6-2.4 4.6 5.8 0 7.6-.1 7.7-2.2 7.1-5.3-1.6-14.8-2.3-20.6-1.5-8 1.1-18.2 5.8-29.9 13.7-10 6.7-10.6 7.3-9.7 9.5 1.1 3.1 3.5 2.5 11.6-3 4.6-3 12.1-7.4 16.8-9.7 8-3.9 9-4.1 17.5-4.1 5 0 10.7.6 12.8 1.3l3.7 1.4v37l-18.3-.8-18.2-.7-11.3 9.3c-6.3 5.1-11.6 9.9-11.9 10.6-.3.8 0 2.1.7 2.9 1.1 1.3 5.8 1.5 30.1 1.5H186v23h-30.9c-27.6 0-31 .2-31.5 1.6-1.8 4.6-14.2 4.4 256.9 4.4 226 0 255.4-.2 255.9-1.5 1.5-4 0-4.5-15-4.5H607v-36.6l5.8-2.4c10.9-4.5 19.5-16 23.9-32.1 2.8-10 2.5-34.8-.5-45.4-8-27.8-25.7-40.8-43.6-32.1-6.9 3.4-11.6 8.8-16.7 19.1-6 12.3-7.3 18.7-7.4 35.5 0 8 .4 16.9.9 19.8l.8 5.4-5.8-.7c-16.8-2.1-35-9.9-65.4-27.9-24.2-14.4-40.1-16.8-59.4-9.1l-6.8 2.7-17.7-8.5-17.6-8.6-.3-14.2c-.2-13.2-.1-14.1 1.5-13.6 1 .2 2.4.6 3.1.8 1.8.5 3.7-2.4 2.9-4.3-.3-.8-8.1-5.9-17.4-11.2-9.2-5.4-25.9-15-37-21.4L330 124.5v-7.7c0-4.3.3-7.7.8-7.7.4.1 2.4.1 4.5 0 3.6-.1 3.8-.3 3.5-2.9-.3-2.4-.8-2.7-4.5-3l-4.2-.3-.3-4.6c-.6-8.6-6.8-8.3-6.8.3v4.4h-4c-2.8 0-4.3.5-4.7 1.6-1.1 2.9 1.1 4.9 5.1 4.6l3.6-.4v15.7l-14.8 8.3c-8.1 4.5-20.5 11.6-27.5 15.7-8.2 4.7-13 7-13.2 6.2-.4-1 0-73.8.4-74.4 0-.1 1.3-.3 2.9-.5 2.1-.2 2.7-.8 2.7-2.8 0-2.2-.5-2.6-4-3l-4-.5-.3-10.5c-.3-10.8-1-12.7-4.4-10.9-1.6.8-1.8 2.4-1.8 11.4 0 8.2-.3 10.5-1.4 10.5-1 0-1.5-2.1-1.8-8.3-.3-6.5-.9-9.2-2.8-12.1-2.4-4-10.1-9.6-13.2-9.6-1.6 0-1.8-.9-1.8-7.5V29h4c2.8 0 4.3-.5 4.7-1.6 1.1-2.9-1.1-4.9-5.1-4.6l-3.6.3v-5c0-3.9-.4-5.3-1.9-6.1-1.5-.7-2.4-.6-3.6.6zm12.7 42.2c3.7 4 3.8 4.3 3.8 11.7V74h-28V58.7l4.5-4.5c4.4-4.4 4.5-4.4 10.2-4 5 .4 6 .9 9.5 4.6zm15.6 65.4.2 39.7-6.6 3.7c-7.2 4-8.5 5.7-6.1 8.2 1.3 1.3 2.1 1.3 4.2.4 2.1-1 2.5-.9 2.5.6-.1 1.2-6.4 4.8-23 12.9l-23 11.2-.2-58.1c-.2-31.9-.1-58.2.1-58.4.3-.2 12-.3 26-.2l25.6.3.3 39.7zm88.7 23.1 23 13.3.3 82.2.2 82.2h-22v-24.8c0-26.6-.7-31.4-5.3-38.3-1.2-1.8-4.4-4.7-7.1-6.4-4.4-2.7-5.8-3-12.6-3s-8.2.3-12.6 3c-6.3 4-10.2 10.3-11.5 18.6-.5 3.5-.9 16.3-.8 28.4v22h-21.6V156.8l23-13.3c12.7-7.4 23.2-13.4 23.5-13.4.3-.1 10.9 5.9 23.5 13.2zm-76.7 97.4-.3 79.8-5.2.3-5.3.3V167l4.7-3c2.6-1.7 5.1-3 5.5-3 .4 0 .7 35.9.6 79.7zm113.7-76 4.5 2.8-.2 76.5-.3 76.5-5.2.3-5.3.3v-79.5c0-50.2.4-79.6 1-79.6.5 0 3 1.2 5.5 2.7zM613 179.9c12.6 7.5 21.8 34.8 19 56.7-1.8 14.5-6 25-12.7 32.5-3.1 3.4-9.8 7.9-11.8 7.9-.3 0-.5-5.9-.5-13.2v-13.2l7.5-7.7c4.1-4.2 7.5-8.4 7.5-9.2 0-.9-.9-2.1-2.1-2.7-1.8-1-2.7-.5-7.1 3.9-2.8 2.8-5.2 5.1-5.4 5.1-.2 0-.5-4.6-.6-10.1-.3-10.7-1.4-13-5.2-11.6-1.4.6-1.6 3-1.6 19.7 0 10.4-.4 19-.9 19-.4 0-2.9-2.3-5.4-5-5-5.5-5.8-5.8-8.1-3.4-2.1 2.1-1.3 3.4 7.3 11.9 6.6 6.4 7.1 7.3 7.1 11.2 0 2.3-.4 4.4-.9 4.7-1.3.9-9.4-4.8-12.9-9-17.5-21.2-13.9-71.6 6.3-87 6.6-5 12.8-5.2 20.5-.5zm-358 6.3v4.3l-23 11.2-23 11.1v-8.5l22.3-11.1c12.2-6.1 22.5-11.1 23-11.1.4-.1.7 1.8.7 4.1zm.9 62c0 27.7-.3 55.4-.6 61.5l-.6 11.3H210v-16.3c-.1-8.9-.1-31.4-.2-50 0-24.1.3-34.2 1.1-35 1.4-1.4 42.2-21.5 43.9-21.6 1-.1 1.2 10.2 1.1 50.1zm-53.3-38.7c1.2 3-.6 6.5-4.2 8.2-2.8 1.4-3.4 2.2-3.2 4.3.3 2.2.7 2.5 4.1 2.3l3.7-.2V321h-10V212l3.8-1.9c4.5-2.4 5.1-2.5 5.8-.6zm214.5 7.6c8.8 4.3 17.5 8.6 19.4 9.4l3.5 1.4-.2 46.3-.3 46.3h-42l-.3-56.3-.2-56.3 2.1.6c1.2.4 9.3 4.3 18 8.6zm55.7 1.5c7 2 15.8 6.4 28.2 14 13.6 8.3 36 18.8 46.5 21.9 5 1.4 12.7 2.9 17.2 3.2 6.7.5 8.4.9 8.8 2.3.3 1 2.3 4.5 4.5 7.8 4.2 6.6 12.3 13.2 18.3 15.2l3.7 1.2-.2 18.1-.3 18.2h-20l-.3-14.7-.3-14.7-11.1-10.5-11.2-10.6H517v-3.8c0-3.4-.7-4.3-7.6-10.5l-7.6-6.8-27.6.1-27.7.1-.3-8.7-.3-8.6 3.4.6c2.5.5 3.8.2 4.8-1 2-2.4.2-4.3-6.9-7.2-3.4-1.4-6.2-2.8-6.2-3.2 0-.4 2.1-1.4 4.8-2.2 6.3-2.2 19.9-2.2 27-.2zM331.1 255c6.5 1.8 15.6 14.3 12.3 16.8-.5.4-8.6.5-18 .2l-17.1-.5 1.3-4.5c1.6-5.4 5.6-9.6 11-11.5 4.8-1.7 5.9-1.8 10.5-.5zm146.8 5.6c8.5 9.3 8.3 9.5-13.1 9.2l-18.3-.3-.3-6.4c-.2-4.5.1-6.7 1-7.2.7-.5 6.8-.9 13.4-.9h12.2l5.1 5.6zm25-2.2 2.6 2.6h-9.1c-8.3 0-9.2-.2-11.3-2.4-2.7-2.9-2.1-3.1 7.5-2.9 6.8.1 8 .4 10.3 2.7zm4 9.6c3.3 0 4.2.3 3.1 1-1.9 1.2-19.7 1.3-20.4.1-1.1-1.7 1.1-2.3 6.8-1.7 3.2.3 8 .6 10.5.6zm-50.9 8.9c0 1-8.2 8.1-9.4 8.1-.8 0-.8-7.5.1-8.3 1-1.1 9.3-.8 9.3.2zm65 6.1 7.5 6.9-19.1.1h-19.1l-5.9-5.1c-11.5-9.9-12.6-8.9 9.6-8.9l19.5.1 7.5 6.9zm39.1-.9c3.8 3.4 6.9 6.6 6.9 7 0 .5-6.4.9-14.3.9h-14.3l-7.5-7-7.4-6.9 14.8-.1h14.9l6.9 6.1zm-83.3 4.7 9.3 8.5-.3 12.6-.3 12.6-5.2.3-5.3.3v-8.8c0-4.8-.4-9.4-.9-10.1-.5-.9-3.1-1.2-9.2-1l-8.4.3-.3 9.8-.3 9.8-4.7-.3-4.7-.3-.3-13.1-.3-13 9.8-8.6c5.4-4.7 10.3-8.3 10.8-8 .6.3 5.2 4.4 10.3 9zm-154 12.9-.3 20.8h-14l-.3-20.8-.2-20.7h15l-.2 20.7zm21.2.3v21.1l-7.2-.3-7.3-.3-.3-20.8-.2-20.7h15v21zm-158-13.5v5.5h-23.6c-15.2 0-23.4-.4-23.2-1 .2-.5 2.8-3 5.8-5.5l5.5-4.5H186v5.5zM515.1 297H534v22.7l-4.7.4c-2.7.3-12 .4-20.8.4h-16l-.3-10.9c-.3-12.1.1-14.1 2.4-13.2.9.3 10.1.6 20.5.6zm57.4 11.5v12l-15.6.3-15.7.2-.4-11.2c-.2-6.2-.2-11.9 0-12.6.3-1 4.1-1.2 16.1-1l15.6.3v12zM468 313.8c0 6.5-.1 6.9-2.2 6.7-2.1-.1-2.3-.7-2.6-6.8-.3-6.6-.2-6.7 2.3-6.7 2.4 0 2.5.2 2.5 6.8z"/><path d="M229 89.7c-3.5 1.3-7.2 4.7-9 8.4-1.9 3.6-2 5.6-1.8 23.2l.3 19.2h33l.3-19.1c.2-18.3.2-19.2-2.1-23.5-3-5.6-8.5-8.9-14.7-8.8-2.5 0-5.2.3-6 .6zm12.8 8.6c3.2 3 4.4 8 4 17.7-.3 8.3-.3 8.4-1.4 4.5-.7-2.2-1.5-5.2-1.8-6.7-.3-1.5-1.5-2.9-2.5-3.3-1.4-.4-2.1-1.7-2.3-4.3-.3-3.2-.6-3.7-2.8-3.7-2 0-2.6.6-2.8 3-.2 1.6-1.5 3.9-2.8 5.2-1.4 1.3-2.4 3.4-2.4 5-.1 1.5-.7 4.1-1.5 5.8-1.2 2.8-1.3 2.3-1.4-6.8-.1-7.9.3-10.5 1.9-13.7 3.1-6.2 10.7-7.5 15.8-2.7zm-3.8 19.4c0 1 .3 2.8.6 4 .6 2.1.3 2.3-3.5 2.3-4.4 0-4.4-.1-3.5-4.9.6-2.6 1.1-3.1 3.5-3.1 2.1 0 2.9.5 2.9 1.7zm8 14.3c0 1.9-.7 2-11 2s-11-.1-11-2 .7-2 11-2 11 .1 11 2zm44.2 65c-1.8 1.1-3.7 3.2-4.2 4.6-.6 1.5-.9 10.1-.8 19.8l.3 17.1h22l.3-16.8c.2-14 0-17.4-1.4-20.3-3-6.2-10-8.1-16.2-4.4zm9.6 6.2c.8.8 1.2 5.7 1.2 15.5V233h-10v-13.3c0-10.4.3-13.7 1.6-15.5 1.7-2.4 5.3-2.9 7.2-1zm20.5-6.2c-1.7 1-3.7 2.8-4.2 3.9-.7 1.2-1.1 9.2-1.1 20V239h10.9c9 0 11-.3 11.5-1.6.3-.9.6-8.5.6-17.1 0-17.2-.9-20.6-5.9-23.6-3.8-2.2-7.9-2.1-11.8.3zm9.5 6.2c.8.8 1.2 5.7 1.2 15.5V233h-10v-13.6c0-7.4.5-14.4 1-15.5 1.2-2.2 5.9-2.6 7.8-.7zm21.3-6.9c-1.3.6-3.3 2.4-4.5 4-1.8 2.4-2.1 4.4-2.3 18.5-.2 8.6-.1 16.7.2 18 .5 2.2.8 2.3 11.8 2l11.2-.3.3-16.5c.3-18-.2-20.5-5-24.5-3.3-2.8-7.8-3.2-11.7-1.2zm8.7 6.9c.8.8 1.2 5.7 1.2 15.5V233h-10v-13.6c0-7.4.5-14.4 1-15.5 1.2-2.2 5.9-2.6 7.8-.7zm-133 38.3c-2 2-2.6 3.9-3.2 9.6-.3 3.9-.3 9.3 0 12l.7 4.9h8.7c7.1 0 8.9-.3 9.4-1.6 1.3-3.3.6-19.5-.9-22.4-2.9-5.6-10.3-6.9-14.7-2.5zm9.2 12.6v6.9h-6v-7c0-5.5.3-7.1 1.7-7.9 3.1-1.7 4.3.6 4.3 8zm173.9-9.3-3.1 2.8.1 10.9c0 6 .5 11.3.9 11.7.5.5 4.7.8 9.3.6l8.4-.3v-22.7l-3.3-2.9c-4.2-3.8-8.2-3.8-12.3-.1zm8.9 12.4.3 7.8H413v-7.3c0-8 .4-8.9 3.5-8.5 1.8.3 2 1.1 2.3 8zm243.5 120c-.6.7-2 3.2-3.2 5.5L657 387h3.8c3.2 0 4.5-.7 8.1-4.4 2.4-2.4 3.9-4.6 3.4-4.9-2.3-1.4-9-1.7-10-.5zM18.7 391.4C12.2 393.8 9 398 9 404.5c0 7.5 4.4 11.9 15.4 15 5.9 1.7 9.6 4.4 9.6 6.9 0 1.8-2.4 4.3-5 5.1-2.6.8-9.2-1-12.3-3.5-3.2-2.6-3.7-2.5-6.6 1.2-3 3.8-2.2 5.3 4.5 8.8 3.9 2 6.3 2.5 11.9 2.5 9.1-.1 13.1-2.2 16.4-8.8 4.6-9.2.2-16.8-12-20.7-11.2-3.6-14.6-8-8.5-10.8 2.9-1.3 8.9-.1 12.6 2.6l2.7 2 2.8-3.6 2.9-3.5-3.3-2.8c-5.5-4.6-14.3-6-21.4-3.5zm637-.3c-11.4 1.8-19.1 11.6-19.1 24.4 0 5.9.4 7.9 2.9 12.3 5.4 10 15.7 14.6 27.2 12.3 12.3-2.4 19.3-11.4 19.3-24.6 0-7.4-1.6-11.7-6-16.8-5.8-6.6-14.2-9.2-24.3-7.6zm13.1 10.9c3.7 2.3 7.2 8.8 7.2 13.5 0 4.7-3.5 11.2-7.2 13.5-4.6 2.9-12.7 2.3-16.4-1.1-3.8-3.5-5.4-7.2-5.4-12.4 0-6.5 3.9-12.9 9-14.8 3.4-1.2 9.6-.6 12.8 1.3zM67 393.2c-2 4.8-18 45.9-18 46.3 0 .3 2.4.5 5.4.5h5.4l1.7-5 1.7-5h19.4l1.5 4.7 1.5 4.8 5.8.3c4.5.2 5.7 0 5.3-1-.2-.7-4.6-11.8-9.7-24.6L77.8 391h-4.9c-4.2 0-5.1.4-5.9 2.2zm8.8 18.3c1.1 3.3 2.3 6.8 2.7 7.7.6 1.6 0 1.8-5.5 1.8-4.4 0-6.1-.3-5.8-1.3 1.7-6.2 5.3-15.6 5.9-15 .3.5 1.5 3.5 2.7 6.8zm28.7-19.3c-.3.7-.4 11.7-.3 24.3l.3 23 4.7.3 4.7.3.3-15.8.3-15.8 10.9 15.8 11 15.8 4.5-.3 4.6-.3.3-5c.2-2.8.1-13.7-.3-24.3l-.7-19.3-4.7.3-4.6.3.3 14.7c.1 8.2-.1 14.8-.5 14.8-.5-.1-5.3-6.7-10.8-14.8l-10-14.7-4.8-.3c-3.2-.2-4.9.1-5.2 1zm48.7 3.5.3 4.8 6.8.3 6.7.3.1 6.2c.1 3.4.2 12 .3 19.2l.1 13 5.3.3 5.2.3v-19.5c0-15 .3-19.6 1.3-19.7.6-.1 3.8 0 7 .1l5.7.2V391h-39.1l.3 4.7zm57.4-3.9c-.2.4-3.6 9.1-7.6 19.2-3.9 10.2-8 20.6-9.1 23.2-1 2.6-1.9 4.9-1.9 5.2 0 .3 2.4.6 5.3.6h5.3l1.8-5 1.8-5.1 9.5.3 9.5.3 1.7 4.5 1.6 4.5 5.9.3c3.2.2 5.6-.1 5.5-.5-.2-.4-4.6-11.5-9.8-24.6l-9.4-23.7h-4.8c-2.6 0-5 .3-5.3.8zm8.4 21 3 8.2h-6c-3.3 0-6-.3-6-.7 0-1.6 5.2-16.4 5.6-16 .2.2 1.8 4.1 3.4 8.5zm47 2.7V440h10v-49h-10v24.5zm22.4-23.2c-.2.7-.3 11.6-.2 24.2l.3 23h10l.3-8.3.3-8.2h3.4c3.2 0 3.6.5 8.2 8.5l4.8 8.4 5.8.1c3.1 0 5.7-.2 5.7-.5 0-.2-2.3-4.3-5-9l-5.1-8.5 4-3.8c3-2.9 4.1-4.7 4.6-8.4 1.3-8.3-3.1-15.7-10.6-17.8-5.2-1.5-25.9-1.3-26.5.3zM313 402c1.1 1.1 2 3.3 2 5 0 4.9-3 7-10 7h-6v-14h6c4.7 0 6.4.4 8 2zm23 13.4V440h10l-.2-24.3-.3-24.2-4.7-.3-4.8-.3v24.5zm35.5-21.2c-2.5 5.6-17.5 44.1-17.5 45 0 .4 2.3.8 5 .8 4.7 0 5.1-.2 6.4-3.3.8-1.7 1.7-4 2-5 .5-1.6 1.7-1.7 10.3-1.5l9.7.3 1.7 4.5c1.6 4.5 1.7 4.5 6.8 4.8 3.6.2 5.1-.1 5.1-.9 0-.7-4.2-11.8-9.2-24.6l-9.3-23.3h-4.8c-4.4 0-4.8.2-6.2 3.2zm9.4 18.6 3 8.2h-6.5c-5.9 0-6.5-.2-5.9-1.8.4-.9 1.8-4.8 3.2-8.5 1.4-3.7 2.7-6.6 2.9-6.5.1.2 1.6 4.1 3.3 8.6zm47.1-21.2c-.1.5-.1 11.5-.1 24.4v23.5l10.7.3c13.5.3 19.6-1.3 25.2-6.8 9.3-8.9 9.3-25.7.1-34.9-5.2-5.2-9.3-6.5-23.1-6.9-7.1-.2-12.8 0-12.8.4zm25.8 11.1c8.4 5.2 8.2 20.3-.3 25.9-1.4.9-5.4 1.9-9 2.2l-6.5.5v-30.2l3.3-.3c4.7-.5 9.9.2 12.5 1.9zm26.7-10.5c-.3.8-.4 11.7-.3 24.3l.3 23 17.3.3 17.2.2v-9h-11.9c-6.6 0-12.2-.3-12.4-.8-.2-.4-.2-2.8.1-5.4l.4-4.7 10.1-.3 10.2-.3.3-4.2.3-4.2-10.8-.3-10.8-.3-.3-2.9c-.2-1.5-.1-3.8.2-5.1.5-2 1.1-2.2 7.8-2 4 .1 9.3-.1 11.8-.4 4.5-.6 4.5-.6 4.5-4.6v-4l-16.8-.3c-13-.2-16.9 0-17.2 1zm76 2.4c-.8 2-1.5 3.8-1.5 4 0 .3-12.6 32.5-15.7 40.1-.4 1 1 1.3 5 1.3 5.8 0 6.1-.2 8.2-7.8.6-2.1 1.1-2.2 10.3-2.2h9.7l1.8 5 1.8 5h5.5c4.1 0 5.5-.3 5.1-1.3-.2-.6-3.5-8.9-7.1-18.2-3.7-9.4-7.8-19.7-9-23l-2.4-6-5.1-.3c-5-.3-5.1-.2-6.6 3.4zm9.9 17.8c1.4 4.1 2.6 7.7 2.6 8 0 .3-2.7.6-6 .6s-6-.3-6-.8c0-1.6 5.3-15.2 6-15.2.4 0 1.9 3.3 3.4 7.4zm26.3-20.7c-.4.3-.7 2.4-.7 4.5v3.8h11.5c6.3 0 11.5.3 11.5.7 0 .3-5.4 7.8-12.1 16.6-10.2 13.6-12 16.4-11.7 19.1l.3 3.1 19.3.3 19.2.2v-9h-12c-6.6 0-12-.3-12-.7 0-.4 5.2-7.5 11.5-15.8 10.4-13.7 11.5-15.5 11.5-19.3V391h-17.8c-9.8 0-18.2.3-18.5.7zM696 415.5V440h10v-49h-10v24.5zm36.3-22.8c-.3 1-4.6 11.8-9.5 24.1-4.8 12.3-8.8 22.5-8.8 22.7 0 .3 2.4.5 5.4.5 5.7 0 6-.3 8.1-7.8.6-2.1 1.1-2.2 10.5-2.2h9.8l1.7 5 1.7 5h5.4c3 0 5.4-.2 5.4-.6 0-.3-4.3-11.2-9.5-24.2l-9.5-23.7-5-.3c-4.1-.2-5.1 0-5.7 1.5zm9.1 19.8c1.4 3.6 2.6 7 2.6 7.5 0 .6-2.7 1-6 1s-6-.3-6-.7c0-1.8 5.5-15.1 6.1-14.7.4.2 1.9 3.3 3.3 6.9z"/></svg>