<?xml version="1.0" standalone="no"?>
<!DOCTYPE svg PUBLIC "-//W3C//DTD SVG 20010904//EN"
 "http://www.w3.org/TR/2001/REC-SVG-20010904/DTD/svg10.dtd">
<svg version="1.0" xmlns="http://www.w3.org/2000/svg"
 width="512.000000pt" height="512.000000pt" viewBox="0 0 512.000000 512.000000"
 preserveAspectRatio="xMidYMid meet">

<g transform="translate(0.000000,512.000000) scale(0.100000,-0.100000)"
fill="white" stroke="none">
<path d="M2392 5081 c-9 -5 -16 -38 -19 -90 l-6 -81 -48 0 c-63 0 -79 -7 -79
-36 0 -21 4 -23 63 -26 l62 -3 3 -87 3 -87 -48 -21 c-63 -28 -91 -54 -119
-115 -17 -35 -24 -68 -24 -110 l0 -60 -76 -39 c-179 -92 -319 -315 -325 -519
-2 -55 -3 -57 -29 -57 -14 0 -31 -5 -38 -12 -9 -9 -12 -107 -12 -379 0 -403 4
-379 -61 -379 l-29 0 -2 313 -3 312 -41 3 c-41 3 -41 3 -58 63 -21 76 -55 128
-111 168 l-45 32 0 63 c0 67 -14 92 -44 80 -12 -5 -16 -20 -16 -69 0 -60 -15
-95 -39 -95 -15 0 -82 -72 -101 -109 -10 -21 -24 -59 -31 -84 -11 -46 -11 -46
-58 -49 l-46 -3 -3 -312 -2 -312 -28 -3 -27 -3 -3 -902 -2 -903 -83 0 c-51 0
-88 -5 -95 -12 -16 -16 -15 -45 1 -49 6 -2 851 -2 1877 1 l1865 5 0 25 c0 25
-1 25 -97 28 l-98 3 0 265 c0 203 3 265 13 268 109 32 177 84 225 174 41 76
62 167 62 267 0 176 -63 303 -191 386 -42 27 -63 33 -125 37 -68 4 -79 2 -138
-27 -206 -101 -285 -389 -173 -624 52 -110 120 -170 240 -210 16 -6 17 -28 17
-272 l0 -265 -201 2 -202 3 0 873 c0 480 -2 885 -5 898 -3 15 -15 29 -28 34
l-24 10 0 310 0 310 -48 0 -48 0 -13 53 c-25 100 -68 160 -146 203 -16 9 -21
25 -25 80 -5 66 -6 69 -30 66 -33 -3 -40 -17 -40 -84 0 -53 -3 -59 -32 -80
-47 -35 -107 -132 -114 -189 l-6 -48 -47 -3 -46 -3 -3 -312 -2 -313 -45 0 -45
0 0 379 c0 413 3 391 -56 391 -23 0 -24 3 -24 61 0 211 -145 440 -335 529
l-62 29 -5 68 c-3 41 -13 84 -26 110 -25 48 -85 102 -124 110 -28 5 -28 6 -28
89 0 88 9 104 58 104 25 0 44 23 36 44 -4 11 -19 16 -49 16 l-42 0 -9 87 c-9
86 -16 101 -42 84z m70 -507 c45 -23 65 -52 77 -107 21 -94 32 -88 -141 -85
l-153 3 3 45 c3 54 42 124 80 144 36 20 96 20 134 0z m138 -279 c143 -44 280
-188 325 -342 l6 -23 -515 0 c-283 0 -521 -3 -530 -6 -25 -9 -20 19 15 89 77
156 217 271 360 296 77 14 273 6 339 -14z m350 -461 c6 -14 10 -39 10 -55 l0
-29 -560 0 -560 0 0 29 c0 16 4 41 10 55 l9 26 541 0 541 0 9 -26z m-1597 -59
c29 -12 42 -27 66 -79 17 -35 31 -69 31 -75 0 -7 -44 -11 -140 -11 l-140 0 20
53 c21 53 87 127 113 127 8 0 31 -7 50 -15z m2191 -6 c30 -24 76 -108 76 -139
0 -19 -6 -20 -140 -20 l-140 0 10 25 c53 139 125 189 194 134z m-504 -409 c0
-274 -2 -310 -16 -310 -8 0 -79 39 -157 87 -122 74 -215 130 -339 202 -27 15
-28 20 -28 94 0 110 -5 117 -89 117 -91 0 -99 -10 -103 -120 l-3 -84 -140 -81
c-77 -45 -198 -116 -269 -158 -72 -42 -130 -76 -130 -74 -1 1 0 145 2 320 l3
317 634 0 635 0 0 -310z m680 -100 l0 -280 -232 2 -233 3 1 40 c1 22 2 147 3
278 l1 237 230 0 230 0 0 -280z m-2174 218 c-3 -29 -6 -153 -6 -275 l0 -223
-230 0 -230 0 0 275 0 275 236 0 236 0 -6 -52z m882 -29 c3 -27 -20 -55 -38
-44 -5 3 -10 22 -10 41 0 31 3 35 23 32 15 -2 23 -11 25 -29z m109 -197 c65
-37 154 -91 198 -118 122 -77 284 -174 343 -207 l52 -29 0 -864 c0 -857 0
-864 -20 -864 -25 0 -22 -67 -24 665 l-2 600 -27 80 c-46 135 -121 242 -233
331 -134 105 -263 149 -429 147 -192 -3 -360 -76 -489 -214 -80 -85 -112 -138
-153 -254 l-28 -80 -5 -635 -5 -635 -22 -3 -23 -3 0 869 0 870 28 5 c15 3 70
32 122 65 305 188 567 339 592 341 3 1 59 -30 125 -67z m65 -360 c82 -29 143
-68 215 -135 82 -77 136 -160 170 -260 l28 -82 3 -622 3 -623 -45 0 -45 0 -3
176 -3 176 -37 34 c-32 29 -45 34 -85 34 -54 -1 -72 -11 -102 -60 -19 -32 -21
-50 -21 -197 l0 -163 -50 0 -50 0 -2 133 c0 72 -2 137 -3 142 -2 6 -3 23 -4
39 -1 19 -15 42 -44 71 -34 34 -52 45 -91 50 -80 12 -163 -24 -189 -84 -6 -14
-14 -98 -17 -186 l-5 -160 -52 -3 -53 -3 0 161 c0 180 -10 219 -61 245 -57 30
-136 12 -170 -39 -10 -15 -15 -68 -19 -191 l-5 -170 -40 0 -40 0 -3 570 c-2
397 0 593 9 645 37 241 185 421 414 502 76 28 87 29 210 25 97 -4 145 -10 187
-25z m-1002 -852 l0 -870 -75 0 -75 0 0 150 c0 163 -8 197 -53 238 -33 31 -94
39 -135 18 -60 -31 -66 -53 -72 -236 l-5 -165 -82 -3 -83 -3 0 871 0 870 290
0 290 0 0 -870z m2178 3 l-3 -868 -77 -3 -76 -3 -4 170 c-3 165 -4 170 -28
196 -65 70 -144 72 -205 5 -18 -20 -21 -40 -25 -194 l-5 -171 -77 -3 -78 -3 0
871 0 870 290 0 290 0 -2 -867z m617 422 c112 -65 161 -177 153 -351 -4 -94
-8 -110 -42 -178 -39 -80 -93 -134 -153 -154 l-33 -11 0 36 c0 32 8 44 60 94
44 41 60 64 60 83 0 45 -27 43 -76 -5 -51 -50 -46 -58 -49 89 -2 91 -11 110
-44 93 -20 -11 -21 -19 -21 -196 0 -213 1 -211 -86 -152 -98 65 -149 181 -148
337 0 114 23 184 85 254 85 97 195 119 294 61z m-1945 -938 c48 -24 60 -68 60
-219 l0 -138 -104 0 c-91 0 -105 2 -110 18 -3 9 -4 80 -2 157 l4 140 31 27
c34 31 79 36 121 15z m-415 -31 c12 -18 16 -57 18 -172 l2 -149 -60 0 -60 0
-3 146 c-2 135 -1 148 18 172 27 34 64 35 85 3z m809 8 c24 -24 27 -47 24
-194 l-3 -135 -56 -3 -57 -3 -5 43 c-3 24 -4 94 -2 156 2 91 6 117 20 132 22
24 58 26 79 4z m-1480 -16 c11 -17 15 -61 17 -168 l2 -145 -64 0 -64 0 1 40
c1 22 2 90 3 152 1 124 10 143 61 143 20 0 35 -8 44 -22z m2165 -4 c19 -24 21
-40 21 -170 l0 -144 -65 0 -65 0 0 148 c0 117 3 152 16 170 22 31 67 29 93 -4z"/>
<path d="M1880 3520 c-6 -12 -9 -80 -8 -177 l3 -158 30 0 30 0 3 164 c3 164
-2 191 -34 191 -7 0 -18 -9 -24 -20z"/>
<path d="M2887 3529 c-15 -9 -17 -29 -17 -179 l0 -170 30 0 30 0 0 169 c0 177
-6 200 -43 180z"/>
<path d="M3434 3380 c-12 -4 -31 -21 -43 -36 -20 -25 -21 -37 -19 -163 l3
-136 25 0 c25 0 25 1 27 100 3 116 7 138 29 159 21 21 40 20 64 -4 17 -17 20
-33 20 -127 0 -115 6 -137 36 -131 27 5 35 71 25 192 -8 95 -10 101 -40 128
-33 29 -82 36 -127 18z"/>
<path d="M1244 3362 c-38 -30 -44 -56 -44 -192 0 -107 3 -132 15 -136 34 -14
45 15 45 117 0 107 9 142 39 158 15 8 24 6 42 -8 22 -18 24 -28 27 -135 4
-122 15 -152 47 -126 12 10 15 38 15 132 0 127 -10 163 -52 192 -30 21 -107
20 -134 -2z"/>
<path d="M2270 2796 c-178 -39 -338 -212 -371 -402 -15 -85 -6 -201 21 -278
53 -154 188 -280 345 -321 68 -17 189 -19 255 -4 188 43 347 215 381 413 65
376 -254 675 -631 592z m314 -95 c310 -152 351 -551 79 -766 -84 -66 -167 -89
-291 -82 -83 5 -105 10 -168 41 -168 83 -272 279 -243 457 20 124 74 220 161
290 104 82 160 100 295 96 91 -3 109 -7 167 -36z"/>
<path d="M2382 2648 c-7 -7 -12 -42 -12 -87 0 -109 -9 -114 -59 -37 -24 36
-49 70 -56 76 -16 14 -55 4 -55 -13 0 -7 23 -48 51 -91 37 -58 47 -81 38 -87
-7 -4 -18 -5 -24 -1 -5 3 -36 23 -67 44 -58 39 -82 46 -93 28 -14 -23 9 -50
75 -90 96 -58 92 -69 -22 -72 -93 -3 -93 -3 -96 -30 -3 -23 1 -28 30 -32 18
-4 58 -7 88 -9 73 -3 72 -21 -3 -61 -58 -31 -81 -66 -59 -88 13 -13 37 -5 100
36 45 30 82 38 82 18 0 -3 -21 -35 -46 -72 -40 -59 -44 -70 -34 -89 6 -12 17
-21 23 -18 7 2 34 32 60 68 27 35 52 65 57 67 5 2 11 -39 12 -90 3 -87 4 -93
25 -96 27 -4 32 12 35 118 4 93 17 97 61 16 41 -73 60 -87 84 -63 17 17 17 20
-6 60 -14 23 -32 54 -40 69 -13 22 -13 30 -3 40 10 10 16 10 30 1 71 -50 126
-75 141 -66 37 23 24 47 -50 88 -40 22 -71 45 -71 50 1 6 38 13 83 17 85 7
105 18 88 50 -8 15 -23 18 -89 18 -110 0 -114 12 -19 73 66 41 73 50 65 83 -9
34 -28 30 -93 -20 -70 -52 -98 -63 -107 -40 -4 10 5 29 24 50 30 34 70 105 70
123 0 5 -7 12 -17 15 -20 8 -62 -31 -104 -96 -17 -26 -35 -45 -40 -42 -5 3 -9
41 -9 84 0 43 -3 85 -6 94 -7 19 -25 21 -42 4z m69 -268 c22 -13 49 -61 49
-90 0 -35 -27 -76 -59 -90 -98 -40 -177 85 -102 161 31 31 75 38 112 19z"/>
<path d="M2374 2314 c-16 -24 -16 -26 5 -47 17 -17 25 -19 39 -11 21 14 28 50
12 70 -18 21 -37 17 -56 -12z"/>
<path d="M1260 2603 c-19 -10 -45 -33 -57 -52 -23 -33 -23 -38 -23 -346 0
-273 2 -314 16 -326 11 -9 20 -10 32 -2 15 9 18 45 22 322 l5 313 24 19 c30
25 44 24 78 -5 l28 -24 0 -306 c0 -321 4 -344 43 -320 15 10 17 41 20 323 3
338 -1 363 -52 396 -39 26 -95 29 -136 8z"/>
<path d="M3420 2602 c-68 -36 -70 -49 -70 -404 0 -202 4 -319 10 -323 6 -3 19
-3 30 0 19 6 20 16 20 311 l0 306 29 28 c32 32 58 31 88 -2 16 -18 18 -49 23
-324 5 -318 9 -342 48 -318 15 10 17 40 20 314 2 287 1 305 -18 344 -38 76
-113 105 -180 68z"/>
<path d="M1324 588 c4 -18 44 -136 89 -263 l82 -230 61 -3 c52 -2 63 0 69 15
26 66 175 493 175 502 0 7 -21 11 -53 11 -64 0 -56 14 -127 -211 -28 -90 -53
-165 -55 -167 -6 -6 -13 13 -76 201 -29 83 -56 158 -62 165 -5 7 -31 12 -59
12 l-50 0 6 -32z"/>
<path d="M1922 613 l-22 -4 2 -257 3 -257 53 -3 52 -3 -2 263 -3 263 -30 1
c-16 1 -40 0 -53 -3z"/>
<path d="M2272 518 c-89 -228 -162 -417 -162 -423 0 -3 26 -5 57 -3 l58 3 19
53 19 53 105 -3 104 -3 20 -52 19 -53 58 0 58 0 -64 168 c-35 92 -81 210 -101
262 l-38 95 -56 3 -55 3 -41 -103z m129 -128 c16 -41 29 -78 29 -82 0 -5 -29
-8 -65 -8 -36 0 -65 3 -65 7 0 20 56 163 63 160 5 -1 22 -36 38 -77z"/>
<path d="M2727 613 c-4 -3 -7 -123 -7 -265 l0 -258 50 0 50 0 0 166 c0 116 3
165 11 162 6 -2 57 -76 114 -163 l103 -160 56 -3 56 -3 -2 263 -3 263 -50 0
-50 0 -5 -164 -5 -164 -94 144 c-121 185 -124 189 -176 189 -23 0 -45 -3 -48
-7z"/>
<path d="M3407 523 c-19 -54 -63 -170 -96 -258 -34 -87 -61 -163 -61 -168 0
-4 24 -7 52 -5 52 3 53 4 68 45 9 24 20 47 26 53 7 7 50 10 110 8 l98 -3 21
-52 20 -53 57 0 58 0 -27 73 c-15 39 -61 158 -102 262 l-76 190 -56 3 -56 3
-36 -98z m128 -126 c16 -45 31 -85 33 -89 2 -5 -26 -8 -62 -8 -36 0 -66 3 -66
8 -1 13 55 172 60 172 3 0 18 -37 35 -83z"/>
</g>
</svg>
