<svg xmlns="http://www.w3.org/2000/svg" width="682.667" height="682.667" version="1.0"
  viewBox="200 0 100 530">
  <g fill="#fff">
    <path
      d="M239.2 3.9c-.9.5-1.6 3.8-1.9 9l-.6 8.1h-4.8c-6.3 0-7.9.7-7.9 3.6 0 2.1.4 2.3 6.3 2.6l6.2.3.3 8.7.3 8.7-4.8 2.1c-6.3 2.8-9.1 5.4-11.9 11.5-1.7 3.5-2.4 6.8-2.4 11v6l-7.6 3.9c-17.9 9.2-31.9 31.5-32.5 51.9-.2 5.5-.3 5.7-2.9 5.7-1.4 0-3.1.5-3.8 1.2-.9.9-1.2 10.7-1.2 37.9 0 40.3.4 37.9-6.1 37.9H161l-.2-31.3-.3-31.2-4.1-.3c-4.1-.3-4.1-.3-5.8-6.3-2.1-7.6-5.5-12.8-11.1-16.8l-4.5-3.2v-6.3c0-6.7-1.4-9.2-4.4-8-1.2.5-1.6 2-1.6 6.9 0 6-1.5 9.5-3.9 9.5-1.5 0-8.2 7.2-10.1 10.9-1 2.1-2.4 5.9-3.1 8.4-1.1 4.6-1.1 4.6-5.8 4.9l-4.6.3-.3 31.2-.2 31.2-2.8.3-2.7.3-.3 90.2L95 395h-8.3c-5.1 0-8.8.5-9.5 1.2-1.6 1.6-1.5 4.5.1 4.9.6.2 85.1.2 187.7-.1l186.5-.5V398c0-2.5-.1-2.5-9.7-2.8l-9.8-.3v-26.5c0-20.3.3-26.5 1.3-26.8 10.9-3.2 17.7-8.4 22.5-17.4 4.1-7.6 6.2-16.7 6.2-26.7 0-17.6-6.3-30.3-19.1-38.6-4.2-2.7-6.3-3.3-12.5-3.7-6.8-.4-7.9-.2-13.8 2.7-20.6 10.1-28.5 38.9-17.3 62.4 5.2 11 12 17 24 21 1.6.6 1.7 2.8 1.7 27.2V395l-20.1-.2-20.2-.3v-87.3c0-48-.2-88.5-.5-89.8-.3-1.5-1.5-2.9-2.8-3.4l-2.4-1v-62h-9.6l-1.3-5.3c-2.5-10-6.8-16-14.6-20.3-1.6-.9-2.1-2.5-2.5-8-.5-6.6-.6-6.9-3-6.6-3.3.3-4 1.7-4 8.4 0 5.3-.3 5.9-3.2 8-4.7 3.5-10.7 13.2-11.4 18.9l-.6 4.8-4.7.3-4.6.3-.3 31.2-.2 31.3h-9v-37.9c0-41.3.3-39.1-5.6-39.1-2.3 0-2.4-.3-2.4-6.1 0-21.1-14.5-44-33.5-52.9l-6.2-2.9-.5-6.8c-.3-4.1-1.3-8.4-2.6-11-2.5-4.8-8.5-10.2-12.4-11-2.8-.5-2.8-.6-2.8-8.9 0-8.8.9-10.4 5.8-10.4 2.5 0 4.4-2.3 3.6-4.4-.4-1.1-1.9-1.6-4.9-1.6h-4.2l-.9-8.7c-.9-8.6-1.6-10.1-4.2-8.4m7 50.7c4.5 2.3 6.5 5.2 7.7 10.7 2.1 9.4 3.2 8.8-14.1 8.5l-15.3-.3.3-4.5c.3-5.4 4.2-12.4 8-14.4 3.6-2 9.6-2 13.4 0M260 82.5c14.3 4.4 28 18.8 32.5 34.2l.6 2.3h-51.5c-28.3 0-52.1.3-53 .6-2.5.9-2-1.9 1.5-8.9 7.7-15.6 21.7-27.1 36-29.6 7.7-1.4 27.3-.6 33.9 1.4m35 46.1c.6 1.4 1 3.9 1 5.5v2.9H184v-2.9c0-1.6.4-4.1 1-5.5l.9-2.6h108.2zm-159.7 5.9c2.9 1.2 4.2 2.7 6.6 7.9 1.7 3.5 3.1 6.9 3.1 7.5 0 .7-4.4 1.1-14 1.1h-14l2-5.3c2.1-5.3 8.7-12.7 11.3-12.7.8 0 3.1.7 5 1.5m219.1.6c3 2.4 7.6 10.8 7.6 13.9 0 1.9-.6 2-14 2h-14l1-2.5c5.3-13.9 12.5-18.9 19.4-13.4M304 176c0 27.4-.2 31-1.6 31-.8 0-7.9-3.9-15.7-8.7-12.2-7.4-21.5-13-33.9-20.2-2.7-1.5-2.8-2-2.8-9.4 0-11-.5-11.7-8.9-11.7-9.1 0-9.9 1-10.3 12l-.3 8.4-14 8.1c-7.7 4.5-19.8 11.6-26.9 15.8-7.2 4.2-13 7.6-13 7.4-.1-.1 0-14.5.2-32l.3-31.7H304zm68 10v28l-23.2-.2-23.3-.3.1-4c.1-2.2.2-14.7.3-27.8l.1-23.7h46zm-217.4-21.8c-.3 2.9-.6 15.3-.6 27.5V214h-46v-55h47.2zm88.2 2.9c.3 2.7-2 5.5-3.8 4.4-.5-.3-1-2.2-1-4.1 0-3.1.3-3.5 2.3-3.2 1.5.2 2.3 1.1 2.5 2.9m10.9 19.7c6.5 3.7 15.4 9.1 19.8 11.8 12.2 7.7 28.4 17.4 34.3 20.7l5.2 2.9v86.4c0 85.7 0 86.4-2 86.4-2.5 0-2.2 6.7-2.4-66.5l-.2-60-2.7-8c-4.6-13.5-12.1-24.2-23.3-33.1-13.4-10.5-26.3-14.9-42.9-14.7-19.2.3-36 7.6-48.9 21.4-8 8.5-11.2 13.8-15.3 25.4l-2.8 8-.5 63.5-.5 63.5-2.2.3-2.3.3V221.2l2.8-.5c1.5-.3 7-3.2 12.2-6.5 30.5-18.8 56.7-33.9 59.2-34.1.3-.1 5.9 3 12.5 6.7m6.5 36c8.2 2.9 14.3 6.8 21.5 13.5 8.2 7.7 13.6 16 17 26l2.8 8.2.3 62.2.3 62.3h-9l-.3-17.6-.3-17.6-3.7-3.4c-3.2-2.9-4.5-3.4-8.5-3.4-5.4.1-7.2 1.1-10.2 6-1.9 3.2-2.1 5-2.1 19.7V395h-10l-.2-13.3c0-7.2-.2-13.7-.3-14.2-.2-.6-.3-2.3-.4-3.9-.1-1.9-1.5-4.2-4.4-7.1-3.4-3.4-5.2-4.5-9.1-5-8-1.2-16.3 2.4-18.9 8.4-.6 1.4-1.4 9.8-1.7 18.6l-.5 16-5.2.3-5.3.3V379c0-18-1-21.9-6.1-24.5-5.7-3-13.6-1.2-17 3.9-1 1.5-1.5 6.8-1.9 19.1l-.5 17h-8l-.3-57c-.2-39.7 0-59.3.9-64.5 3.7-24.1 18.5-42.1 41.4-50.2 7.6-2.8 8.7-2.9 21-2.5 9.7.4 14.5 1 18.7 2.5M160 308v87h-15v-15c0-16.3-.8-19.7-5.3-23.8-3.3-3.1-9.4-3.9-13.5-1.8-6 3.1-6.6 5.3-7.2 23.6l-.5 16.5-8.2.3-8.3.3V221h58zm217.8-.3-.3 86.8-7.7.3-7.6.3-.4-17c-.3-16.5-.4-17-2.8-19.6-6.5-7-14.4-7.2-20.5-.5-1.8 2-2.1 4-2.5 19.4l-.5 17.1-7.7.3-7.8.3V221h58zm61.7-42.2c11.2 6.5 16.1 17.7 15.3 35.1-.4 9.4-.8 11-4.2 17.8-3.9 8-9.3 13.4-15.3 15.4l-3.3 1.1v-3.6c0-3.2.8-4.4 6-9.4 4.4-4.1 6-6.4 6-8.3 0-4.5-2.7-4.3-7.6.5-5.1 5-4.6 5.8-4.9-8.9-.2-9.1-1.1-11-4.4-9.3-2 1.1-2.1 1.9-2.1 19.6 0 21.3.1 21.1-8.6 15.2-9.8-6.5-14.9-18.1-14.8-33.7 0-11.4 2.3-18.4 8.5-25.4 8.5-9.7 19.5-11.9 29.4-6.1M245 359.3c4.8 2.4 6 6.8 6 21.9V395h-10.4c-9.1 0-10.5-.2-11-1.8-.3-.9-.4-8-.2-15.7l.4-14 3.1-2.7c3.4-3.1 7.9-3.6 12.1-1.5m-41.5 3.1c1.2 1.8 1.6 5.7 1.8 17.2l.2 14.9h-12l-.3-14.6c-.2-13.5-.1-14.8 1.8-17.2 2.7-3.4 6.4-3.5 8.5-.3m80.9-.8c2.4 2.4 2.7 4.7 2.4 19.4l-.3 13.5-5.6.3-5.7.3-.5-4.3c-.3-2.4-.4-9.4-.2-15.6.2-9.1.6-11.7 2-13.2 2.2-2.4 5.8-2.6 7.9-.4m-148 1.6c1.1 1.7 1.5 6.1 1.7 16.8l.2 14.5h-12.8l.1-4c.1-2.2.2-9 .3-15.2.1-12.4 1-14.3 6.1-14.3 2 0 3.5.8 4.4 2.2m216.5.4c1.9 2.4 2.1 4 2.1 17V395h-13v-14.8c0-11.7.3-15.2 1.6-17 2.2-3.1 6.7-2.9 9.3.4" />
    <path
      d="M188 160c-.6 1.2-.9 8-.8 17.7l.3 15.8h6l.3-16.4c.3-16.4-.2-19.1-3.4-19.1-.7 0-1.8.9-2.4 2M288.7 159.1c-1.5.9-1.7 2.9-1.7 17.9v17h6v-16.9c0-17.7-.6-20-4.3-18M343.4 174c-1.2.4-3.1 2.1-4.3 3.6-2 2.5-2.1 3.7-1.9 16.3l.3 13.6h2.5c2.5 0 2.5-.1 2.7-10 .3-11.6.7-13.8 2.9-15.9 2.1-2.1 4-2 6.4.4 1.7 1.7 2 3.3 2 12.7 0 11.5.6 13.7 3.6 13.1 2.7-.5 3.5-7.1 2.5-19.2-.8-9.5-1-10.1-4-12.8-3.3-2.9-8.2-3.6-12.7-1.8M124.4 175.8c-3.8 3-4.4 5.6-4.4 19.2 0 10.7.3 13.2 1.5 13.6 3.4 1.4 4.5-1.5 4.5-11.7 0-10.7.9-14.2 3.9-15.8 1.5-.8 2.4-.6 4.2.8 2.2 1.8 2.4 2.8 2.7 13.5.4 12.2 1.5 15.2 4.7 12.6 1.2-1 1.5-3.8 1.5-13.2 0-12.7-1-16.3-5.2-19.2-3-2.1-10.7-2-13.4.2M227 232.4c-17.8 3.9-33.8 21.2-37.1 40.2-1.5 8.5-.6 20.1 2.1 27.8 5.3 15.4 18.8 28 34.5 32.1 6.8 1.7 18.9 1.9 25.5.4 18.8-4.3 34.7-21.5 38.1-41.3 6.5-37.6-25.4-67.5-63.1-59.2m31.4 9.5c31 15.2 35.1 55.1 7.9 76.6-8.4 6.6-16.7 8.9-29.1 8.2-8.3-.5-10.5-1-16.8-4.1-16.8-8.3-27.2-27.9-24.3-45.7 2-12.4 7.4-22 16.1-29 10.4-8.2 16-10 29.5-9.6 9.1.3 10.9.7 16.7 3.6" />
    <path
      d="M238.2 247.2c-.7.7-1.2 4.2-1.2 8.7 0 10.9-.9 11.4-5.9 3.7-2.4-3.6-4.9-7-5.6-7.6-1.6-1.4-5.5-.4-5.5 1.3 0 .7 2.3 4.8 5.1 9.1 3.7 5.8 4.7 8.1 3.8 8.7-.7.4-1.8.5-2.4.1-.5-.3-3.6-2.3-6.7-4.4-5.8-3.9-8.2-4.6-9.3-2.8-1.4 2.3.9 5 7.5 9 9.6 5.8 9.2 6.9-2.2 7.2-9.3.3-9.3.3-9.6 3-.3 2.3.1 2.8 3 3.2 1.8.4 5.8.7 8.8.9 7.3.3 7.2 2.1-.3 6.1-5.8 3.1-8.1 6.6-5.9 8.8 1.3 1.3 3.7.5 10-3.6 4.5-3 8.2-3.8 8.2-1.8 0 .3-2.1 3.5-4.6 7.2-4 5.9-4.4 7-3.4 8.9.6 1.2 1.7 2.1 2.3 1.8.7-.2 3.4-3.2 6-6.8 2.7-3.5 5.2-6.5 5.7-6.7s1.1 3.9 1.2 9c.3 8.7.4 9.3 2.5 9.6 2.7.4 3.2-1.2 3.5-11.8.4-9.3 1.7-9.7 6.1-1.6 4.1 7.3 6 8.7 8.4 6.3 1.7-1.7 1.7-2-.6-6-1.4-2.3-3.2-5.4-4-6.9-1.3-2.2-1.3-3-.3-4s1.6-1 3-.1c7.1 5 12.6 7.5 14.1 6.6 3.7-2.3 2.4-4.7-5-8.8-4-2.2-7.1-4.5-7.1-5 .1-.6 3.8-1.3 8.3-1.7 8.5-.7 10.5-1.8 8.8-5-.8-1.5-2.3-1.8-8.9-1.8-11 0-11.4-1.2-1.9-7.3 6.6-4.1 7.3-5 6.5-8.3-.9-3.4-2.8-3-9.3 2-7 5.2-9.8 6.3-10.7 4-.4-1 .5-2.9 2.4-5 3-3.4 7-10.5 7-12.3 0-.5-.7-1.2-1.7-1.5-2-.8-6.2 3.1-10.4 9.6-1.7 2.6-3.5 4.5-4 4.2s-.9-4.1-.9-8.4-.3-8.5-.6-9.4c-.7-1.9-2.5-2.1-4.2-.4m6.9 26.8c2.2 1.3 4.9 6.1 4.9 9 0 3.5-2.7 7.6-5.9 9-9.8 4-17.7-8.5-10.2-16.1 3.1-3.1 7.5-3.8 11.2-1.9" />
    <path
      d="M237.4 280.6c-1.6 2.4-1.6 2.6.5 4.7 1.7 1.7 2.5 1.9 3.9 1.1 2.1-1.4 2.8-5 1.2-7-1.8-2.1-3.7-1.7-5.6 1.2M126 251.7c-1.9 1-4.5 3.3-5.7 5.2-2.3 3.3-2.3 3.8-2.3 34.6 0 27.3.2 31.4 1.6 32.6 1.1.9 2 1 3.2.2 1.5-.9 1.8-4.5 2.2-32.2l.5-31.3 2.4-1.9c3-2.5 4.4-2.4 7.8.5l2.8 2.4v30.6c0 32.1.4 34.4 4.3 32 1.5-1 1.7-4.1 2-32.3.3-33.8-.1-36.3-5.2-39.6-3.9-2.6-9.5-2.9-13.6-.8M342 251.8c-6.8 3.6-7 4.9-7 40.4 0 20.2.4 31.9 1 32.3.6.3 1.9.3 3 0 1.9-.6 2-1.6 2-31.1v-30.6l2.9-2.8c3.2-3.2 5.8-3.1 8.8.2 1.6 1.8 1.8 4.9 2.3 32.4.5 31.8.9 34.2 4.8 31.8 1.5-1 1.7-4 2-31.4.2-28.7.1-30.5-1.8-34.4-3.8-7.6-11.3-10.5-18-6.8M132.4 453.2c.4 1.8 4.4 13.6 8.9 26.3l8.2 23 6.1.3c5.2.2 6.3 0 6.9-1.5 2.6-6.6 17.5-49.3 17.5-50.2 0-.7-2.1-1.1-5.3-1.1-6.4 0-5.6-1.4-12.7 21.1-2.8 9-5.3 16.5-5.5 16.7-.6.6-1.3-1.3-7.6-20.1-2.9-8.3-5.6-15.8-6.2-16.5-.5-.7-3.1-1.2-5.9-1.2h-5zM192.2 450.7l-2.2.4.2 25.7.3 25.7 5.3.3 5.2.3-.2-26.3-.3-26.3-3-.1c-1.6-.1-4 0-5.3.3M227.2 460.2c-8.9 22.8-16.2 41.7-16.2 42.3 0 .3 2.6.5 5.7.3l5.8-.3 1.9-5.3 1.9-5.3 10.5.3 10.4.3 2 5.2 1.9 5.3h11.6l-6.4-16.8c-3.5-9.2-8.1-21-10.1-26.2l-3.8-9.5-5.6-.3-5.5-.3zm12.9 12.8c1.6 4.1 2.9 7.8 2.9 8.2 0 .5-2.9.8-6.5.8s-6.5-.3-6.5-.7c0-2 5.6-16.3 6.3-16 .5.1 2.2 3.6 3.8 7.7M272.7 450.7c-.4.3-.7 12.3-.7 26.5V503h10v-16.6c0-11.6.3-16.5 1.1-16.2.6.2 5.7 7.6 11.4 16.3l10.3 16 5.6.3 5.6.3-.2-26.3-.3-26.3h-10l-.5 16.4-.5 16.4-9.4-14.4C283 450.4 282.7 450 277.5 450c-2.3 0-4.5.3-4.8.7M340.7 459.7c-1.9 5.4-6.3 17-9.6 25.8-3.4 8.7-6.1 16.3-6.1 16.8 0 .4 2.4.7 5.2.5 5.2-.3 5.3-.4 6.8-4.5.9-2.4 2-4.7 2.6-5.3.7-.7 5-1 11-.8l9.8.3 2.1 5.2 2 5.3H376l-2.7-7.3c-1.5-3.9-6.1-15.8-10.2-26.2l-7.6-19-5.6-.3-5.6-.3zm12.8 12.6c1.6 4.5 3.1 8.5 3.3 8.9.2.5-2.6.8-6.2.8s-6.6-.3-6.6-.8c-.1-1.3 5.5-17.2 6-17.2.3 0 1.8 3.7 3.5 8.3" />
  </g>
</svg>